<?xml version="1.0" encoding="utf-8"?>
<!-- Generator: Adobe Illustrator 24.2.0, SVG Export Plug-In . SVG Version: 6.00 Build 0)  -->
<svg version="1.1" xmlns="http://www.w3.org/2000/svg" xmlns:xlink="http://www.w3.org/1999/xlink" x="0px" y="0px"
	 viewBox="0 0 300 300" style="enable-background:new 0 0 300 300;" xml:space="preserve">
<style type="text/css">
	.st0{fill:#E5E5E5;}
	.st1{fill:#D0D2D3;}
	.st2{fill:#FFFFFF;}
	.st3{fill:#EDEDED;}
	.st4{fill:#D0D2D3;stroke:#EFEFEF;stroke-width:2;stroke-miterlimit:10;}
	.st5{fill:#F4F4F4;}
	.st6{fill:#C6C6C6;}
	.st7{fill:#A5A5A5;}
	.st8{fill:#E7E7E7;}
	.st9{fill:none;stroke:#D1D1D1;stroke-width:0.3;stroke-miterlimit:10;}
</style>
<g id="Layer_1">
	<path class="st0" d="M88.5,98.1L88.5,98.1c-1.4,0-2.5-1.1-2.5-2.5V80.5c0-1.4,1.1-2.5,2.5-2.5l0,0c1.4,0,2.5,1.1,2.5,2.5v15.1
		C91,96.9,89.9,98.1,88.5,98.1z"/>
	<path class="st0" d="M211.5,98.1L211.5,98.1c-1.4,0-2.5-1.1-2.5-2.5V80.5c0-1.4,1.1-2.5,2.5-2.5l0,0c1.4,0,2.5,1.1,2.5,2.5v15.1
		C214,96.9,212.9,98.1,211.5,98.1z"/>
	<path class="st0" d="M88.5,66.1L88.5,66.1c-1.4,0-2.5-1.1-2.5-2.5V58c0-1.4,1.1-2.5,2.5-2.5l0,0c1.4,0,2.5,1.1,2.5,2.5v5.6
		C91,65,89.9,66.1,88.5,66.1z"/>
	<path class="st0" d="M88.5,122L88.5,122c-1.4,0-2.5-1.1-2.5-2.5v-15.1c0-1.4,1.1-2.5,2.5-2.5l0,0c1.4,0,2.5,1.1,2.5,2.5v15.1
		C91,120.9,89.9,122,88.5,122z"/>
	<path class="st1" d="M198,272.1h-96c-7.8,0-14.1-6.3-14.1-14.1V42c0-7.8,6.3-14.1,14.1-14.1h96c7.8,0,14.1,6.3,14.1,14.1v216.1
		C212.1,265.8,205.8,272.1,198,272.1z"/>
	<rect x="94.1" y="49" class="st2" width="111.8" height="195"/>
	<path class="st3" d="M166.6,40h-23c-1.1,0-2-0.9-2-2l0,0c0-1.1,0.9-2,2-2h23c1.1,0,2,0.9,2,2l0,0C168.6,39.1,167.6,40,166.6,40z"/>
	<path class="st3" d="M135.6,40h-2.1c-1.1,0-2-0.9-2-2l0,0c0-1.1,0.9-2,2-2h2.1c1.1,0,2,0.9,2,2l0,0C137.6,39.1,136.6,40,135.6,40z"
		/>
	<circle class="st4" cx="150" cy="258" r="8"/>
	<rect x="94.1" y="49" class="st5" width="111.8" height="106.9"/>
	<rect x="94.1" y="167.8" class="st5" width="111.8" height="76.4"/>
	<path class="st6" d="M130.1,134.7h41.5c1.1,0,2,0.9,2,2v0c0,1.1-0.9,2-2,2h-41.5c-1.1,0-2-0.9-2-2v0
		C128.1,135.6,129,134.7,130.1,134.7z"/>
	<path class="st7" d="M121,124.6h59.7c1.1,0,2,0.9,2,2v0c0,1.1-0.9,2-2,2H121c-1.1,0-2-0.9-2-2v0C119,125.5,119.9,124.6,121,124.6z"
		/>
	<path class="st7" d="M103.9,233l12.4,0c1.1,0,2,0.9,2,2v0c0,1.1-0.9,2-2,2l-12.4,0c-1.1,0-2-0.9-2-2v0
		C102,233.9,102.9,233,103.9,233z"/>
	<path class="st7" d="M103.9,55.5l25.6,0c1.1,0,2,0.9,2,2v0c0,1.1-0.9,2-2,2l-25.6,0c-1.1,0-2-0.9-2-2v0
		C102,56.4,102.9,55.5,103.9,55.5z"/>
	<path class="st7" d="M130.7,233l12.4,0c1.1,0,2,0.9,2,2v0c0,1.1-0.9,2-2,2l-12.4,0c-1.1,0-2-0.9-2-2v0
		C128.7,233.9,129.6,233,130.7,233z"/>
	<path class="st7" d="M157.5,233l12.4,0c1.1,0,2,0.9,2,2v0c0,1.1-0.9,2-2,2l-12.4,0c-1.1,0-2-0.9-2-2v0
		C155.5,233.9,156.4,233,157.5,233z"/>
	<path class="st7" d="M184.2,233l12.4,0c1.1,0,2,0.9,2,2v0c0,1.1-0.9,2-2,2l-12.4,0c-1.1,0-2-0.9-2-2v0
		C182.2,233.9,183.1,233,184.2,233z"/>
	<g>
		<path class="st6" d="M117.4,177.2c0-0.6,0.5-1,1-1h63.3c0.5,0,1,0.4,1,1v17.3c0,0.6-0.5,1-1,1h-63.3c-0.5,0-1-0.4-1-1V177.2z"/>
	</g>
</g>
<g id="Layer_2">
</g>
</svg>
