<?xml version="1.0" encoding="utf-8"?>
<!-- Generator: Adobe Illustrator 24.2.0, SVG Export Plug-In . SVG Version: 6.00 Build 0)  -->
<svg version="1.1" id="Layer_1" xmlns="http://www.w3.org/2000/svg" xmlns:xlink="http://www.w3.org/1999/xlink" x="0px" y="0px"
	 viewBox="0 0 300 300" style="enable-background:new 0 0 300 300;" xml:space="preserve">
<style type="text/css">
	.st0{fill:#E5E5E5;}
	.st1{fill:#D0D2D3;}
	.st2{fill:#FFFFFF;}
	.st3{fill:#EDEDED;}
	.st4{fill:#D0D2D3;stroke:#EFEFEF;stroke-width:2;stroke-miterlimit:10;}
	.st5{fill:#E0E0E0;}
	.st6{fill:#C6C6C6;}
	.st7{fill:#E7E7E7;}
	.st8{fill:none;stroke:#D1D1D1;stroke-width:0.3;stroke-miterlimit:10;}
	.st9{clip-path:url(#SVGID_2_);}
	.st10{fill:#F7F7F7;}
</style>
<path class="st0" d="M88.5,98.1L88.5,98.1c-1.4,0-2.5-1.1-2.5-2.5V80.5c0-1.4,1.1-2.5,2.5-2.5l0,0c1.4,0,2.5,1.1,2.5,2.5v15.1
	C91,96.9,89.9,98.1,88.5,98.1z"/>
<path class="st0" d="M211.5,98.1L211.5,98.1c-1.4,0-2.5-1.1-2.5-2.5V80.5c0-1.4,1.1-2.5,2.5-2.5l0,0c1.4,0,2.5,1.1,2.5,2.5v15.1
	C214,96.9,212.9,98.1,211.5,98.1z"/>
<path class="st0" d="M88.5,66.1L88.5,66.1c-1.4,0-2.5-1.1-2.5-2.5V58c0-1.4,1.1-2.5,2.5-2.5l0,0c1.4,0,2.5,1.1,2.5,2.5v5.6
	C91,65,89.9,66.1,88.5,66.1z"/>
<path class="st0" d="M88.5,122L88.5,122c-1.4,0-2.5-1.1-2.5-2.5v-15.1c0-1.4,1.1-2.5,2.5-2.5l0,0c1.4,0,2.5,1.1,2.5,2.5v15.1
	C91,120.9,89.9,122,88.5,122z"/>
<path class="st1" d="M198,272.1h-96c-7.8,0-14.1-6.3-14.1-14.1V42c0-7.8,6.3-14.1,14.1-14.1h96c7.8,0,14.1,6.3,14.1,14.1v216.1
	C212.1,265.8,205.8,272.1,198,272.1z"/>
<rect x="94.1" y="49" class="st2" width="111.8" height="195"/>
<path class="st3" d="M166.6,40h-23c-1.1,0-2-0.9-2-2l0,0c0-1.1,0.9-2,2-2h23c1.1,0,2,0.9,2,2l0,0C168.6,39.1,167.6,40,166.6,40z"/>
<path class="st3" d="M135.6,40h-2.1c-1.1,0-2-0.9-2-2l0,0c0-1.1,0.9-2,2-2h2.1c1.1,0,2,0.9,2,2l0,0C137.6,39.1,136.6,40,135.6,40z"
	/>
<circle class="st4" cx="150" cy="258" r="8"/>
<rect x="94.1" y="48.8" class="st5" width="111.8" height="23.8"/>
<rect x="98.7" y="53.5" class="st2" width="103.5" height="14.2"/>
<g>
	<g>
		<path class="st6" d="M175.5,161.3H134c-1.1,0-2-0.9-2-2l0,0c0-1.1,0.9-2,2-2h41.5c1.1,0,2,0.9,2,2l0,0
			C177.5,160.4,176.6,161.3,175.5,161.3z"/>
		<path class="st7" d="M193.7,171.3H134c-1.1,0-2-0.9-2-2l0,0c0-1.1,0.9-2,2-2h59.7c1.1,0,2,0.9,2,2l0,0
			C195.7,170.4,194.8,171.3,193.7,171.3z"/>
	</g>
	<g>
		<path class="st7" d="M104.5,155.7c0-0.6,0.4-1,1-1h19.4c0.6,0,1,0.4,1,1V173c0,0.6-0.4,1-1,1h-19.4c-0.6,0-1-0.4-1-1V155.7z"/>
	</g>
</g>
<g>
	<g>
		<path class="st6" d="M175.5,197.8H134c-1.1,0-2-0.9-2-2l0,0c0-1.1,0.9-2,2-2h41.5c1.1,0,2,0.9,2,2l0,0
			C177.5,196.9,176.6,197.8,175.5,197.8z"/>
		<path class="st7" d="M193.7,207.8H134c-1.1,0-2-0.9-2-2l0,0c0-1.1,0.9-2,2-2h59.7c1.1,0,2,0.9,2,2l0,0
			C195.7,206.9,194.8,207.8,193.7,207.8z"/>
	</g>
	<g>
		<path class="st7" d="M104.5,192.1c0-0.5,0.4-1,1-1h19.4c0.6,0,1,0.5,1,1v17.3c0,0.6-0.4,1-1,1h-19.4c-0.6,0-1-0.4-1-1V192.1z"/>
	</g>
</g>
<line class="st8" x1="94.1" y1="182.4" x2="205.9" y2="182.4"/>
<line class="st8" x1="94.1" y1="219.2" x2="205.9" y2="219.2"/>
<g>
	<defs>
		<rect id="SVGID_1_" x="94" y="72.6" width="111.9" height="73.9"/>
	</defs>
	<clipPath id="SVGID_2_">
		<use xlink:href="#SVGID_1_"  style="overflow:visible;"/>
	</clipPath>
	<g class="st9">
		<path class="st10" d="M104.8,89.6c8-8.3,16.6-16.4,25.4-24.3H86.5v44.5C92.4,103,98.4,96.2,104.8,89.6z"/>
		<path class="st10" d="M99.9,132.2c-4.5,0.7-8.9,1.5-13.4,2.4V200c5.7-3.7,11.3-7.4,16.9-11.1c13-8.5,26.3-16.7,40.1-24.6
			C129.2,153.4,114.5,142.9,99.9,132.2z"/>
		<path class="st10" d="M169.8,122c-21.4,3.6-43.2,6-64.7,9.3c14.1,10.3,28.2,20.5,42,30.9c3.6-2,7.3-4.1,10.9-6.1
			c18.6-10.1,37.5-20,56.3-29.9v-11C199.4,117.4,184.5,119.5,169.8,122z"/>
		<path class="st10" d="M119.3,95.4c-5.8,1.1-11.7,2.2-17.6,3.3c-5.2,5.7-10.3,11.5-15.3,17.4v15.2c15.3-2.9,30.9-5.1,46.5-7.2
			C128.5,114.5,125.1,104.7,119.3,95.4z"/>
		<path class="st10" d="M209,90.3c-3.4-3.1-6.7-6.3-9.9-9.5c-7.7,1.4-15.4,2.7-23.1,4.1c4.7,10.8,7.3,20.8,9.7,31.4
			c9.5-1.5,19-2.8,28.6-4.2V95C212.5,93.4,210.7,91.9,209,90.3z"/>
		<path class="st10" d="M171.4,85.7c-15.9,2.8-31.7,5.8-47.6,8.9c5.8,9.4,9.2,19.2,13.7,28.9c11.1-1.5,22.1-3,33.1-4.8
			c3.5-0.6,7-1.1,10.5-1.7C176.7,104.3,175.9,97,171.4,85.7z"/>
		<path class="st10" d="M170.1,82.7c8.7-1.5,17.5-3.1,26.2-4.6c-4.3-4.3-8.6-8.6-13-12.8h-47.5c-8.9,8.1-17.8,16.3-25.9,24.7
			c-1.5,1.6-3,3.2-4.5,4.8C127,90.7,148.5,86.6,170.1,82.7z"/>
		<path class="st10" d="M124.5,179.8c-6.5,4-12.9,8.1-19.2,12.3c-6.3,4.1-12.5,8.3-18.8,12.3v29.2H175
			C158,215.7,140.8,198,124.5,179.8z"/>
		<path class="st10" d="M158,160.5c-0.1-0.1-0.1-0.1-0.2-0.2c-10.2,5.6-20.1,11.4-29.8,17.3c0.2,0.1,0.4,0.2,0.6,0.4
			c16.8,18.8,34.6,37.1,52.1,55.5h33.7v-19.9C196.1,195.7,177.9,177.7,158,160.5z"/>
		<path class="st10" d="M214.3,208.2v-78c-17.7,9.3-35.5,18.6-53,28.1C180.1,174.5,197.2,191.3,214.3,208.2z"/>
		<path class="st10" d="M214.2,89.8C214.3,89.9,214.3,89.9,214.2,89.8l0.1-24.6H189C197.4,73.5,205.4,81.9,214.2,89.8z"/>
	</g>
</g>
</svg>
