<?xml version="1.0" encoding="utf-8"?>
<!-- Generator: Adobe Illustrator 24.2.0, SVG Export Plug-In . SVG Version: 6.00 Build 0)  -->
<svg version="1.1" xmlns="http://www.w3.org/2000/svg" xmlns:xlink="http://www.w3.org/1999/xlink" x="0px" y="0px"
	 viewBox="0 0 300 300" style="enable-background:new 0 0 300 300;" xml:space="preserve">
<style type="text/css">
	.st0{fill:#999999;}
	.st1{fill:#D6D6D6;}
	.st2{fill:#F6F6F6;}
	.st3{fill:#E5E5E5;}
	.st4{fill:#D0D2D3;}
	.st5{fill:#FFFFFF;}
	.st6{fill:#EDEDED;}
	.st7{fill:#D0D2D3;stroke:#EFEFEF;stroke-width:2;stroke-miterlimit:10;}
	.st8{fill:#EFEFEF;}
	.st9{fill:#F0F0F0;}
	.st10{fill:#BDBDBD;}
	.st11{fill:#E8E8E8;}
	.st12{fill:none;stroke:#CECECE;stroke-width:0.5;stroke-miterlimit:10;}
</style>
<g id="Layer_1">
	<path class="st3" d="M88.5,98.05L88.5,98.05c-1.38,0-2.5-1.12-2.5-2.5V80.5c0-1.38,1.12-2.5,2.5-2.5l0,0c1.38,0,2.5,1.12,2.5,2.5
		v15.05C91,96.93,89.88,98.05,88.5,98.05z"/>
	<path class="st3" d="M211.5,98.05L211.5,98.05c-1.38,0-2.5-1.12-2.5-2.5V80.5c0-1.38,1.12-2.5,2.5-2.5l0,0c1.38,0,2.5,1.12,2.5,2.5
		v15.05C214,96.93,212.88,98.05,211.5,98.05z"/>
	<path class="st3" d="M88.5,66.09L88.5,66.09c-1.38,0-2.5-1.12-2.5-2.5v-5.63c0-1.38,1.12-2.5,2.5-2.5h0c1.38,0,2.5,1.12,2.5,2.5
		v5.63C91,64.98,89.88,66.09,88.5,66.09z"/>
	<path class="st3" d="M88.5,122L88.5,122c-1.38,0-2.5-1.12-2.5-2.5v-15.05c0-1.38,1.12-2.5,2.5-2.5l0,0c1.38,0,2.5,1.12,2.5,2.5
		v15.05C91,120.88,89.88,122,88.5,122z"/>
	<path class="st4" d="M197.99,272.12h-95.98c-7.77,0-14.07-6.3-14.07-14.07V41.95c0-7.77,6.3-14.07,14.07-14.07h95.98
		c7.77,0,14.07,6.3,14.07,14.07v216.11C212.06,265.83,205.76,272.12,197.99,272.12z"/>
	<rect x="94.1" y="49" class="st5" width="111.8" height="195"/>
	<path class="st6" d="M166.55,40h-23c-1.1,0-2-0.9-2-2v0c0-1.1,0.9-2,2-2h23c1.1,0,2,0.9,2,2v0C168.55,39.1,167.65,40,166.55,40z"/>
	<path class="st6" d="M135.55,40h-2.1c-1.1,0-2-0.9-2-2v0c0-1.1,0.9-2,2-2h2.1c1.1,0,2,0.9,2,2v0C137.55,39.1,136.65,40,135.55,40z"
		/>
	<circle class="st7" cx="150" cy="258" r="8"/>
	<rect x="94.1" y="49" class="st8" width="111.8" height="17"/>
	<path class="st9" d="M139,87h-37c-1.1,0-2-0.9-2-2v0c0-1.1,0.9-2,2-2h37c1.1,0,2,0.9,2,2v0C141,86.1,140.1,87,139,87z"/>
	<path class="st10" d="M197,87h-26.45c-1.1,0-2-0.9-2-2v0c0-1.1,0.9-2,2-2H197c1.1,0,2,0.9,2,2v0C199,86.1,198.1,87,197,87z"/>
	<rect x="100" y="104" class="st9" width="21" height="21"/>
	<rect x="126.25" y="104" class="st9" width="21" height="21"/>
	<rect x="152.5" y="104" class="st9" width="21" height="21"/>
	<rect x="178.75" y="104" class="st10" width="21" height="21"/>
	<rect x="100" y="131" class="st9" width="21" height="21"/>
	<rect x="126.25" y="131" class="st9" width="21" height="21"/>
	<rect x="152.5" y="131" class="st9" width="21" height="21"/>
	<rect x="178.75" y="131" class="st10" width="21" height="21"/>
	<rect x="100" y="158" class="st9" width="21" height="21"/>
	<rect x="126.25" y="158" class="st9" width="21" height="21"/>
	<rect x="152.5" y="158" class="st9" width="21" height="21"/>
	<rect x="178.75" y="158" class="st10" width="21" height="21"/>
	<rect x="100" y="185" class="st9" width="21" height="21"/>
	<rect x="126.25" y="185" class="st9" width="21" height="21"/>
	<rect x="152.5" y="185" class="st9" width="21" height="21"/>
	<rect x="178.75" y="185" class="st10" width="21" height="21"/>
	<rect x="100" y="212" class="st9" width="21" height="21"/>
	<rect x="126.25" y="212" class="st9" width="21" height="21"/>
	<rect x="152.5" y="212" class="st9" width="21" height="21"/>
	<rect x="178.75" y="212" class="st10" width="21" height="21"/>
</g>
<g id="Layer_2">
</g>
<g id="Layer_3">
</g>
</svg>
