<?xml version="1.0" encoding="utf-8"?>
<!-- Generator: Adobe Illustrator 24.2.0, SVG Export Plug-In . SVG Version: 6.00 Build 0)  -->
<svg version="1.1" xmlns="http://www.w3.org/2000/svg" xmlns:xlink="http://www.w3.org/1999/xlink" x="0px" y="0px"
	 viewBox="0 0 300 300" style="enable-background:new 0 0 300 300;" xml:space="preserve">
<style type="text/css">
	.st0{fill:#999999;}
	.st1{fill:#D6D6D6;}
	.st2{fill:#F6F6F6;}
	.st3{fill:#E5E5E5;}
	.st4{fill:#D0D2D3;}
	.st5{fill:#FFFFFF;}
	.st6{fill:#EDEDED;}
	.st7{fill:#D0D2D3;stroke:#EFEFEF;stroke-width:2;stroke-miterlimit:10;}
	.st8{fill:#BDBDBD;}
	.st9{fill:#E8E8E8;}
	.st10{fill:#F0F0F0;}
	.st11{fill:none;stroke:#CECECE;stroke-width:0.5;stroke-miterlimit:10;}
	.st12{fill:#EFEFEF;}
</style>
<g id="Layer_1">
	<g>
		<g>
			<path class="st3" d="M88.5,98.05L88.5,98.05c-1.38,0-2.5-1.12-2.5-2.5V80.5c0-1.38,1.12-2.5,2.5-2.5l0,0c1.38,0,2.5,1.12,2.5,2.5
				v15.05C91,96.93,89.88,98.05,88.5,98.05z"/>
			<path class="st3" d="M211.5,98.05L211.5,98.05c-1.38,0-2.5-1.12-2.5-2.5V80.5c0-1.38,1.12-2.5,2.5-2.5l0,0
				c1.38,0,2.5,1.12,2.5,2.5v15.05C214,96.93,212.88,98.05,211.5,98.05z"/>
			<path class="st3" d="M88.5,66.09L88.5,66.09c-1.38,0-2.5-1.12-2.5-2.5v-5.63c0-1.38,1.12-2.5,2.5-2.5h0c1.38,0,2.5,1.12,2.5,2.5
				v5.63C91,64.98,89.88,66.09,88.5,66.09z"/>
			<path class="st3" d="M88.5,122L88.5,122c-1.38,0-2.5-1.12-2.5-2.5v-15.05c0-1.38,1.12-2.5,2.5-2.5l0,0c1.38,0,2.5,1.12,2.5,2.5
				v15.05C91,120.88,89.88,122,88.5,122z"/>
			<path class="st4" d="M197.99,272.12h-95.98c-7.77,0-14.07-6.3-14.07-14.07V41.95c0-7.77,6.3-14.07,14.07-14.07h95.98
				c7.77,0,14.07,6.3,14.07,14.07v216.11C212.06,265.83,205.76,272.12,197.99,272.12z"/>
		</g>
		<rect x="94.1" y="49" class="st5" width="111.8" height="195"/>
		<g>
			<path class="st6" d="M166.55,40h-23c-1.1,0-2-0.9-2-2v0c0-1.1,0.9-2,2-2h23c1.1,0,2,0.9,2,2v0C168.55,39.1,167.65,40,166.55,40z"
				/>
			<path class="st6" d="M135.55,40h-2.1c-1.1,0-2-0.9-2-2v0c0-1.1,0.9-2,2-2h2.1c1.1,0,2,0.9,2,2v0C137.55,39.1,136.65,40,135.55,40
				z"/>
		</g>
		<circle class="st7" cx="150" cy="258" r="8"/>
		<path class="st8" d="M187.22,76h-37c-1.1,0-2-0.9-2-2v0c0-1.1,0.9-2,2-2h37c1.1,0,2,0.9,2,2v0C189.22,75.1,188.32,76,187.22,76z"
			/>
		<path class="st8" d="M195.25,84h-45.03c-1.1,0-2-0.9-2-2l0,0c0-1.1,0.9-2,2-2h45.03c1.1,0,2,0.9,2,2l0,0
			C197.25,83.1,196.36,84,195.25,84z"/>
		<path class="st9" d="M124.88,124h-12.57c-1.1,0-2-0.9-2-2l0,0c0-1.1,0.9-2,2-2h12.57c1.1,0,2,0.9,2,2l0,0
			C126.88,123.1,125.99,124,124.88,124z"/>
		<path class="st9" d="M155.88,124h-12.57c-1.1,0-2-0.9-2-2l0,0c0-1.1,0.9-2,2-2h12.57c1.1,0,2,0.9,2,2l0,0
			C157.88,123.1,156.99,124,155.88,124z"/>
		<path class="st9" d="M188.88,124h-12.57c-1.1,0-2-0.9-2-2l0,0c0-1.1,0.9-2,2-2h12.57c1.1,0,2,0.9,2,2l0,0
			C190.88,123.1,189.99,124,188.88,124z"/>
		<path class="st8" d="M137.87,103h-30.24c-2.7,0-4.88-2.18-4.88-4.88V67.88c0-2.7,2.18-4.88,4.88-4.88h30.24
			c2.7,0,4.88,2.18,4.88,4.88v30.24C142.75,100.82,140.56,103,137.87,103z"/>
		<rect x="102.75" y="142" class="st10" width="40" height="102"/>
		<rect x="148.75" y="142" class="st10" width="49" height="102"/>
		<rect x="102.75" y="114" class="st11" width="95" height="15"/>
		<line class="st11" x1="132.45" y1="113.89" x2="132.45" y2="129"/>
		<line class="st11" x1="166.45" y1="113.89" x2="166.45" y2="129"/>
		<rect x="94.1" y="49" class="st12" width="111.8" height="6"/>
	</g>
</g>
<g id="Layer_2">
</g>
<g id="Layer_3">
</g>
</svg>
