<?xml version="1.0" encoding="utf-8"?>
<!-- Generator: Adobe Illustrator 24.2.0, SVG Export Plug-In . SVG Version: 6.00 Build 0)  -->
<svg version="1.1" xmlns="http://www.w3.org/2000/svg" xmlns:xlink="http://www.w3.org/1999/xlink" x="0px" y="0px"
	 viewBox="0 0 300 300" style="enable-background:new 0 0 300 300;" xml:space="preserve">
<style type="text/css">
	.st0{fill:#999999;}
	.st1{fill:#D6D6D6;}
	.st2{fill:#F6F6F6;}
	.st3{fill:#E5E5E5;}
	.st4{fill:#D0D2D3;}
	.st5{fill:#FFFFFF;}
	.st6{fill:#EDEDED;}
	.st7{fill:#D0D2D3;stroke:#EFEFEF;stroke-width:2;stroke-miterlimit:10;}
	.st8{fill:#E8E8E8;}
	.st9{fill:#BDBDBD;}
	.st10{fill:#F0F0F0;}
	.st11{fill:none;stroke:#CECECE;stroke-width:0.5;stroke-miterlimit:10;}
	.st12{fill:#EFEFEF;}
	.st13{fill:none;stroke:#999999;stroke-miterlimit:10;}
	.st14{fill:#EAEAEA;}
	.st15{fill:none;stroke:#606060;stroke-miterlimit:10;}
	.st16{fill:#DDDDDD;}
	.st17{fill:#F7F7F7;}
	.st18{fill:#848484;}
	.st19{fill:#3D3D3D;}
	.st20{fill:#303030;}
</style>
<g id="Layer_1">
	<g>
		<path class="st3" d="M88.5,98.05L88.5,98.05c-1.38,0-2.5-1.12-2.5-2.5V80.5c0-1.38,1.12-2.5,2.5-2.5l0,0c1.38,0,2.5,1.12,2.5,2.5
			v15.05C91,96.93,89.88,98.05,88.5,98.05z"/>
		<path class="st3" d="M211.5,98.05L211.5,98.05c-1.38,0-2.5-1.12-2.5-2.5V80.5c0-1.38,1.12-2.5,2.5-2.5l0,0
			c1.38,0,2.5,1.12,2.5,2.5v15.05C214,96.93,212.88,98.05,211.5,98.05z"/>
		<path class="st3" d="M88.5,66.09L88.5,66.09c-1.38,0-2.5-1.12-2.5-2.5v-5.63c0-1.38,1.12-2.5,2.5-2.5h0c1.38,0,2.5,1.12,2.5,2.5
			v5.63C91,64.98,89.88,66.09,88.5,66.09z"/>
		<path class="st3" d="M88.5,122L88.5,122c-1.38,0-2.5-1.12-2.5-2.5v-15.05c0-1.38,1.12-2.5,2.5-2.5l0,0c1.38,0,2.5,1.12,2.5,2.5
			v15.05C91,120.88,89.88,122,88.5,122z"/>
		<path class="st4" d="M197.99,272.12h-95.98c-7.77,0-14.07-6.3-14.07-14.07V41.95c0-7.77,6.3-14.07,14.07-14.07h95.98
			c7.77,0,14.07,6.3,14.07,14.07v216.11C212.06,265.83,205.76,272.12,197.99,272.12z"/>
		<rect x="94.1" y="49" class="st5" width="111.8" height="195"/>
		<path class="st6" d="M166.55,40h-23c-1.1,0-2-0.9-2-2v0c0-1.1,0.9-2,2-2h23c1.1,0,2,0.9,2,2v0C168.55,39.1,167.65,40,166.55,40z"
			/>
		<path class="st6" d="M135.55,40h-2.1c-1.1,0-2-0.9-2-2v0c0-1.1,0.9-2,2-2h2.1c1.1,0,2,0.9,2,2v0C137.55,39.1,136.65,40,135.55,40z
			"/>
		<circle class="st7" cx="150" cy="258" r="8"/>
		<rect x="94.1" y="49" class="st12" width="111.8" height="17"/>
		<rect x="94.1" y="227" class="st14" width="111.8" height="17"/>
		<path class="st9" d="M122.51,237H102c-1.1,0-2-0.9-2-2v0c0-1.1,0.9-2,2-2h20.52c1.1,0,2,0.9,2,2v0
			C124.51,236.1,123.62,237,122.51,237z"/>
		<path class="st9" d="M198.51,237H188c-1.1,0-2-0.9-2-2v0c0-1.1,0.9-2,2-2h10.51c1.1,0,2,0.9,2,2v0
			C200.51,236.1,199.62,237,198.51,237z"/>
		<path class="st15" d="M113.87,155.06c2.29-14.85,2.86-64.55,6.28-49.13c3.43,15.42,14.28,58.84,14.28,58.84
			s-20.57,37.13-11.43,6.28s11.43-32.56,11.43-32.56l-1.71-13.71c0,0-41.13,29.13,4,13.71s47.42-28.56,41.13-28.56
			c-6.28,0-35.99-9.14-21.14,16c14.85,25.14,3.43,39.42,1.71,29.13c-1.71-10.28,17.14-78.84,29.71-31.99"/>
		<rect x="94.1" y="210" class="st16" width="111.8" height="17"/>
		<circle class="st17" cx="107" cy="218" r="5"/>
		<circle class="st8" cx="128" cy="218" r="5"/>
		<circle class="st18" cx="149" cy="218" r="5"/>
		<circle class="st19" cx="170" cy="218" r="5"/>
		<circle class="st20" cx="191" cy="218" r="5"/>
		<path class="st9" d="M178.51,237H168c-1.1,0-2-0.9-2-2v0c0-1.1,0.9-2,2-2h10.51c1.1,0,2,0.9,2,2v0
			C180.51,236.1,179.62,237,178.51,237z"/>
	</g>
</g>
<g id="Layer_2">
</g>
<g id="Layer_3">
</g>
</svg>
