<?xml version="1.0" encoding="utf-8"?>
<!-- Generator: Adobe Illustrator 24.2.0, SVG Export Plug-In . SVG Version: 6.00 Build 0)  -->
<svg version="1.1" xmlns="http://www.w3.org/2000/svg" xmlns:xlink="http://www.w3.org/1999/xlink" x="0px" y="0px"
	 viewBox="0 0 300 300" style="enable-background:new 0 0 300 300;" xml:space="preserve">
<style type="text/css">
	.st0{fill:#E5E5E5;}
	.st1{fill:#D0D2D3;}
	.st2{fill:#FFFFFF;}
	.st3{fill:#EDEDED;}
	.st4{fill:#D0D2D3;stroke:#EFEFEF;stroke-width:2;stroke-miterlimit:10;}
	.st5{fill:#F4F4F4;}
	.st6{fill:#A5A5A5;}
	.st7{fill:#C6C6C6;}
	.st8{fill:#B5B5B5;}
	.st9{fill:#E7E7E7;}
	.st10{fill:none;stroke:#D1D1D1;stroke-width:0.3;stroke-miterlimit:10;}
	.st11{fill:#FFFFFF;stroke:#C6C6C6;stroke-width:3;stroke-miterlimit:10;}
	.st12{fill:#FFFFFF;stroke:#C6C6C6;stroke-width:2;stroke-miterlimit:10;}
	.st13{fill:#FFFFFF;stroke:#C6C6C6;stroke-miterlimit:10;}
</style>
<g id="Layer_1">
	<path class="st0" d="M88.5,98.1L88.5,98.1c-1.4,0-2.5-1.1-2.5-2.5V80.5c0-1.4,1.1-2.5,2.5-2.5l0,0c1.4,0,2.5,1.1,2.5,2.5v15.1
		C91,96.9,89.9,98.1,88.5,98.1z"/>
	<path class="st0" d="M211.5,98.1L211.5,98.1c-1.4,0-2.5-1.1-2.5-2.5V80.5c0-1.4,1.1-2.5,2.5-2.5l0,0c1.4,0,2.5,1.1,2.5,2.5v15.1
		C214,96.9,212.9,98.1,211.5,98.1z"/>
	<path class="st0" d="M88.5,66.1L88.5,66.1c-1.4,0-2.5-1.1-2.5-2.5V58c0-1.4,1.1-2.5,2.5-2.5l0,0c1.4,0,2.5,1.1,2.5,2.5v5.6
		C91,65,89.9,66.1,88.5,66.1z"/>
	<path class="st0" d="M88.5,122L88.5,122c-1.4,0-2.5-1.1-2.5-2.5v-15.1c0-1.4,1.1-2.5,2.5-2.5l0,0c1.4,0,2.5,1.1,2.5,2.5v15.1
		C91,120.9,89.9,122,88.5,122z"/>
	<path class="st1" d="M198,272.1h-96c-7.8,0-14.1-6.3-14.1-14.1V42c0-7.8,6.3-14.1,14.1-14.1h96c7.8,0,14.1,6.3,14.1,14.1v216.1
		C212.1,265.8,205.8,272.1,198,272.1z"/>
	<rect x="94.1" y="49" class="st2" width="111.8" height="195"/>
	<path class="st3" d="M166.6,40h-23c-1.1,0-2-0.9-2-2l0,0c0-1.1,0.9-2,2-2h23c1.1,0,2,0.9,2,2l0,0C168.6,39.1,167.6,40,166.6,40z"/>
	<path class="st3" d="M135.6,40h-2.1c-1.1,0-2-0.9-2-2l0,0c0-1.1,0.9-2,2-2h2.1c1.1,0,2,0.9,2,2l0,0C137.6,39.1,136.6,40,135.6,40z"
		/>
	<circle class="st4" cx="150" cy="258" r="8"/>
	<rect x="94.1" y="229.4" class="st5" width="111.8" height="14.8"/>
	<rect x="94.1" y="48.1" class="st5" width="111.8" height="11"/>
	<path class="st8" d="M179.4,74.1h-59.7c-1.1,0-2-0.9-2-2v0c0-1.1,0.9-2,2-2h59.7c1.1,0,2,0.9,2,2v0
		C181.4,73.2,180.5,74.1,179.4,74.1z"/>
	<path class="st8" d="M140,173.4l-35.3,0c-1.1,0-2-0.9-2-2v0c0-1.1,0.9-2,2-2l35.3,0c1.1,0,2,0.9,2,2v0
		C142,172.5,141.1,173.4,140,173.4z"/>
	<g>
		<circle class="st11" cx="132.4" cy="120.5" r="13.5"/>
		<path class="st12" d="M187.7,132.6c0-0.2,0-0.5,0-0.7v-0.2l-0.1,0c-1.3-7.5-7.8-13.2-15.7-13.2c-1.1,0-2.1,0.1-3.2,0.3
			c-3.4-5.2-9.3-8.6-16-8.6c-10.1,0-18.3,7.8-19.1,17.6c-1.7-1-3.8-1.5-5.9-1.5c-6.6,0-12,5.4-12,12v0.1c0,6.6,5.3,11.9,11.9,11.9
			h41.6c0.5,0,0.9,0,1.4-0.1c0.4,0,0.9,0.1,1.3,0.1c8.8,0,15.9-7.1,15.9-15.9C187.8,133.9,187.8,133.2,187.7,132.6z"/>
		<path class="st7" d="M115.5,120.2L115.5,120.2c0.4,0.4,0.4,1,0,1.4l-1.8,1.9c-0.4,0.4-1,0.4-1.4,0l0,0c-0.4-0.4-0.4-1,0-1.4
			l1.8-1.9C114.5,119.9,115.1,119.9,115.5,120.2z"/>
		<path class="st7" d="M135.6,100.1L135.6,100.1c0.4,0.4,0.4,1,0,1.4l-1.8,1.9c-0.4,0.4-1,0.4-1.4,0l0,0c-0.4-0.4-0.4-1,0-1.4
			l1.8-1.9C134.6,99.8,135.2,99.7,135.6,100.1z"/>
		<path class="st7" d="M125.7,98.8L125.7,98.8c0.5-0.1,1,0.3,1.1,0.8l0.4,2.6c0.1,0.5-0.3,1-0.8,1.1h0c-0.5,0.1-1-0.3-1.1-0.8
			l-0.4-2.6C124.8,99.4,125.1,98.8,125.7,98.8z"/>
		<path class="st7" d="M115.9,113.7L115.9,113.7c-0.1,0.5-0.6,0.9-1.1,0.9l-2.6-0.3c-0.5-0.1-0.9-0.6-0.9-1.1l0,0
			c0.1-0.5,0.6-0.9,1.1-0.9l2.6,0.3C115.6,112.6,116,113.1,115.9,113.7z"/>
		<path class="st7" d="M119.5,106.6L119.5,106.6c-0.3,0.4-1,0.5-1.4,0.1l-2-1.7c-0.4-0.3-0.5-1-0.1-1.4l0,0c0.3-0.4,1-0.5,1.4-0.1
			l2,1.7C119.8,105.6,119.8,106.2,119.5,106.6z"/>
	</g>
	<path class="st9" d="M166.6,85.1l-34.2,0c-1.1,0-2-0.9-2-2v0c0-1.1,0.9-2,2-2l34.2,0c1.1,0,2,0.9,2,2v0
		C168.6,84.2,167.7,85.1,166.6,85.1z"/>
	<path class="st9" d="M114.5,212.7h-7.2c-1.1,0-2-0.9-2-2l0,0c0-1.1,0.9-2,2-2h7.2c1.1,0,2,0.9,2,2l0,0
		C116.5,211.8,115.6,212.7,114.5,212.7z"/>
	<path class="st9" d="M114.5,187.4l-7.2,0c-1.1,0-2-0.9-2-2v0c0-1.1,0.9-2,2-2l7.2,0c1.1,0,2,0.9,2,2l0,0
		C116.5,186.5,115.6,187.4,114.5,187.4z"/>
	<path class="st13" d="M119.4,200.6c0-0.1,0-0.1,0-0.2v0l0,0c-0.3-1.8-1.9-3.1-3.7-3.1c-0.3,0-0.5,0-0.8,0.1c-0.8-1.2-2.2-2-3.8-2
		c-2.4,0-4.3,1.8-4.5,4.2c-0.4-0.2-0.9-0.4-1.4-0.4c-1.6,0-2.8,1.3-2.8,2.8v0c0,1.6,1.3,2.8,2.8,2.8h9.9c0.1,0,0.2,0,0.3,0
		c0.1,0,0.2,0,0.3,0c2.1,0,3.8-1.7,3.8-3.8C119.5,200.9,119.4,200.8,119.4,200.6z"/>
	<path class="st9" d="M141.2,212.7H134c-1.1,0-2-0.9-2-2l0,0c0-1.1,0.9-2,2-2h7.2c1.1,0,2,0.9,2,2l0,0
		C143.2,211.8,142.3,212.7,141.2,212.7z"/>
	<path class="st9" d="M141.2,187.4l-7.2,0c-1.1,0-2-0.9-2-2v0c0-1.1,0.9-2,2-2l7.2,0c1.1,0,2,0.9,2,2l0,0
		C143.2,186.5,142.3,187.4,141.2,187.4z"/>
	<path class="st13" d="M146.1,200.6c0-0.1,0-0.1,0-0.2v0l0,0c-0.3-1.8-1.9-3.1-3.7-3.1c-0.3,0-0.5,0-0.8,0.1c-0.8-1.2-2.2-2-3.8-2
		c-2.4,0-4.3,1.8-4.5,4.2c-0.4-0.2-0.9-0.4-1.4-0.4c-1.6,0-2.8,1.3-2.8,2.8v0c0,1.6,1.3,2.8,2.8,2.8h9.9c0.1,0,0.2,0,0.3,0
		c0.1,0,0.2,0,0.3,0c2.1,0,3.8-1.7,3.8-3.8C146.1,200.9,146.1,200.8,146.1,200.6z"/>
	<path class="st9" d="M167.9,212.7h-7.2c-1.1,0-2-0.9-2-2l0,0c0-1.1,0.9-2,2-2h7.2c1.1,0,2,0.9,2,2l0,0
		C169.9,211.8,169,212.7,167.9,212.7z"/>
	<path class="st9" d="M167.9,187.4l-7.2,0c-1.1,0-2-0.9-2-2v0c0-1.1,0.9-2,2-2l7.2,0c1.1,0,2,0.9,2,2l0,0
		C169.9,186.5,169,187.4,167.9,187.4z"/>
	<path class="st13" d="M172.8,200.6c0-0.1,0-0.1,0-0.2v0l0,0c-0.3-1.8-1.9-3.1-3.7-3.1c-0.3,0-0.5,0-0.8,0.1c-0.8-1.2-2.2-2-3.8-2
		c-2.4,0-4.3,1.8-4.5,4.2c-0.4-0.2-0.9-0.4-1.4-0.4c-1.6,0-2.8,1.3-2.8,2.8v0c0,1.6,1.3,2.8,2.8,2.8h9.9c0.1,0,0.2,0,0.3,0
		c0.1,0,0.2,0,0.3,0c2.1,0,3.8-1.7,3.8-3.8C172.8,200.9,172.8,200.8,172.8,200.6z"/>
	<path class="st9" d="M194.5,212.7h-7.2c-1.1,0-2-0.9-2-2l0,0c0-1.1,0.9-2,2-2h7.2c1.1,0,2,0.9,2,2l0,0
		C196.5,211.8,195.6,212.7,194.5,212.7z"/>
	<path class="st9" d="M194.5,187.4l-7.2,0c-1.1,0-2-0.9-2-2v0c0-1.1,0.9-2,2-2l7.2,0c1.1,0,2,0.9,2,2l0,0
		C196.5,186.5,195.6,187.4,194.5,187.4z"/>
	<path class="st13" d="M199.5,200.6c0-0.1,0-0.1,0-0.2v0l0,0c-0.3-1.8-1.9-3.1-3.7-3.1c-0.3,0-0.5,0-0.8,0.1c-0.8-1.2-2.2-2-3.8-2
		c-2.4,0-4.3,1.8-4.5,4.2c-0.4-0.2-0.9-0.4-1.4-0.4c-1.6,0-2.8,1.3-2.8,2.8v0c0,1.6,1.3,2.8,2.8,2.8h9.9c0.1,0,0.2,0,0.3,0
		c0.1,0,0.2,0,0.3,0c2.1,0,3.8-1.7,3.8-3.8C199.5,200.9,199.5,200.8,199.5,200.6z"/>
</g>
<g id="Layer_2">
</g>
</svg>
