<?xml version="1.0" encoding="utf-8"?>
<!-- Generator: Adobe Illustrator 24.2.0, SVG Export Plug-In . SVG Version: 6.00 Build 0)  -->
<svg version="1.1" xmlns="http://www.w3.org/2000/svg" xmlns:xlink="http://www.w3.org/1999/xlink" x="0px" y="0px"
	 viewBox="0 0 300 300" style="enable-background:new 0 0 300 300;" xml:space="preserve">
<style type="text/css">
	.st0{fill:#999999;}
	.st1{fill:#D6D6D6;}
	.st2{fill:#E5E5E5;}
	.st3{fill:#D0D2D3;}
	.st4{fill:#FFFFFF;}
	.st5{fill:#EDEDED;}
	.st6{fill:#D0D2D3;stroke:#EFEFEF;stroke-width:2;stroke-miterlimit:10;}
	.st7{fill:#E8E8E8;}
	.st8{fill:#BDBDBD;}
	.st9{fill:#F0F0F0;}
	.st10{fill:none;stroke:#CECECE;stroke-width:0.5;stroke-miterlimit:10;}
	.st11{fill:#EFEFEF;}
	.st12{fill:none;stroke:#999999;stroke-miterlimit:10;}
	.st13{fill:#F6F6F6;}
	.st14{fill:none;stroke:#F6F6F6;stroke-linecap:round;stroke-miterlimit:10;}
	.st15{opacity:0.8;}
	.st16{fill:#DEDFE3;}
</style>
<g id="Layer_1">
	<path class="st2" d="M88.5,98.05L88.5,98.05c-1.38,0-2.5-1.12-2.5-2.5V80.5c0-1.38,1.12-2.5,2.5-2.5l0,0c1.38,0,2.5,1.12,2.5,2.5
		v15.05C91,96.93,89.88,98.05,88.5,98.05z"/>
	<path class="st2" d="M211.5,98.05L211.5,98.05c-1.38,0-2.5-1.12-2.5-2.5V80.5c0-1.38,1.12-2.5,2.5-2.5l0,0c1.38,0,2.5,1.12,2.5,2.5
		v15.05C214,96.93,212.88,98.05,211.5,98.05z"/>
	<path class="st2" d="M88.5,66.09L88.5,66.09c-1.38,0-2.5-1.12-2.5-2.5v-5.63c0-1.38,1.12-2.5,2.5-2.5h0c1.38,0,2.5,1.12,2.5,2.5
		v5.63C91,64.98,89.88,66.09,88.5,66.09z"/>
	<path class="st2" d="M88.5,122L88.5,122c-1.38,0-2.5-1.12-2.5-2.5v-15.05c0-1.38,1.12-2.5,2.5-2.5l0,0c1.38,0,2.5,1.12,2.5,2.5
		v15.05C91,120.88,89.88,122,88.5,122z"/>
	<path class="st3" d="M197.99,272.12h-95.98c-7.77,0-14.07-6.3-14.07-14.07V41.95c0-7.77,6.3-14.07,14.07-14.07h95.98
		c7.77,0,14.07,6.3,14.07,14.07v216.11C212.06,265.83,205.76,272.12,197.99,272.12z"/>
	<rect x="94.1" y="49" class="st4" width="111.8" height="195"/>
	<path class="st5" d="M166.55,40h-23c-1.1,0-2-0.9-2-2v0c0-1.1,0.9-2,2-2h23c1.1,0,2,0.9,2,2v0C168.55,39.1,167.65,40,166.55,40z"/>
	<path class="st5" d="M135.55,40h-2.1c-1.1,0-2-0.9-2-2v0c0-1.1,0.9-2,2-2h2.1c1.1,0,2,0.9,2,2v0C137.55,39.1,136.65,40,135.55,40z"
		/>
	<circle class="st6" cx="150" cy="258" r="8"/>
	<rect x="94.1" y="49" class="st11" width="111.8" height="14"/>
	<path class="st8" d="M108.28,58h-6.29c-1.1,0-2-0.9-2-2v0c0-1.1,0.9-2,2-2h6.29c1.1,0,2,0.9,2,2v0C110.28,57.1,109.38,58,108.28,58
		z"/>
	<g>
		<path class="st16" d="M196.91,95.5h-50.77c-1.1,0-2-0.9-2-2l0,0c0-1.1,0.9-2,2-2h50.77c1.1,0,2,0.9,2,2l0,0
			C198.91,94.6,198.01,95.5,196.91,95.5z"/>
		<path class="st8" d="M187.98,87.5h-41.84c-1.1,0-2-0.9-2-2l0,0c0-1.1,0.9-2,2-2h41.84c1.1,0,2,0.9,2,2l0,0
			C189.98,86.6,189.09,87.5,187.98,87.5z"/>
	</g>
	<path class="st8" d="M185.28,58h-6.29c-1.1,0-2-0.9-2-2v0c0-1.1,0.9-2,2-2h6.29c1.1,0,2,0.9,2,2v0C187.28,57.1,186.38,58,185.28,58
		z"/>
	<path class="st8" d="M198.28,58h-6.29c-1.1,0-2-0.9-2-2v0c0-1.1,0.9-2,2-2h6.29c1.1,0,2,0.9,2,2v0C200.28,57.1,199.38,58,198.28,58
		z"/>
	<circle class="st16" cx="120.5" cy="89.5" r="18.5"/>
	<rect x="94" y="118" class="st11" width="112" height="126"/>
	<rect x="97.56" y="122" class="st4" width="50.33" height="29.03"/>
	<rect x="151.67" y="122" class="st4" width="50.33" height="29.03"/>
	<rect x="97.56" y="155" class="st4" width="50.33" height="29.03"/>
	<rect x="151.67" y="155" class="st4" width="50.33" height="29.03"/>
	<rect x="97.56" y="188" class="st4" width="50.33" height="29.03"/>
	<rect x="97.56" y="223" class="st4" width="27.45" height="15"/>
	<rect x="136.05" y="223" class="st4" width="27.45" height="15"/>
	<rect x="174.55" y="223" class="st4" width="27.45" height="15"/>
	<rect x="151.67" y="188" class="st4" width="50.33" height="29.03"/>
	<path class="st8" d="M126.89,130h-22.75c-1.1,0-2-0.9-2-2l0,0c0-1.1,0.9-2,2-2h22.75c1.1,0,2,0.9,2,2l0,0
		C128.89,129.1,128,130,126.89,130z"/>
	<path class="st8" d="M180.89,130h-22.75c-1.1,0-2-0.9-2-2l0,0c0-1.1,0.9-2,2-2h22.75c1.1,0,2,0.9,2,2l0,0
		C182.89,129.1,182,130,180.89,130z"/>
	<path class="st8" d="M126.89,163h-22.75c-1.1,0-2-0.9-2-2l0,0c0-1.1,0.9-2,2-2h22.75c1.1,0,2,0.9,2,2l0,0
		C128.89,162.1,128,163,126.89,163z"/>
	<path class="st8" d="M126.89,196h-22.75c-1.1,0-2-0.9-2-2l0,0c0-1.1,0.9-2,2-2h22.75c1.1,0,2,0.9,2,2l0,0
		C128.89,195.1,128,196,126.89,196z"/>
	<path class="st8" d="M180.89,163h-22.75c-1.1,0-2-0.9-2-2l0,0c0-1.1,0.9-2,2-2h22.75c1.1,0,2,0.9,2,2l0,0
		C182.89,162.1,182,163,180.89,163z"/>
</g>
<g id="Layer_2">
</g>
<g id="Layer_3">
</g>
</svg>
