<?xml version="1.0" encoding="utf-8"?>
<!-- Generator: Adobe Illustrator 24.2.0, SVG Export Plug-In . SVG Version: 6.00 Build 0)  -->
<svg version="1.1" xmlns="http://www.w3.org/2000/svg" xmlns:xlink="http://www.w3.org/1999/xlink" x="0px" y="0px"
	 viewBox="0 0 300 300" style="enable-background:new 0 0 300 300;" xml:space="preserve">
<style type="text/css">
	.st0{fill:#999999;}
	.st1{fill:#D6D6D6;}
	.st2{fill:#E5E5E5;}
	.st3{fill:#D0D2D3;}
	.st4{fill:#FFFFFF;}
	.st5{fill:#EDEDED;}
	.st6{fill:#D0D2D3;stroke:#EFEFEF;stroke-width:2;stroke-miterlimit:10;}
	.st7{fill:#E8E8E8;}
	.st8{fill:#BDBDBD;}
	.st9{fill:#F0F0F0;}
	.st10{fill:none;stroke:#CECECE;stroke-width:0.5;stroke-miterlimit:10;}
	.st11{fill:#EFEFEF;}
	.st12{fill:none;stroke:#999999;stroke-miterlimit:10;}
	.st13{fill:#F6F6F6;}
	.st14{fill:none;stroke:#F6F6F6;stroke-linecap:round;stroke-miterlimit:10;}
	.st15{opacity:0.8;}
	.st16{fill:#CCCCCC;}
	.st17{fill:#F8F8F8;}
</style>
<g id="Layer_1">
	<path class="st2" d="M88.5,98.05L88.5,98.05c-1.38,0-2.5-1.12-2.5-2.5V80.5c0-1.38,1.12-2.5,2.5-2.5l0,0c1.38,0,2.5,1.12,2.5,2.5
		v15.05C91,96.93,89.88,98.05,88.5,98.05z"/>
	<path class="st2" d="M211.5,98.05L211.5,98.05c-1.38,0-2.5-1.12-2.5-2.5V80.5c0-1.38,1.12-2.5,2.5-2.5l0,0c1.38,0,2.5,1.12,2.5,2.5
		v15.05C214,96.93,212.88,98.05,211.5,98.05z"/>
	<path class="st2" d="M88.5,66.09L88.5,66.09c-1.38,0-2.5-1.12-2.5-2.5v-5.63c0-1.38,1.12-2.5,2.5-2.5h0c1.38,0,2.5,1.12,2.5,2.5
		v5.63C91,64.98,89.88,66.09,88.5,66.09z"/>
	<path class="st2" d="M88.5,122L88.5,122c-1.38,0-2.5-1.12-2.5-2.5v-15.05c0-1.38,1.12-2.5,2.5-2.5l0,0c1.38,0,2.5,1.12,2.5,2.5
		v15.05C91,120.88,89.88,122,88.5,122z"/>
	<path class="st3" d="M197.99,272.12h-95.98c-7.77,0-14.07-6.3-14.07-14.07V41.95c0-7.77,6.3-14.07,14.07-14.07h95.98
		c7.77,0,14.07,6.3,14.07,14.07v216.11C212.06,265.83,205.76,272.12,197.99,272.12z"/>
	<rect x="94.1" y="49" class="st4" width="111.8" height="195"/>
	<path class="st5" d="M166.55,40h-23c-1.1,0-2-0.9-2-2v0c0-1.1,0.9-2,2-2h23c1.1,0,2,0.9,2,2v0C168.55,39.1,167.65,40,166.55,40z"/>
	<path class="st5" d="M135.55,40h-2.1c-1.1,0-2-0.9-2-2v0c0-1.1,0.9-2,2-2h2.1c1.1,0,2,0.9,2,2v0C137.55,39.1,136.65,40,135.55,40z"
		/>
	<circle class="st6" cx="150" cy="258" r="8"/>
	<rect x="94.1" y="49" class="st11" width="111.8" height="14"/>
	<rect x="94.1" y="230" class="st11" width="111.8" height="14"/>
	<path class="st8" d="M108.28,58h-6.29c-1.1,0-2-0.9-2-2v0c0-1.1,0.9-2,2-2h6.29c1.1,0,2,0.9,2,2v0C110.28,57.1,109.38,58,108.28,58
		z"/>
	<path class="st8" d="M185.28,58h-6.29c-1.1,0-2-0.9-2-2v0c0-1.1,0.9-2,2-2h6.29c1.1,0,2,0.9,2,2v0C187.28,57.1,186.38,58,185.28,58
		z"/>
	<path class="st8" d="M198.28,58h-6.29c-1.1,0-2-0.9-2-2v0c0-1.1,0.9-2,2-2h6.29c1.1,0,2,0.9,2,2v0C200.28,57.1,199.38,58,198.28,58
		z"/>
	<path class="st16" d="M195.28,239h-13.72c-1.1,0-2-0.9-2-2v0c0-1.1,0.9-2,2-2h13.72c1.1,0,2,0.9,2,2v0
		C197.28,238.1,196.38,239,195.28,239z"/>
	<path class="st16" d="M156.28,239h-13.72c-1.1,0-2-0.9-2-2v0c0-1.1,0.9-2,2-2h13.72c1.1,0,2,0.9,2,2v0
		C158.28,238.1,157.38,239,156.28,239z"/>
	<path class="st16" d="M117.28,239h-13.72c-1.1,0-2-0.9-2-2v0c0-1.1,0.9-2,2-2h13.72c1.1,0,2,0.9,2,2v0
		C119.28,238.1,118.38,239,117.28,239z"/>
	<rect x="93.92" y="116" class="st17" width="111.9" height="2"/>
	<rect x="142.1" y="85" class="st17" width="63.72" height="2"/>
	<path class="st9" d="M136.8,141.35H122.4c-0.7,0-1.27-0.57-1.27-1.27v-14.81c0-0.7,0.57-1.27,1.27-1.27h14.39
		c0.7,0,1.27,0.57,1.27,1.27v14.81C138.07,140.78,137.5,141.35,136.8,141.35z"/>
	<path class="st9" d="M115.79,141.35H101.4c-0.7,0-1.27-0.57-1.27-1.27v-14.81c0-0.7,0.57-1.27,1.27-1.27h14.39
		c0.7,0,1.27,0.57,1.27,1.27v14.81C117.07,140.78,116.5,141.35,115.79,141.35z"/>
	<path class="st9" d="M157.76,141.35h-14.39c-0.7,0-1.27-0.57-1.27-1.27v-14.81c0-0.7,0.57-1.27,1.27-1.27h14.39
		c0.7,0,1.27,0.57,1.27,1.27v14.81C159.03,140.78,158.46,141.35,157.76,141.35z"/>
	<path class="st9" d="M178.73,141.35h-14.39c-0.7,0-1.27-0.57-1.27-1.27v-14.81c0-0.7,0.57-1.27,1.27-1.27h14.39
		c0.7,0,1.27,0.57,1.27,1.27v14.81C180,140.78,179.43,141.35,178.73,141.35z"/>
	<path class="st9" d="M199.73,141.35h-14.39c-0.7,0-1.27-0.57-1.27-1.27v-14.81c0-0.7,0.57-1.27,1.27-1.27h14.39
		c0.7,0,1.27,0.57,1.27,1.27v14.81C201,140.78,200.43,141.35,199.73,141.35z"/>
	<rect x="93.92" y="147" class="st17" width="111.9" height="2"/>
	<rect x="93.92" y="178" class="st17" width="111.9" height="2"/>
	<path class="st9" d="M136.8,203.35H122.4c-0.7,0-1.27-0.57-1.27-1.27v-14.81c0-0.7,0.57-1.27,1.27-1.27h14.39
		c0.7,0,1.27,0.57,1.27,1.27v14.81C138.07,202.78,137.5,203.35,136.8,203.35z"/>
	<path class="st9" d="M115.79,203.35H101.4c-0.7,0-1.27-0.57-1.27-1.27v-14.81c0-0.7,0.57-1.27,1.27-1.27h14.39
		c0.7,0,1.27,0.57,1.27,1.27v14.81C117.07,202.78,116.5,203.35,115.79,203.35z"/>
	<path class="st9" d="M157.76,203.35h-14.39c-0.7,0-1.27-0.57-1.27-1.27v-14.81c0-0.7,0.57-1.27,1.27-1.27h14.39
		c0.7,0,1.27,0.57,1.27,1.27v14.81C159.03,202.78,158.46,203.35,157.76,203.35z"/>
	<path class="st9" d="M178.73,203.35h-14.39c-0.7,0-1.27-0.57-1.27-1.27v-14.81c0-0.7,0.57-1.27,1.27-1.27h14.39
		c0.7,0,1.27,0.57,1.27,1.27v14.81C180,202.78,179.43,203.35,178.73,203.35z"/>
	<rect x="93.92" y="209" class="st17" width="86.08" height="2"/>
	<path class="st16" d="M136.8,172.35H122.4c-0.7,0-1.27-0.57-1.27-1.27v-14.81c0-0.7,0.57-1.27,1.27-1.27h14.39
		c0.7,0,1.27,0.57,1.27,1.27v14.81C138.07,171.78,137.5,172.35,136.8,172.35z"/>
	<path class="st9" d="M115.79,172.35H101.4c-0.7,0-1.27-0.57-1.27-1.27v-14.81c0-0.7,0.57-1.27,1.27-1.27h14.39
		c0.7,0,1.27,0.57,1.27,1.27v14.81C117.07,171.78,116.5,172.35,115.79,172.35z"/>
	<path class="st9" d="M157.76,172.35h-14.39c-0.7,0-1.27-0.57-1.27-1.27v-14.81c0-0.7,0.57-1.27,1.27-1.27h14.39
		c0.7,0,1.27,0.57,1.27,1.27v14.81C159.03,171.78,158.46,172.35,157.76,172.35z"/>
	<path class="st9" d="M178.73,172.35h-14.39c-0.7,0-1.27-0.57-1.27-1.27v-14.81c0-0.7,0.57-1.27,1.27-1.27h14.39
		c0.7,0,1.27,0.57,1.27,1.27v14.81C180,171.78,179.43,172.35,178.73,172.35z"/>
	<path class="st9" d="M199.73,172.35h-14.39c-0.7,0-1.27-0.57-1.27-1.27v-14.81c0-0.7,0.57-1.27,1.27-1.27h14.39
		c0.7,0,1.27,0.57,1.27,1.27v14.81C201,171.78,200.43,172.35,199.73,172.35z"/>
	<path class="st9" d="M157.76,110.35h-14.39c-0.7,0-1.27-0.57-1.27-1.27V94.27c0-0.7,0.57-1.27,1.27-1.27h14.39
		c0.7,0,1.27,0.57,1.27,1.27v14.81C159.03,109.78,158.46,110.35,157.76,110.35z"/>
	<path class="st9" d="M178.73,110.35h-14.39c-0.7,0-1.27-0.57-1.27-1.27V94.27c0-0.7,0.57-1.27,1.27-1.27h14.39
		c0.7,0,1.27,0.57,1.27,1.27v14.81C180,109.78,179.43,110.35,178.73,110.35z"/>
	<path class="st9" d="M199.73,110.35h-14.39c-0.7,0-1.27-0.57-1.27-1.27V94.27c0-0.7,0.57-1.27,1.27-1.27h14.39
		c0.7,0,1.27,0.57,1.27,1.27v14.81C201,109.78,200.43,110.35,199.73,110.35z"/>
</g>
<g id="Layer_2">
</g>
<g id="Layer_3">
</g>
</svg>
