<?xml version="1.0" encoding="utf-8"?>
<!-- Generator: Adobe Illustrator 24.2.0, SVG Export Plug-In . SVG Version: 6.00 Build 0)  -->
<svg version="1.1" xmlns="http://www.w3.org/2000/svg" xmlns:xlink="http://www.w3.org/1999/xlink" x="0px" y="0px"
	 viewBox="0 0 300 300" style="enable-background:new 0 0 300 300;" xml:space="preserve">
<style type="text/css">
	.st0{fill:#999999;}
	.st1{fill:#D6D6D6;}
	.st2{fill:#E5E5E5;}
	.st3{fill:#D0D2D3;}
	.st4{fill:#FFFFFF;}
	.st5{fill:#EDEDED;}
	.st6{fill:#D0D2D3;stroke:#EFEFEF;stroke-width:2;stroke-miterlimit:10;}
	.st7{fill:#E8E8E8;}
	.st8{fill:#BDBDBD;}
	.st9{fill:#F0F0F0;}
	.st10{fill:none;stroke:#CECECE;stroke-width:0.5;stroke-miterlimit:10;}
	.st11{fill:#EFEFEF;}
	.st12{fill:none;stroke:#999999;stroke-miterlimit:10;}
	.st13{fill:#F6F6F6;}
	.st14{fill:none;stroke:#F6F6F6;stroke-linecap:round;stroke-miterlimit:10;}
	.st15{opacity:0.8;}
	.st16{fill:#F8F8F8;}
	.st17{opacity:0.5;fill:none;stroke:#BDBDBD;stroke-width:0.3;stroke-miterlimit:10;}
</style>
<g id="Layer_1">
	<path class="st2" d="M88.5,98.05L88.5,98.05c-1.38,0-2.5-1.12-2.5-2.5V80.5c0-1.38,1.12-2.5,2.5-2.5l0,0c1.38,0,2.5,1.12,2.5,2.5
		v15.05C91,96.93,89.88,98.05,88.5,98.05z"/>
	<path class="st2" d="M211.5,98.05L211.5,98.05c-1.38,0-2.5-1.12-2.5-2.5V80.5c0-1.38,1.12-2.5,2.5-2.5l0,0c1.38,0,2.5,1.12,2.5,2.5
		v15.05C214,96.93,212.88,98.05,211.5,98.05z"/>
	<path class="st2" d="M88.5,66.09L88.5,66.09c-1.38,0-2.5-1.12-2.5-2.5v-5.63c0-1.38,1.12-2.5,2.5-2.5h0c1.38,0,2.5,1.12,2.5,2.5
		v5.63C91,64.98,89.88,66.09,88.5,66.09z"/>
	<path class="st2" d="M88.5,122L88.5,122c-1.38,0-2.5-1.12-2.5-2.5v-15.05c0-1.38,1.12-2.5,2.5-2.5l0,0c1.38,0,2.5,1.12,2.5,2.5
		v15.05C91,120.88,89.88,122,88.5,122z"/>
	<path class="st3" d="M197.99,272.12h-95.98c-7.77,0-14.07-6.3-14.07-14.07V41.95c0-7.77,6.3-14.07,14.07-14.07h95.98
		c7.77,0,14.07,6.3,14.07,14.07v216.11C212.06,265.83,205.76,272.12,197.99,272.12z"/>
	<rect x="94.1" y="49" class="st4" width="111.8" height="195"/>
	<path class="st5" d="M166.55,40h-23c-1.1,0-2-0.9-2-2v0c0-1.1,0.9-2,2-2h23c1.1,0,2,0.9,2,2v0C168.55,39.1,167.65,40,166.55,40z"/>
	<path class="st5" d="M135.55,40h-2.1c-1.1,0-2-0.9-2-2v0c0-1.1,0.9-2,2-2h2.1c1.1,0,2,0.9,2,2v0C137.55,39.1,136.65,40,135.55,40z"
		/>
	<circle class="st6" cx="150" cy="258" r="8"/>
	<rect x="94.1" y="49" class="st11" width="111.8" height="14"/>
	<path class="st8" d="M171.49,58h-38.51c-1.1,0-2-0.9-2-2v0c0-1.1,0.9-2,2-2h38.51c1.1,0,2,0.9,2,2v0
		C173.49,57.1,172.59,58,171.49,58z"/>
	<path class="st2" d="M160,74h-57.53c-1.1,0-2-0.9-2-2l0,0c0-1.1,0.9-2,2-2H160c1.1,0,2,0.9,2,2l0,0C162,73.1,161.1,74,160,74z"/>
	<rect x="94.1" y="100" class="st16" width="111.9" height="22"/>
	<rect x="93.92" y="179" class="st16" width="111.9" height="65"/>
	<line class="st17" x1="94" y1="81" x2="206" y2="81"/>
	<path class="st8" d="M142.19,133h-39.72c-1.1,0-2-0.9-2-2l0,0c0-1.1,0.9-2,2-2h39.72c1.1,0,2,0.9,2,2l0,0
		C144.19,132.1,143.3,133,142.19,133z"/>
	<path class="st2" d="M198.19,133h-10.37c-1.1,0-2-0.9-2-2l0,0c0-1.1,0.9-2,2-2h10.37c1.1,0,2,0.9,2,2l0,0
		C200.19,132.1,199.3,133,198.19,133z"/>
	<line class="st17" x1="94" y1="140" x2="206" y2="140"/>
	<path class="st8" d="M142.19,152h-39.72c-1.1,0-2-0.9-2-2l0,0c0-1.1,0.9-2,2-2h39.72c1.1,0,2,0.9,2,2l0,0
		C144.19,151.1,143.3,152,142.19,152z"/>
	<path class="st2" d="M198.19,152h-10.37c-1.1,0-2-0.9-2-2l0,0c0-1.1,0.9-2,2-2h10.37c1.1,0,2,0.9,2,2l0,0
		C200.19,151.1,199.3,152,198.19,152z"/>
	<line class="st17" x1="94" y1="159" x2="206" y2="159"/>
	<path class="st8" d="M142.19,171h-39.72c-1.1,0-2-0.9-2-2l0,0c0-1.1,0.9-2,2-2h39.72c1.1,0,2,0.9,2,2l0,0
		C144.19,170.1,143.3,171,142.19,171z"/>
	<path class="st2" d="M198.19,171h-10.37c-1.1,0-2-0.9-2-2l0,0c0-1.1,0.9-2,2-2h10.37c1.1,0,2,0.9,2,2l0,0
		C200.19,170.1,199.3,171,198.19,171z"/>
	<path class="st2" d="M160,92h-57.53c-1.1,0-2-0.9-2-2l0,0c0-1.1,0.9-2,2-2H160c1.1,0,2,0.9,2,2l0,0C162,91.1,161.1,92,160,92z"/>
	<g>
		<rect x="179.91" y="225.5" class="st4" width="21" height="13"/>
		<path class="st8" d="M194.82,234H186c-1.1,0-2-0.9-2-2v0c0-1.1,0.9-2,2-2h8.82c1.1,0,2,0.9,2,2v0
			C196.82,233.1,195.93,234,194.82,234z"/>
	</g>
</g>
<g id="Layer_2">
</g>
<g id="Layer_3">
</g>
</svg>
