<?xml version="1.0" encoding="utf-8"?>
<!-- Generator: Adobe Illustrator 24.2.0, SVG Export Plug-In . SVG Version: 6.00 Build 0)  -->
<svg version="1.1" xmlns="http://www.w3.org/2000/svg" xmlns:xlink="http://www.w3.org/1999/xlink" x="0px" y="0px"
	 viewBox="0 0 300 300" style="enable-background:new 0 0 300 300;" xml:space="preserve">
<style type="text/css">
	.st0{fill:#D6D6D6;}
	.st1{fill:#FFFFFF;}
	.st2{fill:#F6F6F6;}
	.st3{fill:#999999;}
	.st4{fill:#D5D5D5;}
</style>
<g id="Layer_1">
	<g>
		<path class="st0" d="M276.8,289.62H25.95c-7.77,0-14.07-6.3-14.07-14.07V24.7c0-7.77,6.3-14.07,14.07-14.07H276.8
			c7.77,0,14.07,6.3,14.07,14.07v250.86C290.88,283.33,284.58,289.62,276.8,289.62z"/>
		<g>
			<circle class="st1" cx="39.75" cy="36.25" r="8"/>
			<circle class="st1" cx="70.86" cy="36.25" r="8"/>
			<circle class="st1" cx="101.97" cy="36.25" r="8"/>
		</g>
	</g>
	<path class="st2" d="M266.21,271.5H37.79c-2.99,0-5.41-2.42-5.41-5.41V67.91c0-2.99,2.42-5.41,5.41-5.41h228.42
		c2.99,0,5.41,2.42,5.41,5.41v198.17C271.62,269.08,269.2,271.5,266.21,271.5z"/>
	<g>
		<g>
			<circle class="st3" cx="102.3" cy="122" r="32"/>
			<g>
				<path class="st4" d="M86.03,137.9c0-9.14,7.41-16.54,16.54-16.54s16.54,7.41,16.54,16.54"/>
				<circle class="st2" cx="102.57" cy="113.99" r="7.71"/>
			</g>
		</g>
		<path class="st3" d="M127.05,180H77.56c-3.04,0-5.5-2.46-5.5-5.5v0c0-3.04,2.46-5.5,5.5-5.5h49.49c3.04,0,5.5,2.46,5.5,5.5v0
			C132.55,177.54,130.08,180,127.05,180z"/>
		<path class="st0" d="M132.5,210H72.11c-3.04,0-5.5-2.46-5.5-5.5v0c0-3.04,2.46-5.5,5.5-5.5h60.39c3.04,0,5.5,2.46,5.5,5.5v0
			C138,207.54,135.54,210,132.5,210z"/>
		<path class="st0" d="M132.5,240H72.11c-3.04,0-5.5-2.46-5.5-5.5v0c0-3.04,2.46-5.5,5.5-5.5h60.39c3.04,0,5.5,2.46,5.5,5.5v0
			C138,237.54,135.54,240,132.5,240z"/>
	</g>
	<g>
		<g>
			<circle class="st3" cx="202.3" cy="122" r="32"/>
			<g>
				<path class="st4" d="M186.03,137.9c0-9.14,7.41-16.54,16.54-16.54c9.14,0,16.54,7.41,16.54,16.54"/>
				<circle class="st2" cx="202.57" cy="113.99" r="7.71"/>
			</g>
		</g>
		<path class="st3" d="M227.05,180h-49.49c-3.04,0-5.5-2.46-5.5-5.5v0c0-3.04,2.46-5.5,5.5-5.5h49.49c3.04,0,5.5,2.46,5.5,5.5v0
			C232.55,177.54,230.08,180,227.05,180z"/>
		<path class="st0" d="M232.5,210h-60.39c-3.04,0-5.5-2.46-5.5-5.5v0c0-3.04,2.46-5.5,5.5-5.5h60.39c3.04,0,5.5,2.46,5.5,5.5v0
			C238,207.54,235.54,210,232.5,210z"/>
		<path class="st0" d="M232.5,240h-60.39c-3.04,0-5.5-2.46-5.5-5.5v0c0-3.04,2.46-5.5,5.5-5.5h60.39c3.04,0,5.5,2.46,5.5,5.5v0
			C238,237.54,235.54,240,232.5,240z"/>
	</g>
</g>
<g id="Layer_2">
</g>
<g id="Layer_3">
</g>
</svg>
