<?xml version="1.0" encoding="utf-8"?>
<!-- Generator: Adobe Illustrator 24.2.0, SVG Export Plug-In . SVG Version: 6.00 Build 0)  -->
<svg version="1.1" xmlns="http://www.w3.org/2000/svg" xmlns:xlink="http://www.w3.org/1999/xlink" x="0px" y="0px"
	 viewBox="0 0 300 300" style="enable-background:new 0 0 300 300;" xml:space="preserve">
<style type="text/css">
	.st0{fill:#D6D6D6;}
	.st1{fill:#FFFFFF;}
	.st2{fill:#F6F6F6;}
	.st3{fill:#999999;}
	.st4{fill:#D5D5D5;}
</style>
<g id="Layer_1">
	<g>
		<path class="st0" d="M276.8,289.62H25.95c-7.77,0-14.07-6.3-14.07-14.07V24.7c0-7.77,6.3-14.07,14.07-14.07H276.8
			c7.77,0,14.07,6.3,14.07,14.07v250.86C290.88,283.33,284.58,289.62,276.8,289.62z"/>
		<g>
			<circle class="st1" cx="39.75" cy="36.25" r="8"/>
			<circle class="st1" cx="70.86" cy="36.25" r="8"/>
			<circle class="st1" cx="101.97" cy="36.25" r="8"/>
		</g>
	</g>
	<path class="st2" d="M266.21,271.5H37.79c-2.99,0-5.41-2.42-5.41-5.41V67.91c0-2.99,2.42-5.41,5.41-5.41h228.42
		c2.99,0,5.41,2.42,5.41,5.41v198.17C271.62,269.08,269.2,271.5,266.21,271.5z"/>
	<g>
		<g>
			<g>
				<circle class="st3" cx="80.93" cy="117.93" r="22.93"/>
				<g>
					<path class="st4" d="M69.27,129.32c0-6.55,5.31-11.85,11.85-11.85s11.85,5.31,11.85,11.85"/>
					<circle class="st2" cx="81.12" cy="112.18" r="5.53"/>
				</g>
			</g>
			<path class="st0" d="M98.56,155.76H63.29c-1.66,0-3-1.34-3-3v-0.88c0-1.66,1.34-3,3-3h35.27c1.66,0,3,1.34,3,3v0.88
				C101.56,154.41,100.22,155.76,98.56,155.76z"/>
		</g>
		<g>
			<g>
				<circle class="st3" cx="152" cy="117.93" r="22.93"/>
				<g>
					<path class="st4" d="M140.34,129.32c0-6.55,5.31-11.85,11.85-11.85c6.55,0,11.85,5.31,11.85,11.85"/>
					<circle class="st2" cx="152.19" cy="112.18" r="5.53"/>
				</g>
			</g>
			<path class="st0" d="M169.63,155.76h-35.27c-1.66,0-3-1.34-3-3v-0.88c0-1.66,1.34-3,3-3h35.27c1.66,0,3,1.34,3,3v0.88
				C172.63,154.41,171.29,155.76,169.63,155.76z"/>
		</g>
		<g>
			<g>
				<circle class="st3" cx="223.07" cy="117.93" r="22.93"/>
				<g>
					<path class="st4" d="M211.42,129.32c0-6.55,5.31-11.85,11.85-11.85c6.55,0,11.85,5.31,11.85,11.85"/>
					<circle class="st2" cx="223.27" cy="112.18" r="5.53"/>
				</g>
			</g>
			<path class="st0" d="M240.71,155.76h-35.27c-1.66,0-3-1.34-3-3v-0.88c0-1.66,1.34-3,3-3h35.27c1.66,0,3,1.34,3,3v0.88
				C243.71,154.41,242.36,155.76,240.71,155.76z"/>
		</g>
		<g>
			<g>
				<circle class="st3" cx="80.93" cy="198.17" r="22.93"/>
				<g>
					<path class="st4" d="M69.27,209.56c0-6.55,5.31-11.85,11.85-11.85s11.85,5.31,11.85,11.85"/>
					<circle class="st2" cx="81.12" cy="192.43" r="5.53"/>
				</g>
			</g>
			<path class="st0" d="M98.56,236H63.29c-1.66,0-3-1.34-3-3v-0.88c0-1.66,1.34-3,3-3h35.27c1.66,0,3,1.34,3,3V233
				C101.56,234.66,100.22,236,98.56,236z"/>
		</g>
		<g>
			<g>
				<circle class="st3" cx="152" cy="198.17" r="22.93"/>
				<g>
					<path class="st4" d="M140.34,209.56c0-6.55,5.31-11.85,11.85-11.85c6.55,0,11.85,5.31,11.85,11.85"/>
					<circle class="st2" cx="152.19" cy="192.43" r="5.53"/>
				</g>
			</g>
			<path class="st0" d="M169.63,236h-35.27c-1.66,0-3-1.34-3-3v-0.88c0-1.66,1.34-3,3-3h35.27c1.66,0,3,1.34,3,3V233
				C172.63,234.66,171.29,236,169.63,236z"/>
		</g>
		<g>
			<g>
				<circle class="st3" cx="223.07" cy="198.17" r="22.93"/>
				<g>
					<path class="st4" d="M211.42,209.56c0-6.55,5.31-11.85,11.85-11.85c6.55,0,11.85,5.31,11.85,11.85"/>
					<circle class="st2" cx="223.27" cy="192.43" r="5.53"/>
				</g>
			</g>
			<path class="st0" d="M240.71,236h-35.27c-1.66,0-3-1.34-3-3v-0.88c0-1.66,1.34-3,3-3h35.27c1.66,0,3,1.34,3,3V233
				C243.71,234.66,242.36,236,240.71,236z"/>
		</g>
	</g>
</g>
<g id="Layer_2">
</g>
<g id="Layer_3">
</g>
</svg>
