<?xml version="1.0" encoding="utf-8"?>
<!-- Generator: Adobe Illustrator 24.2.0, SVG Export Plug-In . SVG Version: 6.00 Build 0)  -->
<svg version="1.1" xmlns="http://www.w3.org/2000/svg" xmlns:xlink="http://www.w3.org/1999/xlink" x="0px" y="0px"
	 viewBox="0 0 300 300" style="enable-background:new 0 0 300 300;" xml:space="preserve">
<style type="text/css">
	.st0{fill:#D6D6D6;}
	.st1{fill:#FFFFFF;}
	.st2{fill:#F6F6F6;}
	.st3{fill:#999999;}
	.st4{fill:#D5D5D5;}
</style>
<g id="Layer_1">
	<g>
		<path class="st0" d="M276.8,289.62H25.95c-7.77,0-14.07-6.3-14.07-14.07V24.7c0-7.77,6.3-14.07,14.07-14.07H276.8
			c7.77,0,14.07,6.3,14.07,14.07v250.86C290.88,283.33,284.58,289.62,276.8,289.62z"/>
		<g>
			<circle class="st1" cx="39.75" cy="36.25" r="8"/>
			<circle class="st1" cx="70.86" cy="36.25" r="8"/>
			<circle class="st1" cx="101.97" cy="36.25" r="8"/>
		</g>
	</g>
	<path class="st2" d="M266.21,271.5H37.79c-2.99,0-5.41-2.42-5.41-5.41V67.91c0-2.99,2.42-5.41,5.41-5.41h228.42
		c2.99,0,5.41,2.42,5.41,5.41v198.17C271.62,269.08,269.2,271.5,266.21,271.5z"/>
	<g>
		<g>
			<circle class="st3" cx="80.93" cy="122.32" r="22.93"/>
			<g>
				<path class="st4" d="M69.27,133.71c0-6.55,5.31-11.85,11.85-11.85s11.85,5.31,11.85,11.85"/>
				<circle class="st2" cx="81.12" cy="116.57" r="5.53"/>
			</g>
		</g>
		<path class="st3" d="M174.86,115.76h-58.56c-1.66,0-3-1.34-3-3v-0.88c0-1.66,1.34-3,3-3h58.56c1.66,0,3,1.34,3,3v0.88
			C177.86,114.41,176.51,115.76,174.86,115.76z"/>
		<path class="st0" d="M243,135.76H116.29c-1.66,0-3-1.34-3-3v-0.88c0-1.66,1.34-3,3-3H243c1.66,0,3,1.34,3,3v0.88
			C246,134.41,244.66,135.76,243,135.76z"/>
		<path class="st0" d="M207.15,154.76h-90.86c-1.66,0-3-1.34-3-3v-0.88c0-1.66,1.34-3,3-3h90.86c1.66,0,3,1.34,3,3v0.88
			C210.15,153.41,208.81,154.76,207.15,154.76z"/>
		<path class="st0" d="M232.51,173.76H116.29c-1.66,0-3-1.34-3-3v-0.88c0-1.66,1.34-3,3-3h116.21c1.66,0,3,1.34,3,3v0.88
			C235.51,172.41,234.16,173.76,232.51,173.76z"/>
		<path class="st0" d="M224.55,192.76H116.29c-1.66,0-3-1.34-3-3v-0.88c0-1.66,1.34-3,3-3h108.26c1.66,0,3,1.34,3,3v0.88
			C227.55,191.41,226.21,192.76,224.55,192.76z"/>
		<path class="st0" d="M243,211.76H116.29c-1.66,0-3-1.34-3-3v-0.88c0-1.66,1.34-3,3-3H243c1.66,0,3,1.34,3,3v0.88
			C246,210.41,244.66,211.76,243,211.76z"/>
		<path class="st0" d="M187.01,230.76h-70.72c-1.66,0-3-1.34-3-3v-0.88c0-1.66,1.34-3,3-3h70.72c1.66,0,3,1.34,3,3v0.88
			C190.01,229.41,188.67,230.76,187.01,230.76z"/>
	</g>
</g>
<g id="Layer_2">
</g>
<g id="Layer_3">
</g>
</svg>
