<?xml version="1.0" encoding="utf-8"?>
<!-- Generator: Adobe Illustrator 24.2.0, SVG Export Plug-In . SVG Version: 6.00 Build 0)  -->
<svg version="1.1" id="Layer_1" xmlns="http://www.w3.org/2000/svg" xmlns:xlink="http://www.w3.org/1999/xlink" x="0px" y="0px"
	 viewBox="0 0 300 300" style="enable-background:new 0 0 300 300;" xml:space="preserve">
<style type="text/css">
	.st0{fill:#E5E5E5;}
	.st1{fill:#D0D2D3;}
	.st2{fill:#FFFFFF;}
	.st3{fill:#EDEDED;}
	.st4{fill:#D0D2D3;stroke:#EFEFEF;stroke-width:2;stroke-miterlimit:10;}
	.st5{fill:#EFEFEF;}
	.st6{fill:#BDBDBD;}
	.st7{fill:none;stroke:#565656;stroke-width:1.5;stroke-miterlimit:10;}
	.st8{fill:#565656;}
	.st9{fill:#C6C6C6;}
	.st10{fill:#E7E7E7;}
	.st11{fill:#E0E0E0;}
	.st12{fill:none;stroke:#D1D1D1;stroke-width:0.3;stroke-miterlimit:10;}
	.st13{fill:#919191;}
	.st14{fill:#F0F0F0;}
	.st15{fill:#C9C9C9;}
</style>
<path class="st0" d="M88.5,98.1L88.5,98.1c-1.4,0-2.5-1.1-2.5-2.5V80.5c0-1.4,1.1-2.5,2.5-2.5l0,0c1.4,0,2.5,1.1,2.5,2.5v15.1
	C91,96.9,89.9,98.1,88.5,98.1z"/>
<path class="st0" d="M211.5,98.1L211.5,98.1c-1.4,0-2.5-1.1-2.5-2.5V80.5c0-1.4,1.1-2.5,2.5-2.5l0,0c1.4,0,2.5,1.1,2.5,2.5v15.1
	C214,96.9,212.9,98.1,211.5,98.1z"/>
<path class="st0" d="M88.5,66.1L88.5,66.1c-1.4,0-2.5-1.1-2.5-2.5V58c0-1.4,1.1-2.5,2.5-2.5l0,0c1.4,0,2.5,1.1,2.5,2.5v5.6
	C91,65,89.9,66.1,88.5,66.1z"/>
<path class="st0" d="M88.5,122L88.5,122c-1.4,0-2.5-1.1-2.5-2.5v-15.1c0-1.4,1.1-2.5,2.5-2.5l0,0c1.4,0,2.5,1.1,2.5,2.5v15.1
	C91,120.9,89.9,122,88.5,122z"/>
<path class="st1" d="M198,272.1h-96c-7.8,0-14.1-6.3-14.1-14.1V42c0-7.8,6.3-14.1,14.1-14.1h96c7.8,0,14.1,6.3,14.1,14.1v216.1
	C212.1,265.8,205.8,272.1,198,272.1z"/>
<rect x="94.1" y="49" class="st2" width="111.8" height="195"/>
<path class="st3" d="M166.6,40h-23c-1.1,0-2-0.9-2-2l0,0c0-1.1,0.9-2,2-2h23c1.1,0,2,0.9,2,2l0,0C168.6,39.1,167.6,40,166.6,40z"/>
<path class="st3" d="M135.6,40h-2.1c-1.1,0-2-0.9-2-2l0,0c0-1.1,0.9-2,2-2h2.1c1.1,0,2,0.9,2,2l0,0C137.6,39.1,136.6,40,135.6,40z"
	/>
<circle class="st4" cx="150" cy="258" r="8"/>
<g>
	<g>
		<path class="st13" d="M120.2,117.3l0-14.4c0-0.7,0.6-1.3,1.3-1.3l0,0c0.7,0,1.3,0.6,1.3,1.3l0,14.4c0,0.7-0.6,1.3-1.3,1.3l0,0
			C120.8,118.7,120.2,118.1,120.2,117.3z"/>
		<path class="st13" d="M134.8,127V93.4c0-0.7,0.6-1.3,1.3-1.3h0c0.7,0,1.3,0.6,1.3,1.3V127c0,0.7-0.6,1.3-1.3,1.3h0
			C135.4,128.3,134.8,127.7,134.8,127z"/>
		<path class="st13" d="M149.4,121.3V99c0-0.7,0.6-1.3,1.3-1.3l0,0c0.7,0,1.3,0.6,1.3,1.3v22.3c0,0.7-0.6,1.3-1.3,1.3h0
			C150,122.6,149.4,122,149.4,121.3z"/>
		<path class="st13" d="M164,127V93.4c0-0.7,0.6-1.3,1.3-1.3h0c0.7,0,1.3,0.6,1.3,1.3V127c0,0.7-0.6,1.3-1.3,1.3h0
			C164.6,128.3,164,127.7,164,127z"/>
		<path class="st13" d="M178.6,114.1l0-7.8c0-0.7,0.6-1.3,1.3-1.3h0c0.7,0,1.3,0.6,1.3,1.3l0,7.8c0,0.7-0.6,1.3-1.3,1.3h0
			C179.2,115.4,178.6,114.8,178.6,114.1z"/>
	</g>
</g>
<rect x="94.1" y="49" class="st11" width="111.8" height="16.1"/>
<rect x="94.1" y="156.4" class="st14" width="111.8" height="87.6"/>
<path class="st13" d="M111.6,59h-10c-1.1,0-2-0.9-2-2v0c0-1.1,0.9-2,2-2h10c1.1,0,2,0.9,2,2v0C113.6,58.1,112.7,59,111.6,59z"/>
<path class="st13" d="M113.3,236.3h-11.8c-1.1,0-2-0.9-2-2l0,0c0-1.1,0.9-2,2-2h11.8c1.1,0,2,0.9,2,2l0,0
	C115.3,235.4,114.4,236.3,113.3,236.3z"/>
<path class="st13" d="M198.7,236.3h-19c-1.1,0-2-0.9-2-2l0,0c0-1.1,0.9-2,2-2h19c1.1,0,2,0.9,2,2l0,0
	C200.7,235.4,199.8,236.3,198.7,236.3z"/>
<g>
	<g>
		<path class="st13" d="M124.9,173.3c0,0.6,0,1.5,0,2v2.1c0,0.5-0.4,0.8-0.9,0.5l-1.8-1c-0.5-0.3-1.3-0.7-1.7-1l-1.8-1
			c-0.5-0.3-0.5-0.7,0-1l1.8-1c0.5-0.3,1.3-0.7,1.7-1l1.8-1c0.5-0.3,0.9-0.1,0.9,0.5V173.3z"/>
	</g>
	<g>
		<path class="st13" d="M129.7,173.3c0,0.6,0,1.5,0,2v2.1c0,0.5-0.4,0.8-0.9,0.5l-1.8-1c-0.5-0.3-1.3-0.7-1.7-1l-1.8-1
			c-0.5-0.3-0.5-0.7,0-1l1.8-1c0.5-0.3,1.3-0.7,1.7-1l1.8-1c0.5-0.3,0.9-0.1,0.9,0.5V173.3z"/>
	</g>
</g>
<g>
	<g>
		<path class="st13" d="M176.7,175.3c0-0.5,0-1.4,0-2v-2.1c0-0.6,0.4-0.8,0.9-0.5l1.8,1c0.5,0.3,1.3,0.7,1.7,1l1.8,1
			c0.5,0.3,0.5,0.7,0,1l-1.8,1c-0.5,0.3-1.3,0.7-1.7,1l-1.8,1c-0.5,0.3-0.9,0.1-0.9-0.5V175.3z"/>
	</g>
	<g>
		<path class="st13" d="M171.9,175.3c0-0.5,0-1.4,0-2v-2.1c0-0.6,0.4-0.8,0.9-0.5l1.8,1c0.5,0.3,1.3,0.7,1.7,1l1.8,1
			c0.5,0.3,0.5,0.7,0,1l-1.8,1c-0.5,0.3-1.3,0.7-1.7,1l-1.8,1c-0.5,0.3-0.9,0.1-0.9-0.5V175.3z"/>
	</g>
</g>
<g>
	<path class="st13" d="M147.5,175.3c0-0.5,0-1.4,0-2v-2.1c0-0.6,0.4-0.8,0.9-0.5l1.8,1c0.5,0.3,1.3,0.7,1.7,1l1.8,1
		c0.5,0.3,0.5,0.7,0,1l-1.8,1c-0.5,0.3-1.3,0.7-1.7,1l-1.8,1c-0.5,0.3-0.9,0.1-0.9-0.5V175.3z"/>
</g>
<g>
	<path class="st15" d="M193.4,199.5H108c-0.2,0-0.4-0.2-0.4-0.4l0,0c0-0.2,0.2-0.4,0.4-0.4h85.4c0.2,0,0.4,0.2,0.4,0.4l0,0
		C193.9,199.3,193.7,199.5,193.4,199.5z"/>
	<circle class="st13" cx="116.4" cy="199" r="3.8"/>
</g>
</svg>
