<?xml version="1.0" encoding="utf-8"?>
<!-- Generator: Adobe Illustrator 24.2.0, SVG Export Plug-In . SVG Version: 6.00 Build 0)  -->
<svg version="1.1" id="Layer_1" xmlns="http://www.w3.org/2000/svg" xmlns:xlink="http://www.w3.org/1999/xlink" x="0px" y="0px"
	 viewBox="0 0 300 300" style="enable-background:new 0 0 300 300;" xml:space="preserve">
<style type="text/css">
	.st0{fill:#E5E5E5;}
	.st1{fill:#D0D2D3;}
	.st2{fill:#FFFFFF;}
	.st3{fill:#EDEDED;}
	.st4{fill:#D0D2D3;stroke:#EFEFEF;stroke-width:2;stroke-miterlimit:10;}
	.st5{fill:#E0E0E0;}
	.st6{fill:#919191;}
	.st7{fill:#CCCCCC;}
	.st8{clip-path:url(#SVGID_2_);}
</style>
<path class="st0" d="M88.5,98.1L88.5,98.1c-1.4,0-2.5-1.1-2.5-2.5V80.5c0-1.4,1.1-2.5,2.5-2.5l0,0c1.4,0,2.5,1.1,2.5,2.5v15.1
	C91,96.9,89.9,98.1,88.5,98.1z"/>
<path class="st0" d="M211.5,98.1L211.5,98.1c-1.4,0-2.5-1.1-2.5-2.5V80.5c0-1.4,1.1-2.5,2.5-2.5l0,0c1.4,0,2.5,1.1,2.5,2.5v15.1
	C214,96.9,212.9,98.1,211.5,98.1z"/>
<path class="st0" d="M88.5,66.1L88.5,66.1c-1.4,0-2.5-1.1-2.5-2.5V58c0-1.4,1.1-2.5,2.5-2.5l0,0c1.4,0,2.5,1.1,2.5,2.5v5.6
	C91,65,89.9,66.1,88.5,66.1z"/>
<path class="st0" d="M88.5,122L88.5,122c-1.4,0-2.5-1.1-2.5-2.5v-15.1c0-1.4,1.1-2.5,2.5-2.5l0,0c1.4,0,2.5,1.1,2.5,2.5v15.1
	C91,120.9,89.9,122,88.5,122z"/>
<path class="st1" d="M198,272.1h-96c-7.8,0-14.1-6.3-14.1-14.1V42c0-7.8,6.3-14.1,14.1-14.1h96c7.8,0,14.1,6.3,14.1,14.1v216.1
	C212.1,265.8,205.8,272.1,198,272.1z"/>
<rect x="94.1" y="49" class="st2" width="111.8" height="195"/>
<path class="st3" d="M166.6,40h-23c-1.1,0-2-0.9-2-2l0,0c0-1.1,0.9-2,2-2h23c1.1,0,2,0.9,2,2l0,0C168.6,39.1,167.6,40,166.6,40z"/>
<path class="st3" d="M135.6,40h-2.1c-1.1,0-2-0.9-2-2l0,0c0-1.1,0.9-2,2-2h2.1c1.1,0,2,0.9,2,2l0,0C137.6,39.1,136.6,40,135.6,40z"
	/>
<circle class="st4" cx="150" cy="258" r="8"/>
<rect x="94.1" y="49" class="st5" width="111.8" height="16.1"/>
<rect x="94.1" y="204.3" class="st5" width="111.8" height="39.7"/>
<path class="st6" d="M198.7,59h-10c-1.1,0-2-0.9-2-2l0,0c0-1.1,0.9-2,2-2h10c1.1,0,2,0.9,2,2l0,0C200.7,58.1,199.8,59,198.7,59z"/>
<path class="st6" d="M111.6,59h-10c-1.1,0-2-0.9-2-2l0,0c0-1.1,0.9-2,2-2h10c1.1,0,2,0.9,2,2l0,0C113.6,58.1,112.7,59,111.6,59z"/>
<g>
	<path class="st7" d="M196.9,184c0,0.6-0.4,1-1,1h-92.1c-0.6,0-1-0.4-1-1v-79c0-0.6,0.4-1,1-1h92.1c0.6,0,1,0.4,1,1V184z"/>
</g>
<g>
	<g>
		<path class="st2" d="M189.3,177.8c0,0.6-0.5,1-1,1h-77.7c-0.6,0-1-0.4-1-1v-66.6c0-0.5,0.4-1,1-1h77.7c0.5,0,1,0.5,1,1V177.8z"/>
	</g>
	<g>
		<g>
			<defs>
				<rect id="SVGID_1_" x="109.7" y="110.2" width="79.7" height="68.6"/>
			</defs>
			<clipPath id="SVGID_2_">
				<use xlink:href="#SVGID_1_"  style="overflow:visible;"/>
			</clipPath>
			<g class="st8">
				<path class="st7" d="M105.5,182.7c-1.1,0-1.4-0.7-0.7-1.5l35.8-40.5c0.7-0.8,1.8-0.7,2.4,0.2l11.4,18.4c0.6,0.9,1.8,1.2,2.7,0.5
					l8.3-6.1c0.9-0.7,2.2-0.5,3,0.3l25.8,27.3c0.8,0.8,0.5,1.5-0.6,1.5L105.5,182.7L105.5,182.7z"/>
			</g>
		</g>
	</g>
</g>
<circle class="st7" cx="170.1" cy="130" r="9.2"/>
<circle class="st2" cx="150" cy="225" r="14.6"/>
<rect x="102.8" y="218.2" class="st1" width="19.6" height="13.7"/>
<rect x="177.1" y="218.2" class="st1" width="19.6" height="13.7"/>
</svg>
