<?xml version="1.0" encoding="utf-8"?>
<!-- Generator: Adobe Illustrator 24.2.0, SVG Export Plug-In . SVG Version: 6.00 Build 0)  -->
<svg version="1.1" id="Layer_1" xmlns="http://www.w3.org/2000/svg" xmlns:xlink="http://www.w3.org/1999/xlink" x="0px" y="0px"
	 viewBox="0 0 300 300" style="enable-background:new 0 0 300 300;" xml:space="preserve">
<style type="text/css">
	.st0{fill:#E5E5E5;}
	.st1{fill:#D0D2D3;}
	.st2{fill:#FFFFFF;}
	.st3{fill:#EDEDED;}
	.st4{fill:#D0D2D3;stroke:#EFEFEF;stroke-width:2;stroke-miterlimit:10;}
	.st5{fill:#EFEFEF;}
	.st6{fill:#BDBDBD;}
	.st7{fill:none;stroke:#565656;stroke-width:1.5;stroke-miterlimit:10;}
	.st8{fill:#565656;}
	.st9{fill:#C6C6C6;}
	.st10{fill:#E7E7E7;}
	.st11{fill:#E0E0E0;}
	.st12{fill:none;stroke:#D1D1D1;stroke-width:0.3;stroke-miterlimit:10;}
	.st13{fill:#919191;}
	.st14{fill:#F0F0F0;}
	.st15{fill:#CCCCCC;}
</style>
<path class="st0" d="M88.5,98.1L88.5,98.1c-1.4,0-2.5-1.1-2.5-2.5V80.5c0-1.4,1.1-2.5,2.5-2.5l0,0c1.4,0,2.5,1.1,2.5,2.5v15.1
	C91,96.9,89.9,98.1,88.5,98.1z"/>
<path class="st0" d="M211.5,98.1L211.5,98.1c-1.4,0-2.5-1.1-2.5-2.5V80.5c0-1.4,1.1-2.5,2.5-2.5l0,0c1.4,0,2.5,1.1,2.5,2.5v15.1
	C214,96.9,212.9,98.1,211.5,98.1z"/>
<path class="st0" d="M88.5,66.1L88.5,66.1c-1.4,0-2.5-1.1-2.5-2.5V58c0-1.4,1.1-2.5,2.5-2.5l0,0c1.4,0,2.5,1.1,2.5,2.5v5.6
	C91,65,89.9,66.1,88.5,66.1z"/>
<path class="st0" d="M88.5,122L88.5,122c-1.4,0-2.5-1.1-2.5-2.5v-15.1c0-1.4,1.1-2.5,2.5-2.5l0,0c1.4,0,2.5,1.1,2.5,2.5v15.1
	C91,120.9,89.9,122,88.5,122z"/>
<path class="st1" d="M198,272.1h-96c-7.8,0-14.1-6.3-14.1-14.1V42c0-7.8,6.3-14.1,14.1-14.1h96c7.8,0,14.1,6.3,14.1,14.1v216.1
	C212.1,265.8,205.8,272.1,198,272.1z"/>
<rect x="94.1" y="49" class="st2" width="111.8" height="195"/>
<path class="st3" d="M166.6,40h-23c-1.1,0-2-0.9-2-2l0,0c0-1.1,0.9-2,2-2h23c1.1,0,2,0.9,2,2l0,0C168.6,39.1,167.6,40,166.6,40z"/>
<path class="st3" d="M135.6,40h-2.1c-1.1,0-2-0.9-2-2l0,0c0-1.1,0.9-2,2-2h2.1c1.1,0,2,0.9,2,2l0,0C137.6,39.1,136.6,40,135.6,40z"
	/>
<circle class="st4" cx="150" cy="258" r="8"/>
<rect x="94.1" y="49" class="st11" width="111.8" height="16.1"/>
<rect x="94.1" y="224.9" class="st11" width="111.8" height="19.1"/>
<path class="st13" d="M135.3,59h-33.8c-1.1,0-2-0.9-2-2v0c0-1.1,0.9-2,2-2h33.8c1.1,0,2,0.9,2,2v0C137.3,58.1,136.4,59,135.3,59z"/>
<path class="st13" d="M199,59h-9.5c-1.1,0-2-0.9-2-2v0c0-1.1,0.9-2,2-2h9.5c1.1,0,2,0.9,2,2v0C201,58.1,200.1,59,199,59z"/>
<path class="st13" d="M143.2,236.3h-41.6c-1.1,0-2-0.9-2-2l0,0c0-1.1,0.9-2,2-2h41.6c1.1,0,2,0.9,2,2l0,0
	C145.2,235.4,144.3,236.3,143.2,236.3z"/>
<g>
	<path class="st13" d="M195,83.1h-55.8c-1.1,0-2-0.9-2-2v0c0-1.1,0.9-2,2-2H195c1.1,0,2,0.9,2,2v0C197,82.2,196.1,83.1,195,83.1z"/>
	<path class="st14" d="M181.4,94.1h-42.2c-1.1,0-2-0.9-2-2v0c0-1.1,0.9-2,2-2h42.2c1.1,0,2,0.9,2,2v0
		C183.4,93.2,182.5,94.1,181.4,94.1z"/>
</g>
<path class="st14" d="M193,122.8h-87.8c-1.1,0-2-0.9-2-2v0c0-1.1,0.9-2,2-2H193c1.1,0,2,0.9,2,2v0C195,121.9,194.1,122.8,193,122.8z
	"/>
<path class="st14" d="M184.5,133.8h-79.4c-1.1,0-2-0.9-2-2l0,0c0-1.1,0.9-2,2-2h79.4c1.1,0,2,0.9,2,2l0,0
	C186.5,132.9,185.6,133.8,184.5,133.8z"/>
<path class="st14" d="M166.6,145h-61.4c-1.1,0-2-0.9-2-2l0,0c0-1.1,0.9-2,2-2h61.4c1.1,0,2,0.9,2,2l0,0
	C168.6,144.1,167.7,145,166.6,145z"/>
<path class="st13" d="M198.7,236.3h-7.5c-1.1,0-2-0.9-2-2l0,0c0-1.1,0.9-2,2-2h7.5c1.1,0,2,0.9,2,2l0,0
	C200.7,235.4,199.8,236.3,198.7,236.3z"/>
<circle class="st15" cx="117.1" cy="86.6" r="14"/>
<line class="st12" x1="94.1" y1="109.7" x2="205.9" y2="109.7"/>
</svg>
