<?xml version="1.0" encoding="utf-8"?>
<!-- Generator: Adobe Illustrator 24.2.0, SVG Export Plug-In . SVG Version: 6.00 Build 0)  -->
<svg version="1.1" id="Layer_1" xmlns="http://www.w3.org/2000/svg" xmlns:xlink="http://www.w3.org/1999/xlink" x="0px" y="0px"
	 viewBox="0 0 300 300" style="enable-background:new 0 0 300 300;" xml:space="preserve">
<style type="text/css">
	.st0{fill:#E5E5E5;}
	.st1{fill:#D0D2D3;}
	.st2{fill:#FFFFFF;}
	.st3{fill:#EDEDED;}
	.st4{fill:#D0D2D3;stroke:#EFEFEF;stroke-width:2;stroke-miterlimit:10;}
	.st5{fill:#8E8E8E;}
	.st6{fill:#C6C6C6;}
	.st7{fill:none;stroke:#C1C1C1;stroke-width:2;stroke-miterlimit:10;}
	.st8{fill:#C1C1C1;}
	.st9{fill:none;stroke:#FFFFFF;stroke-width:2;stroke-linecap:round;stroke-miterlimit:10;}
	.st10{fill:none;stroke:#C1C1C1;stroke-width:2;stroke-linecap:round;stroke-miterlimit:10;}
	.st11{fill:#E0E0E0;}
	.st12{fill:#CCCCCC;}
	.st13{fill:#F0F0F0;}
	.st14{fill:#919191;}
	.st15{fill:#979797;}
	.st16{fill:#B7B7B7;}
	.st17{fill:#F6F6F6;}
</style>
<path class="st0" d="M88.5,98.1L88.5,98.1c-1.4,0-2.5-1.1-2.5-2.5V80.5c0-1.4,1.1-2.5,2.5-2.5l0,0c1.4,0,2.5,1.1,2.5,2.5v15.1
	C91,96.9,89.9,98.1,88.5,98.1z"/>
<path class="st0" d="M211.5,98.1L211.5,98.1c-1.4,0-2.5-1.1-2.5-2.5V80.5c0-1.4,1.1-2.5,2.5-2.5l0,0c1.4,0,2.5,1.1,2.5,2.5v15.1
	C214,96.9,212.9,98.1,211.5,98.1z"/>
<path class="st0" d="M88.5,66.1L88.5,66.1c-1.4,0-2.5-1.1-2.5-2.5V58c0-1.4,1.1-2.5,2.5-2.5l0,0c1.4,0,2.5,1.1,2.5,2.5v5.6
	C91,65,89.9,66.1,88.5,66.1z"/>
<path class="st0" d="M88.5,122L88.5,122c-1.4,0-2.5-1.1-2.5-2.5v-15.1c0-1.4,1.1-2.5,2.5-2.5l0,0c1.4,0,2.5,1.1,2.5,2.5v15.1
	C91,120.9,89.9,122,88.5,122z"/>
<path class="st1" d="M198,272.1h-96c-7.8,0-14.1-6.3-14.1-14.1V42c0-7.8,6.3-14.1,14.1-14.1h96c7.8,0,14.1,6.3,14.1,14.1v216.1
	C212.1,265.8,205.8,272.1,198,272.1z"/>
<rect x="94.1" y="49" class="st2" width="111.8" height="195"/>
<path class="st3" d="M166.6,40h-23c-1.1,0-2-0.9-2-2l0,0c0-1.1,0.9-2,2-2h23c1.1,0,2,0.9,2,2l0,0C168.6,39.1,167.6,40,166.6,40z"/>
<path class="st3" d="M135.6,40h-2.1c-1.1,0-2-0.9-2-2l0,0c0-1.1,0.9-2,2-2h2.1c1.1,0,2,0.9,2,2l0,0C137.6,39.1,136.6,40,135.6,40z"
	/>
<circle class="st4" cx="150" cy="258" r="8"/>
<rect x="94.1" y="49" class="st11" width="111.8" height="16"/>
<rect x="94.1" y="225" class="st11" width="111.8" height="19"/>
<path class="st14" d="M113.8,59h-8.7c-1.1,0-2-0.9-2-2v0c0-1.1,0.9-2,2-2h8.7c1.1,0,2,0.9,2,2v0C115.8,58.1,114.9,59,113.8,59z"/>
<path class="st14" d="M196.8,59h-8.7c-1.1,0-2-0.9-2-2v0c0-1.1,0.9-2,2-2h8.7c1.1,0,2,0.9,2,2v0C198.8,58.1,197.9,59,196.8,59z"/>
<path class="st14" d="M196.8,236h-8.7c-1.1,0-2-0.9-2-2l0,0c0-1.1,0.9-2,2-2h8.7c1.1,0,2,0.9,2,2l0,0
	C198.8,235.1,197.9,236,196.8,236z"/>
<path class="st14" d="M168.8,236h-8.7c-1.1,0-2-0.9-2-2l0,0c0-1.1,0.9-2,2-2h8.7c1.1,0,2,0.9,2,2l0,0
	C170.8,235.1,169.9,236,168.8,236z"/>
<path class="st14" d="M140.8,236h-8.7c-1.1,0-2-0.9-2-2l0,0c0-1.1,0.9-2,2-2h8.7c1.1,0,2,0.9,2,2l0,0
	C142.8,235.1,141.9,236,140.8,236z"/>
<path class="st14" d="M112.8,236h-8.7c-1.1,0-2-0.9-2-2l0,0c0-1.1,0.9-2,2-2h8.7c1.1,0,2,0.9,2,2l0,0
	C114.8,235.1,113.9,236,112.8,236z"/>
<g>
	<path class="st16" d="M192,110.9v53.8c0,2.5-2,4.5-4.5,4.5h-74.3c-2.5,0-4.5-2-4.5-4.5v-53.8c0-2.5,2-4.5,4.5-4.5h74.3
		C190,106.4,192,108.4,192,110.9z"/>
	<g>
		<path class="st17" d="M123.3,164.8c1.5,0,4,0,5.5,0h56.7c1.5,0,2.7-1.2,2.7-2.7v-6.2c0-1.5-0.9-3.6-1.9-4.7l-18.5-18.8
			c-1.1-1.1-2.8-1.1-3.8,0L153,143.5c-1.1,1.1-2.8,1.1-3.8,0l-5-5.1c-1.1-1.1-2.8-1.1-3.8,0l-24.1,24.5c-1.1,1.1-0.7,1.9,0.8,1.9
			C117,164.8,123.3,164.8,123.3,164.8z"/>
	</g>
	<circle class="st17" cx="128.2" cy="119.9" r="7.1"/>
</g>
</svg>
