<?xml version="1.0" encoding="utf-8"?>
<!-- Generator: Adobe Illustrator 24.2.0, SVG Export Plug-In . SVG Version: 6.00 Build 0)  -->
<svg version="1.1" xmlns="http://www.w3.org/2000/svg" xmlns:xlink="http://www.w3.org/1999/xlink" x="0px" y="0px"
	 viewBox="0 0 300 300" style="enable-background:new 0 0 300 300;" xml:space="preserve">
<style type="text/css">
	.st0{fill:#999999;}
	.st1{fill:#D6D6D6;}
	.st2{fill:#E5E5E5;}
	.st3{fill:#D0D2D3;}
	.st4{fill:#FFFFFF;}
	.st5{fill:#EDEDED;}
	.st6{fill:#D0D2D3;stroke:#EFEFEF;stroke-width:2;stroke-miterlimit:10;}
	.st7{fill:#E8E8E8;}
	.st8{fill:#BDBDBD;}
	.st9{fill:#F0F0F0;}
	.st10{fill:none;stroke:#CECECE;stroke-width:0.5;stroke-miterlimit:10;}
	.st11{fill:#EFEFEF;}
	.st12{fill:none;stroke:#999999;stroke-miterlimit:10;}
	.st13{fill:#EAEAEA;}
	.st14{fill:#D8D8D8;}
	.st15{fill:#F6F6F6;}
	.st16{fill:none;stroke:#F6F6F6;stroke-linecap:round;stroke-miterlimit:10;}
	.st17{opacity:0.8;}
</style>
<g id="Layer_1">
	<path class="st2" d="M88.5,98.05L88.5,98.05c-1.38,0-2.5-1.12-2.5-2.5V80.5c0-1.38,1.12-2.5,2.5-2.5l0,0c1.38,0,2.5,1.12,2.5,2.5
		v15.05C91,96.93,89.88,98.05,88.5,98.05z"/>
	<path class="st2" d="M211.5,98.05L211.5,98.05c-1.38,0-2.5-1.12-2.5-2.5V80.5c0-1.38,1.12-2.5,2.5-2.5l0,0c1.38,0,2.5,1.12,2.5,2.5
		v15.05C214,96.93,212.88,98.05,211.5,98.05z"/>
	<path class="st2" d="M88.5,66.09L88.5,66.09c-1.38,0-2.5-1.12-2.5-2.5v-5.63c0-1.38,1.12-2.5,2.5-2.5h0c1.38,0,2.5,1.12,2.5,2.5
		v5.63C91,64.98,89.88,66.09,88.5,66.09z"/>
	<path class="st2" d="M88.5,122L88.5,122c-1.38,0-2.5-1.12-2.5-2.5v-15.05c0-1.38,1.12-2.5,2.5-2.5l0,0c1.38,0,2.5,1.12,2.5,2.5
		v15.05C91,120.88,89.88,122,88.5,122z"/>
	<path class="st3" d="M197.99,272.12h-95.98c-7.77,0-14.07-6.3-14.07-14.07V41.95c0-7.77,6.3-14.07,14.07-14.07h95.98
		c7.77,0,14.07,6.3,14.07,14.07v216.11C212.06,265.83,205.76,272.12,197.99,272.12z"/>
	<rect x="94.1" y="49" class="st4" width="111.8" height="195"/>
	<path class="st5" d="M166.55,40h-23c-1.1,0-2-0.9-2-2v0c0-1.1,0.9-2,2-2h23c1.1,0,2,0.9,2,2v0C168.55,39.1,167.65,40,166.55,40z"/>
	<path class="st5" d="M135.55,40h-2.1c-1.1,0-2-0.9-2-2v0c0-1.1,0.9-2,2-2h2.1c1.1,0,2,0.9,2,2v0C137.55,39.1,136.65,40,135.55,40z"
		/>
	<circle class="st6" cx="150" cy="258" r="8"/>
	<rect x="94.1" y="49" class="st11" width="111.8" height="17"/>
	<rect x="94.1" y="227" class="st13" width="111.8" height="17"/>
	<path class="st14" d="M197.51,237H187c-1.1,0-2-0.9-2-2v0c0-1.1,0.9-2,2-2h10.51c1.1,0,2,0.9,2,2v0
		C199.51,236.1,198.62,237,197.51,237z"/>
	<path class="st8" d="M198.07,59h-34.52c-1.1,0-2-0.9-2-2v0c0-1.1,0.9-2,2-2h34.52c1.1,0,2,0.9,2,2v0
		C200.07,58.1,199.17,59,198.07,59z"/>
	<path class="st8" d="M107.58,59h-7.03c-1.1,0-2-0.9-2-2v0c0-1.1,0.9-2,2-2h7.03c1.1,0,2,0.9,2,2v0C109.58,58.1,108.68,59,107.58,59
		z"/>
	<g>
		<path class="st9" d="M129.72,72.78v19.99c0,0.91-0.73,1.64-1.64,1.64h-26.37c-0.91,0-1.64-0.73-1.64-1.64l0-19.99
			c0-0.91,0.73-1.64,1.64-1.64h26.37C128.99,71.14,129.72,71.88,129.72,72.78z"/>
		<g>
			<path class="st8" d="M111.43,83.78c0-0.55,0-1.45,0-2v-2.01c0-0.55,0.39-0.78,0.87-0.5l1.74,1c0.48,0.28,1.26,0.72,1.73,1l1.74,1
				c0.48,0.27,0.48,0.72,0,1l-1.74,1c-0.48,0.28-1.26,0.72-1.73,1l-1.74,1c-0.48,0.28-0.87,0.05-0.87-0.5V83.78z"/>
		</g>
	</g>
	<g>
		<path class="st9" d="M164.86,72.78l0,19.99c0,0.91-0.73,1.64-1.64,1.64h-26.37c-0.91,0-1.64-0.73-1.64-1.64V72.78
			c0-0.91,0.73-1.64,1.64-1.64h26.37C164.13,71.14,164.86,71.88,164.86,72.78z"/>
		<g>
			<path class="st8" d="M146.57,83.78c0-0.55,0-1.45,0-2v-2.01c0-0.55,0.39-0.78,0.87-0.5l1.74,1c0.48,0.28,1.26,0.72,1.73,1l1.74,1
				c0.48,0.27,0.48,0.72,0,1l-1.74,1c-0.48,0.28-1.26,0.72-1.73,1l-1.74,1c-0.48,0.28-0.87,0.05-0.87-0.5V83.78z"/>
		</g>
	</g>
	<g>
		<path class="st9" d="M200,72.78v19.99c0,0.91-0.73,1.64-1.64,1.64h-26.37c-0.91,0-1.64-0.73-1.64-1.64l0-19.99
			c0-0.91,0.73-1.64,1.64-1.64h26.37C199.27,71.14,200,71.88,200,72.78z"/>
		<g>
			<path class="st8" d="M181.71,83.78c0-0.55,0-1.45,0-2v-2.01c0-0.55,0.39-0.78,0.87-0.5l1.74,1c0.48,0.28,1.26,0.72,1.73,1l1.74,1
				c0.48,0.27,0.48,0.72,0,1l-1.74,1c-0.48,0.28-1.26,0.72-1.73,1l-1.74,1c-0.48,0.28-0.87,0.05-0.87-0.5V83.78z"/>
		</g>
	</g>
	<g>
		<path class="st9" d="M129.72,100.78v19.99c0,0.91-0.73,1.64-1.64,1.64h-26.37c-0.91,0-1.64-0.73-1.64-1.64l0-19.99
			c0-0.91,0.73-1.64,1.64-1.64h26.37C128.99,99.14,129.72,99.88,129.72,100.78z"/>
		<g>
			<path class="st8" d="M111.43,111.78c0-0.55,0-1.45,0-2v-2.01c0-0.55,0.39-0.78,0.87-0.5l1.74,1c0.48,0.28,1.26,0.72,1.73,1
				l1.74,1c0.48,0.27,0.48,0.72,0,1l-1.74,1c-0.48,0.28-1.26,0.72-1.73,1l-1.74,1c-0.48,0.28-0.87,0.05-0.87-0.5V111.78z"/>
		</g>
	</g>
	<g>
		<path class="st9" d="M164.86,100.78l0,19.99c0,0.91-0.73,1.64-1.64,1.64h-26.37c-0.91,0-1.64-0.73-1.64-1.64v-19.99
			c0-0.91,0.73-1.64,1.64-1.64h26.37C164.13,99.14,164.86,99.88,164.86,100.78z"/>
		<g>
			<path class="st8" d="M146.57,111.78c0-0.55,0-1.45,0-2v-2.01c0-0.55,0.39-0.78,0.87-0.5l1.74,1c0.48,0.28,1.26,0.72,1.73,1
				l1.74,1c0.48,0.27,0.48,0.72,0,1l-1.74,1c-0.48,0.28-1.26,0.72-1.73,1l-1.74,1c-0.48,0.28-0.87,0.05-0.87-0.5V111.78z"/>
		</g>
	</g>
	<g>
		<path class="st9" d="M200,100.78v19.99c0,0.91-0.73,1.64-1.64,1.64h-26.37c-0.91,0-1.64-0.73-1.64-1.64l0-19.99
			c0-0.91,0.73-1.64,1.64-1.64h26.37C199.27,99.14,200,99.88,200,100.78z"/>
		<g>
			<path class="st8" d="M181.71,111.78c0-0.55,0-1.45,0-2v-2.01c0-0.55,0.39-0.78,0.87-0.5l1.74,1c0.48,0.28,1.26,0.72,1.73,1
				l1.74,1c0.48,0.27,0.48,0.72,0,1l-1.74,1c-0.48,0.28-1.26,0.72-1.73,1l-1.74,1c-0.48,0.28-0.87,0.05-0.87-0.5V111.78z"/>
		</g>
	</g>
	<g>
		<path class="st9" d="M129.72,128.78v19.99c0,0.91-0.73,1.64-1.64,1.64h-26.37c-0.91,0-1.64-0.73-1.64-1.64l0-19.99
			c0-0.91,0.73-1.64,1.64-1.64h26.37C128.99,127.14,129.72,127.88,129.72,128.78z"/>
		<g>
			<path class="st8" d="M111.43,139.78c0-0.55,0-1.45,0-2v-2.01c0-0.55,0.39-0.77,0.87-0.5l1.74,1c0.48,0.28,1.26,0.73,1.73,1
				l1.74,1c0.48,0.27,0.48,0.72,0,1l-1.74,1c-0.48,0.28-1.26,0.73-1.73,1l-1.74,1c-0.48,0.28-0.87,0.05-0.87-0.5V139.78z"/>
		</g>
	</g>
	<g>
		<path class="st9" d="M164.86,128.78l0,19.99c0,0.91-0.73,1.64-1.64,1.64h-26.37c-0.91,0-1.64-0.73-1.64-1.64v-19.99
			c0-0.91,0.73-1.64,1.64-1.64h26.37C164.13,127.14,164.86,127.88,164.86,128.78z"/>
		<g>
			<path class="st8" d="M146.57,139.78c0-0.55,0-1.45,0-2v-2.01c0-0.55,0.39-0.77,0.87-0.5l1.74,1c0.48,0.28,1.26,0.73,1.73,1
				l1.74,1c0.48,0.27,0.48,0.72,0,1l-1.74,1c-0.48,0.28-1.26,0.73-1.73,1l-1.74,1c-0.48,0.28-0.87,0.05-0.87-0.5V139.78z"/>
		</g>
	</g>
	<g>
		<path class="st9" d="M200,128.78v19.99c0,0.91-0.73,1.64-1.64,1.64h-26.37c-0.91,0-1.64-0.73-1.64-1.64l0-19.99
			c0-0.91,0.73-1.64,1.64-1.64h26.37C199.27,127.14,200,127.88,200,128.78z"/>
		<g>
			<path class="st8" d="M181.71,139.78c0-0.55,0-1.45,0-2v-2.01c0-0.55,0.39-0.77,0.87-0.5l1.74,1c0.48,0.28,1.26,0.73,1.73,1
				l1.74,1c0.48,0.27,0.48,0.72,0,1l-1.74,1c-0.48,0.28-1.26,0.73-1.73,1l-1.74,1c-0.48,0.28-0.87,0.05-0.87-0.5V139.78z"/>
		</g>
	</g>
	<g>
		<path class="st9" d="M129.72,156.78v19.99c0,0.91-0.73,1.64-1.64,1.64h-26.37c-0.91,0-1.64-0.73-1.64-1.64l0-19.99
			c0-0.91,0.73-1.64,1.64-1.64h26.37C128.99,155.14,129.72,155.88,129.72,156.78z"/>
		<g>
			<path class="st8" d="M111.43,167.78c0-0.55,0-1.45,0-2v-2.01c0-0.55,0.39-0.77,0.87-0.5l1.74,1c0.48,0.28,1.26,0.73,1.73,1
				l1.74,1c0.48,0.27,0.48,0.72,0,1l-1.74,1c-0.48,0.28-1.26,0.73-1.73,1l-1.74,1c-0.48,0.28-0.87,0.05-0.87-0.5V167.78z"/>
		</g>
	</g>
	<g>
		<path class="st9" d="M164.86,156.78l0,19.99c0,0.91-0.73,1.64-1.64,1.64h-26.37c-0.91,0-1.64-0.73-1.64-1.64v-19.99
			c0-0.91,0.73-1.64,1.64-1.64h26.37C164.13,155.14,164.86,155.88,164.86,156.78z"/>
		<g>
			<path class="st8" d="M146.57,167.78c0-0.55,0-1.45,0-2v-2.01c0-0.55,0.39-0.77,0.87-0.5l1.74,1c0.48,0.28,1.26,0.73,1.73,1
				l1.74,1c0.48,0.27,0.48,0.72,0,1l-1.74,1c-0.48,0.28-1.26,0.73-1.73,1l-1.74,1c-0.48,0.28-0.87,0.05-0.87-0.5V167.78z"/>
		</g>
	</g>
	<g>
		<path class="st9" d="M200,156.78v19.99c0,0.91-0.73,1.64-1.64,1.64h-26.37c-0.91,0-1.64-0.73-1.64-1.64l0-19.99
			c0-0.91,0.73-1.64,1.64-1.64h26.37C199.27,155.14,200,155.88,200,156.78z"/>
		<g>
			<path class="st8" d="M181.71,167.78c0-0.55,0-1.45,0-2v-2.01c0-0.55,0.39-0.77,0.87-0.5l1.74,1c0.48,0.28,1.26,0.73,1.73,1
				l1.74,1c0.48,0.27,0.48,0.72,0,1l-1.74,1c-0.48,0.28-1.26,0.73-1.73,1l-1.74,1c-0.48,0.28-0.87,0.05-0.87-0.5V167.78z"/>
		</g>
	</g>
	<g>
		<path class="st9" d="M129.72,184.78v19.99c0,0.91-0.73,1.64-1.64,1.64h-26.37c-0.91,0-1.64-0.73-1.64-1.64l0-19.99
			c0-0.91,0.73-1.64,1.64-1.64h26.37C128.99,183.14,129.72,183.88,129.72,184.78z"/>
		<g>
			<path class="st8" d="M111.43,195.78c0-0.55,0-1.45,0-2v-2.01c0-0.55,0.39-0.77,0.87-0.5l1.74,1c0.48,0.28,1.26,0.73,1.73,1
				l1.74,1c0.48,0.27,0.48,0.72,0,1l-1.74,1c-0.48,0.28-1.26,0.73-1.73,1l-1.74,1c-0.48,0.28-0.87,0.05-0.87-0.5V195.78z"/>
		</g>
	</g>
	<g>
		<path class="st9" d="M164.86,184.78l0,19.99c0,0.91-0.73,1.64-1.64,1.64h-26.37c-0.91,0-1.64-0.73-1.64-1.64v-19.99
			c0-0.91,0.73-1.64,1.64-1.64h26.37C164.13,183.14,164.86,183.88,164.86,184.78z"/>
		<g>
			<path class="st8" d="M146.57,195.78c0-0.55,0-1.45,0-2v-2.01c0-0.55,0.39-0.77,0.87-0.5l1.74,1c0.48,0.28,1.26,0.73,1.73,1
				l1.74,1c0.48,0.27,0.48,0.72,0,1l-1.74,1c-0.48,0.28-1.26,0.73-1.73,1l-1.74,1c-0.48,0.28-0.87,0.05-0.87-0.5V195.78z"/>
		</g>
	</g>
	<g>
		<path class="st9" d="M200,184.78v19.99c0,0.91-0.73,1.64-1.64,1.64h-26.37c-0.91,0-1.64-0.73-1.64-1.64l0-19.99
			c0-0.91,0.73-1.64,1.64-1.64h26.37C199.27,183.14,200,183.88,200,184.78z"/>
		<g>
			<path class="st8" d="M181.71,195.78c0-0.55,0-1.45,0-2v-2.01c0-0.55,0.39-0.77,0.87-0.5l1.74,1c0.48,0.28,1.26,0.73,1.73,1
				l1.74,1c0.48,0.27,0.48,0.72,0,1l-1.74,1c-0.48,0.28-1.26,0.73-1.73,1l-1.74,1c-0.48,0.28-0.87,0.05-0.87-0.5V195.78z"/>
		</g>
	</g>
</g>
<g id="Layer_2">
</g>
<g id="Layer_3">
</g>
</svg>
