<?xml version="1.0" encoding="utf-8"?>
<!-- Generator: Adobe Illustrator 24.2.0, SVG Export Plug-In . SVG Version: 6.00 Build 0)  -->
<svg version="1.1" xmlns="http://www.w3.org/2000/svg" xmlns:xlink="http://www.w3.org/1999/xlink" x="0px" y="0px"
	 viewBox="0 0 300 300" style="enable-background:new 0 0 300 300;" xml:space="preserve">
<style type="text/css">
	.st0{fill:#999999;}
	.st1{fill:#D6D6D6;}
	.st2{fill:#F6F6F6;}
	.st3{fill:#E5E5E5;}
	.st4{fill:#D0D2D3;}
	.st5{fill:#FFFFFF;}
	.st6{fill:#EDEDED;}
	.st7{fill:#D0D2D3;stroke:#EFEFEF;stroke-width:2;stroke-miterlimit:10;}
	.st8{fill:#E8E8E8;}
	.st9{fill:#BDBDBD;}
	.st10{fill:#F0F0F0;}
	.st11{fill:none;stroke:#CECECE;stroke-width:0.5;stroke-miterlimit:10;}
	.st12{fill:#EFEFEF;}
	.st13{fill:none;stroke:#999999;stroke-miterlimit:10;}
	.st14{fill:#EAEAEA;}
	.st15{fill:#D8D8D8;}
	.st16{fill:none;stroke:#F6F6F6;stroke-linecap:round;stroke-miterlimit:10;}
	.st17{opacity:0.5;}
</style>
<g id="Layer_1">
	<path class="st3" d="M88.5,98.05L88.5,98.05c-1.38,0-2.5-1.12-2.5-2.5V80.5c0-1.38,1.12-2.5,2.5-2.5l0,0c1.38,0,2.5,1.12,2.5,2.5
		v15.05C91,96.93,89.88,98.05,88.5,98.05z"/>
	<path class="st3" d="M211.5,98.05L211.5,98.05c-1.38,0-2.5-1.12-2.5-2.5V80.5c0-1.38,1.12-2.5,2.5-2.5l0,0c1.38,0,2.5,1.12,2.5,2.5
		v15.05C214,96.93,212.88,98.05,211.5,98.05z"/>
	<path class="st3" d="M88.5,66.09L88.5,66.09c-1.38,0-2.5-1.12-2.5-2.5v-5.63c0-1.38,1.12-2.5,2.5-2.5h0c1.38,0,2.5,1.12,2.5,2.5
		v5.63C91,64.98,89.88,66.09,88.5,66.09z"/>
	<path class="st3" d="M88.5,122L88.5,122c-1.38,0-2.5-1.12-2.5-2.5v-15.05c0-1.38,1.12-2.5,2.5-2.5l0,0c1.38,0,2.5,1.12,2.5,2.5
		v15.05C91,120.88,89.88,122,88.5,122z"/>
	<path class="st4" d="M197.99,272.12h-95.98c-7.77,0-14.07-6.3-14.07-14.07V41.95c0-7.77,6.3-14.07,14.07-14.07h95.98
		c7.77,0,14.07,6.3,14.07,14.07v216.11C212.06,265.83,205.76,272.12,197.99,272.12z"/>
	<rect x="94.1" y="49" class="st5" width="111.8" height="195"/>
	<path class="st6" d="M166.55,40h-23c-1.1,0-2-0.9-2-2v0c0-1.1,0.9-2,2-2h23c1.1,0,2,0.9,2,2v0C168.55,39.1,167.65,40,166.55,40z"/>
	<path class="st6" d="M135.55,40h-2.1c-1.1,0-2-0.9-2-2v0c0-1.1,0.9-2,2-2h2.1c1.1,0,2,0.9,2,2v0C137.55,39.1,136.65,40,135.55,40z"
		/>
	<circle class="st7" cx="150" cy="258" r="8"/>
	<rect x="94.1" y="49" class="st12" width="111.8" height="17"/>
	<rect x="94.1" y="227" class="st14" width="111.8" height="17"/>
	<path class="st9" d="M177.51,237H167c-1.1,0-2-0.9-2-2v0c0-1.1,0.9-2,2-2h10.51c1.1,0,2,0.9,2,2v0
		C179.51,236.1,178.62,237,177.51,237z"/>
	<path class="st9" d="M198.51,237H188c-1.1,0-2-0.9-2-2v0c0-1.1,0.9-2,2-2h10.51c1.1,0,2,0.9,2,2v0
		C200.51,236.1,199.62,237,198.51,237z"/>
	<path class="st15" d="M198.51,59h-46.99c-1.1,0-2-0.9-2-2v0c0-1.1,0.9-2,2-2h46.99c1.1,0,2,0.9,2,2v0
		C200.51,58.1,199.62,59,198.51,59z"/>
	<g>
		<path class="st0" d="M130.52,72.64v19.72c0,0.91-0.73,1.64-1.64,1.64l-27.25,0c-0.91,0-1.64-0.73-1.64-1.64V72.64
			c0-0.91,0.73-1.64,1.64-1.64h27.25C129.78,71,130.52,71.73,130.52,72.64z"/>
		<g>
			<path class="st2" d="M108.06,84.45L108.06,84.45c-0.27,0-0.49-0.22-0.49-0.49v-2.92c0-0.27,0.22-0.49,0.49-0.49l0,0
				c0.27,0,0.49,0.22,0.49,0.49v2.92C108.55,84.23,108.33,84.45,108.06,84.45z"/>
			<path class="st2" d="M111.47,87L111.47,87c-0.27,0-0.49-0.22-0.49-0.49v-8.03c0-0.27,0.22-0.49,0.49-0.49l0,0
				c0.27,0,0.49,0.22,0.49,0.49v8.03C111.96,86.78,111.74,87,111.47,87z"/>
			<path class="st2" d="M115.13,84.69L115.13,84.69c-0.27,0-0.49-0.22-0.49-0.49v-2.92c0-0.27,0.22-0.49,0.49-0.49h0
				c0.27,0,0.49,0.22,0.49,0.49v2.92C115.62,84.47,115.4,84.69,115.13,84.69z"/>
			<path class="st2" d="M118.78,87L118.78,87c-0.27,0-0.49-0.22-0.49-0.49v-8.03c0-0.27,0.22-0.49,0.49-0.49l0,0
				c0.27,0,0.49,0.22,0.49,0.49v8.03C119.27,86.78,119.05,87,118.78,87z"/>
			<path class="st2" d="M122.44,84.69L122.44,84.69c-0.27,0-0.49-0.22-0.49-0.49v-2.92c0-0.27,0.22-0.49,0.49-0.49l0,0
				c0.27,0,0.49,0.22,0.49,0.49v2.92C122.93,84.47,122.71,84.69,122.44,84.69z"/>
		</g>
	</g>
	<g class="st17">
		<path class="st0" d="M165.52,72.64v19.72c0,0.91-0.73,1.64-1.64,1.64l-27.25,0c-0.91,0-1.64-0.73-1.64-1.64V72.64
			c0-0.91,0.73-1.64,1.64-1.64h27.25C164.78,71,165.52,71.73,165.52,72.64z"/>
		<g>
			<path class="st2" d="M143.06,84.45L143.06,84.45c-0.27,0-0.49-0.22-0.49-0.49v-2.92c0-0.27,0.22-0.49,0.49-0.49l0,0
				c0.27,0,0.49,0.22,0.49,0.49v2.92C143.55,84.23,143.33,84.45,143.06,84.45z"/>
			<path class="st2" d="M146.47,87L146.47,87c-0.27,0-0.49-0.22-0.49-0.49v-8.03c0-0.27,0.22-0.49,0.49-0.49l0,0
				c0.27,0,0.49,0.22,0.49,0.49v8.03C146.96,86.78,146.74,87,146.47,87z"/>
			<path class="st2" d="M150.13,84.69L150.13,84.69c-0.27,0-0.49-0.22-0.49-0.49v-2.92c0-0.27,0.22-0.49,0.49-0.49l0,0
				c0.27,0,0.49,0.22,0.49,0.49v2.92C150.62,84.47,150.4,84.69,150.13,84.69z"/>
			<path class="st2" d="M153.78,87L153.78,87c-0.27,0-0.49-0.22-0.49-0.49v-8.03c0-0.27,0.22-0.49,0.49-0.49h0
				c0.27,0,0.49,0.22,0.49,0.49v8.03C154.27,86.78,154.05,87,153.78,87z"/>
			<path class="st2" d="M157.44,84.69L157.44,84.69c-0.27,0-0.49-0.22-0.49-0.49v-2.92c0-0.27,0.22-0.49,0.49-0.49l0,0
				c0.27,0,0.49,0.22,0.49,0.49v2.92C157.93,84.47,157.71,84.69,157.44,84.69z"/>
		</g>
	</g>
	<g class="st17">
		<path class="st0" d="M200.52,72.64v19.72c0,0.91-0.73,1.64-1.64,1.64l-27.25,0c-0.91,0-1.64-0.73-1.64-1.64V72.64
			c0-0.91,0.73-1.64,1.64-1.64h27.25C199.78,71,200.52,71.73,200.52,72.64z"/>
		<g>
			<path class="st2" d="M178.06,84.45L178.06,84.45c-0.27,0-0.49-0.22-0.49-0.49v-2.92c0-0.27,0.22-0.49,0.49-0.49l0,0
				c0.27,0,0.49,0.22,0.49,0.49v2.92C178.55,84.23,178.33,84.45,178.06,84.45z"/>
			<path class="st2" d="M181.47,87L181.47,87c-0.27,0-0.49-0.22-0.49-0.49v-8.03c0-0.27,0.22-0.49,0.49-0.49l0,0
				c0.27,0,0.49,0.22,0.49,0.49v8.03C181.96,86.78,181.74,87,181.47,87z"/>
			<path class="st2" d="M185.13,84.69L185.13,84.69c-0.27,0-0.49-0.22-0.49-0.49v-2.92c0-0.27,0.22-0.49,0.49-0.49l0,0
				c0.27,0,0.49,0.22,0.49,0.49v2.92C185.62,84.47,185.4,84.69,185.13,84.69z"/>
			<path class="st2" d="M188.78,87L188.78,87c-0.27,0-0.49-0.22-0.49-0.49v-8.03c0-0.27,0.22-0.49,0.49-0.49h0
				c0.27,0,0.49,0.22,0.49,0.49v8.03C189.27,86.78,189.05,87,188.78,87z"/>
			<path class="st2" d="M192.44,84.69L192.44,84.69c-0.27,0-0.49-0.22-0.49-0.49v-2.92c0-0.27,0.22-0.49,0.49-0.49l0,0
				c0.27,0,0.49,0.22,0.49,0.49v2.92C192.93,84.47,192.71,84.69,192.44,84.69z"/>
		</g>
	</g>
	<g class="st17">
		<path class="st0" d="M130.52,101.64v19.72c0,0.91-0.73,1.64-1.64,1.64l-27.25,0c-0.91,0-1.64-0.73-1.64-1.64v-19.72
			c0-0.91,0.73-1.64,1.64-1.64h27.25C129.78,100,130.52,100.73,130.52,101.64z"/>
		<g>
			<path class="st2" d="M108.06,113.45L108.06,113.45c-0.27,0-0.49-0.22-0.49-0.49v-2.92c0-0.27,0.22-0.49,0.49-0.49l0,0
				c0.27,0,0.49,0.22,0.49,0.49v2.92C108.55,113.23,108.33,113.45,108.06,113.45z"/>
			<path class="st2" d="M111.47,116L111.47,116c-0.27,0-0.49-0.22-0.49-0.49v-8.03c0-0.27,0.22-0.49,0.49-0.49l0,0
				c0.27,0,0.49,0.22,0.49,0.49v8.03C111.96,115.78,111.74,116,111.47,116z"/>
			<path class="st2" d="M115.13,113.69L115.13,113.69c-0.27,0-0.49-0.22-0.49-0.49v-2.92c0-0.27,0.22-0.49,0.49-0.49h0
				c0.27,0,0.49,0.22,0.49,0.49v2.92C115.62,113.47,115.4,113.69,115.13,113.69z"/>
			<path class="st2" d="M118.78,116L118.78,116c-0.27,0-0.49-0.22-0.49-0.49v-8.03c0-0.27,0.22-0.49,0.49-0.49l0,0
				c0.27,0,0.49,0.22,0.49,0.49v8.03C119.27,115.78,119.05,116,118.78,116z"/>
			<path class="st2" d="M122.44,113.69L122.44,113.69c-0.27,0-0.49-0.22-0.49-0.49v-2.92c0-0.27,0.22-0.49,0.49-0.49l0,0
				c0.27,0,0.49,0.22,0.49,0.49v2.92C122.93,113.47,122.71,113.69,122.44,113.69z"/>
		</g>
	</g>
	<g class="st17">
		<path class="st0" d="M165.52,101.64v19.72c0,0.91-0.73,1.64-1.64,1.64l-27.25,0c-0.91,0-1.64-0.73-1.64-1.64v-19.72
			c0-0.91,0.73-1.64,1.64-1.64h27.25C164.78,100,165.52,100.73,165.52,101.64z"/>
		<g>
			<path class="st2" d="M143.06,113.45L143.06,113.45c-0.27,0-0.49-0.22-0.49-0.49v-2.92c0-0.27,0.22-0.49,0.49-0.49l0,0
				c0.27,0,0.49,0.22,0.49,0.49v2.92C143.55,113.23,143.33,113.45,143.06,113.45z"/>
			<path class="st2" d="M146.47,116L146.47,116c-0.27,0-0.49-0.22-0.49-0.49v-8.03c0-0.27,0.22-0.49,0.49-0.49l0,0
				c0.27,0,0.49,0.22,0.49,0.49v8.03C146.96,115.78,146.74,116,146.47,116z"/>
			<path class="st2" d="M150.13,113.69L150.13,113.69c-0.27,0-0.49-0.22-0.49-0.49v-2.92c0-0.27,0.22-0.49,0.49-0.49l0,0
				c0.27,0,0.49,0.22,0.49,0.49v2.92C150.62,113.47,150.4,113.69,150.13,113.69z"/>
			<path class="st2" d="M153.78,116L153.78,116c-0.27,0-0.49-0.22-0.49-0.49v-8.03c0-0.27,0.22-0.49,0.49-0.49h0
				c0.27,0,0.49,0.22,0.49,0.49v8.03C154.27,115.78,154.05,116,153.78,116z"/>
			<path class="st2" d="M157.44,113.69L157.44,113.69c-0.27,0-0.49-0.22-0.49-0.49v-2.92c0-0.27,0.22-0.49,0.49-0.49l0,0
				c0.27,0,0.49,0.22,0.49,0.49v2.92C157.93,113.47,157.71,113.69,157.44,113.69z"/>
		</g>
	</g>
	<g class="st17">
		<path class="st0" d="M200.52,101.64v19.72c0,0.91-0.73,1.64-1.64,1.64l-27.25,0c-0.91,0-1.64-0.73-1.64-1.64v-19.72
			c0-0.91,0.73-1.64,1.64-1.64h27.25C199.78,100,200.52,100.73,200.52,101.64z"/>
		<g>
			<path class="st2" d="M178.06,113.45L178.06,113.45c-0.27,0-0.49-0.22-0.49-0.49v-2.92c0-0.27,0.22-0.49,0.49-0.49l0,0
				c0.27,0,0.49,0.22,0.49,0.49v2.92C178.55,113.23,178.33,113.45,178.06,113.45z"/>
			<path class="st2" d="M181.47,116L181.47,116c-0.27,0-0.49-0.22-0.49-0.49v-8.03c0-0.27,0.22-0.49,0.49-0.49l0,0
				c0.27,0,0.49,0.22,0.49,0.49v8.03C181.96,115.78,181.74,116,181.47,116z"/>
			<path class="st2" d="M185.13,113.69L185.13,113.69c-0.27,0-0.49-0.22-0.49-0.49v-2.92c0-0.27,0.22-0.49,0.49-0.49l0,0
				c0.27,0,0.49,0.22,0.49,0.49v2.92C185.62,113.47,185.4,113.69,185.13,113.69z"/>
			<path class="st2" d="M188.78,116L188.78,116c-0.27,0-0.49-0.22-0.49-0.49v-8.03c0-0.27,0.22-0.49,0.49-0.49h0
				c0.27,0,0.49,0.22,0.49,0.49v8.03C189.27,115.78,189.05,116,188.78,116z"/>
			<path class="st2" d="M192.44,113.69L192.44,113.69c-0.27,0-0.49-0.22-0.49-0.49v-2.92c0-0.27,0.22-0.49,0.49-0.49l0,0
				c0.27,0,0.49,0.22,0.49,0.49v2.92C192.93,113.47,192.71,113.69,192.44,113.69z"/>
		</g>
	</g>
	<g>
		<path class="st0" d="M130.52,130.64v19.72c0,0.91-0.73,1.64-1.64,1.64h-27.25c-0.91,0-1.64-0.73-1.64-1.64v-19.72
			c0-0.91,0.73-1.64,1.64-1.64l27.25,0C129.78,129,130.52,129.73,130.52,130.64z"/>
		<g>
			<path class="st2" d="M108.06,142.45L108.06,142.45c-0.27,0-0.49-0.22-0.49-0.49v-2.92c0-0.27,0.22-0.49,0.49-0.49l0,0
				c0.27,0,0.49,0.22,0.49,0.49v2.92C108.55,142.23,108.33,142.45,108.06,142.45z"/>
			<path class="st2" d="M111.47,145L111.47,145c-0.27,0-0.49-0.22-0.49-0.49v-8.03c0-0.27,0.22-0.49,0.49-0.49l0,0
				c0.27,0,0.49,0.22,0.49,0.49v8.03C111.96,144.78,111.74,145,111.47,145z"/>
			<path class="st2" d="M115.13,142.69L115.13,142.69c-0.27,0-0.49-0.22-0.49-0.49v-2.92c0-0.27,0.22-0.49,0.49-0.49h0
				c0.27,0,0.49,0.22,0.49,0.49v2.92C115.62,142.47,115.4,142.69,115.13,142.69z"/>
			<path class="st2" d="M118.78,145L118.78,145c-0.27,0-0.49-0.22-0.49-0.49v-8.03c0-0.27,0.22-0.49,0.49-0.49l0,0
				c0.27,0,0.49,0.22,0.49,0.49v8.03C119.27,144.78,119.05,145,118.78,145z"/>
			<path class="st2" d="M122.44,142.69L122.44,142.69c-0.27,0-0.49-0.22-0.49-0.49v-2.92c0-0.27,0.22-0.49,0.49-0.49l0,0
				c0.27,0,0.49,0.22,0.49,0.49v2.92C122.93,142.47,122.71,142.69,122.44,142.69z"/>
		</g>
	</g>
	<g class="st17">
		<path class="st0" d="M165.52,130.64v19.72c0,0.91-0.73,1.64-1.64,1.64h-27.25c-0.91,0-1.64-0.73-1.64-1.64v-19.72
			c0-0.91,0.73-1.64,1.64-1.64l27.25,0C164.78,129,165.52,129.73,165.52,130.64z"/>
		<g>
			<path class="st2" d="M143.06,142.45L143.06,142.45c-0.27,0-0.49-0.22-0.49-0.49v-2.92c0-0.27,0.22-0.49,0.49-0.49l0,0
				c0.27,0,0.49,0.22,0.49,0.49v2.92C143.55,142.23,143.33,142.45,143.06,142.45z"/>
			<path class="st2" d="M146.47,145L146.47,145c-0.27,0-0.49-0.22-0.49-0.49v-8.03c0-0.27,0.22-0.49,0.49-0.49l0,0
				c0.27,0,0.49,0.22,0.49,0.49v8.03C146.96,144.78,146.74,145,146.47,145z"/>
			<path class="st2" d="M150.13,142.69L150.13,142.69c-0.27,0-0.49-0.22-0.49-0.49v-2.92c0-0.27,0.22-0.49,0.49-0.49l0,0
				c0.27,0,0.49,0.22,0.49,0.49v2.92C150.62,142.47,150.4,142.69,150.13,142.69z"/>
			<path class="st2" d="M153.78,145L153.78,145c-0.27,0-0.49-0.22-0.49-0.49v-8.03c0-0.27,0.22-0.49,0.49-0.49h0
				c0.27,0,0.49,0.22,0.49,0.49v8.03C154.27,144.78,154.05,145,153.78,145z"/>
			<path class="st2" d="M157.44,142.69L157.44,142.69c-0.27,0-0.49-0.22-0.49-0.49v-2.92c0-0.27,0.22-0.49,0.49-0.49l0,0
				c0.27,0,0.49,0.22,0.49,0.49v2.92C157.93,142.47,157.71,142.69,157.44,142.69z"/>
		</g>
	</g>
	<g class="st17">
		<path class="st0" d="M200.52,130.64v19.72c0,0.91-0.73,1.64-1.64,1.64h-27.25c-0.91,0-1.64-0.73-1.64-1.64v-19.72
			c0-0.91,0.73-1.64,1.64-1.64l27.25,0C199.78,129,200.52,129.73,200.52,130.64z"/>
		<g>
			<path class="st2" d="M178.06,142.45L178.06,142.45c-0.27,0-0.49-0.22-0.49-0.49v-2.92c0-0.27,0.22-0.49,0.49-0.49l0,0
				c0.27,0,0.49,0.22,0.49,0.49v2.92C178.55,142.23,178.33,142.45,178.06,142.45z"/>
			<path class="st2" d="M181.47,145L181.47,145c-0.27,0-0.49-0.22-0.49-0.49v-8.03c0-0.27,0.22-0.49,0.49-0.49l0,0
				c0.27,0,0.49,0.22,0.49,0.49v8.03C181.96,144.78,181.74,145,181.47,145z"/>
			<path class="st2" d="M185.13,142.69L185.13,142.69c-0.27,0-0.49-0.22-0.49-0.49v-2.92c0-0.27,0.22-0.49,0.49-0.49l0,0
				c0.27,0,0.49,0.22,0.49,0.49v2.92C185.62,142.47,185.4,142.69,185.13,142.69z"/>
			<path class="st2" d="M188.78,145L188.78,145c-0.27,0-0.49-0.22-0.49-0.49v-8.03c0-0.27,0.22-0.49,0.49-0.49h0
				c0.27,0,0.49,0.22,0.49,0.49v8.03C189.27,144.78,189.05,145,188.78,145z"/>
			<path class="st2" d="M192.44,142.69L192.44,142.69c-0.27,0-0.49-0.22-0.49-0.49v-2.92c0-0.27,0.22-0.49,0.49-0.49l0,0
				c0.27,0,0.49,0.22,0.49,0.49v2.92C192.93,142.47,192.71,142.69,192.44,142.69z"/>
		</g>
	</g>
	<g>
		<path class="st0" d="M130.52,159.64v19.72c0,0.91-0.73,1.64-1.64,1.64h-27.25c-0.91,0-1.64-0.73-1.64-1.64v-19.72
			c0-0.91,0.73-1.64,1.64-1.64l27.25,0C129.78,158,130.52,158.73,130.52,159.64z"/>
		<g>
			<path class="st2" d="M108.06,171.45L108.06,171.45c-0.27,0-0.49-0.22-0.49-0.49v-2.92c0-0.27,0.22-0.49,0.49-0.49l0,0
				c0.27,0,0.49,0.22,0.49,0.49v2.92C108.55,171.23,108.33,171.45,108.06,171.45z"/>
			<path class="st2" d="M111.47,174L111.47,174c-0.27,0-0.49-0.22-0.49-0.49v-8.03c0-0.27,0.22-0.49,0.49-0.49l0,0
				c0.27,0,0.49,0.22,0.49,0.49v8.03C111.96,173.78,111.74,174,111.47,174z"/>
			<path class="st2" d="M115.13,171.69L115.13,171.69c-0.27,0-0.49-0.22-0.49-0.49v-2.92c0-0.27,0.22-0.49,0.49-0.49h0
				c0.27,0,0.49,0.22,0.49,0.49v2.92C115.62,171.47,115.4,171.69,115.13,171.69z"/>
			<path class="st2" d="M118.78,174L118.78,174c-0.27,0-0.49-0.22-0.49-0.49v-8.03c0-0.27,0.22-0.49,0.49-0.49l0,0
				c0.27,0,0.49,0.22,0.49,0.49v8.03C119.27,173.78,119.05,174,118.78,174z"/>
			<path class="st2" d="M122.44,171.69L122.44,171.69c-0.27,0-0.49-0.22-0.49-0.49v-2.92c0-0.27,0.22-0.49,0.49-0.49l0,0
				c0.27,0,0.49,0.22,0.49,0.49v2.92C122.93,171.47,122.71,171.69,122.44,171.69z"/>
		</g>
	</g>
	<g class="st17">
		<path class="st0" d="M165.52,159.64v19.72c0,0.91-0.73,1.64-1.64,1.64h-27.25c-0.91,0-1.64-0.73-1.64-1.64v-19.72
			c0-0.91,0.73-1.64,1.64-1.64l27.25,0C164.78,158,165.52,158.73,165.52,159.64z"/>
		<g>
			<path class="st2" d="M143.06,171.45L143.06,171.45c-0.27,0-0.49-0.22-0.49-0.49v-2.92c0-0.27,0.22-0.49,0.49-0.49l0,0
				c0.27,0,0.49,0.22,0.49,0.49v2.92C143.55,171.23,143.33,171.45,143.06,171.45z"/>
			<path class="st2" d="M146.47,174L146.47,174c-0.27,0-0.49-0.22-0.49-0.49v-8.03c0-0.27,0.22-0.49,0.49-0.49l0,0
				c0.27,0,0.49,0.22,0.49,0.49v8.03C146.96,173.78,146.74,174,146.47,174z"/>
			<path class="st2" d="M150.13,171.69L150.13,171.69c-0.27,0-0.49-0.22-0.49-0.49v-2.92c0-0.27,0.22-0.49,0.49-0.49l0,0
				c0.27,0,0.49,0.22,0.49,0.49v2.92C150.62,171.47,150.4,171.69,150.13,171.69z"/>
			<path class="st2" d="M153.78,174L153.78,174c-0.27,0-0.49-0.22-0.49-0.49v-8.03c0-0.27,0.22-0.49,0.49-0.49h0
				c0.27,0,0.49,0.22,0.49,0.49v8.03C154.27,173.78,154.05,174,153.78,174z"/>
			<path class="st2" d="M157.44,171.69L157.44,171.69c-0.27,0-0.49-0.22-0.49-0.49v-2.92c0-0.27,0.22-0.49,0.49-0.49l0,0
				c0.27,0,0.49,0.22,0.49,0.49v2.92C157.93,171.47,157.71,171.69,157.44,171.69z"/>
		</g>
	</g>
	<g>
		<path class="st0" d="M200.52,159.64v19.72c0,0.91-0.73,1.64-1.64,1.64h-27.25c-0.91,0-1.64-0.73-1.64-1.64v-19.72
			c0-0.91,0.73-1.64,1.64-1.64l27.25,0C199.78,158,200.52,158.73,200.52,159.64z"/>
		<g>
			<path class="st2" d="M178.06,171.45L178.06,171.45c-0.27,0-0.49-0.22-0.49-0.49v-2.92c0-0.27,0.22-0.49,0.49-0.49l0,0
				c0.27,0,0.49,0.22,0.49,0.49v2.92C178.55,171.23,178.33,171.45,178.06,171.45z"/>
			<path class="st2" d="M181.47,174L181.47,174c-0.27,0-0.49-0.22-0.49-0.49v-8.03c0-0.27,0.22-0.49,0.49-0.49l0,0
				c0.27,0,0.49,0.22,0.49,0.49v8.03C181.96,173.78,181.74,174,181.47,174z"/>
			<path class="st2" d="M185.13,171.69L185.13,171.69c-0.27,0-0.49-0.22-0.49-0.49v-2.92c0-0.27,0.22-0.49,0.49-0.49l0,0
				c0.27,0,0.49,0.22,0.49,0.49v2.92C185.62,171.47,185.4,171.69,185.13,171.69z"/>
			<path class="st2" d="M188.78,174L188.78,174c-0.27,0-0.49-0.22-0.49-0.49v-8.03c0-0.27,0.22-0.49,0.49-0.49h0
				c0.27,0,0.49,0.22,0.49,0.49v8.03C189.27,173.78,189.05,174,188.78,174z"/>
			<path class="st2" d="M192.44,171.69L192.44,171.69c-0.27,0-0.49-0.22-0.49-0.49v-2.92c0-0.27,0.22-0.49,0.49-0.49l0,0
				c0.27,0,0.49,0.22,0.49,0.49v2.92C192.93,171.47,192.71,171.69,192.44,171.69z"/>
		</g>
	</g>
	<g class="st17">
		<path class="st0" d="M130.52,188.64v19.72c0,0.91-0.73,1.64-1.64,1.64h-27.25c-0.91,0-1.64-0.73-1.64-1.64v-19.72
			c0-0.91,0.73-1.64,1.64-1.64l27.25,0C129.78,187,130.52,187.73,130.52,188.64z"/>
		<g>
			<path class="st2" d="M108.06,200.45L108.06,200.45c-0.27,0-0.49-0.22-0.49-0.49v-2.92c0-0.27,0.22-0.49,0.49-0.49l0,0
				c0.27,0,0.49,0.22,0.49,0.49v2.92C108.55,200.23,108.33,200.45,108.06,200.45z"/>
			<path class="st2" d="M111.47,203L111.47,203c-0.27,0-0.49-0.22-0.49-0.49v-8.03c0-0.27,0.22-0.49,0.49-0.49l0,0
				c0.27,0,0.49,0.22,0.49,0.49v8.03C111.96,202.78,111.74,203,111.47,203z"/>
			<path class="st2" d="M115.13,200.69L115.13,200.69c-0.27,0-0.49-0.22-0.49-0.49v-2.92c0-0.27,0.22-0.49,0.49-0.49h0
				c0.27,0,0.49,0.22,0.49,0.49v2.92C115.62,200.47,115.4,200.69,115.13,200.69z"/>
			<path class="st2" d="M118.78,203L118.78,203c-0.27,0-0.49-0.22-0.49-0.49v-8.03c0-0.27,0.22-0.49,0.49-0.49l0,0
				c0.27,0,0.49,0.22,0.49,0.49v8.03C119.27,202.78,119.05,203,118.78,203z"/>
			<path class="st2" d="M122.44,200.69L122.44,200.69c-0.27,0-0.49-0.22-0.49-0.49v-2.92c0-0.27,0.22-0.49,0.49-0.49l0,0
				c0.27,0,0.49,0.22,0.49,0.49v2.92C122.93,200.47,122.71,200.69,122.44,200.69z"/>
		</g>
	</g>
	<g class="st17">
		<path class="st0" d="M165.52,188.64v19.72c0,0.91-0.73,1.64-1.64,1.64h-27.25c-0.91,0-1.64-0.73-1.64-1.64v-19.72
			c0-0.91,0.73-1.64,1.64-1.64l27.25,0C164.78,187,165.52,187.73,165.52,188.64z"/>
		<g>
			<path class="st2" d="M143.06,200.45L143.06,200.45c-0.27,0-0.49-0.22-0.49-0.49v-2.92c0-0.27,0.22-0.49,0.49-0.49l0,0
				c0.27,0,0.49,0.22,0.49,0.49v2.92C143.55,200.23,143.33,200.45,143.06,200.45z"/>
			<path class="st2" d="M146.47,203L146.47,203c-0.27,0-0.49-0.22-0.49-0.49v-8.03c0-0.27,0.22-0.49,0.49-0.49l0,0
				c0.27,0,0.49,0.22,0.49,0.49v8.03C146.96,202.78,146.74,203,146.47,203z"/>
			<path class="st2" d="M150.13,200.69L150.13,200.69c-0.27,0-0.49-0.22-0.49-0.49v-2.92c0-0.27,0.22-0.49,0.49-0.49l0,0
				c0.27,0,0.49,0.22,0.49,0.49v2.92C150.62,200.47,150.4,200.69,150.13,200.69z"/>
			<path class="st2" d="M153.78,203L153.78,203c-0.27,0-0.49-0.22-0.49-0.49v-8.03c0-0.27,0.22-0.49,0.49-0.49h0
				c0.27,0,0.49,0.22,0.49,0.49v8.03C154.27,202.78,154.05,203,153.78,203z"/>
			<path class="st2" d="M157.44,200.69L157.44,200.69c-0.27,0-0.49-0.22-0.49-0.49v-2.92c0-0.27,0.22-0.49,0.49-0.49l0,0
				c0.27,0,0.49,0.22,0.49,0.49v2.92C157.93,200.47,157.71,200.69,157.44,200.69z"/>
		</g>
	</g>
	<g>
		<path class="st0" d="M200.52,188.64v19.72c0,0.91-0.73,1.64-1.64,1.64h-27.25c-0.91,0-1.64-0.73-1.64-1.64v-19.72
			c0-0.91,0.73-1.64,1.64-1.64l27.25,0C199.78,187,200.52,187.73,200.52,188.64z"/>
		<g>
			<path class="st2" d="M178.06,200.45L178.06,200.45c-0.27,0-0.49-0.22-0.49-0.49v-2.92c0-0.27,0.22-0.49,0.49-0.49l0,0
				c0.27,0,0.49,0.22,0.49,0.49v2.92C178.55,200.23,178.33,200.45,178.06,200.45z"/>
			<path class="st2" d="M181.47,203L181.47,203c-0.27,0-0.49-0.22-0.49-0.49v-8.03c0-0.27,0.22-0.49,0.49-0.49l0,0
				c0.27,0,0.49,0.22,0.49,0.49v8.03C181.96,202.78,181.74,203,181.47,203z"/>
			<path class="st2" d="M185.13,200.69L185.13,200.69c-0.27,0-0.49-0.22-0.49-0.49v-2.92c0-0.27,0.22-0.49,0.49-0.49l0,0
				c0.27,0,0.49,0.22,0.49,0.49v2.92C185.62,200.47,185.4,200.69,185.13,200.69z"/>
			<path class="st2" d="M188.78,203L188.78,203c-0.27,0-0.49-0.22-0.49-0.49v-8.03c0-0.27,0.22-0.49,0.49-0.49h0
				c0.27,0,0.49,0.22,0.49,0.49v8.03C189.27,202.78,189.05,203,188.78,203z"/>
			<path class="st2" d="M192.44,200.69L192.44,200.69c-0.27,0-0.49-0.22-0.49-0.49v-2.92c0-0.27,0.22-0.49,0.49-0.49l0,0
				c0.27,0,0.49,0.22,0.49,0.49v2.92C192.93,200.47,192.71,200.69,192.44,200.69z"/>
		</g>
	</g>
</g>
<g id="Layer_2">
</g>
<g id="Layer_3">
</g>
</svg>
