<?xml version="1.0" encoding="utf-8"?>
<!-- Generator: Adobe Illustrator 24.2.0, SVG Export Plug-In . SVG Version: 6.00 Build 0)  -->
<svg version="1.1" xmlns="http://www.w3.org/2000/svg" xmlns:xlink="http://www.w3.org/1999/xlink" x="0px" y="0px"
	 viewBox="0 0 300 300" style="enable-background:new 0 0 300 300;" xml:space="preserve">
<style type="text/css">
	.st0{fill:#999999;}
	.st1{fill:#D6D6D6;}
	.st2{fill:#F6F6F6;}
	.st3{fill:#E5E5E5;}
	.st4{fill:#D0D2D3;}
	.st5{fill:#FFFFFF;}
	.st6{fill:#EDEDED;}
	.st7{fill:#D0D2D3;stroke:#EFEFEF;stroke-width:2;stroke-miterlimit:10;}
	.st8{fill:#E8E8E8;}
	.st9{fill:#BDBDBD;}
	.st10{fill:#F0F0F0;}
	.st11{fill:none;stroke:#CECECE;stroke-width:0.5;stroke-miterlimit:10;}
	.st12{fill:#EFEFEF;}
	.st13{fill:none;stroke:#999999;stroke-miterlimit:10;}
	.st14{fill:#EAEAEA;}
	.st15{fill:#D8D8D8;}
	.st16{opacity:0.65;}
	.st17{opacity:0.29;}
	.st18{opacity:0.93;}
	.st19{opacity:0.22;}
	.st20{opacity:0.74;}
</style>
<g id="Layer_1">
	<path class="st3" d="M88.5,98.05L88.5,98.05c-1.38,0-2.5-1.12-2.5-2.5V80.5c0-1.38,1.12-2.5,2.5-2.5l0,0c1.38,0,2.5,1.12,2.5,2.5
		v15.05C91,96.93,89.88,98.05,88.5,98.05z"/>
	<path class="st3" d="M211.5,98.05L211.5,98.05c-1.38,0-2.5-1.12-2.5-2.5V80.5c0-1.38,1.12-2.5,2.5-2.5l0,0c1.38,0,2.5,1.12,2.5,2.5
		v15.05C214,96.93,212.88,98.05,211.5,98.05z"/>
	<path class="st3" d="M88.5,66.09L88.5,66.09c-1.38,0-2.5-1.12-2.5-2.5v-5.63c0-1.38,1.12-2.5,2.5-2.5h0c1.38,0,2.5,1.12,2.5,2.5
		v5.63C91,64.98,89.88,66.09,88.5,66.09z"/>
	<path class="st3" d="M88.5,122L88.5,122c-1.38,0-2.5-1.12-2.5-2.5v-15.05c0-1.38,1.12-2.5,2.5-2.5l0,0c1.38,0,2.5,1.12,2.5,2.5
		v15.05C91,120.88,89.88,122,88.5,122z"/>
	<path class="st4" d="M197.99,272.12h-95.98c-7.77,0-14.07-6.3-14.07-14.07V41.95c0-7.77,6.3-14.07,14.07-14.07h95.98
		c7.77,0,14.07,6.3,14.07,14.07v216.11C212.06,265.83,205.76,272.12,197.99,272.12z"/>
	<rect x="94.1" y="49" class="st5" width="111.8" height="195"/>
	<path class="st6" d="M166.55,40h-23c-1.1,0-2-0.9-2-2v0c0-1.1,0.9-2,2-2h23c1.1,0,2,0.9,2,2v0C168.55,39.1,167.65,40,166.55,40z"/>
	<path class="st6" d="M135.55,40h-2.1c-1.1,0-2-0.9-2-2v0c0-1.1,0.9-2,2-2h2.1c1.1,0,2,0.9,2,2v0C137.55,39.1,136.65,40,135.55,40z"
		/>
	<circle class="st7" cx="150" cy="258" r="8"/>
	<rect x="94.1" y="49" class="st12" width="111.8" height="17"/>
	<rect x="94.1" y="227" class="st14" width="111.8" height="17"/>
	<path class="st9" d="M177.51,237H167c-1.1,0-2-0.9-2-2v0c0-1.1,0.9-2,2-2h10.51c1.1,0,2,0.9,2,2v0
		C179.51,236.1,178.62,237,177.51,237z"/>
	<path class="st9" d="M198.51,237H188c-1.1,0-2-0.9-2-2v0c0-1.1,0.9-2,2-2h10.51c1.1,0,2,0.9,2,2v0
		C200.51,236.1,199.62,237,198.51,237z"/>
	<path class="st15" d="M198.51,59h-46.99c-1.1,0-2-0.9-2-2v0c0-1.1,0.9-2,2-2h46.99c1.1,0,2,0.9,2,2v0
		C200.51,58.1,199.62,59,198.51,59z"/>
	<g>
		<path class="st0" d="M130.68,74.64v19.72c0,0.91-0.73,1.64-1.64,1.64h-27.25c-0.91,0-1.64-0.73-1.64-1.64l0-19.72
			c0-0.91,0.73-1.64,1.64-1.64l27.25,0C129.95,73,130.68,73.73,130.68,74.64z"/>
		<g>
			<path class="st1" d="M105.49,94.42c0.55,0,1.45,0,2,0h20.77c0.55,0,1-0.45,1-1v-2.28c0-0.55-0.32-1.32-0.7-1.71l-6.79-6.9
				c-0.39-0.39-1.02-0.39-1.4,0l-4,4.07c-0.39,0.39-1.02,0.39-1.4,0l-1.84-1.87c-0.39-0.39-1.02-0.39-1.4,0l-8.84,8.98
				c-0.39,0.39-0.25,0.71,0.3,0.71H105.49z"/>
		</g>
		<circle class="st2" cx="107.29" cy="77.96" r="2.6"/>
	</g>
	<g class="st16">
		<path class="st0" d="M165.95,74.64v19.72c0,0.91-0.73,1.64-1.64,1.64h-27.25c-0.91,0-1.64-0.73-1.64-1.64V74.64
			c0-0.91,0.73-1.64,1.64-1.64l27.25,0C165.21,73,165.95,73.73,165.95,74.64z"/>
		<g>
			<path class="st1" d="M140.76,94.42c0.55,0,1.45,0,2,0h20.77c0.55,0,1-0.45,1-1v-2.28c0-0.55-0.32-1.32-0.7-1.71l-6.79-6.9
				c-0.39-0.39-1.02-0.39-1.4,0l-4,4.07c-0.39,0.39-1.02,0.39-1.4,0l-1.84-1.87c-0.39-0.39-1.02-0.39-1.4,0l-8.84,8.98
				c-0.39,0.39-0.25,0.71,0.3,0.71H140.76z"/>
		</g>
		<circle class="st2" cx="142.55" cy="77.96" r="2.6"/>
	</g>
	<g class="st17">
		<path class="st0" d="M200.95,74.64v19.72c0,0.91-0.73,1.64-1.64,1.64h-27.25c-0.91,0-1.64-0.73-1.64-1.64V74.64
			c0-0.91,0.73-1.64,1.64-1.64l27.25,0C200.21,73,200.95,73.73,200.95,74.64z"/>
		<g>
			<path class="st1" d="M175.76,94.42c0.55,0,1.45,0,2,0h20.77c0.55,0,1-0.45,1-1v-2.28c0-0.55-0.32-1.32-0.7-1.71l-6.79-6.9
				c-0.39-0.39-1.02-0.39-1.4,0l-4,4.07c-0.39,0.39-1.02,0.39-1.4,0l-1.84-1.87c-0.39-0.39-1.02-0.39-1.4,0l-8.84,8.98
				c-0.39,0.39-0.25,0.71,0.3,0.71H175.76z"/>
		</g>
		<circle class="st2" cx="177.55" cy="77.96" r="2.6"/>
	</g>
	<g class="st17">
		<path class="st0" d="M130.68,102.64v19.72c0,0.91-0.73,1.64-1.64,1.64h-27.25c-0.91,0-1.64-0.73-1.64-1.64l0-19.72
			c0-0.91,0.73-1.64,1.64-1.64l27.25,0C129.95,101,130.68,101.73,130.68,102.64z"/>
		<g>
			<path class="st1" d="M105.49,122.42c0.55,0,1.45,0,2,0h20.77c0.55,0,1-0.45,1-1v-2.28c0-0.55-0.32-1.32-0.7-1.71l-6.79-6.9
				c-0.39-0.39-1.02-0.39-1.4,0l-4,4.07c-0.39,0.39-1.02,0.39-1.4,0l-1.84-1.87c-0.39-0.39-1.02-0.39-1.4,0l-8.84,8.98
				c-0.39,0.39-0.25,0.71,0.3,0.71H105.49z"/>
		</g>
		<circle class="st2" cx="107.29" cy="105.96" r="2.6"/>
	</g>
	<g class="st18">
		<path class="st0" d="M165.95,102.64v19.72c0,0.91-0.73,1.64-1.64,1.64h-27.25c-0.91,0-1.64-0.73-1.64-1.64v-19.72
			c0-0.91,0.73-1.64,1.64-1.64l27.25,0C165.21,101,165.95,101.73,165.95,102.64z"/>
		<g>
			<path class="st1" d="M140.76,122.42c0.55,0,1.45,0,2,0h20.77c0.55,0,1-0.45,1-1v-2.28c0-0.55-0.32-1.32-0.7-1.71l-6.79-6.9
				c-0.39-0.39-1.02-0.39-1.4,0l-4,4.07c-0.39,0.39-1.02,0.39-1.4,0l-1.84-1.87c-0.39-0.39-1.02-0.39-1.4,0l-8.84,8.98
				c-0.39,0.39-0.25,0.71,0.3,0.71H140.76z"/>
		</g>
		<circle class="st2" cx="142.55" cy="105.96" r="2.6"/>
	</g>
	<g class="st16">
		<path class="st0" d="M200.95,102.64v19.72c0,0.91-0.73,1.64-1.64,1.64h-27.25c-0.91,0-1.64-0.73-1.64-1.64v-19.72
			c0-0.91,0.73-1.64,1.64-1.64l27.25,0C200.21,101,200.95,101.73,200.95,102.64z"/>
		<g>
			<path class="st1" d="M175.76,122.42c0.55,0,1.45,0,2,0h20.77c0.55,0,1-0.45,1-1v-2.28c0-0.55-0.32-1.32-0.7-1.71l-6.79-6.9
				c-0.39-0.39-1.02-0.39-1.4,0l-4,4.07c-0.39,0.39-1.02,0.39-1.4,0l-1.84-1.87c-0.39-0.39-1.02-0.39-1.4,0l-8.84,8.98
				c-0.39,0.39-0.25,0.71,0.3,0.71H175.76z"/>
		</g>
		<circle class="st2" cx="177.55" cy="105.96" r="2.6"/>
	</g>
	<g class="st16">
		<path class="st0" d="M130.68,130.64v19.72c0,0.91-0.73,1.64-1.64,1.64h-27.25c-0.91,0-1.64-0.73-1.64-1.64l0-19.72
			c0-0.91,0.73-1.64,1.64-1.64h27.25C129.95,129,130.68,129.73,130.68,130.64z"/>
		<g>
			<path class="st1" d="M105.49,150.42c0.55,0,1.45,0,2,0h20.77c0.55,0,1-0.45,1-1v-2.28c0-0.55-0.32-1.32-0.7-1.71l-6.79-6.9
				c-0.39-0.39-1.02-0.39-1.4,0l-4,4.07c-0.39,0.39-1.02,0.39-1.4,0l-1.84-1.87c-0.39-0.39-1.02-0.39-1.4,0l-8.84,8.98
				c-0.39,0.39-0.25,0.71,0.3,0.71H105.49z"/>
		</g>
		<circle class="st2" cx="107.29" cy="133.96" r="2.6"/>
	</g>
	<g class="st16">
		<path class="st0" d="M165.95,130.64v19.72c0,0.91-0.73,1.64-1.64,1.64h-27.25c-0.91,0-1.64-0.73-1.64-1.64v-19.72
			c0-0.91,0.73-1.64,1.64-1.64h27.25C165.21,129,165.95,129.73,165.95,130.64z"/>
		<g>
			<path class="st1" d="M140.76,150.42c0.55,0,1.45,0,2,0h20.77c0.55,0,1-0.45,1-1v-2.28c0-0.55-0.32-1.32-0.7-1.71l-6.79-6.9
				c-0.39-0.39-1.02-0.39-1.4,0l-4,4.07c-0.39,0.39-1.02,0.39-1.4,0l-1.84-1.87c-0.39-0.39-1.02-0.39-1.4,0l-8.84,8.98
				c-0.39,0.39-0.25,0.71,0.3,0.71H140.76z"/>
		</g>
		<circle class="st2" cx="142.55" cy="133.96" r="2.6"/>
	</g>
	<g class="st18">
		<path class="st0" d="M200.95,130.64v19.72c0,0.91-0.73,1.64-1.64,1.64h-27.25c-0.91,0-1.64-0.73-1.64-1.64v-19.72
			c0-0.91,0.73-1.64,1.64-1.64h27.25C200.21,129,200.95,129.73,200.95,130.64z"/>
		<g>
			<path class="st1" d="M175.76,150.42c0.55,0,1.45,0,2,0h20.77c0.55,0,1-0.45,1-1v-2.28c0-0.55-0.32-1.32-0.7-1.71l-6.79-6.9
				c-0.39-0.39-1.02-0.39-1.4,0l-4,4.07c-0.39,0.39-1.02,0.39-1.4,0l-1.84-1.87c-0.39-0.39-1.02-0.39-1.4,0l-8.84,8.98
				c-0.39,0.39-0.25,0.71,0.3,0.71H175.76z"/>
		</g>
		<circle class="st2" cx="177.55" cy="133.96" r="2.6"/>
	</g>
	<g class="st19">
		<path class="st0" d="M130.68,158.64v19.72c0,0.91-0.73,1.64-1.64,1.64h-27.25c-0.91,0-1.64-0.73-1.64-1.64l0-19.72
			c0-0.91,0.73-1.64,1.64-1.64h27.25C129.95,157,130.68,157.73,130.68,158.64z"/>
		<g>
			<path class="st1" d="M105.49,178.42c0.55,0,1.45,0,2,0h20.77c0.55,0,1-0.45,1-1v-2.28c0-0.55-0.32-1.32-0.7-1.71l-6.79-6.9
				c-0.39-0.39-1.02-0.39-1.4,0l-4,4.07c-0.39,0.39-1.02,0.39-1.4,0l-1.84-1.87c-0.39-0.39-1.02-0.39-1.4,0l-8.84,8.98
				c-0.39,0.39-0.25,0.71,0.3,0.71H105.49z"/>
		</g>
		<circle class="st2" cx="107.29" cy="161.96" r="2.6"/>
	</g>
	<g class="st19">
		<path class="st0" d="M165.95,158.64v19.72c0,0.91-0.73,1.64-1.64,1.64h-27.25c-0.91,0-1.64-0.73-1.64-1.64v-19.72
			c0-0.91,0.73-1.64,1.64-1.64h27.25C165.21,157,165.95,157.73,165.95,158.64z"/>
		<g>
			<path class="st1" d="M140.76,178.42c0.55,0,1.45,0,2,0h20.77c0.55,0,1-0.45,1-1v-2.28c0-0.55-0.32-1.32-0.7-1.71l-6.79-6.9
				c-0.39-0.39-1.02-0.39-1.4,0l-4,4.07c-0.39,0.39-1.02,0.39-1.4,0l-1.84-1.87c-0.39-0.39-1.02-0.39-1.4,0l-8.84,8.98
				c-0.39,0.39-0.25,0.71,0.3,0.71H140.76z"/>
		</g>
		<circle class="st2" cx="142.55" cy="161.96" r="2.6"/>
	</g>
	<g class="st19">
		<path class="st0" d="M200.95,158.64v19.72c0,0.91-0.73,1.64-1.64,1.64h-27.25c-0.91,0-1.64-0.73-1.64-1.64v-19.72
			c0-0.91,0.73-1.64,1.64-1.64h27.25C200.21,157,200.95,157.73,200.95,158.64z"/>
		<g>
			<path class="st1" d="M175.76,178.42c0.55,0,1.45,0,2,0h20.77c0.55,0,1-0.45,1-1v-2.28c0-0.55-0.32-1.32-0.7-1.71l-6.79-6.9
				c-0.39-0.39-1.02-0.39-1.4,0l-4,4.07c-0.39,0.39-1.02,0.39-1.4,0l-1.84-1.87c-0.39-0.39-1.02-0.39-1.4,0l-8.84,8.98
				c-0.39,0.39-0.25,0.71,0.3,0.71H175.76z"/>
		</g>
		<circle class="st2" cx="177.55" cy="161.96" r="2.6"/>
	</g>
	<g class="st20">
		<path class="st0" d="M130.68,186.64v19.72c0,0.91-0.73,1.64-1.64,1.64h-27.25c-0.91,0-1.64-0.73-1.64-1.64l0-19.72
			c0-0.91,0.73-1.64,1.64-1.64h27.25C129.95,185,130.68,185.73,130.68,186.64z"/>
		<g>
			<path class="st1" d="M105.49,206.42c0.55,0,1.45,0,2,0h20.77c0.55,0,1-0.45,1-1v-2.28c0-0.55-0.32-1.32-0.7-1.71l-6.79-6.9
				c-0.39-0.39-1.02-0.39-1.4,0l-4,4.07c-0.39,0.39-1.02,0.39-1.4,0l-1.84-1.87c-0.39-0.39-1.02-0.39-1.4,0l-8.84,8.98
				c-0.39,0.39-0.25,0.71,0.3,0.71H105.49z"/>
		</g>
		<circle class="st2" cx="107.29" cy="189.96" r="2.6"/>
	</g>
	<g class="st20">
		<path class="st0" d="M165.95,186.64v19.72c0,0.91-0.73,1.64-1.64,1.64h-27.25c-0.91,0-1.64-0.73-1.64-1.64v-19.72
			c0-0.91,0.73-1.64,1.64-1.64h27.25C165.21,185,165.95,185.73,165.95,186.64z"/>
		<g>
			<path class="st1" d="M140.76,206.42c0.55,0,1.45,0,2,0h20.77c0.55,0,1-0.45,1-1v-2.28c0-0.55-0.32-1.32-0.7-1.71l-6.79-6.9
				c-0.39-0.39-1.02-0.39-1.4,0l-4,4.07c-0.39,0.39-1.02,0.39-1.4,0l-1.84-1.87c-0.39-0.39-1.02-0.39-1.4,0l-8.84,8.98
				c-0.39,0.39-0.25,0.71,0.3,0.71H140.76z"/>
		</g>
		<circle class="st2" cx="142.55" cy="189.96" r="2.6"/>
	</g>
	<g class="st19">
		<path class="st0" d="M200.95,186.64v19.72c0,0.91-0.73,1.64-1.64,1.64h-27.25c-0.91,0-1.64-0.73-1.64-1.64v-19.72
			c0-0.91,0.73-1.64,1.64-1.64h27.25C200.21,185,200.95,185.73,200.95,186.64z"/>
		<g>
			<path class="st1" d="M175.76,206.42c0.55,0,1.45,0,2,0h20.77c0.55,0,1-0.45,1-1v-2.28c0-0.55-0.32-1.32-0.7-1.71l-6.79-6.9
				c-0.39-0.39-1.02-0.39-1.4,0l-4,4.07c-0.39,0.39-1.02,0.39-1.4,0l-1.84-1.87c-0.39-0.39-1.02-0.39-1.4,0l-8.84,8.98
				c-0.39,0.39-0.25,0.71,0.3,0.71H175.76z"/>
		</g>
		<circle class="st2" cx="177.55" cy="189.96" r="2.6"/>
	</g>
</g>
<g id="Layer_2">
</g>
<g id="Layer_3">
</g>
</svg>
