<?xml version="1.0" encoding="utf-8"?>
<!-- Generator: Adobe Illustrator 24.2.0, SVG Export Plug-In . SVG Version: 6.00 Build 0)  -->
<svg version="1.1" xmlns="http://www.w3.org/2000/svg" xmlns:xlink="http://www.w3.org/1999/xlink" x="0px" y="0px"
	 viewBox="0 0 300 300" style="enable-background:new 0 0 300 300;" xml:space="preserve">
<style type="text/css">
	.st0{fill:#999999;}
	.st1{fill:#D6D6D6;}
	.st2{fill:#F6F6F6;}
	.st3{fill:#E5E5E5;}
	.st4{fill:#D0D2D3;}
	.st5{fill:#FFFFFF;}
	.st6{fill:#EDEDED;}
	.st7{fill:#D0D2D3;stroke:#EFEFEF;stroke-width:2;stroke-miterlimit:10;}
	.st8{fill:#E8E8E8;}
	.st9{fill:#BDBDBD;}
	.st10{fill:#F0F0F0;}
	.st11{fill:none;stroke:#CECECE;stroke-width:0.5;stroke-miterlimit:10;}
	.st12{fill:#EFEFEF;}
	.st13{fill:none;stroke:#999999;stroke-miterlimit:10;}
	.st14{fill:#EAEAEA;}
	.st15{fill:#D8D8D8;}
	.st16{fill:none;stroke:#F6F6F6;stroke-linecap:round;stroke-miterlimit:10;}
	.st17{fill:none;stroke:#C6C6C6;stroke-miterlimit:10;}
</style>
<g id="Layer_1">
	<path class="st3" d="M88.5,98.05L88.5,98.05c-1.38,0-2.5-1.12-2.5-2.5V80.5c0-1.38,1.12-2.5,2.5-2.5l0,0c1.38,0,2.5,1.12,2.5,2.5
		v15.05C91,96.93,89.88,98.05,88.5,98.05z"/>
	<path class="st3" d="M211.5,98.05L211.5,98.05c-1.38,0-2.5-1.12-2.5-2.5V80.5c0-1.38,1.12-2.5,2.5-2.5l0,0c1.38,0,2.5,1.12,2.5,2.5
		v15.05C214,96.93,212.88,98.05,211.5,98.05z"/>
	<path class="st3" d="M88.5,66.09L88.5,66.09c-1.38,0-2.5-1.12-2.5-2.5v-5.63c0-1.38,1.12-2.5,2.5-2.5h0c1.38,0,2.5,1.12,2.5,2.5
		v5.63C91,64.98,89.88,66.09,88.5,66.09z"/>
	<path class="st3" d="M88.5,122L88.5,122c-1.38,0-2.5-1.12-2.5-2.5v-15.05c0-1.38,1.12-2.5,2.5-2.5l0,0c1.38,0,2.5,1.12,2.5,2.5
		v15.05C91,120.88,89.88,122,88.5,122z"/>
	<path class="st4" d="M197.99,272.12h-95.98c-7.77,0-14.07-6.3-14.07-14.07V41.95c0-7.77,6.3-14.07,14.07-14.07h95.98
		c7.77,0,14.07,6.3,14.07,14.07v216.11C212.06,265.83,205.76,272.12,197.99,272.12z"/>
	<rect x="94.1" y="49" class="st5" width="111.8" height="195"/>
	<path class="st6" d="M166.55,40h-23c-1.1,0-2-0.9-2-2v0c0-1.1,0.9-2,2-2h23c1.1,0,2,0.9,2,2v0C168.55,39.1,167.65,40,166.55,40z"/>
	<path class="st6" d="M135.55,40h-2.1c-1.1,0-2-0.9-2-2v0c0-1.1,0.9-2,2-2h2.1c1.1,0,2,0.9,2,2v0C137.55,39.1,136.65,40,135.55,40z"
		/>
	<circle class="st7" cx="150" cy="258" r="8"/>
	<rect x="94.1" y="49" class="st12" width="111.8" height="17"/>
	<rect x="94.1" y="227" class="st14" width="111.8" height="17"/>
	<path class="st9" d="M167.51,237H157c-1.1,0-2-0.9-2-2v0c0-1.1,0.9-2,2-2h10.51c1.1,0,2,0.9,2,2v0
		C169.51,236.1,168.62,237,167.51,237z"/>
	<path class="st9" d="M140.51,237H130c-1.1,0-2-0.9-2-2v0c0-1.1,0.9-2,2-2h10.51c1.1,0,2,0.9,2,2v0
		C142.51,236.1,141.62,237,140.51,237z"/>
	<path class="st9" d="M113.51,237H103c-1.1,0-2-0.9-2-2v0c0-1.1,0.9-2,2-2h10.51c1.1,0,2,0.9,2,2v0
		C115.51,236.1,114.62,237,113.51,237z"/>
	<path class="st9" d="M196.51,237H186c-1.1,0-2-0.9-2-2v0c0-1.1,0.9-2,2-2h10.51c1.1,0,2,0.9,2,2v0
		C198.51,236.1,197.62,237,196.51,237z"/>
	<path class="st15" d="M198.51,59h-3.26c-1.1,0-2-0.9-2-2v0c0-1.1,0.9-2,2-2h3.26c1.1,0,2,0.9,2,2v0
		C200.51,58.1,199.62,59,198.51,59z"/>
	<g>
		<g>
			<path class="st15" d="M171.26,82.59h-38.29c-1.1,0-2-0.9-2-2v0c0-1.1,0.9-2,2-2h38.29c1.1,0,2,0.9,2,2v0
				C173.26,81.7,172.36,82.59,171.26,82.59z"/>
			<path class="st15" d="M160.97,91.59h-28.01c-1.1,0-2-0.9-2-2v0c0-1.1,0.9-2,2-2h28.01c1.1,0,2,0.9,2,2v0
				C162.97,90.7,162.08,91.59,160.97,91.59z"/>
		</g>
		<path class="st0" d="M127,75.23v19.72c0,0.91-0.73,1.64-1.64,1.64h-22.74c-0.91,0-1.64-0.73-1.64-1.64V75.23
			c0-0.91,0.73-1.64,1.64-1.64h22.74C126.27,73.59,127,74.33,127,75.23z"/>
		<path class="st17" d="M199.42,81.64l0,6.91c0,0.91-0.73,1.64-1.64,1.64h-10.84c-0.91,0-1.64-0.73-1.64-1.64l0-6.91
			c0-0.91,0.73-1.64,1.64-1.64h10.84C198.68,80,199.42,80.73,199.42,81.64z"/>
	</g>
	<g>
		<g>
			<path class="st15" d="M171.26,114.59h-38.29c-1.1,0-2-0.9-2-2v0c0-1.1,0.9-2,2-2h38.29c1.1,0,2,0.9,2,2v0
				C173.26,113.7,172.36,114.59,171.26,114.59z"/>
			<path class="st15" d="M160.97,123.59h-28.01c-1.1,0-2-0.9-2-2v0c0-1.1,0.9-2,2-2h28.01c1.1,0,2,0.9,2,2v0
				C162.97,122.7,162.08,123.59,160.97,123.59z"/>
		</g>
		<path class="st0" d="M127,107.23v19.72c0,0.91-0.73,1.64-1.64,1.64h-22.74c-0.91,0-1.64-0.73-1.64-1.64v-19.72
			c0-0.91,0.73-1.64,1.64-1.64h22.74C126.27,105.59,127,106.33,127,107.23z"/>
		<path class="st17" d="M199.42,113.64l0,6.91c0,0.91-0.73,1.64-1.64,1.64h-10.84c-0.91,0-1.64-0.73-1.64-1.64l0-6.91
			c0-0.91,0.73-1.64,1.64-1.64h10.84C198.68,112,199.42,112.73,199.42,113.64z"/>
	</g>
	<g>
		<g>
			<path class="st15" d="M171.26,146.59h-38.29c-1.1,0-2-0.9-2-2v0c0-1.1,0.9-2,2-2h38.29c1.1,0,2,0.9,2,2v0
				C173.26,145.7,172.36,146.59,171.26,146.59z"/>
			<path class="st15" d="M160.97,155.59h-28.01c-1.1,0-2-0.9-2-2l0,0c0-1.1,0.9-2,2-2h28.01c1.1,0,2,0.9,2,2l0,0
				C162.97,154.7,162.08,155.59,160.97,155.59z"/>
		</g>
		<path class="st0" d="M127,139.23v19.72c0,0.91-0.73,1.64-1.64,1.64h-22.74c-0.91,0-1.64-0.73-1.64-1.64v-19.72
			c0-0.91,0.73-1.64,1.64-1.64l22.74,0C126.27,137.59,127,138.33,127,139.23z"/>
		<path class="st17" d="M199.42,145.64l0,6.91c0,0.91-0.73,1.64-1.64,1.64h-10.84c-0.91,0-1.64-0.73-1.64-1.64l0-6.91
			c0-0.91,0.73-1.64,1.64-1.64l10.84,0C198.68,144,199.42,144.73,199.42,145.64z"/>
	</g>
	<g>
		<g>
			<path class="st15" d="M171.26,178.59h-38.29c-1.1,0-2-0.9-2-2v0c0-1.1,0.9-2,2-2h38.29c1.1,0,2,0.9,2,2v0
				C173.26,177.7,172.36,178.59,171.26,178.59z"/>
			<path class="st15" d="M160.97,187.59h-28.01c-1.1,0-2-0.9-2-2l0,0c0-1.1,0.9-2,2-2h28.01c1.1,0,2,0.9,2,2l0,0
				C162.97,186.7,162.08,187.59,160.97,187.59z"/>
		</g>
		<path class="st0" d="M127,171.23v19.72c0,0.91-0.73,1.64-1.64,1.64h-22.74c-0.91,0-1.64-0.73-1.64-1.64v-19.72
			c0-0.91,0.73-1.64,1.64-1.64l22.74,0C126.27,169.59,127,170.33,127,171.23z"/>
		<path class="st17" d="M199.42,177.64l0,6.91c0,0.91-0.73,1.64-1.64,1.64h-10.84c-0.91,0-1.64-0.73-1.64-1.64l0-6.91
			c0-0.91,0.73-1.64,1.64-1.64l10.84,0C198.68,176,199.42,176.73,199.42,177.64z"/>
	</g>
</g>
<g id="Layer_2">
</g>
<g id="Layer_3">
</g>
</svg>
