<?xml version="1.0" encoding="utf-8"?>
<!-- Generator: Adobe Illustrator 24.2.0, SVG Export Plug-In . SVG Version: 6.00 Build 0)  -->
<svg version="1.1" id="Layer_1" xmlns="http://www.w3.org/2000/svg" xmlns:xlink="http://www.w3.org/1999/xlink" x="0px" y="0px"
	 viewBox="0 0 300 300" style="enable-background:new 0 0 300 300;" xml:space="preserve">
<style type="text/css">
	.st0{fill:#E5E5E5;}
	.st1{fill:#D0D2D3;}
	.st2{fill:#FFFFFF;}
	.st3{fill:#EDEDED;}
	.st4{fill:#D0D2D3;stroke:#EFEFEF;stroke-width:2;stroke-miterlimit:10;}
	.st5{fill:#EFEFEF;}
	.st6{fill:#EAEAEA;}
	.st7{fill:#D8D8D8;}
	.st8{fill:#BDBDBD;}
	.st9{opacity:0.8;}
	.st10{fill:#999999;}
	.st11{fill:#D6D6D6;}
	.st12{fill:#F6F6F6;}
</style>
<path class="st0" d="M88.5,98.05L88.5,98.05c-1.38,0-2.5-1.12-2.5-2.5V80.5c0-1.38,1.12-2.5,2.5-2.5l0,0c1.38,0,2.5,1.12,2.5,2.5
	v15.05C91,96.93,89.88,98.05,88.5,98.05z"/>
<path class="st0" d="M211.5,98.05L211.5,98.05c-1.38,0-2.5-1.12-2.5-2.5V80.5c0-1.38,1.12-2.5,2.5-2.5l0,0c1.38,0,2.5,1.12,2.5,2.5
	v15.05C214,96.93,212.88,98.05,211.5,98.05z"/>
<path class="st0" d="M88.5,66.09L88.5,66.09c-1.38,0-2.5-1.12-2.5-2.5v-5.63c0-1.38,1.12-2.5,2.5-2.5l0,0c1.38,0,2.5,1.12,2.5,2.5
	v5.63C91,64.98,89.88,66.09,88.5,66.09z"/>
<path class="st0" d="M88.5,122L88.5,122c-1.38,0-2.5-1.12-2.5-2.5v-15.05c0-1.38,1.12-2.5,2.5-2.5l0,0c1.38,0,2.5,1.12,2.5,2.5
	v15.05C91,120.88,89.88,122,88.5,122z"/>
<path class="st1" d="M197.99,272.12h-95.98c-7.77,0-14.07-6.3-14.07-14.07V41.95c0-7.77,6.3-14.07,14.07-14.07h95.98
	c7.77,0,14.07,6.3,14.07,14.07v216.11C212.06,265.83,205.76,272.12,197.99,272.12z"/>
<rect x="94.1" y="49" class="st2" width="111.8" height="195"/>
<path class="st3" d="M166.55,40h-23c-1.1,0-2-0.9-2-2l0,0c0-1.1,0.9-2,2-2h23c1.1,0,2,0.9,2,2l0,0C168.55,39.1,167.65,40,166.55,40z
	"/>
<path class="st3" d="M135.55,40h-2.1c-1.1,0-2-0.9-2-2l0,0c0-1.1,0.9-2,2-2h2.1c1.1,0,2,0.9,2,2l0,0
	C137.55,39.1,136.65,40,135.55,40z"/>
<circle class="st4" cx="150" cy="258" r="8"/>
<rect x="94.1" y="49" class="st5" width="111.8" height="17"/>
<rect x="94.1" y="227" class="st6" width="111.8" height="17"/>
<path class="st7" d="M197.51,237H187c-1.1,0-2-0.9-2-2l0,0c0-1.1,0.9-2,2-2h10.51c1.1,0,2,0.9,2,2l0,0
	C199.51,236.1,198.62,237,197.51,237z"/>
<path class="st7" d="M169.51,237H159c-1.1,0-2-0.9-2-2l0,0c0-1.1,0.9-2,2-2h10.51c1.1,0,2,0.9,2,2l0,0
	C171.51,236.1,170.62,237,169.51,237z"/>
<path class="st7" d="M141.51,237H131c-1.1,0-2-0.9-2-2l0,0c0-1.1,0.9-2,2-2h10.51c1.1,0,2,0.9,2,2l0,0
	C143.51,236.1,142.62,237,141.51,237z"/>
<path class="st7" d="M113.51,237H103c-1.1,0-2-0.9-2-2l0,0c0-1.1,0.9-2,2-2h10.51c1.1,0,2,0.9,2,2l0,0
	C115.51,236.1,114.62,237,113.51,237z"/>
<path class="st8" d="M198.07,59h-34.52c-1.1,0-2-0.9-2-2l0,0c0-1.1,0.9-2,2-2h34.52c1.1,0,2,0.9,2,2l0,0
	C200.07,58.1,199.17,59,198.07,59z"/>
<path class="st8" d="M107.58,59h-7.03c-1.1,0-2-0.9-2-2l0,0c0-1.1,0.9-2,2-2h7.03c1.1,0,2,0.9,2,2l0,0
	C109.58,58.1,108.68,59,107.58,59z"/>
<g class="st9">
	<path class="st10" d="M130.58,73.07v19.72c0,0.91-0.73,1.64-1.64,1.64h-27.25c-0.91,0-1.64-0.73-1.64-1.64V73.07
		c0-0.91,0.73-1.64,1.64-1.64h27.25C129.85,71.43,130.58,72.16,130.58,73.07z"/>
	<g>
		<path class="st11" d="M105.39,92.85c0.55,0,1.45,0,2,0h20.77c0.55,0,1-0.45,1-1v-2.28c0-0.55-0.32-1.32-0.7-1.71l-6.79-6.9
			c-0.39-0.39-1.02-0.39-1.4,0l-4,4.07c-0.39,0.39-1.02,0.39-1.4,0l-1.84-1.87c-0.39-0.39-1.02-0.39-1.4,0l-8.84,8.98
			c-0.39,0.39-0.25,0.71,0.3,0.71C103.09,92.85,105.39,92.85,105.39,92.85z"/>
	</g>
	<circle class="st12" cx="107.19" cy="76.39" r="2.6"/>
</g>
<g class="st9">
	<path class="st10" d="M165.58,73.07v19.72c0,0.91-0.73,1.64-1.64,1.64h-27.25c-0.91,0-1.64-0.73-1.64-1.64V73.07
		c0-0.91,0.73-1.64,1.64-1.64h27.25C164.85,71.43,165.58,72.16,165.58,73.07z"/>
	<g>
		<path class="st11" d="M140.39,92.85c0.55,0,1.45,0,2,0h20.77c0.55,0,1-0.45,1-1v-2.28c0-0.55-0.32-1.32-0.7-1.71l-6.79-6.9
			c-0.39-0.39-1.02-0.39-1.4,0l-4,4.07c-0.39,0.39-1.02,0.39-1.4,0l-1.84-1.87c-0.39-0.39-1.02-0.39-1.4,0l-8.84,8.98
			c-0.39,0.39-0.25,0.71,0.3,0.71C138.09,92.85,140.39,92.85,140.39,92.85z"/>
	</g>
	<circle class="st12" cx="142.19" cy="76.39" r="2.6"/>
</g>
<g class="st9">
	<path class="st10" d="M200.58,73.07v19.72c0,0.91-0.73,1.64-1.64,1.64h-27.25c-0.91,0-1.64-0.73-1.64-1.64V73.07
		c0-0.91,0.73-1.64,1.64-1.64h27.25C199.85,71.43,200.58,72.16,200.58,73.07z"/>
	<g>
		<path class="st11" d="M175.39,92.85c0.55,0,1.45,0,2,0h20.77c0.55,0,1-0.45,1-1v-2.28c0-0.55-0.32-1.32-0.7-1.71l-6.79-6.9
			c-0.39-0.39-1.02-0.39-1.4,0l-4,4.07c-0.39,0.39-1.02,0.39-1.4,0l-1.84-1.87c-0.39-0.39-1.02-0.39-1.4,0l-8.84,8.98
			c-0.39,0.39-0.25,0.71,0.3,0.71C173.09,92.85,175.39,92.85,175.39,92.85z"/>
	</g>
	<circle class="st12" cx="177.19" cy="76.39" r="2.6"/>
</g>
<g class="st9">
	<path class="st10" d="M130.58,102.07v19.72c0,0.91-0.73,1.64-1.64,1.64h-27.25c-0.91,0-1.64-0.73-1.64-1.64v-19.72
		c0-0.91,0.73-1.64,1.64-1.64h27.25C129.85,100.43,130.58,101.16,130.58,102.07z"/>
	<g>
		<path class="st11" d="M105.39,121.85c0.55,0,1.45,0,2,0h20.77c0.55,0,1-0.45,1-1v-2.28c0-0.55-0.32-1.32-0.7-1.71l-6.79-6.9
			c-0.39-0.39-1.02-0.39-1.4,0l-4,4.07c-0.39,0.39-1.02,0.39-1.4,0l-1.84-1.87c-0.39-0.39-1.02-0.39-1.4,0l-8.84,8.98
			c-0.39,0.39-0.25,0.71,0.3,0.71C103.09,121.85,105.39,121.85,105.39,121.85z"/>
	</g>
	<circle class="st12" cx="107.19" cy="105.39" r="2.6"/>
</g>
<g class="st9">
	<path class="st10" d="M165.58,102.07v19.72c0,0.91-0.73,1.64-1.64,1.64h-27.25c-0.91,0-1.64-0.73-1.64-1.64v-19.72
		c0-0.91,0.73-1.64,1.64-1.64h27.25C164.85,100.43,165.58,101.16,165.58,102.07z"/>
	<g>
		<path class="st11" d="M140.39,121.85c0.55,0,1.45,0,2,0h20.77c0.55,0,1-0.45,1-1v-2.28c0-0.55-0.32-1.32-0.7-1.71l-6.79-6.9
			c-0.39-0.39-1.02-0.39-1.4,0l-4,4.07c-0.39,0.39-1.02,0.39-1.4,0l-1.84-1.87c-0.39-0.39-1.02-0.39-1.4,0l-8.84,8.98
			c-0.39,0.39-0.25,0.71,0.3,0.71C138.09,121.85,140.39,121.85,140.39,121.85z"/>
	</g>
	<circle class="st12" cx="142.19" cy="105.39" r="2.6"/>
</g>
<g class="st9">
	<path class="st10" d="M200.58,102.07v19.72c0,0.91-0.73,1.64-1.64,1.64h-27.25c-0.91,0-1.64-0.73-1.64-1.64v-19.72
		c0-0.91,0.73-1.64,1.64-1.64h27.25C199.85,100.43,200.58,101.16,200.58,102.07z"/>
	<g>
		<path class="st11" d="M175.39,121.85c0.55,0,1.45,0,2,0h20.77c0.55,0,1-0.45,1-1v-2.28c0-0.55-0.32-1.32-0.7-1.71l-6.79-6.9
			c-0.39-0.39-1.02-0.39-1.4,0l-4,4.07c-0.39,0.39-1.02,0.39-1.4,0l-1.84-1.87c-0.39-0.39-1.02-0.39-1.4,0l-8.84,8.98
			c-0.39,0.39-0.25,0.71,0.3,0.71C173.09,121.85,175.39,121.85,175.39,121.85z"/>
	</g>
	<circle class="st12" cx="177.19" cy="105.39" r="2.6"/>
</g>
<g class="st9">
	<path class="st10" d="M130.58,131.07v19.72c0,0.91-0.73,1.64-1.64,1.64h-27.25c-0.91,0-1.64-0.73-1.64-1.64v-19.72
		c0-0.91,0.73-1.64,1.64-1.64h27.25C129.85,129.43,130.58,130.16,130.58,131.07z"/>
	<g>
		<path class="st11" d="M105.39,150.85c0.55,0,1.45,0,2,0h20.77c0.55,0,1-0.45,1-1v-2.28c0-0.55-0.32-1.32-0.7-1.71l-6.79-6.9
			c-0.39-0.39-1.02-0.39-1.4,0l-4,4.07c-0.39,0.39-1.02,0.39-1.4,0l-1.84-1.87c-0.39-0.39-1.02-0.39-1.4,0l-8.84,8.98
			c-0.39,0.39-0.25,0.71,0.3,0.71C103.09,150.85,105.39,150.85,105.39,150.85z"/>
	</g>
	<circle class="st12" cx="107.19" cy="134.39" r="2.6"/>
</g>
<g class="st9">
	<path class="st10" d="M165.58,131.07v19.72c0,0.91-0.73,1.64-1.64,1.64h-27.25c-0.91,0-1.64-0.73-1.64-1.64v-19.72
		c0-0.91,0.73-1.64,1.64-1.64h27.25C164.85,129.43,165.58,130.16,165.58,131.07z"/>
	<g>
		<path class="st11" d="M140.39,150.85c0.55,0,1.45,0,2,0h20.77c0.55,0,1-0.45,1-1v-2.28c0-0.55-0.32-1.32-0.7-1.71l-6.79-6.9
			c-0.39-0.39-1.02-0.39-1.4,0l-4,4.07c-0.39,0.39-1.02,0.39-1.4,0l-1.84-1.87c-0.39-0.39-1.02-0.39-1.4,0l-8.84,8.98
			c-0.39,0.39-0.25,0.71,0.3,0.71C138.09,150.85,140.39,150.85,140.39,150.85z"/>
	</g>
	<circle class="st12" cx="142.19" cy="134.39" r="2.6"/>
</g>
<g class="st9">
	<path class="st10" d="M200.58,131.07v19.72c0,0.91-0.73,1.64-1.64,1.64h-27.25c-0.91,0-1.64-0.73-1.64-1.64v-19.72
		c0-0.91,0.73-1.64,1.64-1.64h27.25C199.85,129.43,200.58,130.16,200.58,131.07z"/>
	<g>
		<path class="st11" d="M175.39,150.85c0.55,0,1.45,0,2,0h20.77c0.55,0,1-0.45,1-1v-2.28c0-0.55-0.32-1.32-0.7-1.71l-6.79-6.9
			c-0.39-0.39-1.02-0.39-1.4,0l-4,4.07c-0.39,0.39-1.02,0.39-1.4,0l-1.84-1.87c-0.39-0.39-1.02-0.39-1.4,0l-8.84,8.98
			c-0.39,0.39-0.25,0.71,0.3,0.71C173.09,150.85,175.39,150.85,175.39,150.85z"/>
	</g>
	<circle class="st12" cx="177.19" cy="134.39" r="2.6"/>
</g>
<g class="st9">
	<path class="st10" d="M130.58,160.07v19.72c0,0.91-0.73,1.64-1.64,1.64h-27.25c-0.91,0-1.64-0.73-1.64-1.64v-19.72
		c0-0.91,0.73-1.64,1.64-1.64h27.25C129.85,158.43,130.58,159.16,130.58,160.07z"/>
	<g>
		<path class="st11" d="M105.39,179.85c0.55,0,1.45,0,2,0h20.77c0.55,0,1-0.45,1-1v-2.28c0-0.55-0.32-1.32-0.7-1.71l-6.79-6.9
			c-0.39-0.39-1.02-0.39-1.4,0l-4,4.07c-0.39,0.39-1.02,0.39-1.4,0l-1.84-1.87c-0.39-0.39-1.02-0.39-1.4,0l-8.84,8.98
			c-0.39,0.39-0.25,0.71,0.3,0.71C103.09,179.85,105.39,179.85,105.39,179.85z"/>
	</g>
	<circle class="st12" cx="107.19" cy="163.39" r="2.6"/>
</g>
<g class="st9">
	<path class="st10" d="M165.58,160.07v19.72c0,0.91-0.73,1.64-1.64,1.64h-27.25c-0.91,0-1.64-0.73-1.64-1.64v-19.72
		c0-0.91,0.73-1.64,1.64-1.64h27.25C164.85,158.43,165.58,159.16,165.58,160.07z"/>
	<g>
		<path class="st11" d="M140.39,179.85c0.55,0,1.45,0,2,0h20.77c0.55,0,1-0.45,1-1v-2.28c0-0.55-0.32-1.32-0.7-1.71l-6.79-6.9
			c-0.39-0.39-1.02-0.39-1.4,0l-4,4.07c-0.39,0.39-1.02,0.39-1.4,0l-1.84-1.87c-0.39-0.39-1.02-0.39-1.4,0l-8.84,8.98
			c-0.39,0.39-0.25,0.71,0.3,0.71C138.09,179.85,140.39,179.85,140.39,179.85z"/>
	</g>
	<circle class="st12" cx="142.19" cy="163.39" r="2.6"/>
</g>
<g class="st9">
	<path class="st10" d="M200.58,160.07v19.72c0,0.91-0.73,1.64-1.64,1.64h-27.25c-0.91,0-1.64-0.73-1.64-1.64v-19.72
		c0-0.91,0.73-1.64,1.64-1.64h27.25C199.85,158.43,200.58,159.16,200.58,160.07z"/>
	<g>
		<path class="st11" d="M175.39,179.85c0.55,0,1.45,0,2,0h20.77c0.55,0,1-0.45,1-1v-2.28c0-0.55-0.32-1.32-0.7-1.71l-6.79-6.9
			c-0.39-0.39-1.02-0.39-1.4,0l-4,4.07c-0.39,0.39-1.02,0.39-1.4,0l-1.84-1.87c-0.39-0.39-1.02-0.39-1.4,0l-8.84,8.98
			c-0.39,0.39-0.25,0.71,0.3,0.71C173.09,179.85,175.39,179.85,175.39,179.85z"/>
	</g>
	<circle class="st12" cx="177.19" cy="163.39" r="2.6"/>
</g>
<g id="Layer_2_1_">
</g>
<g id="Layer_3">
</g>
</svg>
