<?xml version="1.0" encoding="utf-8"?>
<!-- Generator: Adobe Illustrator 24.2.0, SVG Export Plug-In . SVG Version: 6.00 Build 0)  -->
<svg version="1.1" id="Layer_1" xmlns="http://www.w3.org/2000/svg" xmlns:xlink="http://www.w3.org/1999/xlink" x="0px" y="0px"
	 viewBox="0 0 300 300" style="enable-background:new 0 0 300 300;" xml:space="preserve">
<style type="text/css">
	.st0{fill:#E5E5E5;}
	.st1{fill:#D0D2D3;}
	.st2{fill:#FFFFFF;}
	.st3{fill:#EDEDED;}
	.st4{fill:#D0D2D3;stroke:#EFEFEF;stroke-width:2;stroke-miterlimit:10;}
	.st5{fill:#EFEFEF;}
	.st6{fill:#EAEAEA;}
	.st7{fill:#D8D8D8;}
	.st8{fill:#BDBDBD;}
	.st9{fill:none;stroke:#E5E5E5;stroke-miterlimit:10;}
	.st10{fill:#D6D6D6;}
	.st11{opacity:0.49;fill:none;stroke:#C6C6C6;stroke-width:0.3;stroke-miterlimit:10;enable-background:new    ;}
</style>
<path class="st0" d="M88.5,98.05L88.5,98.05c-1.38,0-2.5-1.12-2.5-2.5V80.5c0-1.38,1.12-2.5,2.5-2.5l0,0c1.38,0,2.5,1.12,2.5,2.5
	v15.05C91,96.93,89.88,98.05,88.5,98.05z"/>
<path class="st0" d="M211.5,98.05L211.5,98.05c-1.38,0-2.5-1.12-2.5-2.5V80.5c0-1.38,1.12-2.5,2.5-2.5l0,0c1.38,0,2.5,1.12,2.5,2.5
	v15.05C214,96.93,212.88,98.05,211.5,98.05z"/>
<path class="st0" d="M88.5,66.09L88.5,66.09c-1.38,0-2.5-1.12-2.5-2.5v-5.63c0-1.38,1.12-2.5,2.5-2.5l0,0c1.38,0,2.5,1.12,2.5,2.5
	v5.63C91,64.98,89.88,66.09,88.5,66.09z"/>
<path class="st0" d="M88.5,122L88.5,122c-1.38,0-2.5-1.12-2.5-2.5v-15.05c0-1.38,1.12-2.5,2.5-2.5l0,0c1.38,0,2.5,1.12,2.5,2.5
	v15.05C91,120.88,89.88,122,88.5,122z"/>
<path class="st1" d="M197.99,272.12h-95.98c-7.77,0-14.07-6.3-14.07-14.07V41.95c0-7.77,6.3-14.07,14.07-14.07h95.98
	c7.77,0,14.07,6.3,14.07,14.07v216.11C212.06,265.83,205.76,272.12,197.99,272.12z"/>
<rect x="94.1" y="49" class="st2" width="111.8" height="195"/>
<path class="st3" d="M166.55,40h-23c-1.1,0-2-0.9-2-2l0,0c0-1.1,0.9-2,2-2h23c1.1,0,2,0.9,2,2l0,0C168.55,39.1,167.65,40,166.55,40z
	"/>
<path class="st3" d="M135.55,40h-2.1c-1.1,0-2-0.9-2-2l0,0c0-1.1,0.9-2,2-2h2.1c1.1,0,2,0.9,2,2l0,0
	C137.55,39.1,136.65,40,135.55,40z"/>
<circle class="st4" cx="150" cy="258" r="8"/>
<rect x="94.1" y="49" class="st5" width="111.8" height="17"/>
<rect x="94.1" y="227" class="st6" width="111.8" height="17"/>
<path class="st7" d="M197.51,237H187c-1.1,0-2-0.9-2-2l0,0c0-1.1,0.9-2,2-2h10.51c1.1,0,2,0.9,2,2l0,0
	C199.51,236.1,198.62,237,197.51,237z"/>
<path class="st7" d="M169.51,237H159c-1.1,0-2-0.9-2-2l0,0c0-1.1,0.9-2,2-2h10.51c1.1,0,2,0.9,2,2l0,0
	C171.51,236.1,170.62,237,169.51,237z"/>
<path class="st7" d="M141.51,237H131c-1.1,0-2-0.9-2-2l0,0c0-1.1,0.9-2,2-2h10.51c1.1,0,2,0.9,2,2l0,0
	C143.51,236.1,142.62,237,141.51,237z"/>
<path class="st7" d="M113.51,237H103c-1.1,0-2-0.9-2-2l0,0c0-1.1,0.9-2,2-2h10.51c1.1,0,2,0.9,2,2l0,0
	C115.51,236.1,114.62,237,113.51,237z"/>
<path class="st8" d="M198.07,59h-34.52c-1.1,0-2-0.9-2-2l0,0c0-1.1,0.9-2,2-2h34.52c1.1,0,2,0.9,2,2l0,0
	C200.07,58.1,199.17,59,198.07,59z"/>
<path class="st8" d="M181.54,140.71h-57.99c-1.1,0-2-0.9-2-2l0,0c0-1.1,0.9-2,2-2h57.99c1.1,0,2,0.9,2,2l0,0
	C183.54,139.81,182.65,140.71,181.54,140.71z"/>
<path class="st8" d="M107.58,59h-7.03c-1.1,0-2-0.9-2-2l0,0c0-1.1,0.9-2,2-2h7.03c1.1,0,2,0.9,2,2l0,0
	C109.58,58.1,108.68,59,107.58,59z"/>
<g>
	<g>
		<path class="st2" d="M200.93,113.03c0,0.55-0.42,0.85-0.94,0.67l-16.89-5.9c-0.52-0.18-0.94-0.78-0.94-1.33V84.74
			c0-0.55,0.43-1.13,0.96-1.29l16.86-5.15c0.53-0.16,0.96,0.16,0.96,0.71v34.02H200.93z"/>
		<path class="st9" d="M200.93,113.03c0,0.55-0.42,0.85-0.94,0.67l-16.89-5.9c-0.52-0.18-0.94-0.78-0.94-1.33V84.74
			c0-0.55,0.43-1.13,0.96-1.29l16.86-5.15c0.53-0.16,0.96,0.16,0.96,0.71v34.02H200.93z"/>
	</g>
	<g>
		<path class="st2" d="M193.97,115.03c0,0.55-0.42,0.85-0.94,0.67l-18.97-6.62c-0.52-0.18-0.94-0.78-0.94-1.33V83.37
			c0-0.55,0.43-1.13,0.96-1.29l18.95-5.79c0.53-0.16,0.96,0.16,0.96,0.71v38.03H193.97z"/>
		<path class="st9" d="M193.97,115.03c0,0.55-0.42,0.85-0.94,0.67l-18.97-6.62c-0.52-0.18-0.94-0.78-0.94-1.33V83.37
			c0-0.55,0.43-1.13,0.96-1.29l18.95-5.79c0.53-0.16,0.96,0.16,0.96,0.71v38.03H193.97z"/>
	</g>
	<g>
		<path class="st2" d="M187,117c0,0.55-0.42,0.85-0.94,0.67l-21.02-7.34c-0.52-0.18-0.94-0.78-0.94-1.33V82.03
			c0-0.55,0.43-1.13,0.96-1.29l21-6.42c0.53-0.16,0.96,0.16,0.96,0.71V117H187z"/>
		<path class="st9" d="M187,117c0,0.55-0.42,0.85-0.94,0.67l-21.02-7.34c-0.52-0.18-0.94-0.78-0.94-1.33V82.03
			c0-0.55,0.43-1.13,0.96-1.29l21-6.42c0.53-0.16,0.96,0.16,0.96,0.71V117H187z"/>
	</g>
	<g>
		<g>
			<path class="st2" d="M100.09,79c0-0.55,0.42-0.85,0.94-0.67l16.89,5.9c0.52,0.18,0.94,0.78,0.94,1.33v21.74
				c0,0.55-0.43,1.13-0.96,1.29l-16.86,5.15c-0.53,0.16-0.96-0.16-0.96-0.71L100.09,79L100.09,79z"/>
			<path class="st9" d="M100.09,79c0-0.55,0.42-0.85,0.94-0.67l16.89,5.9c0.52,0.18,0.94,0.78,0.94,1.33v21.74
				c0,0.55-0.43,1.13-0.96,1.29l-16.86,5.15c-0.53,0.16-0.96-0.16-0.96-0.71L100.09,79L100.09,79z"/>
		</g>
		<g>
			<path class="st2" d="M107.05,77c0-0.55,0.42-0.85,0.94-0.67l18.97,6.62c0.52,0.18,0.94,0.78,0.94,1.33v24.37
				c0,0.55-0.43,1.13-0.96,1.29l-18.94,5.8c-0.53,0.16-0.96-0.16-0.96-0.71V77H107.05z"/>
			<path class="st9" d="M107.05,77c0-0.55,0.42-0.85,0.94-0.67l18.97,6.62c0.52,0.18,0.94,0.78,0.94,1.33v24.37
				c0,0.55-0.43,1.13-0.96,1.29l-18.94,5.8c-0.53,0.16-0.96-0.16-0.96-0.71V77H107.05z"/>
		</g>
		<g>
			<path class="st2" d="M114.02,75.03c0-0.55,0.42-0.85,0.94-0.67l21.02,7.34c0.52,0.18,0.94,0.78,0.94,1.33V110
				c0,0.55-0.43,1.13-0.96,1.29l-21,6.42c-0.53,0.16-0.96-0.16-0.96-0.71V75.03H114.02z"/>
			<path class="st9" d="M114.02,75.03c0-0.55,0.42-0.85,0.94-0.67l21.02,7.34c0.52,0.18,0.94,0.78,0.94,1.33V110
				c0,0.55-0.43,1.13-0.96,1.29l-21,6.42c-0.53,0.16-0.96-0.16-0.96-0.71V75.03H114.02z"/>
		</g>
	</g>
	<g>
		<path class="st2" d="M172.6,117c0,0.55-0.45,1-1,1h-43.51c-0.55,0-1-0.45-1-1V75.03c0-0.55,0.45-1,1-1h43.51c0.55,0,1,0.45,1,1
			V117z"/>
		<path class="st9" d="M172.6,117c0,0.55-0.45,1-1,1h-43.51c-0.55,0-1-0.45-1-1V75.03c0-0.55,0.45-1,1-1h43.51c0.55,0,1,0.45,1,1
			V117z"/>
	</g>
	<g>
		<path class="st8" d="M137.05,99.49L137.05,99.49c-0.48,0-0.87-0.39-0.87-0.87v-5.2c0-0.48,0.39-0.87,0.87-0.87l0,0
			c0.48,0,0.87,0.39,0.87,0.87v5.2C137.92,99.1,137.53,99.49,137.05,99.49z"/>
		<path class="st8" d="M143.12,104.03L143.12,104.03c-0.48,0-0.87-0.39-0.87-0.87V88.87c0-0.48,0.39-0.87,0.87-0.87l0,0
			c0.48,0,0.87,0.39,0.87,0.87v14.29C143.99,103.64,143.6,104.03,143.12,104.03z"/>
		<path class="st8" d="M149.63,99.92L149.63,99.92c-0.48,0-0.87-0.39-0.87-0.87v-5.2c0-0.48,0.39-0.87,0.87-0.87l0,0
			c0.48,0,0.87,0.39,0.87,0.87v5.2C150.5,99.53,150.11,99.92,149.63,99.92z"/>
		<path class="st8" d="M156.13,104.03L156.13,104.03c-0.48,0-0.87-0.39-0.87-0.87V88.87c0-0.48,0.39-0.87,0.87-0.87l0,0
			c0.48,0,0.87,0.39,0.87,0.87v14.29C157,103.64,156.61,104.03,156.13,104.03z"/>
		<path class="st8" d="M162.64,99.92L162.64,99.92c-0.48,0-0.87-0.39-0.87-0.87v-5.2c0-0.48,0.39-0.87,0.87-0.87l0,0
			c0.48,0,0.87,0.39,0.87,0.87v5.2C163.51,99.53,163.12,99.92,162.64,99.92z"/>
	</g>
</g>
<g>
	<path class="st8" d="M100.97,142.18L100.97,142.18c-0.48,0-0.87-0.39-0.87-0.87v-5.2c0-0.48,0.39-0.87,0.87-0.87l0,0
		c0.48,0,0.87,0.39,0.87,0.87v5.2C101.84,141.79,101.45,142.18,100.97,142.18z"/>
	<path class="st8" d="M107.04,146.72L107.04,146.72c-0.48,0-0.87-0.39-0.87-0.87v-14.29c0-0.48,0.39-0.87,0.87-0.87l0,0
		c0.48,0,0.87,0.39,0.87,0.87v14.29C107.91,146.33,107.52,146.72,107.04,146.72z"/>
	<path class="st8" d="M113.55,142.61L113.55,142.61c-0.48,0-0.87-0.39-0.87-0.87v-5.2c0-0.48,0.39-0.87,0.87-0.87l0,0
		c0.48,0,0.87,0.39,0.87,0.87v5.2C114.42,142.22,114.03,142.61,113.55,142.61z"/>
</g>
<g>
	<path class="st10" d="M193.28,139.71c0-0.55,0-1.45,0-2v-2.29c0-0.55,0.39-0.77,0.87-0.5l1.99,1.15c0.48,0.28,1.26,0.73,1.73,1
		l1.99,1.15c0.48,0.28,0.48,0.73,0,1l-1.99,1.15c-0.48,0.27-1.26,0.73-1.73,1l-1.99,1.15c-0.48,0.27-0.87,0.05-0.87-0.5V139.71z"/>
</g>
<line class="st11" x1="94" y1="155" x2="206" y2="155"/>
<path class="st8" d="M181.54,173.71h-57.99c-1.1,0-2-0.9-2-2l0,0c0-1.1,0.9-2,2-2h57.99c1.1,0,2,0.9,2,2l0,0
	C183.54,172.81,182.65,173.71,181.54,173.71z"/>
<g>
	<path class="st8" d="M100.97,175.18L100.97,175.18c-0.48,0-0.87-0.39-0.87-0.87v-5.2c0-0.48,0.39-0.87,0.87-0.87l0,0
		c0.48,0,0.87,0.39,0.87,0.87v5.2C101.84,174.79,101.45,175.18,100.97,175.18z"/>
	<path class="st8" d="M107.04,179.72L107.04,179.72c-0.48,0-0.87-0.39-0.87-0.87v-14.29c0-0.48,0.39-0.87,0.87-0.87l0,0
		c0.48,0,0.87,0.39,0.87,0.87v14.29C107.91,179.33,107.52,179.72,107.04,179.72z"/>
	<path class="st8" d="M113.55,175.61L113.55,175.61c-0.48,0-0.87-0.39-0.87-0.87v-5.2c0-0.48,0.39-0.87,0.87-0.87l0,0
		c0.48,0,0.87,0.39,0.87,0.87v5.2C114.42,175.22,114.03,175.61,113.55,175.61z"/>
</g>
<g>
	<path class="st10" d="M193.28,172.71c0-0.55,0-1.45,0-2v-2.29c0-0.55,0.39-0.77,0.87-0.5l1.99,1.15c0.48,0.28,1.26,0.73,1.73,1
		l1.99,1.15c0.48,0.28,0.48,0.73,0,1l-1.99,1.15c-0.48,0.27-1.26,0.73-1.73,1l-1.99,1.15c-0.48,0.27-0.87,0.05-0.87-0.5V172.71z"/>
</g>
<path class="st8" d="M181.54,206.71h-57.99c-1.1,0-2-0.9-2-2l0,0c0-1.1,0.9-2,2-2h57.99c1.1,0,2,0.9,2,2l0,0
	C183.54,205.81,182.65,206.71,181.54,206.71z"/>
<g>
	<path class="st8" d="M100.97,208.18L100.97,208.18c-0.48,0-0.87-0.39-0.87-0.87v-5.2c0-0.48,0.39-0.87,0.87-0.87l0,0
		c0.48,0,0.87,0.39,0.87,0.87v5.2C101.84,207.79,101.45,208.18,100.97,208.18z"/>
	<path class="st8" d="M107.04,212.72L107.04,212.72c-0.48,0-0.87-0.39-0.87-0.87v-14.29c0-0.48,0.39-0.87,0.87-0.87l0,0
		c0.48,0,0.87,0.39,0.87,0.87v14.29C107.91,212.33,107.52,212.72,107.04,212.72z"/>
	<path class="st8" d="M113.55,208.61L113.55,208.61c-0.48,0-0.87-0.39-0.87-0.87v-5.2c0-0.48,0.39-0.87,0.87-0.87l0,0
		c0.48,0,0.87,0.39,0.87,0.87v5.2C114.42,208.22,114.03,208.61,113.55,208.61z"/>
</g>
<g>
	<path class="st10" d="M193.28,205.71c0-0.55,0-1.45,0-2v-2.29c0-0.55,0.39-0.77,0.87-0.5l1.99,1.15c0.48,0.28,1.26,0.73,1.73,1
		l1.99,1.15c0.48,0.28,0.48,0.73,0,1l-1.99,1.15c-0.48,0.27-1.26,0.73-1.73,1l-1.99,1.15c-0.48,0.27-0.87,0.05-0.87-0.5V205.71z"/>
</g>
<line class="st11" x1="94" y1="188" x2="206" y2="188"/>
<g id="Layer_2_1_">
</g>
<g id="Layer_3">
</g>
</svg>
