<?xml version="1.0" encoding="utf-8"?>
<!-- Generator: Adobe Illustrator 24.2.0, SVG Export Plug-In . SVG Version: 6.00 Build 0)  -->
<svg version="1.1" id="Layer_1" xmlns="http://www.w3.org/2000/svg" xmlns:xlink="http://www.w3.org/1999/xlink" x="0px" y="0px"
	 viewBox="0 0 300 300" style="enable-background:new 0 0 300 300;" xml:space="preserve">
<style type="text/css">
	.st0{fill:#E5E5E5;}
	.st1{fill:#D0D2D3;}
	.st2{fill:#FFFFFF;}
	.st3{fill:#EDEDED;}
	.st4{fill:#D0D2D3;stroke:#EFEFEF;stroke-width:2;stroke-miterlimit:10;}
	.st5{fill:#EFEFEF;}
	.st6{fill:#EAEAEA;}
	.st7{fill:#D8D8D8;}
	.st8{fill:#BDBDBD;}
	.st9{fill:#DDDDDD;}
	.st10{fill:#CCCCCC;}
</style>
<path class="st0" d="M88.5,98.05L88.5,98.05c-1.38,0-2.5-1.12-2.5-2.5V80.5c0-1.38,1.12-2.5,2.5-2.5l0,0c1.38,0,2.5,1.12,2.5,2.5
	v15.05C91,96.93,89.88,98.05,88.5,98.05z"/>
<path class="st0" d="M211.5,98.05L211.5,98.05c-1.38,0-2.5-1.12-2.5-2.5V80.5c0-1.38,1.12-2.5,2.5-2.5l0,0c1.38,0,2.5,1.12,2.5,2.5
	v15.05C214,96.93,212.88,98.05,211.5,98.05z"/>
<path class="st0" d="M88.5,66.09L88.5,66.09c-1.38,0-2.5-1.12-2.5-2.5v-5.63c0-1.38,1.12-2.5,2.5-2.5l0,0c1.38,0,2.5,1.12,2.5,2.5
	v5.63C91,64.98,89.88,66.09,88.5,66.09z"/>
<path class="st0" d="M88.5,122L88.5,122c-1.38,0-2.5-1.12-2.5-2.5v-15.05c0-1.38,1.12-2.5,2.5-2.5l0,0c1.38,0,2.5,1.12,2.5,2.5
	v15.05C91,120.88,89.88,122,88.5,122z"/>
<path class="st1" d="M197.99,272.12h-95.98c-7.77,0-14.07-6.3-14.07-14.07V41.95c0-7.77,6.3-14.07,14.07-14.07h95.98
	c7.77,0,14.07,6.3,14.07,14.07v216.11C212.06,265.83,205.76,272.12,197.99,272.12z"/>
<rect x="94.1" y="49" class="st2" width="111.8" height="195"/>
<path class="st3" d="M166.55,40h-23c-1.1,0-2-0.9-2-2l0,0c0-1.1,0.9-2,2-2h23c1.1,0,2,0.9,2,2l0,0C168.55,39.1,167.65,40,166.55,40z
	"/>
<path class="st3" d="M135.55,40h-2.1c-1.1,0-2-0.9-2-2l0,0c0-1.1,0.9-2,2-2h2.1c1.1,0,2,0.9,2,2l0,0
	C137.55,39.1,136.65,40,135.55,40z"/>
<circle class="st4" cx="150" cy="258" r="8"/>
<rect x="94.1" y="49" class="st5" width="111.8" height="17"/>
<rect x="94.1" y="227" class="st6" width="111.8" height="17"/>
<path class="st7" d="M197.51,237H187c-1.1,0-2-0.9-2-2l0,0c0-1.1,0.9-2,2-2h10.51c1.1,0,2,0.9,2,2l0,0
	C199.51,236.1,198.62,237,197.51,237z"/>
<path class="st7" d="M169.51,237H159c-1.1,0-2-0.9-2-2l0,0c0-1.1,0.9-2,2-2h10.51c1.1,0,2,0.9,2,2l0,0
	C171.51,236.1,170.62,237,169.51,237z"/>
<path class="st7" d="M141.51,237H131c-1.1,0-2-0.9-2-2l0,0c0-1.1,0.9-2,2-2h10.51c1.1,0,2,0.9,2,2l0,0
	C143.51,236.1,142.62,237,141.51,237z"/>
<path class="st7" d="M113.51,237H103c-1.1,0-2-0.9-2-2l0,0c0-1.1,0.9-2,2-2h10.51c1.1,0,2,0.9,2,2l0,0
	C115.51,236.1,114.62,237,113.51,237z"/>
<path class="st8" d="M198.07,59h-34.52c-1.1,0-2-0.9-2-2l0,0c0-1.1,0.9-2,2-2h34.52c1.1,0,2,0.9,2,2l0,0
	C200.07,58.1,199.17,59,198.07,59z"/>
<path class="st8" d="M107.58,59h-7.03c-1.1,0-2-0.9-2-2l0,0c0-1.1,0.9-2,2-2h7.03c1.1,0,2,0.9,2,2l0,0
	C109.58,58.1,108.68,59,107.58,59z"/>
<g>
	<path class="st9" d="M122.73,73.62v15.72c0,0.91-0.73,1.64-1.64,1.64h-18.21c-0.91,0-1.64-0.73-1.64-1.64V73.62
		c0-0.91,0.73-1.64,1.64-1.64h18.21C122,71.98,122.73,72.71,122.73,73.62z"/>
	<g>
		<path class="st9" d="M193.49,82.48c0-0.55,0-1.45,0-2v-3.5c0-0.55,0.34-0.7,0.75-0.34l1.62,1.43c0.41,0.36,1.09,0.96,1.5,1.32
			l1.62,1.43c0.41,0.36,0.41,0.96,0,1.32l-1.62,1.43c-0.41,0.36-1.09,0.96-1.5,1.32l-1.62,1.43c-0.41,0.36-0.75,0.21-0.75-0.34
			V82.48z"/>
	</g>
	<g>
		<path class="st10" d="M176.44,79.48h-46.7c-1,0-1.82-0.9-1.82-2l0,0c0-1.1,0.82-2,1.82-2h46.7c1,0,1.82,0.9,1.82,2l0,0
			C178.26,78.58,177.45,79.48,176.44,79.48z"/>
		<path class="st9" d="M164.99,87.48H129.3c-0.76,0-1.39-0.9-1.39-2l0,0c0-1.1,0.63-2,1.39-2h35.69c0.76,0,1.39,0.9,1.39,2l0,0
			C166.39,86.58,165.77,87.48,164.99,87.48z"/>
	</g>
</g>
<g>
	<path class="st9" d="M122.73,103.62v15.72c0,0.91-0.73,1.64-1.64,1.64h-18.21c-0.91,0-1.64-0.73-1.64-1.64v-15.72
		c0-0.91,0.73-1.64,1.64-1.64h18.21C122,101.98,122.73,102.71,122.73,103.62z"/>
	<g>
		<path class="st9" d="M193.49,112.48c0-0.55,0-1.45,0-2v-3.5c0-0.55,0.34-0.7,0.75-0.34l1.62,1.43c0.41,0.36,1.09,0.96,1.5,1.32
			l1.62,1.43c0.41,0.36,0.41,0.96,0,1.32l-1.62,1.43c-0.41,0.36-1.09,0.96-1.5,1.32l-1.62,1.43c-0.41,0.36-0.75,0.21-0.75-0.34
			V112.48z"/>
	</g>
	<g>
		<path class="st10" d="M176.44,109.48h-46.7c-1,0-1.82-0.9-1.82-2l0,0c0-1.1,0.82-2,1.82-2h46.7c1,0,1.82,0.9,1.82,2l0,0
			C178.26,108.58,177.45,109.48,176.44,109.48z"/>
		<path class="st9" d="M164.99,117.48H129.3c-0.76,0-1.39-0.9-1.39-2l0,0c0-1.1,0.63-2,1.39-2h35.69c0.76,0,1.39,0.9,1.39,2l0,0
			C166.39,116.58,165.77,117.48,164.99,117.48z"/>
	</g>
</g>
<g>
	<path class="st9" d="M122.73,133.62v15.72c0,0.91-0.73,1.64-1.64,1.64h-18.21c-0.91,0-1.64-0.73-1.64-1.64v-15.72
		c0-0.91,0.73-1.64,1.64-1.64h18.21C122,131.98,122.73,132.71,122.73,133.62z"/>
	<g>
		<path class="st9" d="M193.49,142.48c0-0.55,0-1.45,0-2v-3.5c0-0.55,0.34-0.7,0.75-0.34l1.62,1.43c0.41,0.36,1.09,0.96,1.5,1.32
			l1.62,1.43c0.41,0.36,0.41,0.96,0,1.32l-1.62,1.43c-0.41,0.36-1.09,0.96-1.5,1.32l-1.62,1.43c-0.41,0.36-0.75,0.21-0.75-0.34
			V142.48z"/>
	</g>
	<g>
		<path class="st10" d="M176.44,139.48h-46.7c-1,0-1.82-0.9-1.82-2l0,0c0-1.1,0.82-2,1.82-2h46.7c1,0,1.82,0.9,1.82,2l0,0
			C178.26,138.58,177.45,139.48,176.44,139.48z"/>
		<path class="st9" d="M164.99,147.48H129.3c-0.76,0-1.39-0.9-1.39-2l0,0c0-1.1,0.63-2,1.39-2h35.69c0.76,0,1.39,0.9,1.39,2l0,0
			C166.39,146.58,165.77,147.48,164.99,147.48z"/>
	</g>
</g>
<g>
	<path class="st9" d="M122.73,163.62v15.72c0,0.91-0.73,1.64-1.64,1.64h-18.21c-0.91,0-1.64-0.73-1.64-1.64v-15.72
		c0-0.91,0.73-1.64,1.64-1.64h18.21C122,161.98,122.73,162.71,122.73,163.62z"/>
	<g>
		<path class="st9" d="M193.49,172.48c0-0.55,0-1.45,0-2v-3.5c0-0.55,0.34-0.7,0.75-0.34l1.62,1.43c0.41,0.36,1.09,0.96,1.5,1.32
			l1.62,1.43c0.41,0.36,0.41,0.96,0,1.32l-1.62,1.43c-0.41,0.36-1.09,0.96-1.5,1.32l-1.62,1.43c-0.41,0.36-0.75,0.21-0.75-0.34
			V172.48z"/>
	</g>
	<g>
		<path class="st10" d="M176.44,169.48h-46.7c-1,0-1.82-0.9-1.82-2l0,0c0-1.1,0.82-2,1.82-2h46.7c1,0,1.82,0.9,1.82,2l0,0
			C178.26,168.58,177.45,169.48,176.44,169.48z"/>
		<path class="st9" d="M164.99,177.48H129.3c-0.76,0-1.39-0.9-1.39-2l0,0c0-1.1,0.63-2,1.39-2h35.69c0.76,0,1.39,0.9,1.39,2l0,0
			C166.39,176.58,165.77,177.48,164.99,177.48z"/>
	</g>
</g>
<g>
	<path class="st9" d="M122.73,193.62v15.72c0,0.91-0.73,1.64-1.64,1.64h-18.21c-0.91,0-1.64-0.73-1.64-1.64v-15.72
		c0-0.91,0.73-1.64,1.64-1.64h18.21C122,191.98,122.73,192.71,122.73,193.62z"/>
	<g>
		<path class="st9" d="M193.49,202.48c0-0.55,0-1.45,0-2v-3.5c0-0.55,0.34-0.7,0.75-0.34l1.62,1.43c0.41,0.36,1.09,0.96,1.5,1.32
			l1.62,1.43c0.41,0.36,0.41,0.96,0,1.32l-1.62,1.43c-0.41,0.36-1.09,0.96-1.5,1.32l-1.62,1.43c-0.41,0.36-0.75,0.21-0.75-0.34
			V202.48z"/>
	</g>
	<g>
		<path class="st10" d="M176.44,199.48h-46.7c-1,0-1.82-0.9-1.82-2l0,0c0-1.1,0.82-2,1.82-2h46.7c1,0,1.82,0.9,1.82,2l0,0
			C178.26,198.58,177.45,199.48,176.44,199.48z"/>
		<path class="st9" d="M164.99,207.48H129.3c-0.76,0-1.39-0.9-1.39-2l0,0c0-1.1,0.63-2,1.39-2h35.69c0.76,0,1.39,0.9,1.39,2l0,0
			C166.39,206.58,165.77,207.48,164.99,207.48z"/>
	</g>
</g>
<g id="Layer_2_1_">
</g>
<g id="Layer_3">
</g>
</svg>
