<?xml version="1.0" encoding="utf-8"?>
<!-- Generator: Adobe Illustrator 24.2.0, SVG Export Plug-In . SVG Version: 6.00 Build 0)  -->
<svg version="1.1" xmlns="http://www.w3.org/2000/svg" xmlns:xlink="http://www.w3.org/1999/xlink" x="0px" y="0px"
	 viewBox="0 0 300 300" style="enable-background:new 0 0 300 300;" xml:space="preserve">
<style type="text/css">
	.st0{fill:#999999;}
	.st1{fill:#D6D6D6;}
	.st2{fill:#F6F6F6;}
	.st3{fill:#E5E5E5;}
	.st4{fill:#D0D2D3;}
	.st5{fill:#FFFFFF;}
	.st6{fill:#EDEDED;}
	.st7{fill:#D0D2D3;stroke:#EFEFEF;stroke-width:2;stroke-miterlimit:10;}
	.st8{fill:#E8E8E8;}
	.st9{fill:#BDBDBD;}
	.st10{fill:#F0F0F0;}
	.st11{fill:none;stroke:#CECECE;stroke-width:0.5;stroke-miterlimit:10;}
	.st12{fill:#EFEFEF;}
	.st13{fill:none;stroke:#999999;stroke-miterlimit:10;}
	.st14{fill:#EAEAEA;}
	.st15{fill:#D8D8D8;}
	.st16{opacity:0.51;}
</style>
<g id="Layer_1">
	<path class="st3" d="M88.5,98.05L88.5,98.05c-1.38,0-2.5-1.12-2.5-2.5V80.5c0-1.38,1.12-2.5,2.5-2.5l0,0c1.38,0,2.5,1.12,2.5,2.5
		v15.05C91,96.93,89.88,98.05,88.5,98.05z"/>
	<path class="st3" d="M211.5,98.05L211.5,98.05c-1.38,0-2.5-1.12-2.5-2.5V80.5c0-1.38,1.12-2.5,2.5-2.5l0,0c1.38,0,2.5,1.12,2.5,2.5
		v15.05C214,96.93,212.88,98.05,211.5,98.05z"/>
	<path class="st3" d="M88.5,66.09L88.5,66.09c-1.38,0-2.5-1.12-2.5-2.5v-5.63c0-1.38,1.12-2.5,2.5-2.5h0c1.38,0,2.5,1.12,2.5,2.5
		v5.63C91,64.98,89.88,66.09,88.5,66.09z"/>
	<path class="st3" d="M88.5,122L88.5,122c-1.38,0-2.5-1.12-2.5-2.5v-15.05c0-1.38,1.12-2.5,2.5-2.5l0,0c1.38,0,2.5,1.12,2.5,2.5
		v15.05C91,120.88,89.88,122,88.5,122z"/>
	<path class="st4" d="M197.99,272.12h-95.98c-7.77,0-14.07-6.3-14.07-14.07V41.95c0-7.77,6.3-14.07,14.07-14.07h95.98
		c7.77,0,14.07,6.3,14.07,14.07v216.11C212.06,265.83,205.76,272.12,197.99,272.12z"/>
	<rect x="94.1" y="49" class="st5" width="111.8" height="195"/>
	<path class="st6" d="M166.55,40h-23c-1.1,0-2-0.9-2-2v0c0-1.1,0.9-2,2-2h23c1.1,0,2,0.9,2,2v0C168.55,39.1,167.65,40,166.55,40z"/>
	<path class="st6" d="M135.55,40h-2.1c-1.1,0-2-0.9-2-2v0c0-1.1,0.9-2,2-2h2.1c1.1,0,2,0.9,2,2v0C137.55,39.1,136.65,40,135.55,40z"
		/>
	<circle class="st7" cx="150" cy="258" r="8"/>
	<rect x="94.1" y="49" class="st12" width="111.8" height="17"/>
	<rect x="94.1" y="227" class="st14" width="111.8" height="17"/>
	<path class="st9" d="M177.51,237H167c-1.1,0-2-0.9-2-2v0c0-1.1,0.9-2,2-2h10.51c1.1,0,2,0.9,2,2v0
		C179.51,236.1,178.62,237,177.51,237z"/>
	<path class="st9" d="M198.51,237H188c-1.1,0-2-0.9-2-2v0c0-1.1,0.9-2,2-2h10.51c1.1,0,2,0.9,2,2v0
		C200.51,236.1,199.62,237,198.51,237z"/>
	<path class="st15" d="M198.51,59h-46.99c-1.1,0-2-0.9-2-2v0c0-1.1,0.9-2,2-2h46.99c1.1,0,2,0.9,2,2v0
		C200.51,58.1,199.62,59,198.51,59z"/>
	<g class="st16">
		<path class="st0" d="M129.78,74.97l0,19.72c0,0.91-0.73,1.64-1.64,1.64h-27.25c-0.91,0-1.64-0.73-1.64-1.64l0-19.72
			c0-0.91,0.73-1.64,1.64-1.64l27.25,0C129.04,73.33,129.78,74.07,129.78,74.97z"/>
		<polygon class="st2" points="113,84.83 113,80.55 115.51,82.69 118.02,84.83 115.51,86.97 113,89.11 		"/>
	</g>
	<g>
		<path class="st0" d="M164.78,74.97l0,19.72c0,0.91-0.73,1.64-1.64,1.64h-27.25c-0.91,0-1.64-0.73-1.64-1.64l0-19.72
			c0-0.91,0.73-1.64,1.64-1.64l27.25,0C164.04,73.33,164.78,74.07,164.78,74.97z"/>
		<polygon class="st2" points="148,84.83 148,80.55 150.51,82.69 153.02,84.83 150.51,86.97 148,89.11 		"/>
	</g>
	<g class="st16">
		<path class="st0" d="M199.78,74.97l0,19.72c0,0.91-0.73,1.64-1.64,1.64h-27.25c-0.91,0-1.64-0.73-1.64-1.64l0-19.72
			c0-0.91,0.73-1.64,1.64-1.64l27.25,0C199.04,73.33,199.78,74.07,199.78,74.97z"/>
		<polygon class="st2" points="183,84.83 183,80.55 185.51,82.69 188.02,84.83 185.51,86.97 183,89.11 		"/>
	</g>
	<g class="st16">
		<path class="st0" d="M129.78,102.97l0,19.72c0,0.91-0.73,1.64-1.64,1.64h-27.25c-0.91,0-1.64-0.73-1.64-1.64l0-19.72
			c0-0.91,0.73-1.64,1.64-1.64l27.25,0C129.04,101.33,129.78,102.07,129.78,102.97z"/>
		<polygon class="st2" points="113,112.83 113,108.55 115.51,110.69 118.02,112.83 115.51,114.97 113,117.11 		"/>
	</g>
	<g class="st16">
		<path class="st0" d="M164.78,102.97l0,19.72c0,0.91-0.73,1.64-1.64,1.64h-27.25c-0.91,0-1.64-0.73-1.64-1.64l0-19.72
			c0-0.91,0.73-1.64,1.64-1.64l27.25,0C164.04,101.33,164.78,102.07,164.78,102.97z"/>
		<polygon class="st2" points="148,112.83 148,108.55 150.51,110.69 153.02,112.83 150.51,114.97 148,117.11 		"/>
	</g>
	<g>
		<path class="st0" d="M199.78,102.97l0,19.72c0,0.91-0.73,1.64-1.64,1.64h-27.25c-0.91,0-1.64-0.73-1.64-1.64l0-19.72
			c0-0.91,0.73-1.64,1.64-1.64l27.25,0C199.04,101.33,199.78,102.07,199.78,102.97z"/>
		<polygon class="st2" points="183,112.83 183,108.55 185.51,110.69 188.02,112.83 185.51,114.97 183,117.11 		"/>
	</g>
	<g class="st16">
		<path class="st0" d="M129.78,130.97l0,19.72c0,0.91-0.73,1.64-1.64,1.64h-27.25c-0.91,0-1.64-0.73-1.64-1.64l0-19.72
			c0-0.91,0.73-1.64,1.64-1.64h27.25C129.04,129.33,129.78,130.07,129.78,130.97z"/>
		<polygon class="st2" points="113,140.83 113,136.55 115.51,138.69 118.02,140.83 115.51,142.97 113,145.11 		"/>
	</g>
	<g class="st16">
		<path class="st0" d="M164.78,130.97l0,19.72c0,0.91-0.73,1.64-1.64,1.64h-27.25c-0.91,0-1.64-0.73-1.64-1.64l0-19.72
			c0-0.91,0.73-1.64,1.64-1.64h27.25C164.04,129.33,164.78,130.07,164.78,130.97z"/>
		<polygon class="st2" points="148,140.83 148,136.55 150.51,138.69 153.02,140.83 150.51,142.97 148,145.11 		"/>
	</g>
	<g class="st16">
		<path class="st0" d="M199.78,130.97l0,19.72c0,0.91-0.73,1.64-1.64,1.64h-27.25c-0.91,0-1.64-0.73-1.64-1.64l0-19.72
			c0-0.91,0.73-1.64,1.64-1.64h27.25C199.04,129.33,199.78,130.07,199.78,130.97z"/>
		<polygon class="st2" points="183,140.83 183,136.55 185.51,138.69 188.02,140.83 185.51,142.97 183,145.11 		"/>
	</g>
	<g class="st16">
		<path class="st0" d="M129.78,158.97l0,19.72c0,0.91-0.73,1.64-1.64,1.64h-27.25c-0.91,0-1.64-0.73-1.64-1.64l0-19.72
			c0-0.91,0.73-1.64,1.64-1.64h27.25C129.04,157.33,129.78,158.07,129.78,158.97z"/>
		<polygon class="st2" points="113,168.83 113,164.55 115.51,166.69 118.02,168.83 115.51,170.97 113,173.11 		"/>
	</g>
	<g class="st16">
		<path class="st0" d="M164.78,158.97l0,19.72c0,0.91-0.73,1.64-1.64,1.64h-27.25c-0.91,0-1.64-0.73-1.64-1.64l0-19.72
			c0-0.91,0.73-1.64,1.64-1.64h27.25C164.04,157.33,164.78,158.07,164.78,158.97z"/>
		<polygon class="st2" points="148,168.83 148,164.55 150.51,166.69 153.02,168.83 150.51,170.97 148,173.11 		"/>
	</g>
	<g class="st16">
		<path class="st0" d="M199.78,158.97l0,19.72c0,0.91-0.73,1.64-1.64,1.64h-27.25c-0.91,0-1.64-0.73-1.64-1.64l0-19.72
			c0-0.91,0.73-1.64,1.64-1.64h27.25C199.04,157.33,199.78,158.07,199.78,158.97z"/>
		<polygon class="st2" points="183,168.83 183,164.55 185.51,166.69 188.02,168.83 185.51,170.97 183,173.11 		"/>
	</g>
	<g>
		<path class="st0" d="M129.78,186.97l0,19.72c0,0.91-0.73,1.64-1.64,1.64h-27.25c-0.91,0-1.64-0.73-1.64-1.64l0-19.72
			c0-0.91,0.73-1.64,1.64-1.64h27.25C129.04,185.33,129.78,186.07,129.78,186.97z"/>
		<polygon class="st2" points="113,196.83 113,192.55 115.51,194.69 118.02,196.83 115.51,198.97 113,201.11 		"/>
	</g>
	<g class="st16">
		<path class="st0" d="M164.78,186.97l0,19.72c0,0.91-0.73,1.64-1.64,1.64h-27.25c-0.91,0-1.64-0.73-1.64-1.64l0-19.72
			c0-0.91,0.73-1.64,1.64-1.64h27.25C164.04,185.33,164.78,186.07,164.78,186.97z"/>
		<polygon class="st2" points="148,196.83 148,192.55 150.51,194.69 153.02,196.83 150.51,198.97 148,201.11 		"/>
	</g>
	<g class="st16">
		<path class="st0" d="M199.78,186.97l0,19.72c0,0.91-0.73,1.64-1.64,1.64h-27.25c-0.91,0-1.64-0.73-1.64-1.64l0-19.72
			c0-0.91,0.73-1.64,1.64-1.64h27.25C199.04,185.33,199.78,186.07,199.78,186.97z"/>
		<polygon class="st2" points="183,196.83 183,192.55 185.51,194.69 188.02,196.83 185.51,198.97 183,201.11 		"/>
	</g>
</g>
<g id="Layer_2">
</g>
<g id="Layer_3">
</g>
</svg>
