<?xml version="1.0" encoding="utf-8"?>
<!-- Generator: Adobe Illustrator 24.2.0, SVG Export Plug-In . SVG Version: 6.00 Build 0)  -->
<svg version="1.1" id="Layer_1" xmlns="http://www.w3.org/2000/svg" xmlns:xlink="http://www.w3.org/1999/xlink" x="0px" y="0px"
	 viewBox="0 0 300 300" style="enable-background:new 0 0 300 300;" xml:space="preserve">
<style type="text/css">
	.st0{fill:#E5E5E5;}
	.st1{fill:#D0D2D3;}
	.st2{fill:#FFFFFF;}
	.st3{fill:#EDEDED;}
	.st4{fill:#D0D2D3;stroke:#EFEFEF;stroke-width:2;stroke-miterlimit:10;}
	.st5{fill:#EFEFEF;}
	.st6{fill:#EAEAEA;}
	.st7{fill:#D8D8D8;}
	.st8{fill:#BDBDBD;}
	.st9{fill:#D1D1D1;}
	.st10{fill:none;stroke:#BDBDBD;stroke-miterlimit:10;}
	.st11{fill:#F2F2F2;}
	.st12{fill:#F6F6F6;}
</style>
<path class="st0" d="M88.5,98.05L88.5,98.05c-1.38,0-2.5-1.12-2.5-2.5V80.5c0-1.38,1.12-2.5,2.5-2.5l0,0c1.38,0,2.5,1.12,2.5,2.5
	v15.05C91,96.93,89.88,98.05,88.5,98.05z"/>
<path class="st0" d="M211.5,98.05L211.5,98.05c-1.38,0-2.5-1.12-2.5-2.5V80.5c0-1.38,1.12-2.5,2.5-2.5l0,0c1.38,0,2.5,1.12,2.5,2.5
	v15.05C214,96.93,212.88,98.05,211.5,98.05z"/>
<path class="st0" d="M88.5,66.09L88.5,66.09c-1.38,0-2.5-1.12-2.5-2.5v-5.63c0-1.38,1.12-2.5,2.5-2.5l0,0c1.38,0,2.5,1.12,2.5,2.5
	v5.63C91,64.98,89.88,66.09,88.5,66.09z"/>
<path class="st0" d="M88.5,122L88.5,122c-1.38,0-2.5-1.12-2.5-2.5v-15.05c0-1.38,1.12-2.5,2.5-2.5l0,0c1.38,0,2.5,1.12,2.5,2.5
	v15.05C91,120.88,89.88,122,88.5,122z"/>
<path class="st1" d="M197.99,272.12h-95.98c-7.77,0-14.07-6.3-14.07-14.07V41.95c0-7.77,6.3-14.07,14.07-14.07h95.98
	c7.77,0,14.07,6.3,14.07,14.07v216.11C212.06,265.83,205.76,272.12,197.99,272.12z"/>
<rect x="94.1" y="49" class="st2" width="111.8" height="195"/>
<path class="st3" d="M166.55,40h-23c-1.1,0-2-0.9-2-2l0,0c0-1.1,0.9-2,2-2h23c1.1,0,2,0.9,2,2l0,0C168.55,39.1,167.65,40,166.55,40z
	"/>
<path class="st3" d="M135.55,40h-2.1c-1.1,0-2-0.9-2-2l0,0c0-1.1,0.9-2,2-2h2.1c1.1,0,2,0.9,2,2l0,0
	C137.55,39.1,136.65,40,135.55,40z"/>
<circle class="st4" cx="150" cy="258" r="8"/>
<rect x="94.1" y="49" class="st5" width="111.8" height="17"/>
<rect x="94.1" y="227" class="st6" width="111.8" height="17"/>
<path class="st7" d="M197.51,237H187c-1.1,0-2-0.9-2-2l0,0c0-1.1,0.9-2,2-2h10.51c1.1,0,2,0.9,2,2l0,0
	C199.51,236.1,198.62,237,197.51,237z"/>
<path class="st7" d="M169.51,237H159c-1.1,0-2-0.9-2-2l0,0c0-1.1,0.9-2,2-2h10.51c1.1,0,2,0.9,2,2l0,0
	C171.51,236.1,170.62,237,169.51,237z"/>
<path class="st7" d="M141.51,237H131c-1.1,0-2-0.9-2-2l0,0c0-1.1,0.9-2,2-2h10.51c1.1,0,2,0.9,2,2l0,0
	C143.51,236.1,142.62,237,141.51,237z"/>
<path class="st7" d="M113.51,237H103c-1.1,0-2-0.9-2-2l0,0c0-1.1,0.9-2,2-2h10.51c1.1,0,2,0.9,2,2l0,0
	C115.51,236.1,114.62,237,113.51,237z"/>
<path class="st8" d="M178.07,59h-58.36c-1.1,0-2-0.9-2-2l0,0c0-1.1,0.9-2,2-2h58.36c1.1,0,2,0.9,2,2l0,0
	C180.07,58.1,179.17,59,178.07,59z"/>
<path class="st8" d="M183,84.91h-52.29c-1.1,0-2-0.9-2-2l0,0c0-1.1,0.9-2,2-2H183c1.1,0,2,0.9,2,2l0,0
	C185,84.01,184.1,84.91,183,84.91z"/>
<g>
	<path class="st9" d="M121,91.91c0,0.55-0.45,1-1,1h-18c-0.55,0-1-0.45-1-1v-18c0-0.55,0.45-1,1-1h18c0.55,0,1,0.45,1,1V91.91z"/>
</g>
<polyline class="st10" points="195,79 198.97,82.97 195.11,86.82 "/>
<path class="st8" d="M166.55,114.91h-35.84c-1.1,0-2-0.9-2-2l0,0c0-1.1,0.9-2,2-2h35.84c1.1,0,2,0.9,2,2l0,0
	C168.55,114.01,167.65,114.91,166.55,114.91z"/>
<g>
	<path class="st9" d="M121,121.91c0,0.55-0.45,1-1,1h-18c-0.55,0-1-0.45-1-1v-18c0-0.55,0.45-1,1-1h18c0.55,0,1,0.45,1,1V121.91z"/>
</g>
<polyline class="st10" points="195,109 198.97,112.97 195.11,116.82 "/>
<path class="st8" d="M178.33,144.91h-47.88c-0.96,0-1.74-0.78-1.74-1.74l0,0c0-0.96,0.78-1.74,1.74-1.74h47.88
	c0.96,0,1.74,0.78,1.74,1.74l0,0C180.07,144.13,179.29,144.91,178.33,144.91z"/>
<g>
	<path class="st9" d="M121,151.91c0,0.55-0.45,1-1,1h-18c-0.55,0-1-0.45-1-1v-18c0-0.55,0.45-1,1-1h18c0.55,0,1,0.45,1,1V151.91z"/>
</g>
<polyline class="st10" points="195,139 198.97,142.97 195.11,146.82 "/>
<path class="st8" d="M152.39,174.91h-21.68c-1.1,0-2-0.9-2-2l0,0c0-1.1,0.9-2,2-2h21.68c1.1,0,2,0.9,2,2l0,0
	C154.39,174.01,153.49,174.91,152.39,174.91z"/>
<g>
	<path class="st9" d="M121,181.91c0,0.55-0.45,1-1,1h-18c-0.55,0-1-0.45-1-1v-18c0-0.55,0.45-1,1-1h18c0.55,0,1,0.45,1,1V181.91z"/>
</g>
<polyline class="st10" points="195,169 198.97,172.97 195.11,176.82 "/>
<g>
	<path class="st11" d="M109,83.71c0-0.55,0-1.45,0-2v-1.46c0-0.55,0.39-0.77,0.87-0.5l1.27,0.73c0.48,0.28,1.26,0.72,1.73,1
		l1.27,0.73c0.48,0.28,0.48,0.73,0,1l-1.27,0.73c-0.48,0.28-1.26,0.72-1.73,1l-1.27,0.73c-0.48,0.28-0.87,0.05-0.87-0.5V83.71z"/>
</g>
<g>
	<path class="st11" d="M109,143.71c0-0.55,0-1.45,0-2v-1.46c0-0.55,0.39-0.78,0.87-0.5l1.27,0.73c0.48,0.28,1.26,0.73,1.73,1
		l1.27,0.73c0.48,0.28,0.48,0.73,0,1l-1.27,0.73c-0.48,0.27-1.26,0.72-1.73,1l-1.27,0.73c-0.48,0.27-0.87,0.05-0.87-0.5V143.71z"/>
</g>
<g>
	<path class="st11" d="M105.69,118.67c0.28,0,0.72,0,1,0h9.81c0.28,0,0.5-0.23,0.5-0.5v-1.03c0-0.28-0.16-0.66-0.35-0.86l-3.19-3.24
		c-0.19-0.2-0.51-0.2-0.7,0l-1.87,1.9c-0.19,0.2-0.51,0.2-0.7,0l-0.84-0.85c-0.19-0.2-0.51-0.2-0.7,0l-4.17,4.23
		c-0.19,0.2-0.13,0.36,0.15,0.36h1.06V118.67z"/>
</g>
<circle class="st12" cx="106.59" cy="108.59" r="2.41"/>
<g id="Layer_2_1_">
</g>
<g id="Layer_3">
</g>
</svg>
