<?xml version="1.0" encoding="utf-8"?>
<!-- Generator: Adobe Illustrator 24.2.0, SVG Export Plug-In . SVG Version: 6.00 Build 0)  -->
<svg version="1.1" id="Layer_1" xmlns="http://www.w3.org/2000/svg" xmlns:xlink="http://www.w3.org/1999/xlink" x="0px" y="0px"
	 viewBox="0 0 300 300" style="enable-background:new 0 0 300 300;" xml:space="preserve">
<style type="text/css">
	.st0{fill:#E5E5E5;}
	.st1{fill:#D0D2D3;}
	.st2{fill:#FFFFFF;}
	.st3{fill:#EDEDED;}
	.st4{fill:#D0D2D3;stroke:#EFEFEF;stroke-width:2;stroke-miterlimit:10;}
	.st5{fill:#EFEFEF;}
	.st6{fill:#EAEAEA;}
	.st7{fill:#D8D8D8;}
	.st8{fill:#BDBDBD;}
	.st9{fill:#D1D1D1;}
	.st10{fill:#F6F6F6;}
</style>
<path class="st0" d="M88.5,98.05L88.5,98.05c-1.38,0-2.5-1.12-2.5-2.5V80.5c0-1.38,1.12-2.5,2.5-2.5l0,0c1.38,0,2.5,1.12,2.5,2.5
	v15.05C91,96.93,89.88,98.05,88.5,98.05z"/>
<path class="st0" d="M211.5,98.05L211.5,98.05c-1.38,0-2.5-1.12-2.5-2.5V80.5c0-1.38,1.12-2.5,2.5-2.5l0,0c1.38,0,2.5,1.12,2.5,2.5
	v15.05C214,96.93,212.88,98.05,211.5,98.05z"/>
<path class="st0" d="M88.5,66.09L88.5,66.09c-1.38,0-2.5-1.12-2.5-2.5v-5.63c0-1.38,1.12-2.5,2.5-2.5l0,0c1.38,0,2.5,1.12,2.5,2.5
	v5.63C91,64.98,89.88,66.09,88.5,66.09z"/>
<path class="st0" d="M88.5,122L88.5,122c-1.38,0-2.5-1.12-2.5-2.5v-15.05c0-1.38,1.12-2.5,2.5-2.5l0,0c1.38,0,2.5,1.12,2.5,2.5
	v15.05C91,120.88,89.88,122,88.5,122z"/>
<path class="st1" d="M197.99,272.12h-95.98c-7.77,0-14.07-6.3-14.07-14.07V41.95c0-7.77,6.3-14.07,14.07-14.07h95.98
	c7.77,0,14.07,6.3,14.07,14.07v216.11C212.06,265.83,205.76,272.12,197.99,272.12z"/>
<rect x="94.1" y="49" class="st2" width="111.8" height="195"/>
<path class="st3" d="M166.55,40h-23c-1.1,0-2-0.9-2-2l0,0c0-1.1,0.9-2,2-2h23c1.1,0,2,0.9,2,2l0,0C168.55,39.1,167.65,40,166.55,40z
	"/>
<path class="st3" d="M135.55,40h-2.1c-1.1,0-2-0.9-2-2l0,0c0-1.1,0.9-2,2-2h2.1c1.1,0,2,0.9,2,2l0,0
	C137.55,39.1,136.65,40,135.55,40z"/>
<circle class="st4" cx="150" cy="258" r="8"/>
<rect x="94.1" y="49" class="st5" width="111.8" height="17"/>
<rect x="94.1" y="227" class="st6" width="111.8" height="17"/>
<path class="st7" d="M197.51,237H187c-1.1,0-2-0.9-2-2l0,0c0-1.1,0.9-2,2-2h10.51c1.1,0,2,0.9,2,2l0,0
	C199.51,236.1,198.62,237,197.51,237z"/>
<path class="st7" d="M177.51,237H167c-1.1,0-2-0.9-2-2l0,0c0-1.1,0.9-2,2-2h10.51c1.1,0,2,0.9,2,2l0,0
	C179.51,236.1,178.62,237,177.51,237z"/>
<path class="st8" d="M198.07,59h-34.52c-1.1,0-2-0.9-2-2l0,0c0-1.1,0.9-2,2-2h34.52c1.1,0,2,0.9,2,2l0,0
	C200.07,58.1,199.17,59,198.07,59z"/>
<path class="st8" d="M107.58,59h-7.03c-1.1,0-2-0.9-2-2l0,0c0-1.1,0.9-2,2-2h7.03c1.1,0,2,0.9,2,2l0,0
	C109.58,58.1,108.68,59,107.58,59z"/>
<g>
	<g>
		<path class="st9" d="M128.84,98.5c0,0.55-0.45,1-1,1H99.85c-0.55,0-1-0.45-1-1V71.53c0-0.55,0.45-1,1-1h27.98c0.55,0,1,0.45,1,1
			L128.84,98.5L128.84,98.5z"/>
	</g>
	<g>
		<path class="st10" d="M106.66,86.97L106.66,86.97c-0.27,0-0.49-0.22-0.49-0.49v-2.92c0-0.27,0.22-0.49,0.49-0.49l0,0
			c0.27,0,0.49,0.22,0.49,0.49v2.92C107.15,86.75,106.93,86.97,106.66,86.97z"/>
		<path class="st10" d="M110.07,89.52L110.07,89.52c-0.27,0-0.49-0.22-0.49-0.49V81c0-0.27,0.22-0.49,0.49-0.49l0,0
			c0.27,0,0.49,0.22,0.49,0.49v8.03C110.56,89.3,110.34,89.52,110.07,89.52z"/>
		<path class="st10" d="M113.73,87.21L113.73,87.21c-0.27,0-0.49-0.22-0.49-0.49V83.8c0-0.27,0.22-0.49,0.49-0.49l0,0
			c0.27,0,0.49,0.22,0.49,0.49v2.92C114.22,86.99,114,87.21,113.73,87.21z"/>
		<path class="st10" d="M117.38,89.52L117.38,89.52c-0.27,0-0.49-0.22-0.49-0.49V81c0-0.27,0.22-0.49,0.49-0.49l0,0
			c0.27,0,0.49,0.22,0.49,0.49v8.03C117.87,89.3,117.65,89.52,117.38,89.52z"/>
		<path class="st10" d="M121.04,87.21L121.04,87.21c-0.27,0-0.49-0.22-0.49-0.49V83.8c0-0.27,0.22-0.49,0.49-0.49l0,0
			c0.27,0,0.49,0.22,0.49,0.49v2.92C121.53,86.99,121.31,87.21,121.04,87.21z"/>
	</g>
</g>
<g>
	<g>
		<path class="st9" d="M164.84,98.5c0,0.55-0.45,1-1,1h-27.98c-0.55,0-1-0.45-1-1V71.53c0-0.55,0.45-1,1-1h27.98c0.55,0,1,0.45,1,1
			V98.5z"/>
	</g>
	<g>
		<path class="st10" d="M142.66,86.97L142.66,86.97c-0.27,0-0.49-0.22-0.49-0.49v-2.92c0-0.27,0.22-0.49,0.49-0.49l0,0
			c0.27,0,0.49,0.22,0.49,0.49v2.92C143.15,86.75,142.93,86.97,142.66,86.97z"/>
		<path class="st10" d="M146.07,89.52L146.07,89.52c-0.27,0-0.49-0.22-0.49-0.49V81c0-0.27,0.22-0.49,0.49-0.49l0,0
			c0.27,0,0.49,0.22,0.49,0.49v8.03C146.56,89.3,146.34,89.52,146.07,89.52z"/>
		<path class="st10" d="M149.73,87.21L149.73,87.21c-0.27,0-0.49-0.22-0.49-0.49V83.8c0-0.27,0.22-0.49,0.49-0.49l0,0
			c0.27,0,0.49,0.22,0.49,0.49v2.92C150.22,86.99,150,87.21,149.73,87.21z"/>
		<path class="st10" d="M153.38,89.52L153.38,89.52c-0.27,0-0.49-0.22-0.49-0.49V81c0-0.27,0.22-0.49,0.49-0.49l0,0
			c0.27,0,0.49,0.22,0.49,0.49v8.03C153.87,89.3,153.65,89.52,153.38,89.52z"/>
		<path class="st10" d="M157.04,87.21L157.04,87.21c-0.27,0-0.49-0.22-0.49-0.49V83.8c0-0.27,0.22-0.49,0.49-0.49l0,0
			c0.27,0,0.49,0.22,0.49,0.49v2.92C157.53,86.99,157.31,87.21,157.04,87.21z"/>
	</g>
</g>
<g>
	<g>
		<path class="st9" d="M200.84,98.5c0,0.55-0.45,1-1,1h-27.98c-0.55,0-1-0.45-1-1V71.53c0-0.55,0.45-1,1-1h27.98c0.55,0,1,0.45,1,1
			V98.5z"/>
	</g>
	<g>
		<path class="st10" d="M178.66,86.97L178.66,86.97c-0.27,0-0.49-0.22-0.49-0.49v-2.92c0-0.27,0.22-0.49,0.49-0.49l0,0
			c0.27,0,0.49,0.22,0.49,0.49v2.92C179.15,86.75,178.93,86.97,178.66,86.97z"/>
		<path class="st10" d="M182.07,89.52L182.07,89.52c-0.27,0-0.49-0.22-0.49-0.49V81c0-0.27,0.22-0.49,0.49-0.49l0,0
			c0.27,0,0.49,0.22,0.49,0.49v8.03C182.56,89.3,182.34,89.52,182.07,89.52z"/>
		<path class="st10" d="M185.73,87.21L185.73,87.21c-0.27,0-0.49-0.22-0.49-0.49V83.8c0-0.27,0.22-0.49,0.49-0.49l0,0
			c0.27,0,0.49,0.22,0.49,0.49v2.92C186.22,86.99,186,87.21,185.73,87.21z"/>
		<path class="st10" d="M189.38,89.52L189.38,89.52c-0.27,0-0.49-0.22-0.49-0.49V81c0-0.27,0.22-0.49,0.49-0.49l0,0
			c0.27,0,0.49,0.22,0.49,0.49v8.03C189.87,89.3,189.65,89.52,189.38,89.52z"/>
		<path class="st10" d="M193.04,87.21L193.04,87.21c-0.27,0-0.49-0.22-0.49-0.49V83.8c0-0.27,0.22-0.49,0.49-0.49l0,0
			c0.27,0,0.49,0.22,0.49,0.49v2.92C193.53,86.99,193.31,87.21,193.04,87.21z"/>
	</g>
</g>
<g>
	<g>
		<path class="st9" d="M128.84,133.5c0,0.55-0.45,1-1,1H99.85c-0.55,0-1-0.45-1-1v-26.96c0-0.55,0.45-1,1-1h27.98c0.55,0,1,0.45,1,1
			L128.84,133.5L128.84,133.5z"/>
	</g>
	<g>
		<path class="st10" d="M106.66,121.97L106.66,121.97c-0.27,0-0.49-0.22-0.49-0.49v-2.92c0-0.27,0.22-0.49,0.49-0.49l0,0
			c0.27,0,0.49,0.22,0.49,0.49v2.92C107.15,121.75,106.93,121.97,106.66,121.97z"/>
		<path class="st10" d="M110.07,124.52L110.07,124.52c-0.27,0-0.49-0.22-0.49-0.49V116c0-0.27,0.22-0.49,0.49-0.49l0,0
			c0.27,0,0.49,0.22,0.49,0.49v8.03C110.56,124.3,110.34,124.52,110.07,124.52z"/>
		<path class="st10" d="M113.73,122.21L113.73,122.21c-0.27,0-0.49-0.22-0.49-0.49v-2.92c0-0.27,0.22-0.49,0.49-0.49l0,0
			c0.27,0,0.49,0.22,0.49,0.49v2.92C114.22,121.99,114,122.21,113.73,122.21z"/>
		<path class="st10" d="M117.38,124.52L117.38,124.52c-0.27,0-0.49-0.22-0.49-0.49V116c0-0.27,0.22-0.49,0.49-0.49l0,0
			c0.27,0,0.49,0.22,0.49,0.49v8.03C117.87,124.3,117.65,124.52,117.38,124.52z"/>
		<path class="st10" d="M121.04,122.21L121.04,122.21c-0.27,0-0.49-0.22-0.49-0.49v-2.92c0-0.27,0.22-0.49,0.49-0.49l0,0
			c0.27,0,0.49,0.22,0.49,0.49v2.92C121.53,121.99,121.31,122.21,121.04,122.21z"/>
	</g>
</g>
<g>
	<g>
		<path class="st9" d="M164.84,133.5c0,0.55-0.45,1-1,1h-27.98c-0.55,0-1-0.45-1-1v-26.96c0-0.55,0.45-1,1-1h27.98
			c0.55,0,1,0.45,1,1V133.5z"/>
	</g>
	<g>
		<path class="st10" d="M142.66,121.97L142.66,121.97c-0.27,0-0.49-0.22-0.49-0.49v-2.92c0-0.27,0.22-0.49,0.49-0.49l0,0
			c0.27,0,0.49,0.22,0.49,0.49v2.92C143.15,121.75,142.93,121.97,142.66,121.97z"/>
		<path class="st10" d="M146.07,124.52L146.07,124.52c-0.27,0-0.49-0.22-0.49-0.49V116c0-0.27,0.22-0.49,0.49-0.49l0,0
			c0.27,0,0.49,0.22,0.49,0.49v8.03C146.56,124.3,146.34,124.52,146.07,124.52z"/>
		<path class="st10" d="M149.73,122.21L149.73,122.21c-0.27,0-0.49-0.22-0.49-0.49v-2.92c0-0.27,0.22-0.49,0.49-0.49l0,0
			c0.27,0,0.49,0.22,0.49,0.49v2.92C150.22,121.99,150,122.21,149.73,122.21z"/>
		<path class="st10" d="M153.38,124.52L153.38,124.52c-0.27,0-0.49-0.22-0.49-0.49V116c0-0.27,0.22-0.49,0.49-0.49l0,0
			c0.27,0,0.49,0.22,0.49,0.49v8.03C153.87,124.3,153.65,124.52,153.38,124.52z"/>
		<path class="st10" d="M157.04,122.21L157.04,122.21c-0.27,0-0.49-0.22-0.49-0.49v-2.92c0-0.27,0.22-0.49,0.49-0.49l0,0
			c0.27,0,0.49,0.22,0.49,0.49v2.92C157.53,121.99,157.31,122.21,157.04,122.21z"/>
	</g>
</g>
<g>
	<g>
		<path class="st9" d="M200.84,133.5c0,0.55-0.45,1-1,1h-27.98c-0.55,0-1-0.45-1-1v-26.96c0-0.55,0.45-1,1-1h27.98
			c0.55,0,1,0.45,1,1V133.5z"/>
	</g>
	<g>
		<path class="st10" d="M178.66,121.97L178.66,121.97c-0.27,0-0.49-0.22-0.49-0.49v-2.92c0-0.27,0.22-0.49,0.49-0.49l0,0
			c0.27,0,0.49,0.22,0.49,0.49v2.92C179.15,121.75,178.93,121.97,178.66,121.97z"/>
		<path class="st10" d="M182.07,124.52L182.07,124.52c-0.27,0-0.49-0.22-0.49-0.49V116c0-0.27,0.22-0.49,0.49-0.49l0,0
			c0.27,0,0.49,0.22,0.49,0.49v8.03C182.56,124.3,182.34,124.52,182.07,124.52z"/>
		<path class="st10" d="M185.73,122.21L185.73,122.21c-0.27,0-0.49-0.22-0.49-0.49v-2.92c0-0.27,0.22-0.49,0.49-0.49l0,0
			c0.27,0,0.49,0.22,0.49,0.49v2.92C186.22,121.99,186,122.21,185.73,122.21z"/>
		<path class="st10" d="M189.38,124.52L189.38,124.52c-0.27,0-0.49-0.22-0.49-0.49V116c0-0.27,0.22-0.49,0.49-0.49l0,0
			c0.27,0,0.49,0.22,0.49,0.49v8.03C189.87,124.3,189.65,124.52,189.38,124.52z"/>
		<path class="st10" d="M193.04,122.21L193.04,122.21c-0.27,0-0.49-0.22-0.49-0.49v-2.92c0-0.27,0.22-0.49,0.49-0.49l0,0
			c0.27,0,0.49,0.22,0.49,0.49v2.92C193.53,121.99,193.31,122.21,193.04,122.21z"/>
	</g>
</g>
<g>
	<g>
		<path class="st9" d="M128.84,168.5c0,0.55-0.45,1-1,1H99.85c-0.55,0-1-0.45-1-1v-26.96c0-0.55,0.45-1,1-1h27.98c0.55,0,1,0.45,1,1
			L128.84,168.5L128.84,168.5z"/>
	</g>
	<g>
		<path class="st10" d="M106.66,156.97L106.66,156.97c-0.27,0-0.49-0.22-0.49-0.49v-2.92c0-0.27,0.22-0.49,0.49-0.49l0,0
			c0.27,0,0.49,0.22,0.49,0.49v2.92C107.15,156.75,106.93,156.97,106.66,156.97z"/>
		<path class="st10" d="M110.07,159.52L110.07,159.52c-0.27,0-0.49-0.22-0.49-0.49V151c0-0.27,0.22-0.49,0.49-0.49l0,0
			c0.27,0,0.49,0.22,0.49,0.49v8.03C110.56,159.3,110.34,159.52,110.07,159.52z"/>
		<path class="st10" d="M113.73,157.21L113.73,157.21c-0.27,0-0.49-0.22-0.49-0.49v-2.92c0-0.27,0.22-0.49,0.49-0.49l0,0
			c0.27,0,0.49,0.22,0.49,0.49v2.92C114.22,156.99,114,157.21,113.73,157.21z"/>
		<path class="st10" d="M117.38,159.52L117.38,159.52c-0.27,0-0.49-0.22-0.49-0.49V151c0-0.27,0.22-0.49,0.49-0.49l0,0
			c0.27,0,0.49,0.22,0.49,0.49v8.03C117.87,159.3,117.65,159.52,117.38,159.52z"/>
		<path class="st10" d="M121.04,157.21L121.04,157.21c-0.27,0-0.49-0.22-0.49-0.49v-2.92c0-0.27,0.22-0.49,0.49-0.49l0,0
			c0.27,0,0.49,0.22,0.49,0.49v2.92C121.53,156.99,121.31,157.21,121.04,157.21z"/>
	</g>
</g>
<g>
	<g>
		<path class="st9" d="M164.84,168.5c0,0.55-0.45,1-1,1h-27.98c-0.55,0-1-0.45-1-1v-26.96c0-0.55,0.45-1,1-1h27.98
			c0.55,0,1,0.45,1,1V168.5z"/>
	</g>
	<g>
		<path class="st10" d="M142.66,156.97L142.66,156.97c-0.27,0-0.49-0.22-0.49-0.49v-2.92c0-0.27,0.22-0.49,0.49-0.49l0,0
			c0.27,0,0.49,0.22,0.49,0.49v2.92C143.15,156.75,142.93,156.97,142.66,156.97z"/>
		<path class="st10" d="M146.07,159.52L146.07,159.52c-0.27,0-0.49-0.22-0.49-0.49V151c0-0.27,0.22-0.49,0.49-0.49l0,0
			c0.27,0,0.49,0.22,0.49,0.49v8.03C146.56,159.3,146.34,159.52,146.07,159.52z"/>
		<path class="st10" d="M149.73,157.21L149.73,157.21c-0.27,0-0.49-0.22-0.49-0.49v-2.92c0-0.27,0.22-0.49,0.49-0.49l0,0
			c0.27,0,0.49,0.22,0.49,0.49v2.92C150.22,156.99,150,157.21,149.73,157.21z"/>
		<path class="st10" d="M153.38,159.52L153.38,159.52c-0.27,0-0.49-0.22-0.49-0.49V151c0-0.27,0.22-0.49,0.49-0.49l0,0
			c0.27,0,0.49,0.22,0.49,0.49v8.03C153.87,159.3,153.65,159.52,153.38,159.52z"/>
		<path class="st10" d="M157.04,157.21L157.04,157.21c-0.27,0-0.49-0.22-0.49-0.49v-2.92c0-0.27,0.22-0.49,0.49-0.49l0,0
			c0.27,0,0.49,0.22,0.49,0.49v2.92C157.53,156.99,157.31,157.21,157.04,157.21z"/>
	</g>
</g>
<g>
	<g>
		<path class="st9" d="M200.84,168.5c0,0.55-0.45,1-1,1h-27.98c-0.55,0-1-0.45-1-1v-26.96c0-0.55,0.45-1,1-1h27.98
			c0.55,0,1,0.45,1,1V168.5z"/>
	</g>
	<g>
		<path class="st10" d="M178.66,156.97L178.66,156.97c-0.27,0-0.49-0.22-0.49-0.49v-2.92c0-0.27,0.22-0.49,0.49-0.49l0,0
			c0.27,0,0.49,0.22,0.49,0.49v2.92C179.15,156.75,178.93,156.97,178.66,156.97z"/>
		<path class="st10" d="M182.07,159.52L182.07,159.52c-0.27,0-0.49-0.22-0.49-0.49V151c0-0.27,0.22-0.49,0.49-0.49l0,0
			c0.27,0,0.49,0.22,0.49,0.49v8.03C182.56,159.3,182.34,159.52,182.07,159.52z"/>
		<path class="st10" d="M185.73,157.21L185.73,157.21c-0.27,0-0.49-0.22-0.49-0.49v-2.92c0-0.27,0.22-0.49,0.49-0.49l0,0
			c0.27,0,0.49,0.22,0.49,0.49v2.92C186.22,156.99,186,157.21,185.73,157.21z"/>
		<path class="st10" d="M189.38,159.52L189.38,159.52c-0.27,0-0.49-0.22-0.49-0.49V151c0-0.27,0.22-0.49,0.49-0.49l0,0
			c0.27,0,0.49,0.22,0.49,0.49v8.03C189.87,159.3,189.65,159.52,189.38,159.52z"/>
		<path class="st10" d="M193.04,157.21L193.04,157.21c-0.27,0-0.49-0.22-0.49-0.49v-2.92c0-0.27,0.22-0.49,0.49-0.49l0,0
			c0.27,0,0.49,0.22,0.49,0.49v2.92C193.53,156.99,193.31,157.21,193.04,157.21z"/>
	</g>
</g>
<g>
	<g>
		<path class="st9" d="M128.84,203.5c0,0.55-0.45,1-1,1H99.85c-0.55,0-1-0.45-1-1v-26.96c0-0.55,0.45-1,1-1h27.98c0.55,0,1,0.45,1,1
			L128.84,203.5L128.84,203.5z"/>
	</g>
	<g>
		<path class="st10" d="M106.66,191.97L106.66,191.97c-0.27,0-0.49-0.22-0.49-0.49v-2.92c0-0.27,0.22-0.49,0.49-0.49l0,0
			c0.27,0,0.49,0.22,0.49,0.49v2.92C107.15,191.75,106.93,191.97,106.66,191.97z"/>
		<path class="st10" d="M110.07,194.52L110.07,194.52c-0.27,0-0.49-0.22-0.49-0.49V186c0-0.27,0.22-0.49,0.49-0.49l0,0
			c0.27,0,0.49,0.22,0.49,0.49v8.03C110.56,194.3,110.34,194.52,110.07,194.52z"/>
		<path class="st10" d="M113.73,192.21L113.73,192.21c-0.27,0-0.49-0.22-0.49-0.49v-2.92c0-0.27,0.22-0.49,0.49-0.49l0,0
			c0.27,0,0.49,0.22,0.49,0.49v2.92C114.22,191.99,114,192.21,113.73,192.21z"/>
		<path class="st10" d="M117.38,194.52L117.38,194.52c-0.27,0-0.49-0.22-0.49-0.49V186c0-0.27,0.22-0.49,0.49-0.49l0,0
			c0.27,0,0.49,0.22,0.49,0.49v8.03C117.87,194.3,117.65,194.52,117.38,194.52z"/>
		<path class="st10" d="M121.04,192.21L121.04,192.21c-0.27,0-0.49-0.22-0.49-0.49v-2.92c0-0.27,0.22-0.49,0.49-0.49l0,0
			c0.27,0,0.49,0.22,0.49,0.49v2.92C121.53,191.99,121.31,192.21,121.04,192.21z"/>
	</g>
</g>
<g>
	<g>
		<path class="st9" d="M164.84,203.5c0,0.55-0.45,1-1,1h-27.98c-0.55,0-1-0.45-1-1v-26.96c0-0.55,0.45-1,1-1h27.98
			c0.55,0,1,0.45,1,1V203.5z"/>
	</g>
	<g>
		<path class="st10" d="M142.66,191.97L142.66,191.97c-0.27,0-0.49-0.22-0.49-0.49v-2.92c0-0.27,0.22-0.49,0.49-0.49l0,0
			c0.27,0,0.49,0.22,0.49,0.49v2.92C143.15,191.75,142.93,191.97,142.66,191.97z"/>
		<path class="st10" d="M146.07,194.52L146.07,194.52c-0.27,0-0.49-0.22-0.49-0.49V186c0-0.27,0.22-0.49,0.49-0.49l0,0
			c0.27,0,0.49,0.22,0.49,0.49v8.03C146.56,194.3,146.34,194.52,146.07,194.52z"/>
		<path class="st10" d="M149.73,192.21L149.73,192.21c-0.27,0-0.49-0.22-0.49-0.49v-2.92c0-0.27,0.22-0.49,0.49-0.49l0,0
			c0.27,0,0.49,0.22,0.49,0.49v2.92C150.22,191.99,150,192.21,149.73,192.21z"/>
		<path class="st10" d="M153.38,194.52L153.38,194.52c-0.27,0-0.49-0.22-0.49-0.49V186c0-0.27,0.22-0.49,0.49-0.49l0,0
			c0.27,0,0.49,0.22,0.49,0.49v8.03C153.87,194.3,153.65,194.52,153.38,194.52z"/>
		<path class="st10" d="M157.04,192.21L157.04,192.21c-0.27,0-0.49-0.22-0.49-0.49v-2.92c0-0.27,0.22-0.49,0.49-0.49l0,0
			c0.27,0,0.49,0.22,0.49,0.49v2.92C157.53,191.99,157.31,192.21,157.04,192.21z"/>
	</g>
</g>
<g>
	<g>
		<path class="st9" d="M200.84,203.5c0,0.55-0.45,1-1,1h-27.98c-0.55,0-1-0.45-1-1v-26.96c0-0.55,0.45-1,1-1h27.98
			c0.55,0,1,0.45,1,1V203.5z"/>
	</g>
	<g>
		<path class="st10" d="M178.66,191.97L178.66,191.97c-0.27,0-0.49-0.22-0.49-0.49v-2.92c0-0.27,0.22-0.49,0.49-0.49l0,0
			c0.27,0,0.49,0.22,0.49,0.49v2.92C179.15,191.75,178.93,191.97,178.66,191.97z"/>
		<path class="st10" d="M182.07,194.52L182.07,194.52c-0.27,0-0.49-0.22-0.49-0.49V186c0-0.27,0.22-0.49,0.49-0.49l0,0
			c0.27,0,0.49,0.22,0.49,0.49v8.03C182.56,194.3,182.34,194.52,182.07,194.52z"/>
		<path class="st10" d="M185.73,192.21L185.73,192.21c-0.27,0-0.49-0.22-0.49-0.49v-2.92c0-0.27,0.22-0.49,0.49-0.49l0,0
			c0.27,0,0.49,0.22,0.49,0.49v2.92C186.22,191.99,186,192.21,185.73,192.21z"/>
		<path class="st10" d="M189.38,194.52L189.38,194.52c-0.27,0-0.49-0.22-0.49-0.49V186c0-0.27,0.22-0.49,0.49-0.49l0,0
			c0.27,0,0.49,0.22,0.49,0.49v8.03C189.87,194.3,189.65,194.52,189.38,194.52z"/>
		<path class="st10" d="M193.04,192.21L193.04,192.21c-0.27,0-0.49-0.22-0.49-0.49v-2.92c0-0.27,0.22-0.49,0.49-0.49l0,0
			c0.27,0,0.49,0.22,0.49,0.49v2.92C193.53,191.99,193.31,192.21,193.04,192.21z"/>
	</g>
</g>
<g id="Layer_2_1_">
</g>
<g id="Layer_3">
</g>
</svg>
