<?xml version="1.0" encoding="utf-8"?>
<!-- Generator: Adobe Illustrator 24.2.0, SVG Export Plug-In . SVG Version: 6.00 Build 0)  -->
<svg version="1.1" xmlns="http://www.w3.org/2000/svg" xmlns:xlink="http://www.w3.org/1999/xlink" x="0px" y="0px"
	 viewBox="0 0 300 300" style="enable-background:new 0 0 300 300;" xml:space="preserve">
<style type="text/css">
	.st0{fill:#999999;}
	.st1{fill:#D6D6D6;}
	.st2{fill:#F6F6F6;}
	.st3{fill:#E5E5E5;}
	.st4{fill:#D0D2D3;}
	.st5{fill:#FFFFFF;}
	.st6{fill:#EDEDED;}
	.st7{fill:#D0D2D3;stroke:#EFEFEF;stroke-width:2;stroke-miterlimit:10;}
	.st8{fill:#E8E8E8;}
	.st9{fill:#BDBDBD;}
	.st10{fill:#F0F0F0;}
	.st11{fill:none;stroke:#CECECE;stroke-width:0.5;stroke-miterlimit:10;}
	.st12{fill:#EFEFEF;}
	.st13{fill:none;stroke:#999999;stroke-miterlimit:10;}
	.st14{fill:#EAEAEA;}
	.st15{fill:#D8D8D8;}
	.st16{fill:none;stroke:#F6F6F6;stroke-linecap:round;stroke-miterlimit:10;}
	.st17{fill:#959595;}
	.st18{opacity:0.55;}
	.st19{fill:#F7F7F7;}
</style>
<g id="Layer_1">
	<path class="st3" d="M88.5,98.05L88.5,98.05c-1.38,0-2.5-1.12-2.5-2.5V80.5c0-1.38,1.12-2.5,2.5-2.5l0,0c1.38,0,2.5,1.12,2.5,2.5
		v15.05C91,96.93,89.88,98.05,88.5,98.05z"/>
	<path class="st3" d="M211.5,98.05L211.5,98.05c-1.38,0-2.5-1.12-2.5-2.5V80.5c0-1.38,1.12-2.5,2.5-2.5l0,0c1.38,0,2.5,1.12,2.5,2.5
		v15.05C214,96.93,212.88,98.05,211.5,98.05z"/>
	<path class="st3" d="M88.5,66.09L88.5,66.09c-1.38,0-2.5-1.12-2.5-2.5v-5.63c0-1.38,1.12-2.5,2.5-2.5h0c1.38,0,2.5,1.12,2.5,2.5
		v5.63C91,64.98,89.88,66.09,88.5,66.09z"/>
	<path class="st3" d="M88.5,122L88.5,122c-1.38,0-2.5-1.12-2.5-2.5v-15.05c0-1.38,1.12-2.5,2.5-2.5l0,0c1.38,0,2.5,1.12,2.5,2.5
		v15.05C91,120.88,89.88,122,88.5,122z"/>
	<path class="st4" d="M197.99,272.12h-95.98c-7.77,0-14.07-6.3-14.07-14.07V41.95c0-7.77,6.3-14.07,14.07-14.07h95.98
		c7.77,0,14.07,6.3,14.07,14.07v216.11C212.06,265.83,205.76,272.12,197.99,272.12z"/>
	<rect x="94.1" y="49" class="st5" width="111.8" height="195"/>
	<path class="st6" d="M166.55,40h-23c-1.1,0-2-0.9-2-2v0c0-1.1,0.9-2,2-2h23c1.1,0,2,0.9,2,2v0C168.55,39.1,167.65,40,166.55,40z"/>
	<path class="st6" d="M135.55,40h-2.1c-1.1,0-2-0.9-2-2v0c0-1.1,0.9-2,2-2h2.1c1.1,0,2,0.9,2,2v0C137.55,39.1,136.65,40,135.55,40z"
		/>
	<circle class="st7" cx="150" cy="258" r="8"/>
	<rect x="94.1" y="49" class="st12" width="111.8" height="17"/>
	<rect x="94.1" y="227" class="st14" width="111.8" height="17"/>
	<path class="st15" d="M197.51,237H187c-1.1,0-2-0.9-2-2v0c0-1.1,0.9-2,2-2h10.51c1.1,0,2,0.9,2,2v0
		C199.51,236.1,198.62,237,197.51,237z"/>
	<path class="st9" d="M178.07,59h-58.36c-1.1,0-2-0.9-2-2v0c0-1.1,0.9-2,2-2h58.36c1.1,0,2,0.9,2,2v0
		C180.07,58.1,179.17,59,178.07,59z"/>
	<g>
		<g>
			<g>
				<path class="st17" d="M113.26,73c1.1,0,2.25,0.86,2.56,1.92l1.64,5.63c0.31,1.06-0.34,1.92-1.44,1.92l-12.69,0c-1.1,0-2-0.9-2-2
					V75c0-1.1,0.9-2,2-2H113.26z"/>
			</g>
			<g>
				<path class="st17" d="M126.84,78.41c1.1,0,2,0.9,2,2V94c0,1.1-0.9,2-2,2h-23.52c-1.1,0-2-0.9-2-2V80.41c0-1.1,0.9-2,2-2H126.84z
					"/>
			</g>
		</g>
	</g>
	<g>
		<g>
			<g>
				<path class="st17" d="M148.22,73c1.1,0,2.25,0.86,2.56,1.92l1.64,5.63c0.31,1.06-0.34,1.92-1.44,1.92l-12.69,0c-1.1,0-2-0.9-2-2
					V75c0-1.1,0.9-2,2-2H148.22z"/>
			</g>
			<g>
				<path class="st17" d="M161.8,78.41c1.1,0,2,0.9,2,2l0,13.59c0,1.1-0.9,2-2,2h-23.52c-1.1,0-2-0.9-2-2V80.41c0-1.1,0.9-2,2-2
					H161.8z"/>
			</g>
		</g>
	</g>
	<g>
		<g>
			<g>
				<path class="st17" d="M183.18,73c1.1,0,2.25,0.86,2.56,1.92l1.64,5.63c0.31,1.06-0.34,1.92-1.44,1.92l-12.69,0c-1.1,0-2-0.9-2-2
					V75c0-1.1,0.9-2,2-2H183.18z"/>
			</g>
			<g>
				<path class="st17" d="M196.76,78.41c1.1,0,2,0.9,2,2V94c0,1.1-0.9,2-2,2h-23.52c-1.1,0-2-0.9-2-2l0-13.59c0-1.1,0.9-2,2-2
					H196.76z"/>
			</g>
		</g>
	</g>
	<g>
		<g>
			<g>
				<path class="st17" d="M113.26,106c1.1,0,2.25,0.86,2.56,1.92l1.64,5.63c0.31,1.06-0.34,1.92-1.44,1.92l-12.69,0
					c-1.1,0-2-0.9-2-2V108c0-1.1,0.9-2,2-2H113.26z"/>
			</g>
			<g>
				<path class="st17" d="M126.84,111.41c1.1,0,2,0.9,2,2V127c0,1.1-0.9,2-2,2h-23.52c-1.1,0-2-0.9-2-2v-13.59c0-1.1,0.9-2,2-2
					H126.84z"/>
			</g>
		</g>
	</g>
	<g>
		<g>
			<g>
				<path class="st17" d="M148.22,106c1.1,0,2.25,0.86,2.56,1.92l1.64,5.63c0.31,1.06-0.34,1.92-1.44,1.92l-12.69,0
					c-1.1,0-2-0.9-2-2V108c0-1.1,0.9-2,2-2H148.22z"/>
			</g>
			<g>
				<path class="st17" d="M161.8,111.41c1.1,0,2,0.9,2,2l0,13.59c0,1.1-0.9,2-2,2h-23.52c-1.1,0-2-0.9-2-2v-13.59c0-1.1,0.9-2,2-2
					H161.8z"/>
			</g>
		</g>
	</g>
	<g class="st18">
		<g>
			<g>
				<path class="st9" d="M199,127c0,1.1-0.9,2-2,2h-24c-1.1,0-2-0.9-2-2v-19c0-1.1,0.9-2,2-2h24c1.1,0,2,0.9,2,2V127z"/>
			</g>
		</g>
		<g>
			<path class="st19" d="M182,118.92c0-1.1,0-2.9,0-4v-1.08c0-1.1,0.78-1.55,1.73-1l0.93,0.54c0.95,0.55,2.51,1.45,3.46,2l0.93,0.54
				c0.95,0.55,0.95,1.45,0,2l-0.93,0.54c-0.95,0.55-2.51,1.45-3.46,2l-0.93,0.54c-0.95,0.55-1.73,0.1-1.73-1V118.92z"/>
		</g>
	</g>
	<g class="st18">
		<g>
			<g>
				<path class="st9" d="M199,160c0,1.1-0.9,2-2,2h-24c-1.1,0-2-0.9-2-2v-19c0-1.1,0.9-2,2-2h24c1.1,0,2,0.9,2,2V160z"/>
			</g>
		</g>
		<g>
			<path class="st19" d="M182,151.92c0-1.1,0-2.9,0-4v-1.08c0-1.1,0.78-1.55,1.73-1l0.93,0.54c0.95,0.55,2.51,1.45,3.46,2l0.93,0.54
				c0.95,0.55,0.95,1.45,0,2l-0.93,0.54c-0.95,0.55-2.51,1.45-3.46,2l-0.93,0.54c-0.95,0.55-1.73,0.1-1.73-1V151.92z"/>
		</g>
	</g>
	<g class="st18">
		<g>
			<g>
				<path class="st9" d="M165,160c0,1.1-0.9,2-2,2h-24c-1.1,0-2-0.9-2-2v-19c0-1.1,0.9-2,2-2h24c1.1,0,2,0.9,2,2V160z"/>
			</g>
		</g>
		<g>
			<path class="st19" d="M148,151.92c0-1.1,0-2.9,0-4v-1.08c0-1.1,0.78-1.55,1.73-1l0.93,0.54c0.95,0.55,2.51,1.45,3.46,2l0.93,0.54
				c0.95,0.55,0.95,1.45,0,2l-0.93,0.54c-0.95,0.55-2.51,1.45-3.46,2l-0.93,0.54c-0.95,0.55-1.73,0.1-1.73-1V151.92z"/>
		</g>
	</g>
	<g class="st18">
		<g>
			<g>
				<path class="st9" d="M129,160c0,1.1-0.9,2-2,2h-24c-1.1,0-2-0.9-2-2v-19c0-1.1,0.9-2,2-2h24c1.1,0,2,0.9,2,2V160z"/>
			</g>
		</g>
		<g>
			<path class="st19" d="M112,151.92c0-1.1,0-2.9,0-4v-1.08c0-1.1,0.78-1.55,1.73-1l0.93,0.54c0.95,0.55,2.51,1.45,3.46,2l0.93,0.54
				c0.95,0.55,0.95,1.45,0,2l-0.93,0.54c-0.95,0.55-2.51,1.45-3.46,2l-0.93,0.54c-0.95,0.55-1.73,0.1-1.73-1V151.92z"/>
		</g>
	</g>
	<g class="st18">
		<g>
			<g>
				<path class="st9" d="M165,192c0,1.1-0.9,2-2,2h-24c-1.1,0-2-0.9-2-2v-19c0-1.1,0.9-2,2-2h24c1.1,0,2,0.9,2,2V192z"/>
			</g>
		</g>
		<g>
			<path class="st19" d="M148,183.92c0-1.1,0-2.9,0-4v-1.08c0-1.1,0.78-1.55,1.73-1l0.93,0.54c0.95,0.55,2.51,1.45,3.46,2l0.93,0.54
				c0.95,0.55,0.95,1.45,0,2l-0.93,0.54c-0.95,0.55-2.51,1.45-3.46,2l-0.93,0.54c-0.95,0.55-1.73,0.1-1.73-1V183.92z"/>
		</g>
	</g>
	<g class="st18">
		<g>
			<g>
				<path class="st9" d="M129,192c0,1.1-0.9,2-2,2h-24c-1.1,0-2-0.9-2-2v-19c0-1.1,0.9-2,2-2h24c1.1,0,2,0.9,2,2V192z"/>
			</g>
		</g>
		<g>
			<path class="st19" d="M112,183.92c0-1.1,0-2.9,0-4v-1.08c0-1.1,0.78-1.55,1.73-1l0.93,0.54c0.95,0.55,2.51,1.45,3.46,2l0.93,0.54
				c0.95,0.55,0.95,1.45,0,2l-0.93,0.54c-0.95,0.55-2.51,1.45-3.46,2l-0.93,0.54c-0.95,0.55-1.73,0.1-1.73-1V183.92z"/>
		</g>
	</g>
</g>
<g id="Layer_2">
</g>
<g id="Layer_3">
</g>
</svg>
