<?xml version="1.0" encoding="utf-8"?>
<!-- Generator: Adobe Illustrator 24.2.0, SVG Export Plug-In . SVG Version: 6.00 Build 0)  -->
<svg version="1.1" xmlns="http://www.w3.org/2000/svg" xmlns:xlink="http://www.w3.org/1999/xlink" x="0px" y="0px"
	 viewBox="0 0 300 300" style="enable-background:new 0 0 300 300;" xml:space="preserve">
<style type="text/css">
	.st0{fill:#999999;}
	.st1{fill:#D6D6D6;}
	.st2{fill:#F6F6F6;}
	.st3{fill:#E5E5E5;}
	.st4{fill:#D0D2D3;}
	.st5{fill:#FFFFFF;}
	.st6{fill:#EDEDED;}
	.st7{fill:#D0D2D3;stroke:#EFEFEF;stroke-width:2;stroke-miterlimit:10;}
	.st8{fill:#E8E8E8;}
	.st9{fill:#BDBDBD;}
	.st10{fill:#F0F0F0;}
	.st11{fill:none;stroke:#CECECE;stroke-width:0.5;stroke-miterlimit:10;}
	.st12{fill:#EFEFEF;}
	.st13{fill:none;stroke:#999999;stroke-miterlimit:10;}
	.st14{fill:#EAEAEA;}
	.st15{fill:#CCCCCC;}
	.st16{fill:#D8D8D8;}
	.st17{fill:none;stroke:#F6F6F6;stroke-linecap:round;stroke-miterlimit:10;}
	.st18{fill:#DDDDDD;}
</style>
<g id="Layer_1">
	<path class="st3" d="M88.5,98.05L88.5,98.05c-1.38,0-2.5-1.12-2.5-2.5V80.5c0-1.38,1.12-2.5,2.5-2.5l0,0c1.38,0,2.5,1.12,2.5,2.5
		v15.05C91,96.93,89.88,98.05,88.5,98.05z"/>
	<path class="st3" d="M211.5,98.05L211.5,98.05c-1.38,0-2.5-1.12-2.5-2.5V80.5c0-1.38,1.12-2.5,2.5-2.5l0,0c1.38,0,2.5,1.12,2.5,2.5
		v15.05C214,96.93,212.88,98.05,211.5,98.05z"/>
	<path class="st3" d="M88.5,66.09L88.5,66.09c-1.38,0-2.5-1.12-2.5-2.5v-5.63c0-1.38,1.12-2.5,2.5-2.5h0c1.38,0,2.5,1.12,2.5,2.5
		v5.63C91,64.98,89.88,66.09,88.5,66.09z"/>
	<path class="st3" d="M88.5,122L88.5,122c-1.38,0-2.5-1.12-2.5-2.5v-15.05c0-1.38,1.12-2.5,2.5-2.5l0,0c1.38,0,2.5,1.12,2.5,2.5
		v15.05C91,120.88,89.88,122,88.5,122z"/>
	<path class="st4" d="M197.99,272.12h-95.98c-7.77,0-14.07-6.3-14.07-14.07V41.95c0-7.77,6.3-14.07,14.07-14.07h95.98
		c7.77,0,14.07,6.3,14.07,14.07v216.11C212.06,265.83,205.76,272.12,197.99,272.12z"/>
	<rect x="94.1" y="49" class="st5" width="111.8" height="195"/>
	<path class="st6" d="M166.55,40h-23c-1.1,0-2-0.9-2-2v0c0-1.1,0.9-2,2-2h23c1.1,0,2,0.9,2,2v0C168.55,39.1,167.65,40,166.55,40z"/>
	<path class="st6" d="M135.55,40h-2.1c-1.1,0-2-0.9-2-2v0c0-1.1,0.9-2,2-2h2.1c1.1,0,2,0.9,2,2v0C137.55,39.1,136.65,40,135.55,40z"
		/>
	<circle class="st7" cx="150" cy="258" r="8"/>
	<rect x="94.1" y="49" class="st12" width="111.8" height="17"/>
	<rect x="94.1" y="131" class="st12" width="111.8" height="17"/>
	<rect x="94.1" y="227" class="st14" width="111.8" height="17"/>
	<path class="st9" d="M139.55,237H103c-1.1,0-2-0.9-2-2v0c0-1.1,0.9-2,2-2h36.55c1.1,0,2,0.9,2,2v0
		C141.55,236.1,140.65,237,139.55,237z"/>
	<path class="st15" d="M183.32,87H132c-1.1,0-2-0.9-2-2v0c0-1.1,0.9-2,2-2h51.32c1.1,0,2,0.9,2,2v0C185.32,86.1,184.43,87,183.32,87
		z"/>
	<path class="st16" d="M197.51,237H187c-1.1,0-2-0.9-2-2v0c0-1.1,0.9-2,2-2h10.51c1.1,0,2,0.9,2,2v0
		C199.51,236.1,198.62,237,197.51,237z"/>
	<path class="st16" d="M178.07,59h-58.36c-1.1,0-2-0.9-2-2v0c0-1.1,0.9-2,2-2h58.36c1.1,0,2,0.9,2,2v0
		C180.07,58.1,179.17,59,178.07,59z"/>
	<path class="st16" d="M162.07,142h-58.36c-1.1,0-2-0.9-2-2l0,0c0-1.1,0.9-2,2-2h58.36c1.1,0,2,0.9,2,2l0,0
		C164.07,141.1,163.17,142,162.07,142z"/>
	<path class="st18" d="M122.81,76.64v15.72c0,0.91-0.73,1.64-1.64,1.64l-18.21,0c-0.91,0-1.64-0.73-1.64-1.64l0-15.72
		c0-0.91,0.73-1.64,1.64-1.64h18.21C122.08,75,122.81,75.73,122.81,76.64z"/>
	<g>
		<path class="st18" d="M193.57,85.5c0-0.55,0-1.45,0-2V80c0-0.55,0.34-0.7,0.75-0.34l1.62,1.43c0.41,0.36,1.09,0.96,1.5,1.32
			l1.62,1.43c0.41,0.36,0.41,0.96,0,1.32l-1.62,1.43c-0.41,0.36-1.09,0.96-1.5,1.32l-1.62,1.43c-0.41,0.36-0.75,0.21-0.75-0.34V85.5
			z"/>
	</g>
	<path class="st15" d="M183.32,115H132c-1.1,0-2-0.9-2-2v0c0-1.1,0.9-2,2-2h51.32c1.1,0,2,0.9,2,2v0
		C185.32,114.1,184.43,115,183.32,115z"/>
	<path class="st18" d="M122.81,104.64v15.72c0,0.91-0.73,1.64-1.64,1.64l-18.21,0c-0.91,0-1.64-0.73-1.64-1.64l0-15.72
		c0-0.91,0.73-1.64,1.64-1.64h18.21C122.08,103,122.81,103.73,122.81,104.64z"/>
	<g>
		<path class="st18" d="M193.57,113.5c0-0.55,0-1.45,0-2V108c0-0.55,0.34-0.7,0.75-0.34l1.62,1.43c0.41,0.36,1.09,0.96,1.5,1.32
			l1.62,1.43c0.41,0.36,0.41,0.96,0,1.32l-1.62,1.43c-0.41,0.36-1.09,0.96-1.5,1.32l-1.62,1.43c-0.41,0.36-0.75,0.21-0.75-0.34
			V113.5z"/>
	</g>
	<path class="st15" d="M183.32,168H132c-1.1,0-2-0.9-2-2v0c0-1.1,0.9-2,2-2h51.32c1.1,0,2,0.9,2,2v0
		C185.32,167.1,184.43,168,183.32,168z"/>
	<path class="st18" d="M122.81,157.64v15.72c0,0.91-0.73,1.64-1.64,1.64h-18.21c-0.91,0-1.64-0.73-1.64-1.64l0-15.72
		c0-0.91,0.73-1.64,1.64-1.64h18.21C122.08,156,122.81,156.73,122.81,157.64z"/>
	<g>
		<path class="st18" d="M193.57,166.5c0-0.55,0-1.45,0-2V161c0-0.55,0.34-0.7,0.75-0.34l1.62,1.43c0.41,0.36,1.09,0.96,1.5,1.32
			l1.62,1.43c0.41,0.36,0.41,0.96,0,1.32l-1.62,1.43c-0.41,0.36-1.09,0.96-1.5,1.32l-1.62,1.43c-0.41,0.36-0.75,0.21-0.75-0.34
			V166.5z"/>
	</g>
	<path class="st15" d="M183.32,196H132c-1.1,0-2-0.9-2-2v0c0-1.1,0.9-2,2-2h51.32c1.1,0,2,0.9,2,2v0
		C185.32,195.1,184.43,196,183.32,196z"/>
	<path class="st18" d="M122.81,185.64v15.72c0,0.91-0.73,1.64-1.64,1.64h-18.21c-0.91,0-1.64-0.73-1.64-1.64l0-15.72
		c0-0.91,0.73-1.64,1.64-1.64h18.21C122.08,184,122.81,184.73,122.81,185.64z"/>
	<g>
		<path class="st18" d="M193.57,194.5c0-0.55,0-1.45,0-2V189c0-0.55,0.34-0.7,0.75-0.34l1.62,1.43c0.41,0.36,1.09,0.96,1.5,1.32
			l1.62,1.43c0.41,0.36,0.41,0.96,0,1.32l-1.62,1.43c-0.41,0.36-1.09,0.96-1.5,1.32l-1.62,1.43c-0.41,0.36-0.75,0.21-0.75-0.34
			V194.5z"/>
	</g>
</g>
<g id="Layer_2">
</g>
<g id="Layer_3">
</g>
</svg>
