<?xml version="1.0" encoding="utf-8"?>
<!-- Generator: Adobe Illustrator 24.2.0, SVG Export Plug-In . SVG Version: 6.00 Build 0)  -->
<svg version="1.1" id="Layer_1" xmlns="http://www.w3.org/2000/svg" xmlns:xlink="http://www.w3.org/1999/xlink" x="0px" y="0px"
	 viewBox="0 0 300 300" style="enable-background:new 0 0 300 300;" xml:space="preserve">
<style type="text/css">
	.st0{fill:#E5E5E5;}
	.st1{fill:#D0D2D3;}
	.st2{fill:#FFFFFF;}
	.st3{fill:#EDEDED;}
	.st4{fill:#D0D2D3;stroke:#EFEFEF;stroke-width:2;stroke-miterlimit:10;}
	.st5{fill:#EFEFEF;}
	.st6{fill:#DFDFDF;}
	.st7{fill:#EAEAEA;}
	.st8{fill:#D8D8D8;}
	.st9{fill:#BDBDBD;}
	.st10{fill:#DDDDDD;}
	.st11{fill:#F4F4F4;}
	.st12{fill:#FCFCFC;}
	.st13{fill:none;stroke:#BDBDBD;stroke-miterlimit:10;}
</style>
<path class="st0" d="M88.5,98.05L88.5,98.05c-1.38,0-2.5-1.12-2.5-2.5V80.5c0-1.38,1.12-2.5,2.5-2.5l0,0c1.38,0,2.5,1.12,2.5,2.5
	v15.05C91,96.93,89.88,98.05,88.5,98.05z"/>
<path class="st0" d="M211.5,98.05L211.5,98.05c-1.38,0-2.5-1.12-2.5-2.5V80.5c0-1.38,1.12-2.5,2.5-2.5l0,0c1.38,0,2.5,1.12,2.5,2.5
	v15.05C214,96.93,212.88,98.05,211.5,98.05z"/>
<path class="st0" d="M88.5,66.09L88.5,66.09c-1.38,0-2.5-1.12-2.5-2.5v-5.63c0-1.38,1.12-2.5,2.5-2.5l0,0c1.38,0,2.5,1.12,2.5,2.5
	v5.63C91,64.98,89.88,66.09,88.5,66.09z"/>
<path class="st0" d="M88.5,122L88.5,122c-1.38,0-2.5-1.12-2.5-2.5v-15.05c0-1.38,1.12-2.5,2.5-2.5l0,0c1.38,0,2.5,1.12,2.5,2.5
	v15.05C91,120.88,89.88,122,88.5,122z"/>
<path class="st1" d="M197.99,272.12h-95.98c-7.77,0-14.07-6.3-14.07-14.07V41.95c0-7.77,6.3-14.07,14.07-14.07h95.98
	c7.77,0,14.07,6.3,14.07,14.07v216.11C212.06,265.83,205.76,272.12,197.99,272.12z"/>
<rect x="94.1" y="49" class="st2" width="111.8" height="195"/>
<path class="st3" d="M166.55,40h-23c-1.1,0-2-0.9-2-2l0,0c0-1.1,0.9-2,2-2h23c1.1,0,2,0.9,2,2l0,0C168.55,39.1,167.65,40,166.55,40z
	"/>
<path class="st3" d="M135.55,40h-2.1c-1.1,0-2-0.9-2-2l0,0c0-1.1,0.9-2,2-2h2.1c1.1,0,2,0.9,2,2l0,0
	C137.55,39.1,136.65,40,135.55,40z"/>
<circle class="st4" cx="150" cy="258" r="8"/>
<rect x="94.1" y="49" class="st5" width="111.8" height="17"/>
<rect x="94.1" y="65" class="st6" width="111.8" height="23"/>
<rect x="94.1" y="227" class="st7" width="111.8" height="17"/>
<path class="st8" d="M197.51,237H187c-1.1,0-2-0.9-2-2l0,0c0-1.1,0.9-2,2-2h10.51c1.1,0,2,0.9,2,2l0,0
	C199.51,236.1,198.62,237,197.51,237z"/>
<path class="st9" d="M178.07,59h-58.36c-1.1,0-2-0.9-2-2l0,0c0-1.1,0.9-2,2-2h58.36c1.1,0,2,0.9,2,2l0,0
	C180.07,58.1,179.17,59,178.07,59z"/>
<path class="st10" d="M122.81,97.64v15.72c0,0.91-0.73,1.64-1.64,1.64h-18.21c-0.91,0-1.64-0.73-1.64-1.64V97.64
	c0-0.91,0.73-1.64,1.64-1.64h18.21C122.08,96,122.81,96.73,122.81,97.64z"/>
<path class="st11" d="M110.47,106.39c0-0.49,0-1.3,0-1.79v-3.13c0-0.49,0.3-0.63,0.67-0.3l1.45,1.28c0.37,0.32,0.97,0.86,1.34,1.18
	l1.45,1.28c0.37,0.32,0.37,0.86,0,1.18l-1.45,1.28c-0.37,0.32-0.97,0.86-1.34,1.18l-1.45,1.28c-0.37,0.32-0.67,0.19-0.67-0.3V106.39
	z"/>
<path class="st9" d="M166.55,103H132c-1.1,0-2-0.9-2-2l0,0c0-1.1,0.9-2,2-2h34.55c1.1,0,2,0.9,2,2l0,0
	C168.55,102.1,167.65,103,166.55,103z"/>
<path class="st7" d="M183.32,112H132c-1.1,0-2-0.9-2-2l0,0c0-1.1,0.9-2,2-2h51.32c1.1,0,2,0.9,2,2l0,0
	C185.32,111.1,184.43,112,183.32,112z"/>
<path class="st10" d="M122.81,125.64v15.72c0,0.91-0.73,1.64-1.64,1.64h-18.21c-0.91,0-1.64-0.73-1.64-1.64v-15.72
	c0-0.91,0.73-1.64,1.64-1.64h18.21C122.08,124,122.81,124.73,122.81,125.64z"/>
<path class="st9" d="M166.55,131H132c-1.1,0-2-0.9-2-2l0,0c0-1.1,0.9-2,2-2h34.55c1.1,0,2,0.9,2,2l0,0
	C168.55,130.1,167.65,131,166.55,131z"/>
<path class="st7" d="M183.32,140H132c-1.1,0-2-0.9-2-2l0,0c0-1.1,0.9-2,2-2h51.32c1.1,0,2,0.9,2,2l0,0
	C185.32,139.1,184.43,140,183.32,140z"/>
<path class="st10" d="M122.81,153.64v15.72c0,0.91-0.73,1.64-1.64,1.64h-18.21c-0.91,0-1.64-0.73-1.64-1.64v-15.72
	c0-0.91,0.73-1.64,1.64-1.64h18.21C122.08,152,122.81,152.73,122.81,153.64z"/>
<path class="st9" d="M166.55,159H132c-1.1,0-2-0.9-2-2l0,0c0-1.1,0.9-2,2-2h34.55c1.1,0,2,0.9,2,2l0,0
	C168.55,158.1,167.65,159,166.55,159z"/>
<path class="st7" d="M183.32,168H132c-1.1,0-2-0.9-2-2l0,0c0-1.1,0.9-2,2-2h51.32c1.1,0,2,0.9,2,2l0,0
	C185.32,167.1,184.43,168,183.32,168z"/>
<path class="st10" d="M122.81,181.64v15.72c0,0.91-0.73,1.64-1.64,1.64h-18.21c-0.91,0-1.64-0.73-1.64-1.64v-15.72
	c0-0.91,0.73-1.64,1.64-1.64h18.21C122.08,180,122.81,180.73,122.81,181.64z"/>
<path class="st9" d="M166.55,187H132c-1.1,0-2-0.9-2-2l0,0c0-1.1,0.9-2,2-2h34.55c1.1,0,2,0.9,2,2l0,0
	C168.55,186.1,167.65,187,166.55,187z"/>
<path class="st7" d="M183.32,196H132c-1.1,0-2-0.9-2-2l0,0c0-1.1,0.9-2,2-2h51.32c1.1,0,2,0.9,2,2l0,0
	C185.32,195.1,184.43,196,183.32,196z"/>
<rect x="101" y="70" class="st12" width="99" height="13"/>
<path class="st11" d="M110.47,134.39c0-0.49,0-1.3,0-1.79v-3.13c0-0.49,0.3-0.63,0.67-0.3l1.45,1.28c0.37,0.32,0.97,0.86,1.34,1.18
	l1.45,1.28c0.37,0.32,0.37,0.86,0,1.18l-1.45,1.28c-0.37,0.32-0.97,0.86-1.34,1.18l-1.45,1.28c-0.37,0.32-0.67,0.19-0.67-0.3V134.39
	z"/>
<path class="st11" d="M110.47,162.39c0-0.49,0-1.3,0-1.79v-3.13c0-0.49,0.3-0.63,0.67-0.3l1.45,1.28c0.37,0.32,0.97,0.86,1.34,1.18
	l1.45,1.28c0.37,0.32,0.37,0.86,0,1.18l-1.45,1.28c-0.37,0.32-0.97,0.86-1.34,1.18l-1.45,1.28c-0.37,0.32-0.67,0.19-0.67-0.3V162.39
	z"/>
<path class="st11" d="M110.47,190.39c0-0.49,0-1.3,0-1.79v-3.13c0-0.49,0.3-0.63,0.67-0.3l1.45,1.28c0.37,0.32,0.97,0.86,1.34,1.18
	l1.45,1.28c0.37,0.32,0.37,0.86,0,1.18l-1.45,1.28c-0.37,0.32-0.97,0.86-1.34,1.18l-1.45,1.28c-0.37,0.32-0.67,0.19-0.67-0.3V190.39
	z"/>
<polyline class="st13" points="195.52,101.59 199.49,105.56 195.63,109.41 "/>
<polyline class="st13" points="195.52,129.59 199.49,133.56 195.63,137.41 "/>
<polyline class="st13" points="195.52,157.59 199.49,161.56 195.63,165.41 "/>
<polyline class="st13" points="195.52,185.59 199.49,189.56 195.63,193.41 "/>
</svg>
