<?xml version="1.0" encoding="utf-8"?>
<!-- Generator: Adobe Illustrator 24.2.0, SVG Export Plug-In . SVG Version: 6.00 Build 0)  -->
<svg version="1.1" xmlns="http://www.w3.org/2000/svg" xmlns:xlink="http://www.w3.org/1999/xlink" x="0px" y="0px"
	 viewBox="0 0 300 300" style="enable-background:new 0 0 300 300;" xml:space="preserve">
<style type="text/css">
	.st0{fill:#999999;}
	.st1{fill:#D6D6D6;}
	.st2{fill:#F6F6F6;}
	.st3{fill:#E5E5E5;}
	.st4{fill:#D0D2D3;}
	.st5{fill:#FFFFFF;}
	.st6{fill:#EDEDED;}
	.st7{fill:#D0D2D3;stroke:#EFEFEF;stroke-width:2;stroke-miterlimit:10;}
	.st8{fill:#E8E8E8;}
	.st9{fill:#BDBDBD;}
	.st10{fill:#F0F0F0;}
	.st11{fill:none;stroke:#CECECE;stroke-width:0.5;stroke-miterlimit:10;}
	.st12{fill:#EFEFEF;}
	.st13{fill:none;stroke:#999999;stroke-miterlimit:10;}
	.st14{fill:#EAEAEA;}
	.st15{fill:#BCBCBC;}
	.st16{fill:#E1E1E1;}
	.st17{fill:none;stroke:#E0E0E0;stroke-width:0.2;stroke-miterlimit:10;}
</style>
<g id="Layer_1">
	<path class="st3" d="M88.5,98.05L88.5,98.05c-1.38,0-2.5-1.12-2.5-2.5V80.5c0-1.38,1.12-2.5,2.5-2.5l0,0c1.38,0,2.5,1.12,2.5,2.5
		v15.05C91,96.93,89.88,98.05,88.5,98.05z"/>
	<path class="st3" d="M211.5,98.05L211.5,98.05c-1.38,0-2.5-1.12-2.5-2.5V80.5c0-1.38,1.12-2.5,2.5-2.5l0,0c1.38,0,2.5,1.12,2.5,2.5
		v15.05C214,96.93,212.88,98.05,211.5,98.05z"/>
	<path class="st3" d="M88.5,66.09L88.5,66.09c-1.38,0-2.5-1.12-2.5-2.5v-5.63c0-1.38,1.12-2.5,2.5-2.5h0c1.38,0,2.5,1.12,2.5,2.5
		v5.63C91,64.98,89.88,66.09,88.5,66.09z"/>
	<path class="st3" d="M88.5,122L88.5,122c-1.38,0-2.5-1.12-2.5-2.5v-15.05c0-1.38,1.12-2.5,2.5-2.5l0,0c1.38,0,2.5,1.12,2.5,2.5
		v15.05C91,120.88,89.88,122,88.5,122z"/>
	<path class="st4" d="M197.99,272.12h-95.98c-7.77,0-14.07-6.3-14.07-14.07V41.95c0-7.77,6.3-14.07,14.07-14.07h95.98
		c7.77,0,14.07,6.3,14.07,14.07v216.11C212.06,265.83,205.76,272.12,197.99,272.12z"/>
	<rect x="94.1" y="49" class="st5" width="111.8" height="195"/>
	<path class="st6" d="M166.55,40h-23c-1.1,0-2-0.9-2-2v0c0-1.1,0.9-2,2-2h23c1.1,0,2,0.9,2,2v0C168.55,39.1,167.65,40,166.55,40z"/>
	<path class="st6" d="M135.55,40h-2.1c-1.1,0-2-0.9-2-2v0c0-1.1,0.9-2,2-2h2.1c1.1,0,2,0.9,2,2v0C137.55,39.1,136.65,40,135.55,40z"
		/>
	<circle class="st7" cx="150" cy="258" r="8"/>
	<rect x="94.1" y="49" class="st12" width="111.8" height="17"/>
	<rect x="94.1" y="227" class="st14" width="111.8" height="17"/>
	<path class="st9" d="M118.51,237H108c-1.1,0-2-0.9-2-2v0c0-1.1,0.9-2,2-2h10.51c1.1,0,2,0.9,2,2v0
		C120.51,236.1,119.62,237,118.51,237z"/>
	<path class="st9" d="M142.51,237H132c-1.1,0-2-0.9-2-2v0c0-1.1,0.9-2,2-2h10.51c1.1,0,2,0.9,2,2v0
		C144.51,236.1,143.62,237,142.51,237z"/>
	<path class="st9" d="M167.51,237H157c-1.1,0-2-0.9-2-2v0c0-1.1,0.9-2,2-2h10.51c1.1,0,2,0.9,2,2v0
		C169.51,236.1,168.62,237,167.51,237z"/>
	<path class="st9" d="M192.51,237H182c-1.1,0-2-0.9-2-2v0c0-1.1,0.9-2,2-2h10.51c1.1,0,2,0.9,2,2v0
		C194.51,236.1,193.62,237,192.51,237z"/>
	<path class="st15" d="M186.26,94h-28.27c-1.1,0-2-0.9-2-2l0,0c0-1.1,0.9-2,2-2h28.27c1.1,0,2,0.9,2,2l0,0
		C188.26,93.1,187.36,94,186.26,94z"/>
	<path class="st15" d="M194.99,104h-37c-1.1,0-2-0.9-2-2v0c0-1.1,0.9-2,2-2h37c1.1,0,2,0.9,2,2v0C196.99,103.1,196.1,104,194.99,104
		z"/>
	<path class="st16" d="M177.26,144.1h-55.2c-1.1,0-2-0.9-2-2l0,0c0-1.1,0.9-2,2-2h55.2c1.1,0,2,0.9,2,2l0,0
		C179.26,143.2,178.36,144.1,177.26,144.1z"/>
	<line class="st17" x1="94" y1="131" x2="206" y2="131"/>
	<line class="st17" x1="94" y1="154" x2="206" y2="154"/>
	<line class="st17" x1="94" y1="177" x2="206" y2="177"/>
	<line class="st17" x1="94" y1="200" x2="206" y2="200"/>
	<g>
		<path class="st16" d="M192,144.1c0-1.1,0-2.9,0-4v-2.64c0-1.1,0.72-1.46,1.6-0.8l1.21,0.91c0.88,0.66,2.32,1.74,3.2,2.41
			l1.21,0.91c0.88,0.66,0.88,1.74,0,2.41l-1.21,0.91c-0.88,0.66-2.32,1.74-3.2,2.41l-1.21,0.91c-0.88,0.66-1.6,0.3-1.6-0.8V144.1z"
			/>
	</g>
	<circle class="st16" cx="107.5" cy="142.5" r="7.5"/>
	<path class="st16" d="M177.26,167.1h-55.2c-1.1,0-2-0.9-2-2l0,0c0-1.1,0.9-2,2-2h55.2c1.1,0,2,0.9,2,2l0,0
		C179.26,166.2,178.36,167.1,177.26,167.1z"/>
	<g>
		<path class="st16" d="M192,167.1c0-1.1,0-2.9,0-4v-2.64c0-1.1,0.72-1.46,1.6-0.8l1.21,0.91c0.88,0.66,2.32,1.74,3.2,2.41
			l1.21,0.91c0.88,0.66,0.88,1.74,0,2.41l-1.21,0.91c-0.88,0.66-2.32,1.74-3.2,2.41l-1.21,0.91c-0.88,0.66-1.6,0.3-1.6-0.8V167.1z"
			/>
	</g>
	<circle class="st16" cx="107.5" cy="165.5" r="7.5"/>
	<path class="st16" d="M177.26,190.1h-55.2c-1.1,0-2-0.9-2-2l0,0c0-1.1,0.9-2,2-2h55.2c1.1,0,2,0.9,2,2l0,0
		C179.26,189.2,178.36,190.1,177.26,190.1z"/>
	<g>
		<path class="st16" d="M192,190.1c0-1.1,0-2.9,0-4v-2.64c0-1.1,0.72-1.46,1.6-0.8l1.21,0.91c0.88,0.66,2.32,1.74,3.2,2.41
			l1.21,0.91c0.88,0.66,0.88,1.74,0,2.41l-1.21,0.91c-0.88,0.66-2.32,1.74-3.2,2.41l-1.21,0.91c-0.88,0.66-1.6,0.3-1.6-0.8V190.1z"
			/>
	</g>
	<circle class="st16" cx="107.5" cy="188.5" r="7.5"/>
	<path class="st16" d="M177.26,214.1h-55.2c-1.1,0-2-0.9-2-2l0,0c0-1.1,0.9-2,2-2h55.2c1.1,0,2,0.9,2,2l0,0
		C179.26,213.2,178.36,214.1,177.26,214.1z"/>
	<g>
		<path class="st16" d="M192,214.1c0-1.1,0-2.9,0-4v-2.64c0-1.1,0.72-1.46,1.6-0.8l1.21,0.91c0.88,0.66,2.32,1.74,3.2,2.41
			l1.21,0.91c0.88,0.66,0.88,1.74,0,2.41l-1.21,0.91c-0.88,0.66-2.32,1.74-3.2,2.41l-1.21,0.91c-0.88,0.66-1.6,0.3-1.6-0.8V214.1z"
			/>
	</g>
	<circle class="st16" cx="107.5" cy="212.5" r="7.5"/>
	<circle class="st15" cx="126" cy="98" r="23"/>
</g>
<g id="Layer_2">
</g>
<g id="Layer_3">
</g>
</svg>
