<?xml version="1.0" encoding="utf-8"?>
<!-- Generator: Adobe Illustrator 24.2.0, SVG Export Plug-In . SVG Version: 6.00 Build 0)  -->
<svg version="1.1" xmlns="http://www.w3.org/2000/svg" xmlns:xlink="http://www.w3.org/1999/xlink" x="0px" y="0px"
	 viewBox="0 0 300 300" style="enable-background:new 0 0 300 300;" xml:space="preserve">
<style type="text/css">
	.st0{fill:#D6D6D6;}
	.st1{fill:#FFFFFF;}
	.st2{fill:#F6F6F6;}
	.st3{fill:#999999;}
	.st4{fill:#D5D5D5;}
</style>
<g id="Layer_1">
	<g>
		<path class="st0" d="M276.8,289.62H25.95c-7.77,0-14.07-6.3-14.07-14.07V24.7c0-7.77,6.3-14.07,14.07-14.07H276.8
			c7.77,0,14.07,6.3,14.07,14.07v250.86C290.88,283.33,284.58,289.62,276.8,289.62z"/>
		<g>
			<circle class="st1" cx="39.75" cy="36.25" r="8"/>
			<circle class="st1" cx="70.86" cy="36.25" r="8"/>
			<circle class="st1" cx="101.97" cy="36.25" r="8"/>
		</g>
	</g>
	<path class="st2" d="M266.21,271.5H37.79c-2.99,0-5.41-2.42-5.41-5.41V67.91c0-2.99,2.42-5.41,5.41-5.41h228.42
		c2.99,0,5.41,2.42,5.41,5.41v198.17C271.62,269.08,269.2,271.5,266.21,271.5z"/>
	<g>
		<g>
			<path class="st0" d="M136.32,213.26H66.36c-2.65,0-4.8-2.15-4.8-4.8v-0.85c0-2.65,2.15-4.8,4.8-4.8h69.96
				c2.65,0,4.8,2.15,4.8,4.8v0.85C141.13,211.11,138.98,213.26,136.32,213.26z"/>
			<g>
				<g>
					<path class="st3" d="M62.85,89.9c-0.01,0-0.01,0-0.01,0.01v66.01c0,0.01,0,0.01,0.01,0.01h51.14c0.01,0,0.01,0,0.01-0.01
						v-50.27c0-0.01,0-0.01-0.01-0.01H98.27c-0.01,0-0.01,0-0.01-0.01V89.91c0-0.01,0-0.01-0.01-0.01H62.85z"/>
				</g>
				<g>
					<path class="st0" d="M98.28,89.92C98.28,89.91,98.29,89.91,98.28,89.92l15.7,15.69c0,0,0,0.01,0,0.01H98.29
						c-0.01,0-0.01,0-0.01-0.01V89.92z"/>
				</g>
			</g>
			<path class="st0" d="M122.21,241.92H66.36c-2.65,0-4.8-2.15-4.8-4.8v-0.85c0-2.65,2.15-4.8,4.8-4.8h55.84
				c2.65,0,4.8,2.15,4.8,4.8v0.85C127.01,239.77,124.86,241.92,122.21,241.92z"/>
			<path class="st3" d="M119.57,184.92h-53.2c-2.65,0-4.8-2.15-4.8-4.8v-0.85c0-2.65,2.15-4.8,4.8-4.8h53.2c2.65,0,4.8,2.15,4.8,4.8
				v0.85C124.37,182.77,122.22,184.92,119.57,184.92z"/>
		</g>
		<g>
			<path class="st0" d="M236.32,213.26h-69.96c-2.65,0-4.8-2.15-4.8-4.8v-0.85c0-2.65,2.15-4.8,4.8-4.8h69.96
				c2.65,0,4.8,2.15,4.8,4.8v0.85C241.13,211.11,238.98,213.26,236.32,213.26z"/>
			<g>
				<g>
					<path class="st3" d="M162.85,89.9c-0.01,0-0.01,0-0.01,0.01v66.01c0,0.01,0,0.01,0.01,0.01h51.14c0.01,0,0.01,0,0.01-0.01
						v-50.27c0-0.01,0-0.01-0.01-0.01h-15.72c-0.01,0-0.01,0-0.01-0.01V89.91c0-0.01,0-0.01-0.01-0.01H162.85z"/>
				</g>
				<g>
					<path class="st0" d="M198.28,89.92C198.28,89.91,198.29,89.91,198.28,89.92l15.7,15.69c0,0,0,0.01,0,0.01h-15.68
						c-0.01,0-0.01,0-0.01-0.01V89.92z"/>
				</g>
			</g>
			<path class="st0" d="M222.21,241.92h-55.84c-2.65,0-4.8-2.15-4.8-4.8v-0.85c0-2.65,2.15-4.8,4.8-4.8h55.84
				c2.65,0,4.8,2.15,4.8,4.8v0.85C227.01,239.77,224.86,241.92,222.21,241.92z"/>
			<path class="st3" d="M219.57,184.92h-53.2c-2.65,0-4.8-2.15-4.8-4.8v-0.85c0-2.65,2.15-4.8,4.8-4.8h53.2c2.65,0,4.8,2.15,4.8,4.8
				v0.85C224.37,182.77,222.22,184.92,219.57,184.92z"/>
		</g>
	</g>
</g>
<g id="Layer_2">
</g>
<g id="Layer_3">
</g>
</svg>
