<?xml version="1.0" encoding="utf-8"?>
<!-- Generator: Adobe Illustrator 24.2.0, SVG Export Plug-In . SVG Version: 6.00 Build 0)  -->
<svg version="1.1" xmlns="http://www.w3.org/2000/svg" xmlns:xlink="http://www.w3.org/1999/xlink" x="0px" y="0px"
	 viewBox="0 0 300 300" style="enable-background:new 0 0 300 300;" xml:space="preserve">
<style type="text/css">
	.st0{fill:#D6D6D6;}
	.st1{fill:#FFFFFF;}
	.st2{fill:#F6F6F6;}
	.st3{fill:#999999;}
	.st4{fill:#D5D5D5;}
</style>
<g id="Layer_1">
	<g>
		<path class="st0" d="M276.8,289.62H25.95c-7.77,0-14.07-6.3-14.07-14.07V24.7c0-7.77,6.3-14.07,14.07-14.07H276.8
			c7.77,0,14.07,6.3,14.07,14.07v250.86C290.88,283.33,284.58,289.62,276.8,289.62z"/>
		<g>
			<circle class="st1" cx="39.75" cy="36.25" r="8"/>
			<circle class="st1" cx="70.86" cy="36.25" r="8"/>
			<circle class="st1" cx="101.97" cy="36.25" r="8"/>
		</g>
	</g>
	<path class="st2" d="M266.21,271.5H37.79c-2.99,0-5.41-2.42-5.41-5.41V67.91c0-2.99,2.42-5.41,5.41-5.41h228.42
		c2.99,0,5.41,2.42,5.41,5.41v198.17C271.62,269.08,269.2,271.5,266.21,271.5z"/>
	<g>
		<g>
			<path class="st0" d="M101.61,159H61.4c-1.55,0-2.81-1.26-2.81-2.81l0,0c0-1.55,1.26-2.81,2.81-2.81h40.2
				c1.55,0,2.81,1.26,2.81,2.81l0,0C104.41,157.74,103.16,159,101.61,159z"/>
			<g>
				<path class="st3" d="M113.37,102.78l0,39.71c0,0.91-0.73,1.64-1.64,1.64l-51.49,0c-0.91,0-1.64-0.73-1.64-1.64l0-39.71
					c0-0.91,0.73-1.64,1.64-1.64l51.49,0C112.63,101.14,113.37,101.88,113.37,102.78z"/>
				<g>
					<path class="st0" d="M79.86,124.64c0-1.1,0-2.9,0-4v-3.4c0-1.1,0.78-1.55,1.73-1l2.94,1.7c0.95,0.55,2.51,1.45,3.46,2l2.94,1.7
						c0.95,0.55,0.95,1.45,0,2l-2.94,1.7c-0.95,0.55-2.51,1.45-3.46,2l-2.94,1.7c-0.95,0.55-1.73,0.1-1.73-1V124.64z"/>
				</g>
			</g>
			<path class="st0" d="M167.94,159h-40.2c-1.55,0-2.81-1.26-2.81-2.81l0,0c0-1.55,1.26-2.81,2.81-2.81h40.2
				c1.55,0,2.81,1.26,2.81,2.81l0,0C170.74,157.74,169.49,159,167.94,159z"/>
			<g>
				<path class="st3" d="M179.69,102.78l0,39.71c0,0.91-0.73,1.64-1.64,1.64l-51.49,0c-0.91,0-1.64-0.73-1.64-1.64l0-39.71
					c0-0.91,0.73-1.64,1.64-1.64l51.49,0C178.96,101.14,179.69,101.88,179.69,102.78z"/>
				<g>
					<path class="st0" d="M146.19,124.64c0-1.1,0-2.9,0-4v-3.4c0-1.1,0.78-1.55,1.73-1l2.94,1.7c0.95,0.55,2.51,1.45,3.46,2
						l2.94,1.7c0.95,0.55,0.95,1.45,0,2l-2.94,1.7c-0.95,0.55-2.51,1.45-3.46,2l-2.94,1.7c-0.95,0.55-1.73,0.1-1.73-1V124.64z"/>
				</g>
			</g>
			<path class="st0" d="M234.26,159h-40.2c-1.55,0-2.81-1.26-2.81-2.81l0,0c0-1.55,1.26-2.81,2.81-2.81h40.2
				c1.55,0,2.81,1.26,2.81,2.81l0,0C237.07,157.74,235.81,159,234.26,159z"/>
			<g>
				<path class="st3" d="M246.02,102.78l0,39.71c0,0.91-0.73,1.64-1.64,1.64l-51.49,0c-0.91,0-1.64-0.73-1.64-1.64l0-39.71
					c0-0.91,0.73-1.64,1.64-1.64l51.49,0C245.29,101.14,246.02,101.88,246.02,102.78z"/>
				<g>
					<path class="st0" d="M212.52,124.64c0-1.1,0-2.9,0-4v-3.4c0-1.1,0.78-1.55,1.73-1l2.94,1.7c0.95,0.55,2.51,1.45,3.46,2
						l2.94,1.7c0.95,0.55,0.95,1.45,0,2l-2.94,1.7c-0.95,0.55-2.51,1.45-3.46,2l-2.94,1.7c-0.95,0.55-1.73,0.1-1.73-1V124.64z"/>
				</g>
			</g>
		</g>
		<g>
			<path class="st0" d="M101.61,229H61.4c-1.55,0-2.81-1.26-2.81-2.81l0,0c0-1.55,1.26-2.81,2.81-2.81h40.2
				c1.55,0,2.81,1.26,2.81,2.81l0,0C104.41,227.74,103.16,229,101.61,229z"/>
			<g>
				<path class="st3" d="M113.37,172.78l0,39.71c0,0.91-0.73,1.64-1.64,1.64l-51.49,0c-0.91,0-1.64-0.73-1.64-1.64l0-39.71
					c0-0.91,0.73-1.64,1.64-1.64h51.49C112.63,171.14,113.37,171.88,113.37,172.78z"/>
				<g>
					<path class="st0" d="M79.86,194.64c0-1.1,0-2.9,0-4v-3.4c0-1.1,0.78-1.55,1.73-1l2.94,1.7c0.95,0.55,2.51,1.45,3.46,2l2.94,1.7
						c0.95,0.55,0.95,1.45,0,2l-2.94,1.7c-0.95,0.55-2.51,1.45-3.46,2l-2.94,1.7c-0.95,0.55-1.73,0.1-1.73-1V194.64z"/>
				</g>
			</g>
			<path class="st0" d="M167.94,229h-40.2c-1.55,0-2.81-1.26-2.81-2.81l0,0c0-1.55,1.26-2.81,2.81-2.81h40.2
				c1.55,0,2.81,1.26,2.81,2.81l0,0C170.74,227.74,169.49,229,167.94,229z"/>
			<g>
				<path class="st3" d="M179.69,172.78l0,39.71c0,0.91-0.73,1.64-1.64,1.64l-51.49,0c-0.91,0-1.64-0.73-1.64-1.64l0-39.71
					c0-0.91,0.73-1.64,1.64-1.64h51.49C178.96,171.14,179.69,171.88,179.69,172.78z"/>
				<g>
					<path class="st0" d="M146.19,194.64c0-1.1,0-2.9,0-4v-3.4c0-1.1,0.78-1.55,1.73-1l2.94,1.7c0.95,0.55,2.51,1.45,3.46,2
						l2.94,1.7c0.95,0.55,0.95,1.45,0,2l-2.94,1.7c-0.95,0.55-2.51,1.45-3.46,2l-2.94,1.7c-0.95,0.55-1.73,0.1-1.73-1V194.64z"/>
				</g>
			</g>
			<path class="st0" d="M234.26,229h-40.2c-1.55,0-2.81-1.26-2.81-2.81l0,0c0-1.55,1.26-2.81,2.81-2.81h40.2
				c1.55,0,2.81,1.26,2.81,2.81l0,0C237.07,227.74,235.81,229,234.26,229z"/>
			<g>
				<path class="st3" d="M246.02,172.78l0,39.71c0,0.91-0.73,1.64-1.64,1.64l-51.49,0c-0.91,0-1.64-0.73-1.64-1.64l0-39.71
					c0-0.91,0.73-1.64,1.64-1.64h51.49C245.29,171.14,246.02,171.88,246.02,172.78z"/>
				<g>
					<path class="st0" d="M212.52,194.64c0-1.1,0-2.9,0-4v-3.4c0-1.1,0.78-1.55,1.73-1l2.94,1.7c0.95,0.55,2.51,1.45,3.46,2
						l2.94,1.7c0.95,0.55,0.95,1.45,0,2l-2.94,1.7c-0.95,0.55-2.51,1.45-3.46,2l-2.94,1.7c-0.95,0.55-1.73,0.1-1.73-1V194.64z"/>
				</g>
			</g>
		</g>
	</g>
</g>
<g id="Layer_2">
</g>
<g id="Layer_3">
</g>
</svg>
