<?xml version="1.0" encoding="utf-8"?>
<!-- Generator: Adobe Illustrator 24.2.0, SVG Export Plug-In . SVG Version: 6.00 Build 0)  -->
<svg version="1.1" xmlns="http://www.w3.org/2000/svg" xmlns:xlink="http://www.w3.org/1999/xlink" x="0px" y="0px"
	 viewBox="0 0 300 300" style="enable-background:new 0 0 300 300;" xml:space="preserve">
<style type="text/css">
	.st0{fill:#D6D6D6;}
	.st1{fill:#FFFFFF;}
	.st2{fill:#F6F6F6;}
	.st3{fill:#999999;}
	.st4{fill:#D5D5D5;}
</style>
<g id="Layer_1">
	<g>
		<path class="st0" d="M276.8,289.62H25.95c-7.77,0-14.07-6.3-14.07-14.07V24.7c0-7.77,6.3-14.07,14.07-14.07H276.8
			c7.77,0,14.07,6.3,14.07,14.07v250.86C290.88,283.33,284.58,289.62,276.8,289.62z"/>
		<g>
			<circle class="st1" cx="39.75" cy="36.25" r="8"/>
			<circle class="st1" cx="70.86" cy="36.25" r="8"/>
			<circle class="st1" cx="101.97" cy="36.25" r="8"/>
		</g>
	</g>
	<path class="st2" d="M266.21,271.5H37.79c-2.99,0-5.41-2.42-5.41-5.41V67.91c0-2.99,2.42-5.41,5.41-5.41h228.42
		c2.99,0,5.41,2.42,5.41,5.41v198.17C271.62,269.08,269.2,271.5,266.21,271.5z"/>
	<g>
		<g>
			<g>
				<g>
					<path class="st3" d="M59.65,92.94c-0.01,0-0.01,0-0.01,0.01v47.93c0,0.01,0,0.01,0.01,0.01h37.13c0.01,0,0.01,0,0.01-0.01
						v-36.5c0-0.01,0-0.01-0.01-0.01H85.37c-0.01,0-0.01,0-0.01-0.01V92.95c0-0.01,0-0.01-0.01-0.01H59.65z"/>
				</g>
				<g>
					<path class="st0" d="M85.37,92.95C85.37,92.95,85.38,92.95,85.37,92.95l11.4,11.39c0,0,0,0.01,0,0.01H85.38
						c-0.01,0-0.01,0-0.01-0.01V92.95z"/>
				</g>
			</g>
			<path class="st0" d="M107.1,158.54H62.86c-2.37,0-4.3-1.92-4.3-4.3v-0.21c0-2.37,1.92-4.3,4.3-4.3h44.25c2.37,0,4.3,1.92,4.3,4.3
				v0.21C111.4,156.62,109.48,158.54,107.1,158.54z"/>
			<g>
				<g>
					<path class="st3" d="M126.95,92.94c-0.01,0-0.01,0-0.01,0.01v47.93c0,0.01,0,0.01,0.01,0.01h37.13c0.01,0,0.01,0,0.01-0.01
						v-36.5c0-0.01,0-0.01-0.01-0.01h-11.41c-0.01,0-0.01,0-0.01-0.01V92.95c0-0.01,0-0.01-0.01-0.01H126.95z"/>
				</g>
				<g>
					<path class="st0" d="M152.67,92.95C152.67,92.95,152.68,92.95,152.67,92.95l11.4,11.39c0,0,0,0.01,0,0.01h-11.38
						c-0.01,0-0.01,0-0.01-0.01V92.95z"/>
				</g>
			</g>
			<path class="st0" d="M174.4,158.54h-44.25c-2.37,0-4.3-1.92-4.3-4.3v-0.21c0-2.37,1.92-4.3,4.3-4.3h44.25
				c2.37,0,4.3,1.92,4.3,4.3v0.21C178.7,156.62,176.78,158.54,174.4,158.54z"/>
			<g>
				<g>
					<path class="st3" d="M194.25,92.94c-0.01,0-0.01,0-0.01,0.01v47.93c0,0.01,0,0.01,0.01,0.01h37.13c0.01,0,0.01,0,0.01-0.01
						v-36.5c0-0.01,0-0.01-0.01-0.01h-11.41c-0.01,0-0.01,0-0.01-0.01V92.95c0-0.01,0-0.01-0.01-0.01H194.25z"/>
				</g>
				<g>
					<path class="st0" d="M219.97,92.95C219.97,92.95,219.98,92.95,219.97,92.95l11.4,11.39c0,0,0,0.01,0,0.01h-11.38
						c-0.01,0-0.01,0-0.01-0.01V92.95z"/>
				</g>
			</g>
			<path class="st0" d="M241.7,158.54h-44.25c-2.37,0-4.3-1.92-4.3-4.3v-0.21c0-2.37,1.92-4.3,4.3-4.3h44.25
				c2.37,0,4.3,1.92,4.3,4.3v0.21C246,156.62,244.08,158.54,241.7,158.54z"/>
		</g>
		<g>
			<g>
				<g>
					<path class="st3" d="M59.65,172.94c-0.01,0-0.01,0-0.01,0.01v47.93c0,0.01,0,0.01,0.01,0.01h37.13c0.01,0,0.01,0,0.01-0.01
						v-36.5c0-0.01,0-0.01-0.01-0.01H85.37c-0.01,0-0.01,0-0.01-0.01v-11.41c0-0.01,0-0.01-0.01-0.01H59.65z"/>
				</g>
				<g>
					<path class="st0" d="M85.37,172.95C85.37,172.95,85.38,172.95,85.37,172.95l11.4,11.39c0,0,0,0.01,0,0.01H85.38
						c-0.01,0-0.01,0-0.01-0.01V172.95z"/>
				</g>
			</g>
			<path class="st0" d="M107.1,238.54H62.86c-2.37,0-4.3-1.92-4.3-4.3v-0.21c0-2.37,1.92-4.3,4.3-4.3h44.25c2.37,0,4.3,1.92,4.3,4.3
				v0.21C111.4,236.62,109.48,238.54,107.1,238.54z"/>
			<g>
				<g>
					<path class="st3" d="M126.95,172.94c-0.01,0-0.01,0-0.01,0.01v47.93c0,0.01,0,0.01,0.01,0.01h37.13c0.01,0,0.01,0,0.01-0.01
						v-36.5c0-0.01,0-0.01-0.01-0.01h-11.41c-0.01,0-0.01,0-0.01-0.01v-11.41c0-0.01,0-0.01-0.01-0.01H126.95z"/>
				</g>
				<g>
					<path class="st0" d="M152.67,172.95C152.67,172.95,152.68,172.95,152.67,172.95l11.4,11.39c0,0,0,0.01,0,0.01h-11.38
						c-0.01,0-0.01,0-0.01-0.01V172.95z"/>
				</g>
			</g>
			<path class="st0" d="M174.4,238.54h-44.25c-2.37,0-4.3-1.92-4.3-4.3v-0.21c0-2.37,1.92-4.3,4.3-4.3h44.25
				c2.37,0,4.3,1.92,4.3,4.3v0.21C178.7,236.62,176.78,238.54,174.4,238.54z"/>
			<g>
				<g>
					<path class="st3" d="M194.25,172.94C194.24,172.94,194.24,172.94,194.25,172.94l-0.01,47.94c0,0.01,0,0.01,0.01,0.01h37.13
						c0.01,0,0.01,0,0.01-0.01v-36.5c0-0.01,0-0.01-0.01-0.01h-11.41c-0.01,0-0.01,0-0.01-0.01v-11.41c0-0.01,0-0.01-0.01-0.01
						H194.25z"/>
				</g>
				<g>
					<path class="st0" d="M219.97,172.95C219.97,172.95,219.98,172.95,219.97,172.95l11.4,11.39c0,0,0,0.01,0,0.01h-11.38
						c-0.01,0-0.01,0-0.01-0.01V172.95z"/>
				</g>
			</g>
			<path class="st0" d="M241.7,238.54h-44.25c-2.37,0-4.3-1.92-4.3-4.3v-0.21c0-2.37,1.92-4.3,4.3-4.3h44.25
				c2.37,0,4.3,1.92,4.3,4.3v0.21C246,236.62,244.08,238.54,241.7,238.54z"/>
		</g>
	</g>
</g>
<g id="Layer_2">
</g>
<g id="Layer_3">
</g>
</svg>
