<?xml version="1.0" encoding="utf-8"?>
<!-- Generator: Adobe Illustrator 24.2.0, SVG Export Plug-In . SVG Version: 6.00 Build 0)  -->
<svg version="1.1" xmlns="http://www.w3.org/2000/svg" xmlns:xlink="http://www.w3.org/1999/xlink" x="0px" y="0px"
	 viewBox="0 0 300 300" style="enable-background:new 0 0 300 300;" xml:space="preserve">
<style type="text/css">
	.st0{fill:#D6D6D6;}
	.st1{fill:#FFFFFF;}
	.st2{fill:#F6F6F6;}
	.st3{fill:#999999;}
	.st4{fill:#D5D5D5;}
</style>
<g id="Layer_1">
	<g>
		<path class="st0" d="M276.8,289.62H25.95c-7.77,0-14.07-6.3-14.07-14.07V24.7c0-7.77,6.3-14.07,14.07-14.07H276.8
			c7.77,0,14.07,6.3,14.07,14.07v250.86C290.88,283.33,284.58,289.62,276.8,289.62z"/>
		<g>
			<circle class="st1" cx="39.75" cy="36.25" r="8"/>
			<circle class="st1" cx="70.86" cy="36.25" r="8"/>
			<circle class="st1" cx="101.97" cy="36.25" r="8"/>
		</g>
	</g>
	<path class="st2" d="M266.21,271.5H37.79c-2.99,0-5.41-2.42-5.41-5.41V67.91c0-2.99,2.42-5.41,5.41-5.41h228.42
		c2.99,0,5.41,2.42,5.41,5.41v198.17C271.62,269.08,269.2,271.5,266.21,271.5z"/>
	<g>
		<g>
			<g>
				<path class="st3" d="M58.74,95.9c-0.01,0-0.01,0-0.01,0.01v59.69c0,0.01,0,0.01,0.01,0.01h46.25c0.01,0,0.01,0,0.01-0.01v-45.45
					c0-0.01,0-0.01-0.01-0.01H90.77c-0.01,0-0.01,0-0.01-0.01V95.91c0-0.01,0-0.01-0.01-0.01H58.74z"/>
			</g>
			<g>
				<path class="st0" d="M90.79,95.92C90.79,95.91,90.79,95.91,90.79,95.92l14.19,14.18c0,0,0,0.01,0,0.01H90.8
					c-0.01,0-0.01,0-0.01-0.01V95.92z"/>
			</g>
		</g>
		<g>
			<g>
				<path class="st3" d="M128.74,95.9c-0.01,0-0.01,0-0.01,0.01v59.69c0,0.01,0,0.01,0.01,0.01h46.25c0.01,0,0.01,0,0.01-0.01
					v-45.45c0-0.01,0-0.01-0.01-0.01h-14.22c-0.01,0-0.01,0-0.01-0.01V95.91c0-0.01,0-0.01-0.01-0.01H128.74z"/>
			</g>
			<g>
				<path class="st0" d="M160.79,95.92C160.79,95.91,160.79,95.91,160.79,95.92l14.19,14.18c0,0,0,0.01,0,0.01H160.8
					c-0.01,0-0.01,0-0.01-0.01V95.92z"/>
			</g>
		</g>
		<g>
			<g>
				<path class="st3" d="M198.74,95.9c-0.01,0-0.01,0-0.01,0.01v59.69c0,0.01,0,0.01,0.01,0.01h46.25c0.01,0,0.01,0,0.01-0.01
					v-45.45c0-0.01,0-0.01-0.01-0.01h-14.22c-0.01,0-0.01,0-0.01-0.01V95.91c0-0.01,0-0.01-0.01-0.01H198.74z"/>
			</g>
			<g>
				<path class="st0" d="M230.79,95.92C230.79,95.91,230.79,95.91,230.79,95.92l14.19,14.18c0,0,0,0.01,0,0.01H230.8
					c-0.01,0-0.01,0-0.01-0.01V95.92z"/>
			</g>
		</g>
		<g>
			<g>
				<path class="st3" d="M58.74,175.9c-0.01,0-0.01,0-0.01,0.01v59.69c0,0.01,0,0.01,0.01,0.01h46.25c0.01,0,0.01,0,0.01-0.01
					v-45.45c0-0.01,0-0.01-0.01-0.01H90.77c-0.01,0-0.01,0-0.01-0.01v-14.22c0-0.01,0-0.01-0.01-0.01H58.74z"/>
			</g>
			<g>
				<path class="st0" d="M90.79,175.92C90.79,175.91,90.79,175.91,90.79,175.92l14.19,14.18c0,0,0,0.01,0,0.01H90.8
					c-0.01,0-0.01,0-0.01-0.01V175.92z"/>
			</g>
		</g>
		<g>
			<g>
				<path class="st3" d="M128.74,175.9c-0.01,0-0.01,0-0.01,0.01v59.69c0,0.01,0,0.01,0.01,0.01h46.25c0.01,0,0.01,0,0.01-0.01
					v-45.45c0-0.01,0-0.01-0.01-0.01h-14.22c-0.01,0-0.01,0-0.01-0.01v-14.22c0-0.01,0-0.01-0.01-0.01H128.74z"/>
			</g>
			<g>
				<path class="st0" d="M160.79,175.92C160.79,175.91,160.79,175.91,160.79,175.92l14.19,14.18c0,0,0,0.01,0,0.01H160.8
					c-0.01,0-0.01,0-0.01-0.01V175.92z"/>
			</g>
		</g>
		<g>
			<g>
				<path class="st3" d="M198.74,175.9c-0.01,0-0.01,0-0.01,0.01v59.69c0,0.01,0,0.01,0.01,0.01h46.25c0.01,0,0.01,0,0.01-0.01
					v-45.45c0-0.01,0-0.01-0.01-0.01h-14.22c-0.01,0-0.01,0-0.01-0.01v-14.22c0-0.01,0-0.01-0.01-0.01H198.74z"/>
			</g>
			<g>
				<path class="st0" d="M230.79,175.92C230.79,175.91,230.79,175.91,230.79,175.92l14.19,14.18c0,0,0,0.01,0,0.01H230.8
					c-0.01,0-0.01,0-0.01-0.01V175.92z"/>
			</g>
		</g>
	</g>
</g>
<g id="Layer_2">
</g>
<g id="Layer_3">
</g>
</svg>
