<?xml version="1.0" encoding="utf-8"?>
<!-- Generator: Adobe Illustrator 24.2.0, SVG Export Plug-In . SVG Version: 6.00 Build 0)  -->
<svg version="1.1" xmlns="http://www.w3.org/2000/svg" xmlns:xlink="http://www.w3.org/1999/xlink" x="0px" y="0px"
	 viewBox="0 0 300 300" style="enable-background:new 0 0 300 300;" xml:space="preserve">
<style type="text/css">
	.st0{fill:#D6D6D6;}
	.st1{fill:#FFFFFF;}
	.st2{fill:#F6F6F6;}
	.st3{fill:#999999;}
	.st4{fill:#D5D5D5;}
</style>
<g id="Layer_1">
	<g>
		<path class="st0" d="M276.8,289.62H25.95c-7.77,0-14.07-6.3-14.07-14.07V24.7c0-7.77,6.3-14.07,14.07-14.07H276.8
			c7.77,0,14.07,6.3,14.07,14.07v250.86C290.88,283.33,284.58,289.62,276.8,289.62z"/>
		<g>
			<circle class="st1" cx="39.75" cy="36.25" r="8"/>
			<circle class="st1" cx="70.86" cy="36.25" r="8"/>
			<circle class="st1" cx="101.97" cy="36.25" r="8"/>
		</g>
	</g>
	<path class="st2" d="M266.21,271.5H37.79c-2.99,0-5.41-2.42-5.41-5.41V67.91c0-2.99,2.42-5.41,5.41-5.41h228.42
		c2.99,0,5.41,2.42,5.41,5.41v198.17C271.62,269.08,269.2,271.5,266.21,271.5z"/>
	<path class="st3" d="M249,95.64l0,142.72c0,0.91-0.73,1.64-1.64,1.64H56.84c-0.91,0-1.64-0.73-1.64-1.64l0-142.72
		c0-0.91,0.73-1.64,1.64-1.64l190.52,0C248.27,94,249,94.73,249,95.64z"/>
	<g>
		<path class="st0" d="M93.46,230c1.1,0,2.9,0,4,0H238c1.1,0,2-0.9,2-2v-23.16c0-1.1-0.63-2.64-1.4-3.43l-49.23-49.99
			c-0.77-0.78-2.03-0.78-2.81,0l-31.52,32.01c-0.77,0.78-2.03,0.78-2.81,0l-17.79-18.07c-0.77-0.78-2.03-0.78-2.81,0l-62.24,63.2
			c-0.77,0.78-0.5,1.43,0.6,1.43H93.46z"/>
	</g>
	<circle class="st2" cx="100.5" cy="125.5" r="16.5"/>
</g>
<g id="Layer_2">
</g>
</svg>
