<?xml version="1.0" encoding="utf-8"?>
<!-- Generator: Adobe Illustrator 24.2.0, SVG Export Plug-In . SVG Version: 6.00 Build 0)  -->
<svg version="1.1" xmlns="http://www.w3.org/2000/svg" xmlns:xlink="http://www.w3.org/1999/xlink" x="0px" y="0px"
	 viewBox="0 0 300 300" style="enable-background:new 0 0 300 300;" xml:space="preserve">
<style type="text/css">
	.st0{fill:#D6D6D6;}
	.st1{fill:#FFFFFF;}
	.st2{fill:#F6F6F6;}
	.st3{fill:#999999;}
	.st4{fill:#D5D5D5;}
</style>
<g id="Layer_1">
	<g>
		<path class="st0" d="M276.8,289.62H25.95c-7.77,0-14.07-6.3-14.07-14.07V24.7c0-7.77,6.3-14.07,14.07-14.07H276.8
			c7.77,0,14.07,6.3,14.07,14.07v250.86C290.88,283.33,284.58,289.62,276.8,289.62z"/>
		<g>
			<circle class="st1" cx="39.75" cy="36.25" r="8"/>
			<circle class="st1" cx="70.86" cy="36.25" r="8"/>
			<circle class="st1" cx="101.97" cy="36.25" r="8"/>
		</g>
	</g>
	<path class="st2" d="M266.21,271.5H37.79c-2.99,0-5.41-2.42-5.41-5.41V67.91c0-2.99,2.42-5.41,5.41-5.41h228.42
		c2.99,0,5.41,2.42,5.41,5.41v198.17C271.62,269.08,269.2,271.5,266.21,271.5z"/>
	<g>
		<path class="st0" d="M98.01,156H61.42c-1.85,0-3.35-1.5-3.35-3.35l0,0c0-1.85,1.5-3.35,3.35-3.35h36.59c1.85,0,3.35,1.5,3.35,3.35
			l0,0C101.36,154.5,99.86,156,98.01,156z"/>
		<g>
			<path class="st3" d="M112.2,99.64l0,37.44c0,0.91-0.73,1.64-1.64,1.64H59.79c-0.91,0-1.64-0.73-1.64-1.64l0-37.44
				c0-0.91,0.73-1.64,1.64-1.64l50.77,0C111.46,98,112.2,98.73,112.2,99.64z"/>
			<g>
				<path class="st0" d="M67.38,135.93c1.1,0,2.9,0,4,0h36.31c1.1,0,2-0.9,2-2v-3.57c0-1.1-0.63-2.64-1.4-3.43l-11.71-11.89
					c-0.77-0.78-2.03-0.78-2.81,0l-6.77,6.87c-0.77,0.78-2.03,0.78-2.81,0l-2.94-2.98c-0.77-0.78-2.03-0.78-2.81,0L63.12,134.5
					c-0.77,0.78-0.5,1.43,0.6,1.43H67.38z"/>
			</g>
			<circle class="st2" cx="70.78" cy="106.79" r="4.6"/>
		</g>
		<path class="st0" d="M164.71,156h-36.59c-1.85,0-3.35-1.5-3.35-3.35l0,0c0-1.85,1.5-3.35,3.35-3.35h36.59
			c1.85,0,3.35,1.5,3.35,3.35l0,0C168.05,154.5,166.55,156,164.71,156z"/>
		<g>
			<path class="st3" d="M178.89,99.64l0,37.44c0,0.91-0.73,1.64-1.64,1.64h-50.77c-0.91,0-1.64-0.73-1.64-1.64l0-37.44
				c0-0.91,0.73-1.64,1.64-1.64l50.77,0C178.16,98,178.89,98.73,178.89,99.64z"/>
			<g>
				<path class="st0" d="M134.07,135.93c1.1,0,2.9,0,4,0h36.31c1.1,0,2-0.9,2-2v-3.57c0-1.1-0.63-2.64-1.4-3.43l-11.71-11.89
					c-0.77-0.78-2.03-0.78-2.81,0l-6.77,6.87c-0.77,0.78-2.03,0.78-2.81,0l-2.94-2.98c-0.77-0.78-2.03-0.78-2.81,0l-15.33,15.57
					c-0.77,0.78-0.5,1.43,0.6,1.43H134.07z"/>
			</g>
			<circle class="st2" cx="137.48" cy="106.79" r="4.6"/>
		</g>
		<path class="st0" d="M231.4,156h-36.59c-1.85,0-3.35-1.5-3.35-3.35l0,0c0-1.85,1.5-3.35,3.35-3.35h36.59
			c1.85,0,3.35,1.5,3.35,3.35l0,0C234.74,154.5,233.25,156,231.4,156z"/>
		<g>
			<path class="st3" d="M245.58,99.64l0,37.44c0,0.91-0.73,1.64-1.64,1.64h-50.77c-0.91,0-1.64-0.73-1.64-1.64l0-37.44
				c0-0.91,0.73-1.64,1.64-1.64l50.77,0C244.85,98,245.58,98.73,245.58,99.64z"/>
			<g>
				<path class="st0" d="M200.76,135.93c1.1,0,2.9,0,4,0h36.31c1.1,0,2-0.9,2-2v-3.57c0-1.1-0.63-2.64-1.4-3.43l-11.71-11.89
					c-0.77-0.78-2.03-0.78-2.81,0l-6.77,6.87c-0.77,0.78-2.03,0.78-2.81,0l-2.94-2.98c-0.77-0.78-2.03-0.78-2.81,0l-15.33,15.57
					c-0.77,0.78-0.5,1.43,0.6,1.43H200.76z"/>
			</g>
			<circle class="st2" cx="204.17" cy="106.79" r="4.6"/>
		</g>
		<path class="st0" d="M98.01,236H61.42c-1.85,0-3.35-1.5-3.35-3.35l0,0c0-1.85,1.5-3.35,3.35-3.35h36.59c1.85,0,3.35,1.5,3.35,3.35
			l0,0C101.36,234.5,99.86,236,98.01,236z"/>
		<g>
			<path class="st3" d="M112.2,179.64l0,37.44c0,0.91-0.73,1.64-1.64,1.64H59.79c-0.91,0-1.64-0.73-1.64-1.64l0-37.44
				c0-0.91,0.73-1.64,1.64-1.64h50.77C111.46,178,112.2,178.73,112.2,179.64z"/>
			<g>
				<path class="st0" d="M67.38,215.93c1.1,0,2.9,0,4,0h36.31c1.1,0,2-0.9,2-2v-3.57c0-1.1-0.63-2.64-1.4-3.43l-11.71-11.89
					c-0.77-0.78-2.03-0.78-2.81,0l-6.77,6.87c-0.77,0.78-2.03,0.78-2.81,0l-2.94-2.98c-0.77-0.78-2.03-0.78-2.81,0L63.12,214.5
					c-0.77,0.78-0.5,1.43,0.6,1.43H67.38z"/>
			</g>
			<circle class="st2" cx="70.78" cy="186.79" r="4.6"/>
		</g>
		<path class="st0" d="M164.71,236h-36.59c-1.85,0-3.35-1.5-3.35-3.35l0,0c0-1.85,1.5-3.35,3.35-3.35h36.59
			c1.85,0,3.35,1.5,3.35,3.35l0,0C168.05,234.5,166.55,236,164.71,236z"/>
		<g>
			<path class="st3" d="M178.89,179.64l0,37.44c0,0.91-0.73,1.64-1.64,1.64h-50.77c-0.91,0-1.64-0.73-1.64-1.64l0-37.44
				c0-0.91,0.73-1.64,1.64-1.64h50.77C178.16,178,178.89,178.73,178.89,179.64z"/>
			<g>
				<path class="st0" d="M134.07,215.93c1.1,0,2.9,0,4,0h36.31c1.1,0,2-0.9,2-2v-3.57c0-1.1-0.63-2.64-1.4-3.43l-11.71-11.89
					c-0.77-0.78-2.03-0.78-2.81,0l-6.77,6.87c-0.77,0.78-2.03,0.78-2.81,0l-2.94-2.98c-0.77-0.78-2.03-0.78-2.81,0l-15.33,15.57
					c-0.77,0.78-0.5,1.43,0.6,1.43H134.07z"/>
			</g>
			<circle class="st2" cx="137.48" cy="186.79" r="4.6"/>
		</g>
		<path class="st0" d="M231.4,236h-36.59c-1.85,0-3.35-1.5-3.35-3.35l0,0c0-1.85,1.5-3.35,3.35-3.35h36.59
			c1.85,0,3.35,1.5,3.35,3.35l0,0C234.74,234.5,233.25,236,231.4,236z"/>
		<g>
			<path class="st3" d="M245.58,179.64l0,37.44c0,0.91-0.73,1.64-1.64,1.64h-50.77c-0.91,0-1.64-0.73-1.64-1.64l0-37.44
				c0-0.91,0.73-1.64,1.64-1.64h50.77C244.85,178,245.58,178.73,245.58,179.64z"/>
			<g>
				<path class="st0" d="M200.76,215.93c1.1,0,2.9,0,4,0h36.31c1.1,0,2-0.9,2-2v-3.57c0-1.1-0.63-2.64-1.4-3.43l-11.71-11.89
					c-0.77-0.78-2.03-0.78-2.81,0l-6.77,6.87c-0.77,0.78-2.03,0.78-2.81,0l-2.94-2.98c-0.77-0.78-2.03-0.78-2.81,0l-15.33,15.57
					c-0.77,0.78-0.5,1.43,0.6,1.43H200.76z"/>
			</g>
			<circle class="st2" cx="204.17" cy="186.79" r="4.6"/>
		</g>
	</g>
</g>
<g id="Layer_2">
</g>
</svg>
