<?xml version="1.0" encoding="utf-8"?>
<!-- Generator: Adobe Illustrator 24.2.0, SVG Export Plug-In . SVG Version: 6.00 Build 0)  -->
<svg version="1.1" xmlns="http://www.w3.org/2000/svg" xmlns:xlink="http://www.w3.org/1999/xlink" x="0px" y="0px"
	 viewBox="0 0 300 300" style="enable-background:new 0 0 300 300;" xml:space="preserve">
<style type="text/css">
	.st0{fill:#D6D6D6;}
	.st1{fill:#FFFFFF;}
	.st2{fill:#F6F6F6;}
	.st3{fill:#999999;}
	.st4{fill:#D5D5D5;}
</style>
<g id="Layer_1">
	<g>
		<path class="st0" d="M276.8,289.62H25.95c-7.77,0-14.07-6.3-14.07-14.07V24.7c0-7.77,6.3-14.07,14.07-14.07H276.8
			c7.77,0,14.07,6.3,14.07,14.07v250.86C290.88,283.33,284.58,289.62,276.8,289.62z"/>
		<g>
			<circle class="st1" cx="39.75" cy="36.25" r="8"/>
			<circle class="st1" cx="70.86" cy="36.25" r="8"/>
			<circle class="st1" cx="101.97" cy="36.25" r="8"/>
		</g>
	</g>
	<path class="st2" d="M266.21,271.5H37.79c-2.99,0-5.41-2.42-5.41-5.41V67.91c0-2.99,2.42-5.41,5.41-5.41h228.42
		c2.99,0,5.41,2.42,5.41,5.41v198.17C271.62,269.08,269.2,271.5,266.21,271.5z"/>
	<g>
		<g>
			<path class="st3" d="M115.59,92.78l0,41.46c0,0.91-0.73,1.64-1.64,1.64l-53.71,0c-0.91,0-1.64-0.73-1.64-1.64l0-41.46
				c0-0.91,0.73-1.64,1.64-1.64h53.71C114.85,91.14,115.59,91.88,115.59,92.78z"/>
			<g>
				<path class="st0" d="M80.72,115.51c0-1.1,0-2.9,0-4v-3.7c0-1.1,0.78-1.55,1.73-1l3.2,1.85c0.95,0.55,2.51,1.45,3.46,2l3.2,1.85
					c0.95,0.55,0.95,1.45,0,2l-3.2,1.85c-0.95,0.55-2.51,1.45-3.46,2l-3.2,1.85c-0.95,0.55-1.73,0.1-1.73-1V115.51z"/>
			</g>
		</g>
		<g>
			<path class="st3" d="M180.79,92.78l0,41.46c0,0.91-0.73,1.64-1.64,1.64l-53.71,0c-0.91,0-1.64-0.73-1.64-1.64l0-41.46
				c0-0.91,0.73-1.64,1.64-1.64h53.71C180.06,91.14,180.79,91.88,180.79,92.78z"/>
			<g>
				<path class="st0" d="M145.93,115.51c0-1.1,0-2.9,0-4v-3.7c0-1.1,0.78-1.55,1.73-1l3.2,1.85c0.95,0.55,2.51,1.45,3.46,2l3.2,1.85
					c0.95,0.55,0.95,1.45,0,2l-3.2,1.85c-0.95,0.55-2.51,1.45-3.46,2l-3.2,1.85c-0.95,0.55-1.73,0.1-1.73-1V115.51z"/>
			</g>
		</g>
		<g>
			<path class="st3" d="M246,92.78l0,41.46c0,0.91-0.73,1.64-1.64,1.64l-53.71,0c-0.91,0-1.64-0.73-1.64-1.64l0-41.46
				c0-0.91,0.73-1.64,1.64-1.64h53.71C245.27,91.14,246,91.88,246,92.78z"/>
			<g>
				<path class="st0" d="M211.14,115.51c0-1.1,0-2.9,0-4v-3.7c0-1.1,0.78-1.55,1.73-1l3.2,1.85c0.95,0.55,2.51,1.45,3.46,2l3.2,1.85
					c0.95,0.55,0.95,1.45,0,2l-3.2,1.85c-0.95,0.55-2.51,1.45-3.46,2l-3.2,1.85c-0.95,0.55-1.73,0.1-1.73-1V115.51z"/>
			</g>
		</g>
		<g>
			<path class="st3" d="M115.59,145.34l0,41.46c0,0.91-0.73,1.64-1.64,1.64l-53.71,0c-0.91,0-1.64-0.73-1.64-1.64l0-41.46
				c0-0.91,0.73-1.64,1.64-1.64l53.71,0C114.85,143.7,115.59,144.43,115.59,145.34z"/>
			<g>
				<path class="st0" d="M80.72,168.07c0-1.1,0-2.9,0-4v-3.7c0-1.1,0.78-1.55,1.73-1l3.2,1.85c0.95,0.55,2.51,1.45,3.46,2l3.2,1.85
					c0.95,0.55,0.95,1.45,0,2l-3.2,1.85c-0.95,0.55-2.51,1.45-3.46,2l-3.2,1.85c-0.95,0.55-1.73,0.1-1.73-1V168.07z"/>
			</g>
		</g>
		<g>
			<path class="st3" d="M180.79,145.34l0,41.46c0,0.91-0.73,1.64-1.64,1.64l-53.71,0c-0.91,0-1.64-0.73-1.64-1.64l0-41.46
				c0-0.91,0.73-1.64,1.64-1.64l53.71,0C180.06,143.7,180.79,144.43,180.79,145.34z"/>
			<g>
				<path class="st0" d="M145.93,168.07c0-1.1,0-2.9,0-4v-3.7c0-1.1,0.78-1.55,1.73-1l3.2,1.85c0.95,0.55,2.51,1.45,3.46,2l3.2,1.85
					c0.95,0.55,0.95,1.45,0,2l-3.2,1.85c-0.95,0.55-2.51,1.45-3.46,2l-3.2,1.85c-0.95,0.55-1.73,0.1-1.73-1V168.07z"/>
			</g>
		</g>
		<g>
			<path class="st3" d="M246,145.34l0,41.46c0,0.91-0.73,1.64-1.64,1.64l-53.71,0c-0.91,0-1.64-0.73-1.64-1.64l0-41.46
				c0-0.91,0.73-1.64,1.64-1.64l53.71,0C245.27,143.7,246,144.43,246,145.34z"/>
			<g>
				<path class="st0" d="M211.14,168.07c0-1.1,0-2.9,0-4v-3.7c0-1.1,0.78-1.55,1.73-1l3.2,1.85c0.95,0.55,2.51,1.45,3.46,2l3.2,1.85
					c0.95,0.55,0.95,1.45,0,2l-3.2,1.85c-0.95,0.55-2.51,1.45-3.46,2l-3.2,1.85c-0.95,0.55-1.73,0.1-1.73-1V168.07z"/>
			</g>
		</g>
		<g>
			<path class="st3" d="M115.59,197.89l0,41.46c0,0.91-0.73,1.64-1.64,1.64H60.24c-0.91,0-1.64-0.73-1.64-1.64l0-41.46
				c0-0.91,0.73-1.64,1.64-1.64h53.71C114.85,196.25,115.59,196.99,115.59,197.89z"/>
			<g>
				<path class="st0" d="M80.72,220.62c0-1.1,0-2.9,0-4v-3.7c0-1.1,0.78-1.55,1.73-1l3.2,1.85c0.95,0.55,2.51,1.45,3.46,2l3.2,1.85
					c0.95,0.55,0.95,1.45,0,2l-3.2,1.85c-0.95,0.55-2.51,1.45-3.46,2l-3.2,1.85c-0.95,0.55-1.73,0.1-1.73-1V220.62z"/>
			</g>
		</g>
		<g>
			<path class="st3" d="M180.79,197.89l0,41.46c0,0.91-0.73,1.64-1.64,1.64h-53.71c-0.91,0-1.64-0.73-1.64-1.64l0-41.46
				c0-0.91,0.73-1.64,1.64-1.64h53.71C180.06,196.25,180.79,196.99,180.79,197.89z"/>
			<g>
				<path class="st0" d="M145.93,220.62c0-1.1,0-2.9,0-4v-3.7c0-1.1,0.78-1.55,1.73-1l3.2,1.85c0.95,0.55,2.51,1.45,3.46,2l3.2,1.85
					c0.95,0.55,0.95,1.45,0,2l-3.2,1.85c-0.95,0.55-2.51,1.45-3.46,2l-3.2,1.85c-0.95,0.55-1.73,0.1-1.73-1V220.62z"/>
			</g>
		</g>
		<g>
			<path class="st3" d="M246,197.89l0,41.46c0,0.91-0.73,1.64-1.64,1.64h-53.71c-0.91,0-1.64-0.73-1.64-1.64l0-41.46
				c0-0.91,0.73-1.64,1.64-1.64h53.71C245.27,196.25,246,196.99,246,197.89z"/>
			<g>
				<path class="st0" d="M211.14,220.62c0-1.1,0-2.9,0-4v-3.7c0-1.1,0.78-1.55,1.73-1l3.2,1.85c0.95,0.55,2.51,1.45,3.46,2l3.2,1.85
					c0.95,0.55,0.95,1.45,0,2l-3.2,1.85c-0.95,0.55-2.51,1.45-3.46,2l-3.2,1.85c-0.95,0.55-1.73,0.1-1.73-1V220.62z"/>
			</g>
		</g>
	</g>
</g>
<g id="Layer_2">
</g>
</svg>
