<?xml version="1.0" encoding="utf-8"?>
<!-- Generator: Adobe Illustrator 24.2.0, SVG Export Plug-In . SVG Version: 6.00 Build 0)  -->
<svg version="1.1" xmlns="http://www.w3.org/2000/svg" xmlns:xlink="http://www.w3.org/1999/xlink" x="0px" y="0px"
	 viewBox="0 0 300 300" style="enable-background:new 0 0 300 300;" xml:space="preserve">
<style type="text/css">
	.st0{fill:#D6D6D6;}
	.st1{fill:#FFFFFF;}
	.st2{fill:#F6F6F6;}
	.st3{fill:#999999;}
	.st4{fill:#D5D5D5;}
</style>
<g id="Layer_1">
	<g>
		<path class="st0" d="M276.8,289.62H25.95c-7.77,0-14.07-6.3-14.07-14.07V24.7c0-7.77,6.3-14.07,14.07-14.07H276.8
			c7.77,0,14.07,6.3,14.07,14.07v250.86C290.88,283.33,284.58,289.62,276.8,289.62z"/>
		<g>
			<circle class="st1" cx="39.75" cy="36.25" r="8"/>
			<circle class="st1" cx="70.86" cy="36.25" r="8"/>
			<circle class="st1" cx="101.97" cy="36.25" r="8"/>
		</g>
	</g>
	<path class="st2" d="M266.21,271.5H37.79c-2.99,0-5.41-2.42-5.41-5.41V67.91c0-2.99,2.42-5.41,5.41-5.41h228.42
		c2.99,0,5.41,2.42,5.41,5.41v198.17C271.62,269.08,269.2,271.5,266.21,271.5z"/>
	<g>
		<g>
			<path class="st3" d="M146,92.78l0,65.33c0,0.91-0.73,1.64-1.64,1.64H60.24c-0.91,0-1.64-0.73-1.64-1.64l0-65.33
				c0-0.91,0.73-1.64,1.64-1.64h84.12C145.26,91.14,146,91.88,146,92.78z"/>
			<g>
				<path class="st0" d="M92.53,129.45c0-2.2,0-5.8,0-8v-3.81c0-2.2,1.56-3.1,3.46-2l3.3,1.9c1.91,1.1,5.02,2.9,6.93,4l3.3,1.9
					c1.91,1.1,1.91,2.9,0,4l-3.3,1.9c-1.91,1.1-5.02,2.9-6.93,4l-3.3,1.9c-1.91,1.1-3.46,0.2-3.46-2V129.45z"/>
			</g>
		</g>
		<g>
			<path class="st3" d="M246,92.78l0,65.33c0,0.91-0.73,1.64-1.64,1.64h-84.12c-0.91,0-1.64-0.73-1.64-1.64l0-65.33
				c0-0.91,0.73-1.64,1.64-1.64h84.12C245.27,91.14,246,91.88,246,92.78z"/>
			<g>
				<path class="st0" d="M192.54,129.45c0-2.2,0-5.8,0-8v-3.81c0-2.2,1.56-3.1,3.46-2l3.3,1.9c1.91,1.1,5.02,2.9,6.93,4l3.3,1.9
					c1.91,1.1,1.91,2.9,0,4l-3.3,1.9c-1.91,1.1-5.02,2.9-6.93,4l-3.3,1.9c-1.91,1.1-3.46,0.2-3.46-2V129.45z"/>
			</g>
		</g>
		<g>
			<path class="st3" d="M146,173.22l0,65.33c0,0.91-0.73,1.64-1.64,1.64l-84.12,0c-0.91,0-1.64-0.73-1.64-1.64l0-65.33
				c0-0.91,0.73-1.64,1.64-1.64h84.12C145.26,171.58,146,172.32,146,173.22z"/>
			<g>
				<path class="st0" d="M92.53,209.89c0-2.2,0-5.8,0-8v-3.81c0-2.2,1.56-3.1,3.46-2l3.3,1.9c1.91,1.1,5.02,2.9,6.93,4l3.3,1.9
					c1.91,1.1,1.91,2.9,0,4l-3.3,1.9c-1.91,1.1-5.02,2.9-6.93,4l-3.3,1.9c-1.91,1.1-3.46,0.2-3.46-2V209.89z"/>
			</g>
		</g>
		<g>
			<path class="st3" d="M246,173.22l0,65.33c0,0.91-0.73,1.64-1.64,1.64l-84.12,0c-0.91,0-1.64-0.73-1.64-1.64l0-65.33
				c0-0.91,0.73-1.64,1.64-1.64h84.12C245.27,171.58,246,172.32,246,173.22z"/>
			<g>
				<path class="st0" d="M192.54,209.89c0-2.2,0-5.8,0-8v-3.81c0-2.2,1.56-3.1,3.46-2l3.3,1.9c1.91,1.1,5.02,2.9,6.93,4l3.3,1.9
					c1.91,1.1,1.91,2.9,0,4l-3.3,1.9c-1.91,1.1-5.02,2.9-6.93,4l-3.3,1.9c-1.91,1.1-3.46,0.2-3.46-2V209.89z"/>
			</g>
		</g>
	</g>
</g>
<g id="Layer_2">
</g>
</svg>
