<?xml version="1.0" encoding="utf-8"?>
<!-- Generator: Adobe Illustrator 24.2.0, SVG Export Plug-In . SVG Version: 6.00 Build 0)  -->
<svg version="1.1" xmlns="http://www.w3.org/2000/svg" xmlns:xlink="http://www.w3.org/1999/xlink" x="0px" y="0px"
	 viewBox="0 0 300 300" style="enable-background:new 0 0 300 300;" xml:space="preserve">
<style type="text/css">
	.st0{fill:#D6D6D6;}
	.st1{fill:#FFFFFF;}
	.st2{fill:#F6F6F6;}
	.st3{fill:#999999;}
	.st4{fill:#D5D5D5;}
	.st5{fill:#F4F4F4;}
</style>
<g id="Layer_1">
	<g>
		<path class="st0" d="M276.8,289.62H25.95c-7.77,0-14.07-6.3-14.07-14.07V24.7c0-7.77,6.3-14.07,14.07-14.07H276.8
			c7.77,0,14.07,6.3,14.07,14.07v250.86C290.88,283.33,284.58,289.62,276.8,289.62z"/>
		<g>
			<circle class="st1" cx="39.75" cy="36.25" r="8"/>
			<circle class="st1" cx="70.86" cy="36.25" r="8"/>
			<circle class="st1" cx="101.97" cy="36.25" r="8"/>
		</g>
	</g>
	<path class="st2" d="M266.21,271.5H37.79c-2.99,0-5.41-2.42-5.41-5.41V67.91c0-2.99,2.42-5.41,5.41-5.41h228.42
		c2.99,0,5.41,2.42,5.41,5.41v198.17C271.62,269.08,269.2,271.5,266.21,271.5z"/>
	<g>
		<g>
			<g>
				<path class="st3" d="M96,92.97c-1.1,0-2,0.9-2,2v143.16c0,1.1,0.9,2,2,2h110.03c1.1,0,2-0.9,2-2V130.06c0-1.1-0.9-2-2-2h-31.08
					c-1.1,0-2-0.9-2-2V94.97c0-1.1-0.9-2-2-2H96z"/>
			</g>
			<g>
				<path class="st0" d="M170.99,94c0-1.1,0.64-1.36,1.41-0.59l35.18,35.18c0.78,0.78,0.51,1.41-0.59,1.41h-34.01c-1.1,0-2-0.9-2-2
					V94z"/>
			</g>
		</g>
		<g>
			<path class="st5" d="M144.09,154.37H117.2c-1.8,0-3.26-1.46-3.26-3.26v0c0-1.8,1.46-3.26,3.26-3.26h26.89
				c1.8,0,3.26,1.46,3.26,3.26v0C147.35,152.91,145.89,154.37,144.09,154.37z"/>
			<path class="st0" d="M183.32,173.86H117.2c-1.8,0-3.26-1.46-3.26-3.26l0,0c0-1.8,1.46-3.26,3.26-3.26h66.12
				c1.8,0,3.26,1.46,3.26,3.26l0,0C186.58,172.4,185.12,173.86,183.32,173.86z"/>
			<path class="st0" d="M183.32,193.36H117.2c-1.8,0-3.26-1.46-3.26-3.26v0c0-1.8,1.46-3.26,3.26-3.26h66.12
				c1.8,0,3.26,1.46,3.26,3.26v0C186.58,191.9,185.12,193.36,183.32,193.36z"/>
			<path class="st0" d="M183.32,212.85H117.2c-1.8,0-3.26-1.46-3.26-3.26v0c0-1.8,1.46-3.26,3.26-3.26h66.12
				c1.8,0,3.26,1.46,3.26,3.26v0C186.58,211.39,185.12,212.85,183.32,212.85z"/>
		</g>
	</g>
</g>
<g id="Layer_2">
</g>
<g id="Layer_3">
</g>
</svg>
