<?xml version="1.0" encoding="utf-8"?>
<!-- Generator: Adobe Illustrator 24.2.0, SVG Export Plug-In . SVG Version: 6.00 Build 0)  -->
<svg version="1.1" xmlns="http://www.w3.org/2000/svg" xmlns:xlink="http://www.w3.org/1999/xlink" x="0px" y="0px"
	 viewBox="0 0 300 300" style="enable-background:new 0 0 300 300;" xml:space="preserve">
<style type="text/css">
	.st0{fill:#D6D6D6;}
	.st1{fill:#FFFFFF;}
	.st2{fill:#F6F6F6;}
	.st3{fill:#999999;}
	.st4{fill:#D5D5D5;}
</style>
<g id="Layer_1">
	<g>
		<path class="st0" d="M276.8,289.62H25.95c-7.77,0-14.07-6.3-14.07-14.07V24.7c0-7.77,6.3-14.07,14.07-14.07H276.8
			c7.77,0,14.07,6.3,14.07,14.07v250.86C290.88,283.33,284.58,289.62,276.8,289.62z"/>
		<g>
			<circle class="st1" cx="39.75" cy="36.25" r="8"/>
			<circle class="st1" cx="70.86" cy="36.25" r="8"/>
			<circle class="st1" cx="101.97" cy="36.25" r="8"/>
		</g>
	</g>
	<path class="st2" d="M266.21,271.5H37.79c-2.99,0-5.41-2.42-5.41-5.41V67.91c0-2.99,2.42-5.41,5.41-5.41h228.42
		c2.99,0,5.41,2.42,5.41,5.41v198.17C271.62,269.08,269.2,271.5,266.21,271.5z"/>
	<g>
		<path class="st3" d="M109.76,179.94H63.27c-2.87,0-5.2-2.33-5.2-5.2v-0.22c0-2.87,2.33-5.2,5.2-5.2h46.49c2.87,0,5.2,2.33,5.2,5.2
			v0.22C114.96,177.61,112.63,179.94,109.76,179.94z"/>
		<g>
			<path class="st3" d="M143.87,89.64l0,61.27c0,0.91-0.73,1.64-1.64,1.64h-82.4c-0.91,0-1.64-0.73-1.64-1.64l0-61.27
				c0-0.91,0.73-1.64,1.64-1.64l82.4,0C143.14,88,143.87,88.73,143.87,89.64z"/>
			<g>
				<path class="st0" d="M73.99,148.12c1.1,0,2.9,0,4,0h59.9c1.1,0,2-0.9,2-2v-8.01c0-1.1-0.63-2.64-1.4-3.43l-20.2-20.51
					c-0.77-0.78-2.03-0.78-2.81,0l-12.37,12.56c-0.77,0.78-2.03,0.78-2.81,0l-6.3-6.4c-0.77-0.78-2.03-0.78-2.81,0L65.26,146.7
					c-0.77,0.78-0.5,1.43,0.6,1.43H73.99z"/>
			</g>
			<circle class="st2" cx="78.22" cy="101.93" r="7.29"/>
		</g>
		<path class="st0" d="M134.82,212.34H63.27c-2.87,0-5.2-2.33-5.2-5.2v-0.22c0-2.87,2.33-5.2,5.2-5.2h71.55c2.87,0,5.2,2.33,5.2,5.2
			v0.22C140.01,210.02,137.69,212.34,134.82,212.34z"/>
		<path class="st0" d="M134.82,243.78H63.27c-2.87,0-5.2-2.33-5.2-5.2v-0.22c0-2.87,2.33-5.2,5.2-5.2h71.55c2.87,0,5.2,2.33,5.2,5.2
			v0.22C140.01,241.46,137.69,243.78,134.82,243.78z"/>
	</g>
	<g>
		<path class="st3" d="M211.89,179.94H165.4c-2.87,0-5.2-2.33-5.2-5.2v-0.22c0-2.87,2.33-5.2,5.2-5.2h46.49c2.87,0,5.2,2.33,5.2,5.2
			v0.22C217.09,177.61,214.76,179.94,211.89,179.94z"/>
		<g>
			<path class="st3" d="M246,89.64l0,61.27c0,0.91-0.73,1.64-1.64,1.64h-82.4c-0.91,0-1.64-0.73-1.64-1.64l0-61.27
				c0-0.91,0.73-1.64,1.64-1.64l82.4,0C245.27,88,246,88.73,246,89.64z"/>
			<g>
				<path class="st0" d="M176.12,148.12c1.1,0,2.9,0,4,0h59.9c1.1,0,2-0.9,2-2v-8.01c0-1.1-0.63-2.64-1.4-3.43l-20.2-20.51
					c-0.77-0.78-2.03-0.78-2.81,0l-12.37,12.56c-0.77,0.78-2.03,0.78-2.81,0l-6.3-6.4c-0.77-0.78-2.03-0.78-2.81,0l-25.95,26.35
					c-0.77,0.78-0.5,1.43,0.6,1.43H176.12z"/>
			</g>
			<circle class="st2" cx="180.35" cy="101.93" r="7.29"/>
		</g>
		<path class="st0" d="M236.94,212.34H165.4c-2.87,0-5.2-2.33-5.2-5.2v-0.22c0-2.87,2.33-5.2,5.2-5.2h71.55c2.87,0,5.2,2.33,5.2,5.2
			v0.22C242.14,210.02,239.81,212.34,236.94,212.34z"/>
		<path class="st0" d="M236.94,243.78H165.4c-2.87,0-5.2-2.33-5.2-5.2v-0.22c0-2.87,2.33-5.2,5.2-5.2h71.55c2.87,0,5.2,2.33,5.2,5.2
			v0.22C242.14,241.46,239.81,243.78,236.94,243.78z"/>
	</g>
</g>
<g id="Layer_2">
</g>
</svg>
