<?xml version="1.0" encoding="utf-8"?>
<!-- Generator: Adobe Illustrator 24.2.0, SVG Export Plug-In . SVG Version: 6.00 Build 0)  -->
<svg version="1.1" xmlns="http://www.w3.org/2000/svg" xmlns:xlink="http://www.w3.org/1999/xlink" x="0px" y="0px"
	 viewBox="0 0 300 300" style="enable-background:new 0 0 300 300;" xml:space="preserve">
<style type="text/css">
	.st0{fill:#D6D6D6;}
	.st1{fill:#FFFFFF;}
	.st2{fill:#F6F6F6;}
	.st3{fill:#999999;}
	.st4{fill:#D5D5D5;}
</style>
<g id="Layer_1">
	<g>
		<path class="st0" d="M276.8,289.62H25.95c-7.77,0-14.07-6.3-14.07-14.07V24.7c0-7.77,6.3-14.07,14.07-14.07H276.8
			c7.77,0,14.07,6.3,14.07,14.07v250.86C290.88,283.33,284.58,289.62,276.8,289.62z"/>
		<g>
			<circle class="st1" cx="39.75" cy="36.25" r="8"/>
			<circle class="st1" cx="70.86" cy="36.25" r="8"/>
			<circle class="st1" cx="101.97" cy="36.25" r="8"/>
		</g>
	</g>
	<path class="st2" d="M266.21,271.5H37.79c-2.99,0-5.41-2.42-5.41-5.41V67.91c0-2.99,2.42-5.41,5.41-5.41h228.42
		c2.99,0,5.41,2.42,5.41,5.41v198.17C271.62,269.08,269.2,271.5,266.21,271.5z"/>
	<g>
		<path class="st3" d="M134.06,96.49H62.36c-2.65,0-4.8-2.15-4.8-4.8v0c0-2.65,2.15-4.8,4.8-4.8h71.69c2.65,0,4.8,2.15,4.8,4.8v0
			C138.86,94.34,136.71,96.49,134.06,96.49z"/>
		<path class="st0" d="M222.74,184.49H62.36c-2.65,0-4.8-2.15-4.8-4.8v0c0-2.65,2.15-4.8,4.8-4.8h160.38c2.65,0,4.8,2.15,4.8,4.8v0
			C227.55,182.34,225.4,184.49,222.74,184.49z"/>
		<path class="st3" d="M246.61,116.85l0,39.51c0,0.91-0.73,1.64-1.64,1.64H59.85c-0.91,0-1.64-0.73-1.64-1.64l0-39.51
			c0-0.91,0.73-1.64,1.64-1.64h185.12C245.87,115.21,246.61,115.95,246.61,116.85z"/>
		<g>
			<path class="st0" d="M85.84,137v9.89c0,0.79-0.91,1.24-1.53,0.76l-6.23-4.74l-6.76-5.15c-0.5-0.38-0.5-1.14,0-1.52l6.76-5.15
				l6.23-4.74c0.63-0.48,1.53-0.03,1.53,0.76V137z"/>
			<path class="st0" d="M97,137v9.89c0,0.79-0.91,1.24-1.53,0.76l-6.23-4.74l-6.76-5.15c-0.5-0.38-0.5-1.14,0-1.52l6.76-5.15
				l6.23-4.74c0.63-0.48,1.53-0.03,1.53,0.76V137z"/>
		</g>
		<g>
			<g>
				<g>
					<path class="st0" d="M146.87,147.5c0,0.27-0.22,0.5-0.5,0.5h-3.89c-0.27,0-0.5-0.23-0.5-0.5v-21c0-0.28,0.23-0.5,0.5-0.5h3.89
						c0.28,0,0.5,0.22,0.5,0.5V147.5z"/>
				</g>
				<g>
					<path class="st0" d="M159.91,147.5c0,0.27-0.23,0.5-0.5,0.5h-3.89c-0.27,0-0.5-0.23-0.5-0.5v-21c0-0.28,0.23-0.5,0.5-0.5h3.89
						c0.27,0,0.5,0.22,0.5,0.5V147.5z"/>
				</g>
			</g>
		</g>
		<g>
			<path class="st0" d="M220.1,137v-9.89c0-0.79,0.91-1.24,1.53-0.76l6.23,4.74l6.76,5.15c0.5,0.38,0.5,1.14,0,1.52l-6.76,5.15
				l-6.23,4.74c-0.63,0.48-1.53,0.03-1.53-0.76V137z"/>
			<path class="st0" d="M208.93,137v-9.89c0-0.79,0.91-1.24,1.53-0.76l6.23,4.74l6.76,5.15c0.5,0.38,0.5,1.14,0,1.52l-6.76,5.15
				l-6.23,4.74c-0.63,0.48-1.53,0.03-1.53-0.76V137z"/>
		</g>
		<path class="st0" d="M187.91,214.49H62.36c-2.65,0-4.8-2.15-4.8-4.8v0c0-2.65,2.15-4.8,4.8-4.8h125.54c2.65,0,4.8,2.15,4.8,4.8v0
			C192.71,212.34,190.56,214.49,187.91,214.49z"/>
		<path class="st0" d="M211.58,244.49H62.36c-2.65,0-4.8-2.15-4.8-4.8v0c0-2.65,2.15-4.8,4.8-4.8h149.22c2.65,0,4.8,2.15,4.8,4.8v0
			C216.38,242.34,214.23,244.49,211.58,244.49z"/>
	</g>
</g>
<g id="Layer_2">
</g>
<g id="Layer_3">
</g>
</svg>
