<?xml version="1.0" encoding="utf-8"?>
<!-- Generator: Adobe Illustrator 24.2.0, SVG Export Plug-In . SVG Version: 6.00 Build 0)  -->
<svg version="1.1" xmlns="http://www.w3.org/2000/svg" xmlns:xlink="http://www.w3.org/1999/xlink" x="0px" y="0px"
	 viewBox="0 0 300 300" style="enable-background:new 0 0 300 300;" xml:space="preserve">
<style type="text/css">
	.st0{fill:#D6D6D6;}
	.st1{fill:#FFFFFF;}
	.st2{fill:#F6F6F6;}
	.st3{fill:#999999;}
	.st4{fill:#D5D5D5;}
</style>
<g id="Layer_1">
	<g>
		<path class="st0" d="M276.8,289.62H25.95c-7.77,0-14.07-6.3-14.07-14.07V24.7c0-7.77,6.3-14.07,14.07-14.07H276.8
			c7.77,0,14.07,6.3,14.07,14.07v250.86C290.88,283.33,284.58,289.62,276.8,289.62z"/>
		<g>
			<circle class="st1" cx="39.75" cy="36.25" r="8"/>
			<circle class="st1" cx="70.86" cy="36.25" r="8"/>
			<circle class="st1" cx="101.97" cy="36.25" r="8"/>
		</g>
	</g>
	<path class="st2" d="M266.21,271.5H37.79c-2.99,0-5.41-2.42-5.41-5.41V67.91c0-2.99,2.42-5.41,5.41-5.41h228.42
		c2.99,0,5.41,2.42,5.41,5.41v198.17C271.62,269.08,269.2,271.5,266.21,271.5z"/>
	<g>
		<path class="st0" d="M132.32,208.26H62.36c-2.65,0-4.8-2.15-4.8-4.8v-0.85c0-2.65,2.15-4.8,4.8-4.8h69.96c2.65,0,4.8,2.15,4.8,4.8
			v0.85C137.13,206.11,134.98,208.26,132.32,208.26z"/>
		<g>
			<g>
				<path class="st3" d="M58.85,90.9c-0.01,0-0.01,0-0.01,0.01v88.87c0,0.01,0,0.01,0.01,0.01h68.86c0.01,0,0.01,0,0.01-0.01v-67.68
					c0-0.01,0-0.01-0.01-0.01h-21.17c-0.01,0-0.01,0-0.01-0.01V90.91c0-0.01,0-0.01-0.01-0.01H58.85z"/>
			</g>
			<g>
				<path class="st0" d="M106.56,90.92C106.56,90.92,106.56,90.92,106.56,90.92l21.13,21.12c0,0,0,0.01,0,0.01h-21.12
					c-0.01,0-0.01,0-0.01-0.01V90.92z"/>
			</g>
		</g>
		<path class="st0" d="M118.21,240.92H62.36c-2.65,0-4.8-2.15-4.8-4.8v-0.85c0-2.65,2.15-4.8,4.8-4.8h55.84c2.65,0,4.8,2.15,4.8,4.8
			v0.85C123.01,238.77,120.86,240.92,118.21,240.92z"/>
	</g>
	<g>
		<path class="st0" d="M241.2,208.26h-69.96c-2.65,0-4.8-2.15-4.8-4.8v-0.85c0-2.65,2.15-4.8,4.8-4.8h69.96c2.65,0,4.8,2.15,4.8,4.8
			v0.85C246,206.11,243.85,208.26,241.2,208.26z"/>
		<g>
			<g>
				<path class="st3" d="M167.72,90.9c-0.01,0-0.01,0-0.01,0.01v88.87c0,0.01,0,0.01,0.01,0.01h68.86c0.01,0,0.01,0,0.01-0.01
					v-67.68c0-0.01,0-0.01-0.01-0.01H215.4c-0.01,0-0.01,0-0.01-0.01V90.91c0-0.01,0-0.01-0.01-0.01H167.72z"/>
			</g>
			<g>
				<path class="st0" d="M215.43,90.92C215.43,90.92,215.43,90.92,215.43,90.92l21.13,21.12c0,0,0,0.01,0,0.01h-21.12
					c-0.01,0-0.01,0-0.01-0.01V90.92z"/>
			</g>
		</g>
		<path class="st0" d="M227.08,240.92h-55.84c-2.65,0-4.8-2.15-4.8-4.8v-0.85c0-2.65,2.15-4.8,4.8-4.8h55.84
			c2.65,0,4.8,2.15,4.8,4.8v0.85C231.88,238.77,229.73,240.92,227.08,240.92z"/>
	</g>
</g>
<g id="Layer_2">
</g>
<g id="Layer_3">
</g>
</svg>
