<?xml version="1.0" encoding="utf-8"?>
<!-- Generator: Adobe Illustrator 24.2.0, SVG Export Plug-In . SVG Version: 6.00 Build 0)  -->
<svg version="1.1" xmlns="http://www.w3.org/2000/svg" xmlns:xlink="http://www.w3.org/1999/xlink" x="0px" y="0px"
	 viewBox="0 0 300 300" style="enable-background:new 0 0 300 300;" xml:space="preserve">
<style type="text/css">
	.st0{fill:#D6D6D6;}
	.st1{fill:#FFFFFF;}
	.st2{fill:#F6F6F6;}
	.st3{fill:#999999;}
	.st4{fill:#D5D5D5;}
</style>
<g id="Layer_1">
	<g>
		<path class="st0" d="M276.8,289.62H25.95c-7.77,0-14.07-6.3-14.07-14.07V24.7c0-7.77,6.3-14.07,14.07-14.07H276.8
			c7.77,0,14.07,6.3,14.07,14.07v250.86C290.88,283.33,284.58,289.62,276.8,289.62z"/>
		<g>
			<circle class="st1" cx="39.75" cy="36.25" r="8"/>
			<circle class="st1" cx="70.86" cy="36.25" r="8"/>
			<circle class="st1" cx="101.97" cy="36.25" r="8"/>
		</g>
	</g>
	<path class="st2" d="M266.21,271.5H37.79c-2.99,0-5.41-2.42-5.41-5.41V67.91c0-2.99,2.42-5.41,5.41-5.41h228.42
		c2.99,0,5.41,2.42,5.41,5.41v198.17C271.62,269.08,269.2,271.5,266.21,271.5z"/>
	<g>
		<path class="st3" d="M99,189.93H61.95c-1.85,0-3.35-1.5-3.35-3.35v-0.07c0-1.85,1.5-3.35,3.35-3.35H99c1.85,0,3.35,1.5,3.35,3.35
			v0.07C102.35,188.43,100.85,189.93,99,189.93z"/>
		<g>
			<path class="st3" d="M144.92,100.78l0,64.49c0,0.91-0.73,1.64-1.64,1.64H60.24c-0.91,0-1.64-0.73-1.64-1.64l0-64.49
				c0-0.91,0.73-1.64,1.64-1.64l83.04,0C144.19,99.14,144.92,99.88,144.92,100.78z"/>
			<g>
				<path class="st0" d="M92.11,135.03c0-1.1,0-2.9,0-4v-7.66c0-1.1,0.78-1.55,1.73-1l6.64,3.83c0.95,0.55,2.51,1.45,3.46,2
					l6.64,3.83c0.95,0.55,0.95,1.45,0,2l-6.64,3.83c-0.95,0.55-2.51,1.45-3.46,2l-6.64,3.83c-0.95,0.55-1.73,0.1-1.73-1V135.03z"/>
			</g>
		</g>
		<path class="st0" d="M126.89,210.14H61.95c-1.85,0-3.35-1.5-3.35-3.35v-0.07c0-1.85,1.5-3.35,3.35-3.35h64.94
			c1.85,0,3.35,1.5,3.35,3.35v0.07C130.23,208.64,128.74,210.14,126.89,210.14z"/>
		<path class="st0" d="M115.2,230.36H61.95c-1.85,0-3.35-1.5-3.35-3.35v-0.07c0-1.85,1.5-3.35,3.35-3.35h53.26
			c1.85,0,3.35,1.5,3.35,3.35v0.07C118.55,228.86,117.05,230.36,115.2,230.36z"/>
		<path class="st3" d="M200.08,189.93h-37.06c-1.85,0-3.35-1.5-3.35-3.35v-0.07c0-1.85,1.5-3.35,3.35-3.35h37.06
			c1.85,0,3.35,1.5,3.35,3.35v0.07C203.43,188.43,201.93,189.93,200.08,189.93z"/>
		<g>
			<path class="st3" d="M246,100.78l0,64.49c0,0.91-0.73,1.64-1.64,1.64h-83.04c-0.91,0-1.64-0.73-1.64-1.64l0-64.49
				c0-0.91,0.73-1.64,1.64-1.64l83.04,0C245.27,99.14,246,99.88,246,100.78z"/>
			<g>
				<path class="st0" d="M193.19,135.03c0-1.1,0-2.9,0-4v-7.66c0-1.1,0.78-1.55,1.73-1l6.64,3.83c0.95,0.55,2.51,1.45,3.46,2
					l6.64,3.83c0.95,0.55,0.95,1.45,0,2l-6.64,3.83c-0.95,0.55-2.51,1.45-3.46,2l-6.64,3.83c-0.95,0.55-1.73,0.1-1.73-1V135.03z"/>
			</g>
		</g>
		<path class="st0" d="M227.97,210.14h-64.94c-1.85,0-3.35-1.5-3.35-3.35v-0.07c0-1.85,1.5-3.35,3.35-3.35h64.94
			c1.85,0,3.35,1.5,3.35,3.35v0.07C231.31,208.64,229.81,210.14,227.97,210.14z"/>
		<path class="st0" d="M216.28,230.36h-53.26c-1.85,0-3.35-1.5-3.35-3.35v-0.07c0-1.85,1.5-3.35,3.35-3.35h53.26
			c1.85,0,3.35,1.5,3.35,3.35v0.07C219.63,228.86,218.13,230.36,216.28,230.36z"/>
	</g>
</g>
<g id="Layer_2">
</g>
<g id="Layer_3">
</g>
</svg>
