<?xml version="1.0" encoding="utf-8"?>
<!-- Generator: Adobe Illustrator 24.2.0, SVG Export Plug-In . SVG Version: 6.00 Build 0)  -->
<svg version="1.1" xmlns="http://www.w3.org/2000/svg" xmlns:xlink="http://www.w3.org/1999/xlink" x="0px" y="0px"
	 viewBox="0 0 300 300" style="enable-background:new 0 0 300 300;" xml:space="preserve">
<style type="text/css">
	.st0{fill:#D6D6D6;}
	.st1{fill:#FFFFFF;}
	.st2{fill:#F6F6F6;}
	.st3{fill:#999999;}
	.st4{fill:#D5D5D5;}
</style>
<g id="Layer_1">
	<g>
		<path class="st0" d="M276.8,289.62H25.95c-7.77,0-14.07-6.3-14.07-14.07V24.7c0-7.77,6.3-14.07,14.07-14.07H276.8
			c7.77,0,14.07,6.3,14.07,14.07v250.86C290.88,283.33,284.58,289.62,276.8,289.62z"/>
		<g>
			<circle class="st1" cx="39.75" cy="36.25" r="8"/>
			<circle class="st1" cx="70.86" cy="36.25" r="8"/>
			<circle class="st1" cx="101.97" cy="36.25" r="8"/>
		</g>
	</g>
	<path class="st2" d="M266.21,271.5H37.79c-2.99,0-5.41-2.42-5.41-5.41V67.91c0-2.99,2.42-5.41,5.41-5.41h228.42
		c2.99,0,5.41,2.42,5.41,5.41v198.17C271.62,269.08,269.2,271.5,266.21,271.5z"/>
	<path class="st3" d="M134.06,100.49H62.36c-2.65,0-4.8-2.15-4.8-4.8v0c0-2.65,2.15-4.8,4.8-4.8h71.69c2.65,0,4.8,2.15,4.8,4.8v0
		C138.86,98.34,136.71,100.49,134.06,100.49z"/>
	<path class="st0" d="M105.86,241.49h-43.5c-2.65,0-4.8-2.15-4.8-4.8v0c0-2.65,2.15-4.8,4.8-4.8h43.5c2.65,0,4.8,2.15,4.8,4.8v0
		C110.67,239.34,108.52,241.49,105.86,241.49z"/>
	<path class="st0" d="M168.32,241.49h-43.5c-2.65,0-4.8-2.15-4.8-4.8v0c0-2.65,2.15-4.8,4.8-4.8h43.5c2.65,0,4.8,2.15,4.8,4.8v0
		C173.13,239.34,170.97,241.49,168.32,241.49z"/>
	<path class="st3" d="M246.61,120.85l0,91.58c0,0.91-0.73,1.64-1.64,1.64H59.85c-0.91,0-1.64-0.73-1.64-1.64l0-91.58
		c0-0.91,0.73-1.64,1.64-1.64l185.12,0C245.87,119.21,246.61,119.95,246.61,120.85z"/>
	<path class="st0" d="M216.34,241.49h-29.07c-2.65,0-4.8-2.15-4.8-4.8l0,0c0-2.65,2.15-4.8,4.8-4.8h29.07c2.65,0,4.8,2.15,4.8,4.8
		l0,0C221.15,239.34,219,241.49,216.34,241.49z"/>
	<path class="st0" d="M233.99,203H71.45c-0.9,0-1.35-1.09-0.72-1.73l23.74-23.74c1.12-1.12,2.92-1.12,4.04,0l18.69,18.69
		c1.12,1.12,2.92,1.12,4.04,0L132,185.46c1.12-1.12,2.92-1.12,4.04,0l12.88,12.88c1.12,1.12,2.92,1.12,4.04,0l16.58-16.58
		c1.12-1.12,2.92-1.12,4.04,0l9.18,9.18c1.12,1.12,2.92,1.12,4.04,0l21.86-21.86c1.12-1.12,2.92-1.12,4.04,0l22,22
		c0.19,0.19,0.3,0.45,0.3,0.72V202C235,202.55,234.55,203,233.99,203z"/>
	<circle class="st2" cx="144.39" cy="160.6" r="12.4"/>
</g>
<g id="Layer_2">
</g>
<g id="Layer_3">
</g>
</svg>
