<?xml version="1.0" encoding="utf-8"?>
<!-- Generator: Adobe Illustrator 24.2.0, SVG Export Plug-In . SVG Version: 6.00 Build 0)  -->
<svg version="1.1" xmlns="http://www.w3.org/2000/svg" xmlns:xlink="http://www.w3.org/1999/xlink" x="0px" y="0px"
	 viewBox="0 0 300 300" style="enable-background:new 0 0 300 300;" xml:space="preserve">
<style type="text/css">
	.st0{fill:#D6D6D6;}
	.st1{fill:#FFFFFF;}
	.st2{fill:#F6F6F6;}
	.st3{fill:#999999;}
	.st4{fill:#D5D5D5;}
</style>
<g id="Layer_1">
	<g>
		<path class="st0" d="M276.8,289.62H25.95c-7.77,0-14.07-6.3-14.07-14.07V24.7c0-7.77,6.3-14.07,14.07-14.07H276.8
			c7.77,0,14.07,6.3,14.07,14.07v250.86C290.88,283.33,284.58,289.62,276.8,289.62z"/>
		<g>
			<circle class="st1" cx="39.75" cy="36.25" r="8"/>
			<circle class="st1" cx="70.86" cy="36.25" r="8"/>
			<circle class="st1" cx="101.97" cy="36.25" r="8"/>
		</g>
	</g>
	<path class="st2" d="M266.21,271.5H37.79c-2.99,0-5.41-2.42-5.41-5.41V67.91c0-2.99,2.42-5.41,5.41-5.41h228.42
		c2.99,0,5.41,2.42,5.41,5.41v198.17C271.62,269.08,269.2,271.5,266.21,271.5z"/>
	<g>
		<g>
			<path class="st3" d="M114.58,94.64l0,39.95c0,0.91-0.73,1.64-1.64,1.64l-54.11,0c-0.91,0-1.64-0.73-1.64-1.64l0-39.95
				c0-0.91,0.73-1.64,1.64-1.64l54.11,0C113.85,93,114.58,93.73,114.58,94.64z"/>
			<g>
				<path class="st0" d="M67.12,133.27c1.1,0,2.9,0,4,0h38.8c1.1,0,2-0.9,2-2v-4.04c0-1.1-0.63-2.64-1.4-3.43l-12.6-12.8
					c-0.77-0.78-2.03-0.78-2.81,0l-7.36,7.47c-0.77,0.78-2.03,0.78-2.81,0l-3.29-3.34c-0.77-0.78-2.03-0.78-2.81,0l-16.45,16.71
					c-0.77,0.78-0.5,1.43,0.6,1.43H67.12z"/>
			</g>
			<circle class="st2" cx="70.61" cy="102.33" r="4.89"/>
		</g>
		<g>
			<path class="st3" d="M180.5,94.64l0,39.95c0,0.91-0.73,1.64-1.64,1.64l-54.11,0c-0.91,0-1.64-0.73-1.64-1.64l0-39.95
				c0-0.91,0.73-1.64,1.64-1.64l54.11,0C179.76,93,180.5,93.73,180.5,94.64z"/>
			<g>
				<path class="st0" d="M133.03,133.27c1.1,0,2.9,0,4,0h38.8c1.1,0,2-0.9,2-2v-4.04c0-1.1-0.63-2.64-1.4-3.43l-12.6-12.8
					c-0.77-0.78-2.03-0.78-2.81,0l-7.36,7.47c-0.77,0.78-2.03,0.78-2.81,0l-3.29-3.34c-0.77-0.78-2.03-0.78-2.81,0l-16.45,16.71
					c-0.77,0.78-0.5,1.43,0.6,1.43H133.03z"/>
			</g>
			<circle class="st2" cx="136.53" cy="102.33" r="4.89"/>
		</g>
		<g>
			<path class="st3" d="M114.58,146.34l0,39.95c0,0.91-0.73,1.64-1.64,1.64H58.84c-0.91,0-1.64-0.73-1.64-1.64l0-39.95
				c0-0.91,0.73-1.64,1.64-1.64h54.11C113.85,144.7,114.58,145.43,114.58,146.34z"/>
			<g>
				<path class="st0" d="M67.12,184.97c1.1,0,2.9,0,4,0h38.8c1.1,0,2-0.9,2-2v-4.04c0-1.1-0.63-2.64-1.4-3.43l-12.6-12.8
					c-0.77-0.78-2.03-0.78-2.81,0l-7.36,7.47c-0.77,0.78-2.03,0.78-2.81,0l-3.29-3.34c-0.77-0.78-2.03-0.78-2.81,0l-16.45,16.71
					c-0.77,0.78-0.5,1.43,0.6,1.43H67.12z"/>
			</g>
			<circle class="st2" cx="70.61" cy="154.03" r="4.89"/>
		</g>
		<g>
			<path class="st3" d="M180.5,146.34l0,39.95c0,0.91-0.73,1.64-1.64,1.64h-54.11c-0.91,0-1.64-0.73-1.64-1.64l0-39.95
				c0-0.91,0.73-1.64,1.64-1.64h54.11C179.76,144.7,180.5,145.43,180.5,146.34z"/>
			<g>
				<path class="st0" d="M133.03,184.97c1.1,0,2.9,0,4,0h38.8c1.1,0,2-0.9,2-2v-4.04c0-1.1-0.63-2.64-1.4-3.43l-12.6-12.8
					c-0.77-0.78-2.03-0.78-2.81,0l-7.36,7.47c-0.77,0.78-2.03,0.78-2.81,0l-3.29-3.34c-0.77-0.78-2.03-0.78-2.81,0l-16.45,16.71
					c-0.77,0.78-0.5,1.43,0.6,1.43H133.03z"/>
			</g>
			<circle class="st2" cx="136.53" cy="154.03" r="4.89"/>
		</g>
		<g>
			<path class="st3" d="M246,94.64l0,39.95c0,0.91-0.73,1.64-1.64,1.64l-54.11,0c-0.91,0-1.64-0.73-1.64-1.64l0-39.95
				c0-0.91,0.73-1.64,1.64-1.64l54.11,0C245.27,93,246,93.73,246,94.64z"/>
			<g>
				<path class="st0" d="M198.54,133.27c1.1,0,2.9,0,4,0h38.8c1.1,0,2-0.9,2-2v-4.04c0-1.1-0.63-2.64-1.4-3.43l-12.6-12.8
					c-0.77-0.78-2.03-0.78-2.81,0l-7.36,7.47c-0.77,0.78-2.03,0.78-2.81,0l-3.29-3.34c-0.77-0.78-2.03-0.78-2.81,0l-16.45,16.71
					c-0.77,0.78-0.5,1.43,0.6,1.43H198.54z"/>
			</g>
			<circle class="st2" cx="202.03" cy="102.33" r="4.89"/>
		</g>
		<g>
			<path class="st3" d="M246,146.34l0,39.95c0,0.91-0.73,1.64-1.64,1.64h-54.11c-0.91,0-1.64-0.73-1.64-1.64l0-39.95
				c0-0.91,0.73-1.64,1.64-1.64h54.11C245.27,144.7,246,145.43,246,146.34z"/>
			<g>
				<path class="st0" d="M198.54,184.97c1.1,0,2.9,0,4,0h38.8c1.1,0,2-0.9,2-2v-4.04c0-1.1-0.63-2.64-1.4-3.43l-12.6-12.8
					c-0.77-0.78-2.03-0.78-2.81,0l-7.36,7.47c-0.77,0.78-2.03,0.78-2.81,0l-3.29-3.34c-0.77-0.78-2.03-0.78-2.81,0l-16.45,16.71
					c-0.77,0.78-0.5,1.43,0.6,1.43H198.54z"/>
			</g>
			<circle class="st2" cx="202.03" cy="154.03" r="4.89"/>
		</g>
		<g>
			<path class="st3" d="M114.58,198.55l0,39.95c0,0.91-0.73,1.64-1.64,1.64H58.84c-0.91,0-1.64-0.73-1.64-1.64l0-39.95
				c0-0.91,0.73-1.64,1.64-1.64h54.11C113.85,196.91,114.58,197.64,114.58,198.55z"/>
			<g>
				<path class="st0" d="M67.12,237.18c1.1,0,2.9,0,4,0h38.8c1.1,0,2-0.9,2-2v-4.04c0-1.1-0.63-2.64-1.4-3.43l-12.6-12.8
					c-0.77-0.78-2.03-0.78-2.81,0l-7.36,7.47c-0.77,0.78-2.03,0.78-2.81,0l-3.29-3.34c-0.77-0.78-2.03-0.78-2.81,0l-16.45,16.71
					c-0.77,0.78-0.5,1.43,0.6,1.43H67.12z"/>
			</g>
			<circle class="st2" cx="70.61" cy="206.24" r="4.89"/>
		</g>
		<g>
			<path class="st3" d="M180.5,198.55l0,39.95c0,0.91-0.73,1.64-1.64,1.64h-54.11c-0.91,0-1.64-0.73-1.64-1.64l0-39.95
				c0-0.91,0.73-1.64,1.64-1.64h54.11C179.76,196.91,180.5,197.64,180.5,198.55z"/>
			<g>
				<path class="st0" d="M133.03,237.18c1.1,0,2.9,0,4,0h38.8c1.1,0,2-0.9,2-2v-4.04c0-1.1-0.63-2.64-1.4-3.43l-12.6-12.8
					c-0.77-0.78-2.03-0.78-2.81,0l-7.36,7.47c-0.77,0.78-2.03,0.78-2.81,0l-3.29-3.34c-0.77-0.78-2.03-0.78-2.81,0l-16.45,16.71
					c-0.77,0.78-0.5,1.43,0.6,1.43H133.03z"/>
			</g>
			<circle class="st2" cx="136.53" cy="206.24" r="4.89"/>
		</g>
		<g>
			<path class="st3" d="M246,198.55l0,39.95c0,0.91-0.73,1.64-1.64,1.64h-54.11c-0.91,0-1.64-0.73-1.64-1.64l0-39.95
				c0-0.91,0.73-1.64,1.64-1.64h54.11C245.27,196.91,246,197.64,246,198.55z"/>
			<g>
				<path class="st0" d="M198.54,237.18c1.1,0,2.9,0,4,0h38.8c1.1,0,2-0.9,2-2v-4.04c0-1.1-0.63-2.64-1.4-3.43l-12.6-12.8
					c-0.77-0.78-2.03-0.78-2.81,0l-7.36,7.47c-0.77,0.78-2.03,0.78-2.81,0l-3.29-3.34c-0.77-0.78-2.03-0.78-2.81,0l-16.45,16.71
					c-0.77,0.78-0.5,1.43,0.6,1.43H198.54z"/>
			</g>
			<circle class="st2" cx="202.03" cy="206.24" r="4.89"/>
		</g>
	</g>
</g>
<g id="Layer_2">
</g>
</svg>
