<?xml version="1.0" encoding="utf-8"?>
<!-- Generator: Adobe Illustrator 24.2.0, SVG Export Plug-In . SVG Version: 6.00 Build 0)  -->
<svg version="1.1" xmlns="http://www.w3.org/2000/svg" xmlns:xlink="http://www.w3.org/1999/xlink" x="0px" y="0px"
	 viewBox="0 0 300 300" style="enable-background:new 0 0 300 300;" xml:space="preserve">
<style type="text/css">
	.st0{fill:#D6D6D6;}
	.st1{fill:#FFFFFF;}
	.st2{fill:#F6F6F6;}
	.st3{fill:#999999;}
	.st4{fill:#D5D5D5;}
</style>
<g id="Layer_1">
	<g>
		<path class="st0" d="M276.8,289.62H25.95c-7.77,0-14.07-6.3-14.07-14.07V24.7c0-7.77,6.3-14.07,14.07-14.07H276.8
			c7.77,0,14.07,6.3,14.07,14.07v250.86C290.88,283.33,284.58,289.62,276.8,289.62z"/>
		<g>
			<circle class="st1" cx="39.75" cy="36.25" r="8"/>
			<circle class="st1" cx="70.86" cy="36.25" r="8"/>
			<circle class="st1" cx="101.97" cy="36.25" r="8"/>
		</g>
	</g>
	<path class="st2" d="M266.21,271.5H37.79c-2.99,0-5.41-2.42-5.41-5.41V67.91c0-2.99,2.42-5.41,5.41-5.41h228.42
		c2.99,0,5.41,2.42,5.41,5.41v198.17C271.62,269.08,269.2,271.5,266.21,271.5z"/>
	<g>
		<path class="st3" d="M246.61,86.85l0,39.51c0,0.91-0.73,1.64-1.64,1.64H59.85c-0.91,0-1.64-0.73-1.64-1.64l0-39.51
			c0-0.91,0.73-1.64,1.64-1.64h185.12C245.87,85.21,246.61,85.95,246.61,86.85z"/>
		<g>
			<path class="st0" d="M85.84,107v9.89c0,0.79-0.91,1.24-1.53,0.76l-6.23-4.74l-6.76-5.15c-0.5-0.38-0.5-1.14,0-1.52l6.76-5.15
				l6.23-4.74c0.63-0.48,1.53-0.03,1.53,0.76V107z"/>
			<path class="st0" d="M97,107v9.89c0,0.79-0.91,1.24-1.53,0.76l-6.23-4.74l-6.76-5.15c-0.5-0.38-0.5-1.14,0-1.52l6.76-5.15
				l6.23-4.74c0.63-0.48,1.53-0.03,1.53,0.76V107z"/>
		</g>
		<g>
			<g>
				<g>
					<path class="st0" d="M146.87,117.5c0,0.28-0.22,0.5-0.5,0.5h-3.89c-0.27,0-0.5-0.22-0.5-0.5v-21c0-0.28,0.23-0.5,0.5-0.5h3.89
						c0.28,0,0.5,0.22,0.5,0.5V117.5z"/>
				</g>
				<g>
					<path class="st0" d="M159.91,117.5c0,0.28-0.23,0.5-0.5,0.5h-3.89c-0.27,0-0.5-0.22-0.5-0.5v-21c0-0.28,0.23-0.5,0.5-0.5h3.89
						c0.27,0,0.5,0.22,0.5,0.5V117.5z"/>
				</g>
			</g>
		</g>
		<g>
			<path class="st0" d="M220.1,107v-9.89c0-0.79,0.91-1.24,1.53-0.76l6.23,4.74l6.76,5.15c0.5,0.38,0.5,1.14,0,1.52l-6.76,5.15
				l-6.23,4.74c-0.63,0.48-1.53,0.03-1.53-0.76V107z"/>
			<path class="st0" d="M208.93,107v-9.89c0-0.79,0.91-1.24,1.53-0.76l6.23,4.74l6.76,5.15c0.5,0.38,0.5,1.14,0,1.52l-6.76,5.15
				l-6.23,4.74c-0.63,0.48-1.53,0.03-1.53-0.76V107z"/>
		</g>
	</g>
	<g>
		<path class="st3" d="M246.61,146.85l0,39.51c0,0.91-0.73,1.64-1.64,1.64H59.85c-0.91,0-1.64-0.73-1.64-1.64l0-39.51
			c0-0.91,0.73-1.64,1.64-1.64l185.12,0C245.87,145.21,246.61,145.95,246.61,146.85z"/>
		<g>
			<path class="st0" d="M85.84,167v9.89c0,0.79-0.91,1.24-1.53,0.76l-6.23-4.74l-6.76-5.15c-0.5-0.38-0.5-1.14,0-1.52l6.76-5.15
				l6.23-4.74c0.63-0.48,1.53-0.03,1.53,0.76V167z"/>
			<path class="st0" d="M97,167v9.89c0,0.79-0.91,1.24-1.53,0.76l-6.23-4.74l-6.76-5.15c-0.5-0.38-0.5-1.14,0-1.52l6.76-5.15
				l6.23-4.74c0.63-0.48,1.53-0.03,1.53,0.76V167z"/>
		</g>
		<g>
			<g>
				<g>
					<path class="st0" d="M146.87,177.5c0,0.27-0.22,0.5-0.5,0.5h-3.89c-0.27,0-0.5-0.23-0.5-0.5v-21c0-0.27,0.23-0.5,0.5-0.5h3.89
						c0.28,0,0.5,0.23,0.5,0.5V177.5z"/>
				</g>
				<g>
					<path class="st0" d="M159.91,177.5c0,0.27-0.23,0.5-0.5,0.5h-3.89c-0.27,0-0.5-0.23-0.5-0.5v-21c0-0.27,0.23-0.5,0.5-0.5h3.89
						c0.27,0,0.5,0.23,0.5,0.5V177.5z"/>
				</g>
			</g>
		</g>
		<g>
			<path class="st0" d="M220.1,167v-9.89c0-0.79,0.91-1.24,1.53-0.76l6.23,4.74l6.76,5.15c0.5,0.38,0.5,1.14,0,1.52l-6.76,5.15
				l-6.23,4.74c-0.63,0.48-1.53,0.03-1.53-0.76V167z"/>
			<path class="st0" d="M208.93,167v-9.89c0-0.79,0.91-1.24,1.53-0.76l6.23,4.74l6.76,5.15c0.5,0.38,0.5,1.14,0,1.52l-6.76,5.15
				l-6.23,4.74c-0.63,0.48-1.53,0.03-1.53-0.76V167z"/>
		</g>
	</g>
	<g>
		<path class="st3" d="M246.61,206.85l0,39.51c0,0.91-0.73,1.64-1.64,1.64H59.85c-0.91,0-1.64-0.73-1.64-1.64l0-39.51
			c0-0.91,0.73-1.64,1.64-1.64l185.12,0C245.87,205.21,246.61,205.95,246.61,206.85z"/>
		<g>
			<path class="st0" d="M85.84,227v9.89c0,0.79-0.91,1.24-1.53,0.76l-6.23-4.74l-6.76-5.15c-0.5-0.38-0.5-1.14,0-1.52l6.76-5.15
				l6.23-4.74c0.63-0.48,1.53-0.03,1.53,0.76V227z"/>
			<path class="st0" d="M97,227v9.89c0,0.79-0.91,1.24-1.53,0.76l-6.23-4.74l-6.76-5.15c-0.5-0.38-0.5-1.14,0-1.52l6.76-5.15
				l6.23-4.74c0.63-0.48,1.53-0.03,1.53,0.76V227z"/>
		</g>
		<g>
			<g>
				<g>
					<path class="st0" d="M146.87,237.5c0,0.27-0.22,0.5-0.5,0.5h-3.89c-0.27,0-0.5-0.23-0.5-0.5v-21c0-0.27,0.23-0.5,0.5-0.5h3.89
						c0.28,0,0.5,0.23,0.5,0.5V237.5z"/>
				</g>
				<g>
					<path class="st0" d="M159.91,237.5c0,0.27-0.23,0.5-0.5,0.5h-3.89c-0.27,0-0.5-0.23-0.5-0.5v-21c0-0.27,0.23-0.5,0.5-0.5h3.89
						c0.27,0,0.5,0.23,0.5,0.5V237.5z"/>
				</g>
			</g>
		</g>
		<g>
			<path class="st0" d="M220.1,227v-9.89c0-0.79,0.91-1.24,1.53-0.76l6.23,4.74l6.76,5.15c0.5,0.38,0.5,1.14,0,1.52l-6.76,5.15
				l-6.23,4.74c-0.63,0.48-1.53,0.03-1.53-0.76V227z"/>
			<path class="st0" d="M208.93,227v-9.89c0-0.79,0.91-1.24,1.53-0.76l6.23,4.74l6.76,5.15c0.5,0.38,0.5,1.14,0,1.52l-6.76,5.15
				l-6.23,4.74c-0.63,0.48-1.53,0.03-1.53-0.76V227z"/>
		</g>
	</g>
</g>
<g id="Layer_2">
</g>
<g id="Layer_3">
</g>
</svg>
