<?xml version="1.0" encoding="utf-8"?>
<!-- Generator: Adobe Illustrator 24.2.0, SVG Export Plug-In . SVG Version: 6.00 Build 0)  -->
<svg version="1.1" id="Layer_1" xmlns="http://www.w3.org/2000/svg" xmlns:xlink="http://www.w3.org/1999/xlink" x="0px" y="0px"
	 viewBox="0 0 300 300" style="enable-background:new 0 0 300 300;" xml:space="preserve">
<style type="text/css">
	.st0{fill:#E5E5E5;}
	.st1{fill:#D0D2D3;}
	.st2{fill:#FFFFFF;}
	.st3{fill:#EDEDED;}
	.st4{fill:#D0D2D3;stroke:#EFEFEF;stroke-width:2;stroke-miterlimit:10;}
	.st5{fill:#EFEFEF;}
	.st6{fill:#EAEAEA;}
	.st7{fill:#D8D8D8;}
	.st8{fill:#BDBDBD;}
	.st9{fill:#C9C9C9;}
</style>
<path class="st0" d="M88.5,98.05L88.5,98.05c-1.38,0-2.5-1.12-2.5-2.5V80.5c0-1.38,1.12-2.5,2.5-2.5l0,0c1.38,0,2.5,1.12,2.5,2.5
	v15.05C91,96.93,89.88,98.05,88.5,98.05z"/>
<path class="st0" d="M211.5,98.05L211.5,98.05c-1.38,0-2.5-1.12-2.5-2.5V80.5c0-1.38,1.12-2.5,2.5-2.5l0,0c1.38,0,2.5,1.12,2.5,2.5
	v15.05C214,96.93,212.88,98.05,211.5,98.05z"/>
<path class="st0" d="M88.5,66.09L88.5,66.09c-1.38,0-2.5-1.12-2.5-2.5v-5.63c0-1.38,1.12-2.5,2.5-2.5l0,0c1.38,0,2.5,1.12,2.5,2.5
	v5.63C91,64.98,89.88,66.09,88.5,66.09z"/>
<path class="st0" d="M88.5,122L88.5,122c-1.38,0-2.5-1.12-2.5-2.5v-15.05c0-1.38,1.12-2.5,2.5-2.5l0,0c1.38,0,2.5,1.12,2.5,2.5
	v15.05C91,120.88,89.88,122,88.5,122z"/>
<path class="st1" d="M197.99,272.12h-95.98c-7.77,0-14.07-6.3-14.07-14.07V41.95c0-7.77,6.3-14.07,14.07-14.07h95.98
	c7.77,0,14.07,6.3,14.07,14.07v216.11C212.06,265.83,205.76,272.12,197.99,272.12z"/>
<rect x="94.1" y="49" class="st2" width="111.8" height="195"/>
<path class="st3" d="M166.55,40h-23c-1.1,0-2-0.9-2-2l0,0c0-1.1,0.9-2,2-2h23c1.1,0,2,0.9,2,2l0,0C168.55,39.1,167.65,40,166.55,40z
	"/>
<path class="st3" d="M135.55,40h-2.1c-1.1,0-2-0.9-2-2l0,0c0-1.1,0.9-2,2-2h2.1c1.1,0,2,0.9,2,2l0,0
	C137.55,39.1,136.65,40,135.55,40z"/>
<circle class="st4" cx="150" cy="258" r="8"/>
<rect x="94.1" y="49" class="st5" width="111.8" height="17"/>
<rect x="94.1" y="227" class="st6" width="111.8" height="17"/>
<path class="st7" d="M197.51,237H187c-1.1,0-2-0.9-2-2l0,0c0-1.1,0.9-2,2-2h10.51c1.1,0,2,0.9,2,2l0,0
	C199.51,236.1,198.62,237,197.51,237z"/>
<path class="st8" d="M198.07,59h-58.36c-1.1,0-2-0.9-2-2l0,0c0-1.1,0.9-2,2-2h58.36c1.1,0,2,0.9,2,2l0,0
	C200.07,58.1,199.17,59,198.07,59z"/>
<g>
	<g>
		<g>
			<g>
				<path class="st9" d="M113.26,73c1.1,0,2.25,0.86,2.56,1.92l1.64,5.63c0.31,1.06-0.34,1.92-1.44,1.92h-12.69c-1.1,0-2-0.9-2-2V75
					c0-1.1,0.9-2,2-2H113.26z"/>
			</g>
			<g>
				<path class="st9" d="M126.84,78.41c1.1,0,2,0.9,2,2V94c0,1.1-0.9,2-2,2h-23.52c-1.1,0-2-0.9-2-2V80.41c0-1.1,0.9-2,2-2H126.84z"
					/>
			</g>
		</g>
	</g>
	<g>
		<g>
			<g>
				<path class="st9" d="M148.22,73c1.1,0,2.25,0.86,2.56,1.92l1.64,5.63c0.31,1.06-0.34,1.92-1.44,1.92h-12.69c-1.1,0-2-0.9-2-2V75
					c0-1.1,0.9-2,2-2H148.22z"/>
			</g>
			<g>
				<path class="st9" d="M161.8,78.41c1.1,0,2,0.9,2,2V94c0,1.1-0.9,2-2,2h-23.52c-1.1,0-2-0.9-2-2V80.41c0-1.1,0.9-2,2-2H161.8z"/>
			</g>
		</g>
	</g>
	<g>
		<g>
			<g>
				<path class="st9" d="M183.18,73c1.1,0,2.25,0.86,2.56,1.92l1.64,5.63c0.31,1.06-0.34,1.92-1.44,1.92h-12.69c-1.1,0-2-0.9-2-2V75
					c0-1.1,0.9-2,2-2H183.18z"/>
			</g>
			<g>
				<path class="st9" d="M196.76,78.41c1.1,0,2,0.9,2,2V94c0,1.1-0.9,2-2,2h-23.52c-1.1,0-2-0.9-2-2V80.41c0-1.1,0.9-2,2-2H196.76z"
					/>
			</g>
		</g>
	</g>
	<g>
		<g>
			<g>
				<path class="st9" d="M113.26,106.07c1.1,0,2.25,0.86,2.56,1.92l1.64,5.63c0.31,1.06-0.34,1.92-1.44,1.92h-12.69
					c-1.1,0-2-0.9-2-2v-5.47c0-1.1,0.9-2,2-2H113.26z"/>
			</g>
			<g>
				<path class="st9" d="M126.84,111.48c1.1,0,2,0.9,2,2v13.59c0,1.1-0.9,2-2,2h-23.52c-1.1,0-2-0.9-2-2v-13.59c0-1.1,0.9-2,2-2
					H126.84z"/>
			</g>
		</g>
	</g>
	<g>
		<g>
			<g>
				<path class="st9" d="M148.22,106.07c1.1,0,2.25,0.86,2.56,1.92l1.64,5.63c0.31,1.06-0.34,1.92-1.44,1.92h-12.69
					c-1.1,0-2-0.9-2-2v-5.47c0-1.1,0.9-2,2-2H148.22z"/>
			</g>
			<g>
				<path class="st9" d="M161.8,111.48c1.1,0,2,0.9,2,2v13.59c0,1.1-0.9,2-2,2h-23.52c-1.1,0-2-0.9-2-2v-13.59c0-1.1,0.9-2,2-2
					H161.8z"/>
			</g>
		</g>
	</g>
	<g>
		<g>
			<g>
				<path class="st9" d="M183.18,106.07c1.1,0,2.25,0.86,2.56,1.92l1.64,5.63c0.31,1.06-0.34,1.92-1.44,1.92h-12.69
					c-1.1,0-2-0.9-2-2v-5.47c0-1.1,0.9-2,2-2H183.18z"/>
			</g>
			<g>
				<path class="st9" d="M196.76,111.48c1.1,0,2,0.9,2,2v13.59c0,1.1-0.9,2-2,2h-23.52c-1.1,0-2-0.9-2-2v-13.59c0-1.1,0.9-2,2-2
					H196.76z"/>
			</g>
		</g>
	</g>
	<g>
		<g>
			<g>
				<path class="st9" d="M113.26,139.14c1.1,0,2.25,0.86,2.56,1.92l1.64,5.63c0.31,1.06-0.34,1.92-1.44,1.92h-12.69
					c-1.1,0-2-0.9-2-2v-5.47c0-1.1,0.9-2,2-2H113.26z"/>
			</g>
			<g>
				<path class="st9" d="M126.84,144.55c1.1,0,2,0.9,2,2v13.59c0,1.1-0.9,2-2,2h-23.52c-1.1,0-2-0.9-2-2v-13.59c0-1.1,0.9-2,2-2
					H126.84z"/>
			</g>
		</g>
	</g>
	<g>
		<g>
			<g>
				<path class="st9" d="M148.22,139.14c1.1,0,2.25,0.86,2.56,1.92l1.64,5.63c0.31,1.06-0.34,1.92-1.44,1.92h-12.69
					c-1.1,0-2-0.9-2-2v-5.47c0-1.1,0.9-2,2-2H148.22z"/>
			</g>
			<g>
				<path class="st9" d="M161.8,144.55c1.1,0,2,0.9,2,2v13.59c0,1.1-0.9,2-2,2h-23.52c-1.1,0-2-0.9-2-2v-13.59c0-1.1,0.9-2,2-2
					H161.8z"/>
			</g>
		</g>
	</g>
	<g>
		<g>
			<g>
				<path class="st9" d="M183.18,139.14c1.1,0,2.25,0.86,2.56,1.92l1.64,5.63c0.31,1.06-0.34,1.92-1.44,1.92h-12.69
					c-1.1,0-2-0.9-2-2v-5.47c0-1.1,0.9-2,2-2H183.18z"/>
			</g>
			<g>
				<path class="st9" d="M196.76,144.55c1.1,0,2,0.9,2,2v13.59c0,1.1-0.9,2-2,2h-23.52c-1.1,0-2-0.9-2-2v-13.59c0-1.1,0.9-2,2-2
					H196.76z"/>
			</g>
		</g>
	</g>
	<g>
		<g>
			<g>
				<path class="st9" d="M113.26,172.21c1.1,0,2.25,0.86,2.56,1.92l1.64,5.63c0.31,1.06-0.34,1.92-1.44,1.92h-12.69
					c-1.1,0-2-0.9-2-2v-5.47c0-1.1,0.9-2,2-2H113.26z"/>
			</g>
			<g>
				<path class="st9" d="M126.84,177.62c1.1,0,2,0.9,2,2v13.59c0,1.1-0.9,2-2,2h-23.52c-1.1,0-2-0.9-2-2v-13.59c0-1.1,0.9-2,2-2
					H126.84z"/>
			</g>
		</g>
	</g>
	<g>
		<g>
			<g>
				<path class="st9" d="M148.22,172.21c1.1,0,2.25,0.86,2.56,1.92l1.64,5.63c0.31,1.06-0.34,1.92-1.44,1.92h-12.69
					c-1.1,0-2-0.9-2-2v-5.47c0-1.1,0.9-2,2-2H148.22z"/>
			</g>
			<g>
				<path class="st9" d="M161.8,177.62c1.1,0,2,0.9,2,2v13.59c0,1.1-0.9,2-2,2h-23.52c-1.1,0-2-0.9-2-2v-13.59c0-1.1,0.9-2,2-2
					H161.8z"/>
			</g>
		</g>
	</g>
</g>
</svg>
