<?xml version="1.0" encoding="utf-8"?>
<!-- Generator: Adobe Illustrator 24.2.0, SVG Export Plug-In . SVG Version: 6.00 Build 0)  -->
<svg version="1.1" xmlns="http://www.w3.org/2000/svg" xmlns:xlink="http://www.w3.org/1999/xlink" x="0px" y="0px"
	 viewBox="0 0 300 300" style="enable-background:new 0 0 300 300;" xml:space="preserve">
<style type="text/css">
	.st0{fill:#999999;}
	.st1{fill:#D6D6D6;}
	.st2{fill:#E5E5E5;}
	.st3{fill:#D0D2D3;}
	.st4{fill:#FFFFFF;}
	.st5{fill:#EDEDED;}
	.st6{fill:#D0D2D3;stroke:#EFEFEF;stroke-width:2;stroke-miterlimit:10;}
	.st7{fill:#E8E8E8;}
	.st8{fill:#BDBDBD;}
	.st9{fill:#F0F0F0;}
	.st10{fill:none;stroke:#CECECE;stroke-width:0.5;stroke-miterlimit:10;}
	.st11{fill:#EFEFEF;}
	.st12{fill:none;stroke:#999999;stroke-miterlimit:10;}
	.st13{fill:#EAEAEA;}
	.st14{fill:#D8D8D8;}
	.st15{fill:#F6F6F6;}
	.st16{fill:none;stroke:#F6F6F6;stroke-linecap:round;stroke-miterlimit:10;}
	.st17{opacity:0.8;}
</style>
<g id="Layer_1">
	<path class="st2" d="M88.5,98.05L88.5,98.05c-1.38,0-2.5-1.12-2.5-2.5V80.5c0-1.38,1.12-2.5,2.5-2.5l0,0c1.38,0,2.5,1.12,2.5,2.5
		v15.05C91,96.93,89.88,98.05,88.5,98.05z"/>
	<path class="st2" d="M211.5,98.05L211.5,98.05c-1.38,0-2.5-1.12-2.5-2.5V80.5c0-1.38,1.12-2.5,2.5-2.5l0,0c1.38,0,2.5,1.12,2.5,2.5
		v15.05C214,96.93,212.88,98.05,211.5,98.05z"/>
	<path class="st2" d="M88.5,66.09L88.5,66.09c-1.38,0-2.5-1.12-2.5-2.5v-5.63c0-1.38,1.12-2.5,2.5-2.5h0c1.38,0,2.5,1.12,2.5,2.5
		v5.63C91,64.98,89.88,66.09,88.5,66.09z"/>
	<path class="st2" d="M88.5,122L88.5,122c-1.38,0-2.5-1.12-2.5-2.5v-15.05c0-1.38,1.12-2.5,2.5-2.5l0,0c1.38,0,2.5,1.12,2.5,2.5
		v15.05C91,120.88,89.88,122,88.5,122z"/>
	<path class="st3" d="M197.99,272.12h-95.98c-7.77,0-14.07-6.3-14.07-14.07V41.95c0-7.77,6.3-14.07,14.07-14.07h95.98
		c7.77,0,14.07,6.3,14.07,14.07v216.11C212.06,265.83,205.76,272.12,197.99,272.12z"/>
	<rect x="94.1" y="49" class="st4" width="111.8" height="195"/>
	<path class="st5" d="M166.55,40h-23c-1.1,0-2-0.9-2-2v0c0-1.1,0.9-2,2-2h23c1.1,0,2,0.9,2,2v0C168.55,39.1,167.65,40,166.55,40z"/>
	<path class="st5" d="M135.55,40h-2.1c-1.1,0-2-0.9-2-2v0c0-1.1,0.9-2,2-2h2.1c1.1,0,2,0.9,2,2v0C137.55,39.1,136.65,40,135.55,40z"
		/>
	<circle class="st6" cx="150" cy="258" r="8"/>
	<rect x="94.1" y="49" class="st11" width="111.8" height="8"/>
	<rect x="94.1" y="227" class="st13" width="111.8" height="17"/>
	<path class="st14" d="M197.51,237H187c-1.1,0-2-0.9-2-2v0c0-1.1,0.9-2,2-2h10.51c1.1,0,2,0.9,2,2v0
		C199.51,236.1,198.62,237,197.51,237z"/>
	<g>
		<path class="st7" d="M117.65,91.54h-13.55c-0.61,0-1.11-0.5-1.11-1.11v-0.13c0-0.61,0.5-1.11,1.11-1.11h13.55
			c0.61,0,1.11,0.5,1.11,1.11v0.13C118.75,91.05,118.26,91.54,117.65,91.54z"/>
		<path class="st9" d="M116.79,86.27h-11.84c-2.73,0-4.95-2.22-4.95-4.95V68.95c0-2.73,2.22-4.95,4.95-4.95h11.84
			c2.73,0,4.95,2.22,4.95,4.95v12.37C121.74,84.05,119.52,86.27,116.79,86.27z"/>
	</g>
	<g>
		<path class="st7" d="M143.73,91.54h-13.55c-0.61,0-1.11-0.5-1.11-1.11v-0.13c0-0.61,0.5-1.11,1.11-1.11h13.55
			c0.61,0,1.11,0.5,1.11,1.11v0.13C144.84,91.05,144.34,91.54,143.73,91.54z"/>
		<path class="st9" d="M142.88,86.27h-11.84c-2.73,0-4.95-2.22-4.95-4.95V68.95c0-2.73,2.22-4.95,4.95-4.95h11.84
			c2.73,0,4.95,2.22,4.95,4.95v12.37C147.83,84.05,145.61,86.27,142.88,86.27z"/>
	</g>
	<g>
		<path class="st7" d="M169.82,91.54h-13.55c-0.61,0-1.11-0.5-1.11-1.11v-0.13c0-0.61,0.5-1.11,1.11-1.11h13.55
			c0.61,0,1.11,0.5,1.11,1.11v0.13C170.93,91.05,170.43,91.54,169.82,91.54z"/>
		<path class="st9" d="M168.96,86.27h-11.84c-2.73,0-4.95-2.22-4.95-4.95V68.95c0-2.73,2.22-4.95,4.95-4.95h11.84
			c2.73,0,4.95,2.22,4.95,4.95v12.37C173.91,84.05,171.7,86.27,168.96,86.27z"/>
	</g>
	<g>
		<path class="st7" d="M195.91,91.54h-13.55c-0.61,0-1.11-0.5-1.11-1.11v-0.13c0-0.61,0.5-1.11,1.11-1.11h13.55
			c0.61,0,1.11,0.5,1.11,1.11v0.13C197.01,91.05,196.52,91.54,195.91,91.54z"/>
		<path class="st9" d="M195.05,86.27h-11.84c-2.73,0-4.95-2.22-4.95-4.95V68.95c0-2.73,2.22-4.95,4.95-4.95h11.84
			c2.73,0,4.95,2.22,4.95,4.95v12.37C200,84.05,197.78,86.27,195.05,86.27z"/>
	</g>
	<g>
		<path class="st7" d="M117.65,126.54h-13.55c-0.61,0-1.11-0.5-1.11-1.11v-0.13c0-0.61,0.5-1.11,1.11-1.11h13.55
			c0.61,0,1.11,0.5,1.11,1.11v0.13C118.75,126.05,118.26,126.54,117.65,126.54z"/>
		<path class="st9" d="M116.79,121.27h-11.84c-2.73,0-4.95-2.22-4.95-4.95v-12.37c0-2.73,2.22-4.95,4.95-4.95h11.84
			c2.73,0,4.95,2.22,4.95,4.95v12.37C121.74,119.05,119.52,121.27,116.79,121.27z"/>
	</g>
	<g>
		<path class="st7" d="M143.73,126.54h-13.55c-0.61,0-1.11-0.5-1.11-1.11v-0.13c0-0.61,0.5-1.11,1.11-1.11h13.55
			c0.61,0,1.11,0.5,1.11,1.11v0.13C144.84,126.05,144.34,126.54,143.73,126.54z"/>
		<path class="st9" d="M142.88,121.27h-11.84c-2.73,0-4.95-2.22-4.95-4.95v-12.37c0-2.73,2.22-4.95,4.95-4.95h11.84
			c2.73,0,4.95,2.22,4.95,4.95v12.37C147.83,119.05,145.61,121.27,142.88,121.27z"/>
	</g>
	<g>
		<path class="st7" d="M169.82,126.54h-13.55c-0.61,0-1.11-0.5-1.11-1.11v-0.13c0-0.61,0.5-1.11,1.11-1.11h13.55
			c0.61,0,1.11,0.5,1.11,1.11v0.13C170.93,126.05,170.43,126.54,169.82,126.54z"/>
		<path class="st9" d="M168.96,121.27h-11.84c-2.73,0-4.95-2.22-4.95-4.95v-12.37c0-2.73,2.22-4.95,4.95-4.95h11.84
			c2.73,0,4.95,2.22,4.95,4.95v12.37C173.91,119.05,171.7,121.27,168.96,121.27z"/>
	</g>
	<g>
		<path class="st7" d="M195.91,126.54h-13.55c-0.61,0-1.11-0.5-1.11-1.11v-0.13c0-0.61,0.5-1.11,1.11-1.11h13.55
			c0.61,0,1.11,0.5,1.11,1.11v0.13C197.01,126.05,196.52,126.54,195.91,126.54z"/>
		<path class="st9" d="M195.05,121.27h-11.84c-2.73,0-4.95-2.22-4.95-4.95v-12.37c0-2.73,2.22-4.95,4.95-4.95h11.84
			c2.73,0,4.95,2.22,4.95,4.95v12.37C200,119.05,197.78,121.27,195.05,121.27z"/>
	</g>
	<path class="st7" d="M117.65,161.54h-13.55c-0.61,0-1.11-0.5-1.11-1.11v-0.13c0-0.61,0.5-1.11,1.11-1.11h13.55
		c0.61,0,1.11,0.5,1.11,1.11v0.13C118.75,161.05,118.26,161.54,117.65,161.54z"/>
	<path class="st9" d="M116.79,156.27h-11.84c-2.73,0-4.95-2.22-4.95-4.95v-12.37c0-2.73,2.22-4.95,4.95-4.95h11.84
		c2.73,0,4.95,2.22,4.95,4.95v12.37C121.74,154.05,119.52,156.27,116.79,156.27z"/>
	<g>
		<path class="st7" d="M143.73,161.54h-13.55c-0.61,0-1.11-0.5-1.11-1.11v-0.13c0-0.61,0.5-1.11,1.11-1.11h13.55
			c0.61,0,1.11,0.5,1.11,1.11v0.13C144.84,161.05,144.34,161.54,143.73,161.54z"/>
		<path class="st9" d="M142.88,156.27h-11.84c-2.73,0-4.95-2.22-4.95-4.95v-12.37c0-2.73,2.22-4.95,4.95-4.95h11.84
			c2.73,0,4.95,2.22,4.95,4.95v12.37C147.83,154.05,145.61,156.27,142.88,156.27z"/>
	</g>
	<g>
		<path class="st7" d="M169.82,161.54h-13.55c-0.61,0-1.11-0.5-1.11-1.11v-0.13c0-0.61,0.5-1.11,1.11-1.11h13.55
			c0.61,0,1.11,0.5,1.11,1.11v0.13C170.93,161.05,170.43,161.54,169.82,161.54z"/>
		<path class="st9" d="M168.96,156.27h-11.84c-2.73,0-4.95-2.22-4.95-4.95v-12.37c0-2.73,2.22-4.95,4.95-4.95h11.84
			c2.73,0,4.95,2.22,4.95,4.95v12.37C173.91,154.05,171.7,156.27,168.96,156.27z"/>
	</g>
	<g>
		<path class="st7" d="M195.91,161.54h-13.55c-0.61,0-1.11-0.5-1.11-1.11v-0.13c0-0.61,0.5-1.11,1.11-1.11h13.55
			c0.61,0,1.11,0.5,1.11,1.11v0.13C197.01,161.05,196.52,161.54,195.91,161.54z"/>
		<path class="st9" d="M195.05,156.27h-11.84c-2.73,0-4.95-2.22-4.95-4.95v-12.37c0-2.73,2.22-4.95,4.95-4.95h11.84
			c2.73,0,4.95,2.22,4.95,4.95v12.37C200,154.05,197.78,156.27,195.05,156.27z"/>
	</g>
	<g>
		<path class="st7" d="M117.65,196.54h-13.55c-0.61,0-1.11-0.5-1.11-1.11v-0.13c0-0.61,0.5-1.11,1.11-1.11h13.55
			c0.61,0,1.11,0.5,1.11,1.11v0.13C118.75,196.05,118.26,196.54,117.65,196.54z"/>
		<path class="st9" d="M116.79,191.27h-11.84c-2.73,0-4.95-2.22-4.95-4.95v-12.37c0-2.73,2.22-4.95,4.95-4.95h11.84
			c2.73,0,4.95,2.22,4.95,4.95v12.37C121.74,189.05,119.52,191.27,116.79,191.27z"/>
	</g>
	<g>
		<path class="st7" d="M143.73,196.54h-13.55c-0.61,0-1.11-0.5-1.11-1.11v-0.13c0-0.61,0.5-1.11,1.11-1.11h13.55
			c0.61,0,1.11,0.5,1.11,1.11v0.13C144.84,196.05,144.34,196.54,143.73,196.54z"/>
		<path class="st9" d="M142.88,191.27h-11.84c-2.73,0-4.95-2.22-4.95-4.95v-12.37c0-2.73,2.22-4.95,4.95-4.95h11.84
			c2.73,0,4.95,2.22,4.95,4.95v12.37C147.83,189.05,145.61,191.27,142.88,191.27z"/>
	</g>
	<g>
		<path class="st7" d="M169.82,196.54h-13.55c-0.61,0-1.11-0.5-1.11-1.11v-0.13c0-0.61,0.5-1.11,1.11-1.11h13.55
			c0.61,0,1.11,0.5,1.11,1.11v0.13C170.93,196.05,170.43,196.54,169.82,196.54z"/>
		<path class="st9" d="M168.96,191.27h-11.84c-2.73,0-4.95-2.22-4.95-4.95v-12.37c0-2.73,2.22-4.95,4.95-4.95h11.84
			c2.73,0,4.95,2.22,4.95,4.95v12.37C173.91,189.05,171.7,191.27,168.96,191.27z"/>
	</g>
	<g>
		<path class="st7" d="M195.91,196.54h-13.55c-0.61,0-1.11-0.5-1.11-1.11v-0.13c0-0.61,0.5-1.11,1.11-1.11h13.55
			c0.61,0,1.11,0.5,1.11,1.11v0.13C197.01,196.05,196.52,196.54,195.91,196.54z"/>
		<path class="st9" d="M195.05,191.27h-11.84c-2.73,0-4.95-2.22-4.95-4.95v-12.37c0-2.73,2.22-4.95,4.95-4.95h11.84
			c2.73,0,4.95,2.22,4.95,4.95v12.37C200,189.05,197.78,191.27,195.05,191.27z"/>
	</g>
	<path class="st8" d="M108.46,144h-4.09c-0.76,0-1.37-0.61-1.37-1.37v-4.26c0-0.76,0.61-1.37,1.37-1.37h4.09
		c0.76,0,1.37,0.61,1.37,1.37v4.26C109.83,143.39,109.22,144,108.46,144z"/>
	<path class="st8" d="M108.46,153h-4.09c-0.76,0-1.37-0.61-1.37-1.37v-4.26c0-0.76,0.61-1.37,1.37-1.37h4.09
		c0.76,0,1.37,0.61,1.37,1.37v4.26C109.83,152.39,109.22,153,108.46,153z"/>
	<path class="st8" d="M117.46,144h-4.09c-0.76,0-1.37-0.61-1.37-1.37v-4.26c0-0.76,0.61-1.37,1.37-1.37h4.09
		c0.76,0,1.37,0.61,1.37,1.37v4.26C118.83,143.39,118.22,144,117.46,144z"/>
</g>
<g id="Layer_2">
</g>
<g id="Layer_3">
</g>
</svg>
