<?xml version="1.0" encoding="utf-8"?>
<!-- Generator: Adobe Illustrator 24.2.0, SVG Export Plug-In . SVG Version: 6.00 Build 0)  -->
<svg version="1.1" xmlns="http://www.w3.org/2000/svg" xmlns:xlink="http://www.w3.org/1999/xlink" x="0px" y="0px"
	 viewBox="0 0 300 300" style="enable-background:new 0 0 300 300;" xml:space="preserve">
<style type="text/css">
	.st0{fill:#999999;}
	.st1{fill:#D6D6D6;}
	.st2{fill:#E5E5E5;}
	.st3{fill:#D0D2D3;}
	.st4{fill:#FFFFFF;}
	.st5{fill:#EDEDED;}
	.st6{fill:#D0D2D3;stroke:#EFEFEF;stroke-width:2;stroke-miterlimit:10;}
	.st7{fill:#E8E8E8;}
	.st8{fill:#BDBDBD;}
	.st9{fill:#F0F0F0;}
	.st10{fill:none;stroke:#CECECE;stroke-width:0.5;stroke-miterlimit:10;}
	.st11{fill:#EFEFEF;}
	.st12{fill:none;stroke:#999999;stroke-miterlimit:10;}
	.st13{fill:#EAEAEA;}
	.st14{fill:#D8D8D8;}
	.st15{fill:#F6F6F6;}
	.st16{fill:none;stroke:#F6F6F6;stroke-linecap:round;stroke-miterlimit:10;}
	.st17{opacity:0.8;}
	.st18{fill:#F8F8F8;}
	.st19{fill:#E0E0E0;}
</style>
<g id="Layer_1">
	<path class="st2" d="M88.5,98.05L88.5,98.05c-1.38,0-2.5-1.12-2.5-2.5V80.5c0-1.38,1.12-2.5,2.5-2.5l0,0c1.38,0,2.5,1.12,2.5,2.5
		v15.05C91,96.93,89.88,98.05,88.5,98.05z"/>
	<path class="st2" d="M211.5,98.05L211.5,98.05c-1.38,0-2.5-1.12-2.5-2.5V80.5c0-1.38,1.12-2.5,2.5-2.5l0,0c1.38,0,2.5,1.12,2.5,2.5
		v15.05C214,96.93,212.88,98.05,211.5,98.05z"/>
	<path class="st2" d="M88.5,66.09L88.5,66.09c-1.38,0-2.5-1.12-2.5-2.5v-5.63c0-1.38,1.12-2.5,2.5-2.5h0c1.38,0,2.5,1.12,2.5,2.5
		v5.63C91,64.98,89.88,66.09,88.5,66.09z"/>
	<path class="st2" d="M88.5,122L88.5,122c-1.38,0-2.5-1.12-2.5-2.5v-15.05c0-1.38,1.12-2.5,2.5-2.5l0,0c1.38,0,2.5,1.12,2.5,2.5
		v15.05C91,120.88,89.88,122,88.5,122z"/>
	<path class="st3" d="M197.99,272.12h-95.98c-7.77,0-14.07-6.3-14.07-14.07V41.95c0-7.77,6.3-14.07,14.07-14.07h95.98
		c7.77,0,14.07,6.3,14.07,14.07v216.11C212.06,265.83,205.76,272.12,197.99,272.12z"/>
	<rect x="94.1" y="49" class="st4" width="111.8" height="195"/>
	<path class="st5" d="M166.55,40h-23c-1.1,0-2-0.9-2-2v0c0-1.1,0.9-2,2-2h23c1.1,0,2,0.9,2,2v0C168.55,39.1,167.65,40,166.55,40z"/>
	<path class="st5" d="M135.55,40h-2.1c-1.1,0-2-0.9-2-2v0c0-1.1,0.9-2,2-2h2.1c1.1,0,2,0.9,2,2v0C137.55,39.1,136.65,40,135.55,40z"
		/>
	<circle class="st6" cx="150" cy="258" r="8"/>
	<rect x="94.1" y="49" class="st11" width="111.8" height="14"/>
	<rect x="94.1" y="227" class="st13" width="111.8" height="17"/>
	<path class="st14" d="M194.51,237H184c-1.1,0-2-0.9-2-2v0c0-1.1,0.9-2,2-2h10.51c1.1,0,2,0.9,2,2v0
		C196.51,236.1,195.62,237,194.51,237z"/>
	<path class="st14" d="M168.51,237H158c-1.1,0-2-0.9-2-2v0c0-1.1,0.9-2,2-2h10.51c1.1,0,2,0.9,2,2v0
		C170.51,236.1,169.62,237,168.51,237z"/>
	<path class="st14" d="M142.51,237H132c-1.1,0-2-0.9-2-2v0c0-1.1,0.9-2,2-2h10.51c1.1,0,2,0.9,2,2v0
		C144.51,236.1,143.62,237,142.51,237z"/>
	<path class="st14" d="M116.51,237H106c-1.1,0-2-0.9-2-2v0c0-1.1,0.9-2,2-2h10.51c1.1,0,2,0.9,2,2v0
		C118.51,236.1,117.62,237,116.51,237z"/>
	<path class="st8" d="M181,58h-57.53c-1.1,0-2-0.9-2-2v0c0-1.1,0.9-2,2-2H181c1.1,0,2,0.9,2,2v0C183,57.1,182.1,58,181,58z"/>
	<rect x="94.1" y="102" class="st18" width="111.9" height="81"/>
	<rect x="94" y="107" class="st19" width="28" height="71"/>
	<rect x="126" y="107" class="st19" width="51" height="15"/>
	<rect x="181" y="107" class="st19" width="25" height="49"/>
	<rect x="181" y="160" class="st19" width="25" height="18"/>
	<rect x="126" y="127" class="st19" width="15" height="51"/>
	<rect x="146" y="127" class="st19" width="31" height="51"/>
</g>
<g id="Layer_2">
</g>
<g id="Layer_3">
</g>
</svg>
