<?xml version="1.0" encoding="utf-8"?>
<!-- Generator: Adobe Illustrator 24.2.0, SVG Export Plug-In . SVG Version: 6.00 Build 0)  -->
<svg version="1.1" xmlns="http://www.w3.org/2000/svg" xmlns:xlink="http://www.w3.org/1999/xlink" x="0px" y="0px"
	 viewBox="0 0 300 300" style="enable-background:new 0 0 300 300;" xml:space="preserve">
<style type="text/css">
	.st0{fill:#D6D6D6;}
	.st1{fill:#FFFFFF;}
	.st2{fill:#F6F6F6;}
	.st3{fill:#999999;}
</style>
<g id="Layer_1">
	<g>
		<path class="st0" d="M276.8,289.62H25.95c-7.77,0-14.07-6.3-14.07-14.07V24.7c0-7.77,6.3-14.07,14.07-14.07H276.8
			c7.77,0,14.07,6.3,14.07,14.07v250.86C290.88,283.33,284.58,289.62,276.8,289.62z"/>
		<g>
			<circle class="st1" cx="39.75" cy="36.25" r="8"/>
			<circle class="st1" cx="70.86" cy="36.25" r="8"/>
			<circle class="st1" cx="101.97" cy="36.25" r="8"/>
		</g>
	</g>
	<path class="st2" d="M266.21,271.5H37.79c-2.99,0-5.41-2.42-5.41-5.41V67.91c0-2.99,2.42-5.41,5.41-5.41h228.42
		c2.99,0,5.41,2.42,5.41,5.41v198.17C271.62,269.08,269.2,271.5,266.21,271.5z"/>
	<path class="st0" d="M243,101.76H61.29c-1.66,0-3-1.34-3-3v-0.88c0-1.66,1.34-3,3-3H243c1.66,0,3,1.34,3,3v0.88
		C246,100.41,244.66,101.76,243,101.76z"/>
	<path class="st0" d="M217.09,123.76H61.29c-1.66,0-3-1.34-3-3v-0.88c0-1.66,1.34-3,3-3h155.8c1.66,0,3,1.34,3,3v0.88
		C220.09,122.41,218.75,123.76,217.09,123.76z"/>
	<path class="st0" d="M207.46,145.76H61.29c-1.66,0-3-1.34-3-3v-0.88c0-1.66,1.34-3,3-3h146.17c1.66,0,3,1.34,3,3v0.88
		C210.46,144.41,209.12,145.76,207.46,145.76z"/>
	<path class="st0" d="M243,167.76H61.29c-1.66,0-3-1.34-3-3v-0.88c0-1.66,1.34-3,3-3H243c1.66,0,3,1.34,3,3v0.88
		C246,166.41,244.66,167.76,243,167.76z"/>
	<path class="st0" d="M236.24,189.76H61.29c-1.66,0-3-1.34-3-3v-0.88c0-1.66,1.34-3,3-3h174.95c1.66,0,3,1.34,3,3v0.88
		C239.24,188.41,237.9,189.76,236.24,189.76z"/>
	<path class="st0" d="M217.09,211.76H61.29c-1.66,0-3-1.34-3-3v-0.88c0-1.66,1.34-3,3-3h155.8c1.66,0,3,1.34,3,3v0.88
		C220.09,210.41,218.75,211.76,217.09,211.76z"/>
	<path class="st0" d="M187.3,233.76h-126c-1.66,0-3-1.34-3-3v-0.88c0-1.66,1.34-3,3-3h126c1.66,0,3,1.34,3,3v0.88
		C190.3,232.41,188.95,233.76,187.3,233.76z"/>
</g>
<g id="Layer_2">
</g>
<g id="Layer_3">
</g>
</svg>
