<?xml version="1.0" encoding="utf-8"?>
<!-- Generator: Adobe Illustrator 24.2.0, SVG Export Plug-In . SVG Version: 6.00 Build 0)  -->
<svg version="1.1" xmlns="http://www.w3.org/2000/svg" xmlns:xlink="http://www.w3.org/1999/xlink" x="0px" y="0px"
	 viewBox="0 0 300 300" style="enable-background:new 0 0 300 300;" xml:space="preserve">
<style type="text/css">
	.st0{fill:#D6D6D6;}
	.st1{fill:#FFFFFF;}
	.st2{fill:#F6F6F6;}
	.st3{fill:#999999;}
</style>
<g id="Layer_1">
	<g>
		<path class="st0" d="M276.8,289.62H25.95c-7.77,0-14.07-6.3-14.07-14.07V24.7c0-7.77,6.3-14.07,14.07-14.07H276.8
			c7.77,0,14.07,6.3,14.07,14.07v250.86C290.88,283.33,284.58,289.62,276.8,289.62z"/>
		<g>
			<circle class="st1" cx="39.75" cy="36.25" r="8"/>
			<circle class="st1" cx="70.86" cy="36.25" r="8"/>
			<circle class="st1" cx="101.97" cy="36.25" r="8"/>
		</g>
	</g>
	<path class="st2" d="M266.21,271.5H37.79c-2.99,0-5.41-2.42-5.41-5.41V67.91c0-2.99,2.42-5.41,5.41-5.41h228.42
		c2.99,0,5.41,2.42,5.41,5.41v198.17C271.62,269.08,269.2,271.5,266.21,271.5z"/>
	<path class="st0" d="M106.97,99.76H64.29c-1.66,0-3-1.34-3-3v-0.88c0-1.66,1.34-3,3-3h42.68c1.66,0,3,1.34,3,3v0.88
		C109.97,98.41,108.63,99.76,106.97,99.76z"/>
	<path class="st0" d="M124.06,122.76H64.29c-1.66,0-3-1.34-3-3v-0.88c0-1.66,1.34-3,3-3h59.77c1.66,0,3,1.34,3,3v0.88
		C127.06,121.41,125.72,122.76,124.06,122.76z"/>
	<path class="st0" d="M139.4,145.76H64.29c-1.66,0-3-1.34-3-3v-0.88c0-1.66,1.34-3,3-3h75.11c1.66,0,3,1.34,3,3v0.88
		C142.4,144.41,141.05,145.76,139.4,145.76z"/>
	<path class="st0" d="M124.06,168.76H64.29c-1.66,0-3-1.34-3-3v-0.88c0-1.66,1.34-3,3-3h59.77c1.66,0,3,1.34,3,3v0.88
		C127.06,167.41,125.72,168.76,124.06,168.76z"/>
	<path class="st0" d="M132.92,191.76H64.29c-1.66,0-3-1.34-3-3v-0.88c0-1.66,1.34-3,3-3h68.63c1.66,0,3,1.34,3,3v0.88
		C135.92,190.41,134.57,191.76,132.92,191.76z"/>
	<path class="st0" d="M106.97,214.76H64.29c-1.66,0-3-1.34-3-3v-0.88c0-1.66,1.34-3,3-3h42.68c1.66,0,3,1.34,3,3v0.88
		C109.97,213.41,108.63,214.76,106.97,214.76z"/>
	<path class="st0" d="M132.92,237.76H64.29c-1.66,0-3-1.34-3-3v-0.88c0-1.66,1.34-3,3-3h68.63c1.66,0,3,1.34,3,3v0.88
		C135.92,236.41,134.57,237.76,132.92,237.76z"/>
	<path class="st0" d="M229.7,99.76h-65.4c-1.66,0-3-1.34-3-3v-0.88c0-1.66,1.34-3,3-3h65.4c1.66,0,3,1.34,3,3v0.88
		C232.7,98.41,231.35,99.76,229.7,99.76z"/>
	<path class="st0" d="M215.47,122.76h-51.18c-1.66,0-3-1.34-3-3v-0.88c0-1.66,1.34-3,3-3h51.18c1.66,0,3,1.34,3,3v0.88
		C218.47,121.41,217.13,122.76,215.47,122.76z"/>
	<path class="st0" d="M229.7,145.76h-65.4c-1.66,0-3-1.34-3-3v-0.88c0-1.66,1.34-3,3-3h65.4c1.66,0,3,1.34,3,3v0.88
		C232.7,144.41,231.35,145.76,229.7,145.76z"/>
	<path class="st0" d="M239.4,168.76h-75.11c-1.66,0-3-1.34-3-3v-0.88c0-1.66,1.34-3,3-3h75.11c1.66,0,3,1.34,3,3v0.88
		C242.4,167.41,241.05,168.76,239.4,168.76z"/>
	<path class="st0" d="M208.12,191.76h-43.83c-1.66,0-3-1.34-3-3v-0.88c0-1.66,1.34-3,3-3h43.83c1.66,0,3,1.34,3,3v0.88
		C211.12,190.41,209.78,191.76,208.12,191.76z"/>
	<path class="st0" d="M229.7,214.76h-65.4c-1.66,0-3-1.34-3-3v-0.88c0-1.66,1.34-3,3-3h65.4c1.66,0,3,1.34,3,3v0.88
		C232.7,213.41,231.35,214.76,229.7,214.76z"/>
	<path class="st0" d="M229.7,237.76h-65.4c-1.66,0-3-1.34-3-3v-0.88c0-1.66,1.34-3,3-3h65.4c1.66,0,3,1.34,3,3v0.88
		C232.7,236.41,231.35,237.76,229.7,237.76z"/>
</g>
<g id="Layer_2">
</g>
<g id="Layer_3">
</g>
</svg>
