<?xml version="1.0" encoding="utf-8"?>
<!-- Generator: Adobe Illustrator 24.2.0, SVG Export Plug-In . SVG Version: 6.00 Build 0)  -->
<svg version="1.1" xmlns="http://www.w3.org/2000/svg" xmlns:xlink="http://www.w3.org/1999/xlink" x="0px" y="0px"
	 viewBox="0 0 300 300" style="enable-background:new 0 0 300 300;" xml:space="preserve">
<style type="text/css">
	.st0{fill:#D6D6D6;}
	.st1{fill:#FFFFFF;}
	.st2{fill:#F6F6F6;}
	.st3{fill:#999999;}
</style>
<g id="Layer_1">
	<g>
		<path class="st0" d="M276.8,289.62H25.95c-7.77,0-14.07-6.3-14.07-14.07V24.7c0-7.77,6.3-14.07,14.07-14.07H276.8
			c7.77,0,14.07,6.3,14.07,14.07v250.86C290.88,283.33,284.58,289.62,276.8,289.62z"/>
		<g>
			<circle class="st1" cx="39.75" cy="36.25" r="8"/>
			<circle class="st1" cx="70.86" cy="36.25" r="8"/>
			<circle class="st1" cx="101.97" cy="36.25" r="8"/>
		</g>
	</g>
	<path class="st2" d="M266.21,271.5H37.79c-2.99,0-5.41-2.42-5.41-5.41V67.91c0-2.99,2.42-5.41,5.41-5.41h228.42
		c2.99,0,5.41,2.42,5.41,5.41v198.17C271.62,269.08,269.2,271.5,266.21,271.5z"/>
	<path class="st3" d="M149.15,102.76H61.29c-1.66,0-3-1.34-3-3v-0.88c0-1.66,1.34-3,3-3h87.85c1.66,0,3,1.34,3,3v0.88
		C152.15,101.41,150.8,102.76,149.15,102.76z"/>
	<path class="st0" d="M93.42,124.76H61.29c-1.66,0-3-1.34-3-3v-0.88c0-1.66,1.34-3,3-3h32.12c1.66,0,3,1.34,3,3v0.88
		C96.42,123.41,95.07,124.76,93.42,124.76z"/>
	<path class="st0" d="M168.97,124.76h-60.67c-1.66,0-3-1.34-3-3v-0.88c0-1.66,1.34-3,3-3h60.67c1.66,0,3,1.34,3,3v0.88
		C171.97,123.41,170.62,124.76,168.97,124.76z"/>
	<path class="st0" d="M235.54,124.76h-51.25c-1.66,0-3-1.34-3-3v-0.88c0-1.66,1.34-3,3-3h51.25c1.66,0,3,1.34,3,3v0.88
		C238.54,123.41,237.2,124.76,235.54,124.76z"/>
	<path class="st0" d="M149.15,146.76H61.29c-1.66,0-3-1.34-3-3v-0.88c0-1.66,1.34-3,3-3h87.85c1.66,0,3,1.34,3,3v0.88
		C152.15,145.41,150.8,146.76,149.15,146.76z"/>
	<path class="st0" d="M239,146.76h-74.71c-1.66,0-3-1.34-3-3v-0.88c0-1.66,1.34-3,3-3H239c1.66,0,3,1.34,3,3v0.88
		C242,145.41,240.66,146.76,239,146.76z"/>
	<path class="st0" d="M102.29,168.76h-41c-1.66,0-3-1.34-3-3v-0.88c0-1.66,1.34-3,3-3h41c1.66,0,3,1.34,3,3v0.88
		C105.29,167.41,103.95,168.76,102.29,168.76z"/>
	<path class="st0" d="M237.29,168.76h-41c-1.66,0-3-1.34-3-3v-0.88c0-1.66,1.34-3,3-3h41c1.66,0,3,1.34,3,3v0.88
		C240.29,167.41,238.95,168.76,237.29,168.76z"/>
	<path class="st0" d="M181.23,168.76h-63.94c-1.66,0-3-1.34-3-3v-0.88c0-1.66,1.34-3,3-3h63.94c1.66,0,3,1.34,3,3v0.88
		C184.23,167.41,182.89,168.76,181.23,168.76z"/>
	<path class="st0" d="M122.69,190.76h-61.4c-1.66,0-3-1.34-3-3v-0.88c0-1.66,1.34-3,3-3h61.4c1.66,0,3,1.34,3,3v0.88
		C125.69,189.41,124.35,190.76,122.69,190.76z"/>
	<path class="st0" d="M198.69,190.76h-61.4c-1.66,0-3-1.34-3-3v-0.88c0-1.66,1.34-3,3-3h61.4c1.66,0,3,1.34,3,3v0.88
		C201.69,189.41,200.35,190.76,198.69,190.76z"/>
	<path class="st0" d="M238.99,190.76h-27.7c-1.66,0-3-1.34-3-3v-0.88c0-1.66,1.34-3,3-3h27.7c1.66,0,3,1.34,3,3v0.88
		C241.99,189.41,240.65,190.76,238.99,190.76z"/>
	<path class="st0" d="M164.99,212.76H61.29c-1.66,0-3-1.34-3-3v-0.88c0-1.66,1.34-3,3-3h103.7c1.66,0,3,1.34,3,3v0.88
		C167.99,211.41,166.65,212.76,164.99,212.76z"/>
	<path class="st0" d="M231.96,212.76h-51.67c-1.66,0-3-1.34-3-3v-0.88c0-1.66,1.34-3,3-3h51.67c1.66,0,3,1.34,3,3v0.88
		C234.96,211.41,233.62,212.76,231.96,212.76z"/>
	<path class="st0" d="M202.91,234.76H61.29c-1.66,0-3-1.34-3-3v-0.88c0-1.66,1.34-3,3-3h141.62c1.66,0,3,1.34,3,3v0.88
		C205.91,233.41,204.57,234.76,202.91,234.76z"/>
</g>
<g id="Layer_2">
</g>
<g id="Layer_3">
</g>
</svg>
