<?xml version="1.0" encoding="utf-8"?>
<!-- Generator: Adobe Illustrator 24.2.0, SVG Export Plug-In . SVG Version: 6.00 Build 0)  -->
<svg version="1.1" xmlns="http://www.w3.org/2000/svg" xmlns:xlink="http://www.w3.org/1999/xlink" x="0px" y="0px"
	 viewBox="0 0 300 300" style="enable-background:new 0 0 300 300;" xml:space="preserve">
<style type="text/css">
	.st0{fill:#D6D6D6;}
	.st1{fill:#FFFFFF;}
	.st2{fill:#F6F6F6;}
	.st3{fill:#999999;}
</style>
<g id="Layer_1">
	<g>
		<path class="st0" d="M276.8,289.62H25.95c-7.77,0-14.07-6.3-14.07-14.07V24.7c0-7.77,6.3-14.07,14.07-14.07H276.8
			c7.77,0,14.07,6.3,14.07,14.07v250.86C290.88,283.33,284.58,289.62,276.8,289.62z"/>
		<g>
			<circle class="st1" cx="39.75" cy="36.25" r="8"/>
			<circle class="st1" cx="70.86" cy="36.25" r="8"/>
			<circle class="st1" cx="101.97" cy="36.25" r="8"/>
		</g>
	</g>
	<path class="st2" d="M266.21,271.5H37.79c-2.99,0-5.41-2.42-5.41-5.41V67.91c0-2.99,2.42-5.41,5.41-5.41h228.42
		c2.99,0,5.41,2.42,5.41,5.41v198.17C271.62,269.08,269.2,271.5,266.21,271.5z"/>
	<g>
		<path class="st0" d="M136.4,97.76H61.29c-1.66,0-3-1.34-3-3v-0.88c0-1.66,1.34-3,3-3h75.11c1.66,0,3,1.34,3,3v0.88
			C139.4,96.41,138.05,97.76,136.4,97.76z"/>
		<path class="st0" d="M229.14,97.76h-75.11c-1.66,0-3-1.34-3-3v-0.88c0-1.66,1.34-3,3-3h75.11c1.66,0,3,1.34,3,3v0.88
			C232.14,96.41,230.8,97.76,229.14,97.76z"/>
		<path class="st0" d="M77.22,119.76H61.29c-1.66,0-3-1.34-3-3v-0.88c0-1.66,1.34-3,3-3h15.93c1.66,0,3,1.34,3,3v0.88
			C80.22,118.41,78.88,119.76,77.22,119.76z"/>
		<path class="st0" d="M172.16,119.76H94.34c-1.66,0-3-1.34-3-3v-0.88c0-1.66,1.34-3,3-3h77.82c1.66,0,3,1.34,3,3v0.88
			C175.16,118.41,173.81,119.76,172.16,119.76z"/>
		<path class="st0" d="M243,119.76h-51.65c-1.66,0-3-1.34-3-3v-0.88c0-1.66,1.34-3,3-3H243c1.66,0,3,1.34,3,3v0.88
			C246,118.41,244.66,119.76,243,119.76z"/>
		<path class="st0" d="M167.89,142.76H243c1.66,0,3-1.34,3-3v-0.88c0-1.66-1.34-3-3-3h-75.11c-1.66,0-3,1.34-3,3v0.88
			C164.89,141.41,166.24,142.76,167.89,142.76z"/>
		<path class="st0" d="M62.05,142.76l89.28,0c1.66,0,3-1.34,3-3v-0.88c0-1.66-1.34-3-3-3H62.05c-1.66,0-3,1.34-3,3l0,0.88
			C59.05,141.41,60.39,142.76,62.05,142.76z"/>
		<path class="st0" d="M227.07,164.76H243c1.66,0,3-1.34,3-3v-0.88c0-1.66-1.34-3-3-3h-15.93c-1.66,0-3,1.34-3,3v0.88
			C224.07,163.41,225.42,164.76,227.07,164.76z"/>
		<path class="st0" d="M132.14,164.76h77.82c1.66,0,3-1.34,3-3v-0.88c0-1.66-1.34-3-3-3h-77.82c-1.66,0-3,1.34-3,3v0.88
			C129.14,163.41,130.48,164.76,132.14,164.76z"/>
		<path class="st0" d="M61.29,164.76h51.65c1.66,0,3-1.34,3-3v-0.88c0-1.66-1.34-3-3-3H61.29c-1.66,0-3,1.34-3,3v0.88
			C58.29,163.41,59.64,164.76,61.29,164.76z"/>
		<path class="st0" d="M77.22,188.76H61.29c-1.66,0-3-1.34-3-3v-0.88c0-1.66,1.34-3,3-3h15.93c1.66,0,3,1.34,3,3v0.88
			C80.22,187.41,78.88,188.76,77.22,188.76z"/>
		<path class="st0" d="M172.16,188.76H94.34c-1.66,0-3-1.34-3-3v-0.88c0-1.66,1.34-3,3-3h77.82c1.66,0,3,1.34,3,3v0.88
			C175.16,187.41,173.81,188.76,172.16,188.76z"/>
		<path class="st0" d="M243,188.76h-51.65c-1.66,0-3-1.34-3-3v-0.88c0-1.66,1.34-3,3-3H243c1.66,0,3,1.34,3,3v0.88
			C246,187.41,244.66,188.76,243,188.76z"/>
		<path class="st0" d="M227.07,214.76H243c1.66,0,3-1.34,3-3v-0.88c0-1.66-1.34-3-3-3h-15.93c-1.66,0-3,1.34-3,3v0.88
			C224.07,213.41,225.42,214.76,227.07,214.76z"/>
		<path class="st0" d="M132.14,214.76h77.82c1.66,0,3-1.34,3-3v-0.88c0-1.66-1.34-3-3-3h-77.82c-1.66,0-3,1.34-3,3v0.88
			C129.14,213.41,130.48,214.76,132.14,214.76z"/>
		<path class="st0" d="M61.29,214.76h51.65c1.66,0,3-1.34,3-3v-0.88c0-1.66-1.34-3-3-3H61.29c-1.66,0-3,1.34-3,3v0.88
			C58.29,213.41,59.64,214.76,61.29,214.76z"/>
		<path class="st0" d="M167.89,240.76H243c1.66,0,3-1.34,3-3v-0.88c0-1.66-1.34-3-3-3h-75.11c-1.66,0-3,1.34-3,3v0.88
			C164.89,239.41,166.24,240.76,167.89,240.76z"/>
		<path class="st0" d="M62.05,240.76l89.28,0c1.66,0,3-1.34,3-3v-0.88c0-1.66-1.34-3-3-3H62.05c-1.66,0-3,1.34-3,3l0,0.88
			C59.05,239.41,60.39,240.76,62.05,240.76z"/>
	</g>
</g>
<g id="Layer_2">
</g>
<g id="Layer_3">
</g>
</svg>
