<?xml version="1.0" encoding="utf-8"?>
<!-- Generator: Adobe Illustrator 24.2.0, SVG Export Plug-In . SVG Version: 6.00 Build 0)  -->
<svg version="1.1" xmlns="http://www.w3.org/2000/svg" xmlns:xlink="http://www.w3.org/1999/xlink" x="0px" y="0px"
	 viewBox="0 0 300 300" style="enable-background:new 0 0 300 300;" xml:space="preserve">
<style type="text/css">
	.st0{fill:#D6D6D6;}
	.st1{fill:#FFFFFF;}
	.st2{fill:#F6F6F6;}
	.st3{fill:#999999;}
</style>
<g id="Layer_1">
	<g>
		<path class="st0" d="M276.8,289.62H25.95c-7.77,0-14.07-6.3-14.07-14.07V24.7c0-7.77,6.3-14.07,14.07-14.07H276.8
			c7.77,0,14.07,6.3,14.07,14.07v250.86C290.88,283.33,284.58,289.62,276.8,289.62z"/>
		<g>
			<circle class="st1" cx="39.75" cy="36.25" r="8"/>
			<circle class="st1" cx="70.86" cy="36.25" r="8"/>
			<circle class="st1" cx="101.97" cy="36.25" r="8"/>
		</g>
	</g>
	<path class="st2" d="M266.21,271.5H37.79c-2.99,0-5.41-2.42-5.41-5.41V67.91c0-2.99,2.42-5.41,5.41-5.41h228.42
		c2.99,0,5.41,2.42,5.41,5.41v198.17C271.62,269.08,269.2,271.5,266.21,271.5z"/>
	<path class="st3" d="M166.07,102.76H61.29c-1.66,0-3-1.34-3-3v-0.88c0-1.66,1.34-3,3-3h104.77c1.66,0,3,1.34,3,3v0.88
		C169.07,101.41,167.72,102.76,166.07,102.76z"/>
	<path class="st0" d="M243,124.76H61.29c-1.66,0-3-1.34-3-3v-0.88c0-1.66,1.34-3,3-3H243c1.66,0,3,1.34,3,3v0.88
		C246,123.41,244.66,124.76,243,124.76z"/>
	<path class="st0" d="M206.8,146.76H61.29c-1.66,0-3-1.34-3-3v-0.88c0-1.66,1.34-3,3-3H206.8c1.66,0,3,1.34,3,3v0.88
		C209.8,145.41,208.46,146.76,206.8,146.76z"/>
	<path class="st0" d="M243,168.76H61.29c-1.66,0-3-1.34-3-3v-0.88c0-1.66,1.34-3,3-3H243c1.66,0,3,1.34,3,3v0.88
		C246,167.41,244.66,168.76,243,168.76z"/>
	<path class="st0" d="M230.9,190.76H61.29c-1.66,0-3-1.34-3-3v-0.88c0-1.66,1.34-3,3-3H230.9c1.66,0,3,1.34,3,3v0.88
		C233.9,189.41,232.56,190.76,230.9,190.76z"/>
	<path class="st0" d="M243,212.76H61.29c-1.66,0-3-1.34-3-3v-0.88c0-1.66,1.34-3,3-3H243c1.66,0,3,1.34,3,3v0.88
		C246,211.41,244.66,212.76,243,212.76z"/>
	<path class="st0" d="M202.91,234.76H61.29c-1.66,0-3-1.34-3-3v-0.88c0-1.66,1.34-3,3-3h141.62c1.66,0,3,1.34,3,3v0.88
		C205.91,233.41,204.57,234.76,202.91,234.76z"/>
</g>
<g id="Layer_2">
</g>
<g id="Layer_3">
</g>
</svg>
