<?xml version="1.0" encoding="utf-8"?>
<!-- Generator: Adobe Illustrator 24.2.0, SVG Export Plug-In . SVG Version: 6.00 Build 0)  -->
<svg version="1.1" xmlns="http://www.w3.org/2000/svg" xmlns:xlink="http://www.w3.org/1999/xlink" x="0px" y="0px"
	 viewBox="0 0 300 300" style="enable-background:new 0 0 300 300;" xml:space="preserve">
<style type="text/css">
	.st0{fill:#D6D6D6;}
	.st1{fill:#FFFFFF;}
	.st2{fill:#F6F6F6;}
	.st3{fill:#999999;}
</style>
<g id="Layer_1">
	<g>
		<path class="st0" d="M276.8,289.62H25.95c-7.77,0-14.07-6.3-14.07-14.07V24.7c0-7.77,6.3-14.07,14.07-14.07H276.8
			c7.77,0,14.07,6.3,14.07,14.07v250.86C290.88,283.33,284.58,289.62,276.8,289.62z"/>
		<g>
			<circle class="st1" cx="39.75" cy="36.25" r="8"/>
			<circle class="st1" cx="70.86" cy="36.25" r="8"/>
			<circle class="st1" cx="101.97" cy="36.25" r="8"/>
		</g>
	</g>
	<path class="st2" d="M266.21,271.5H37.79c-2.99,0-5.41-2.42-5.41-5.41V67.91c0-2.99,2.42-5.41,5.41-5.41h228.42
		c2.99,0,5.41,2.42,5.41,5.41v198.17C271.62,269.08,269.2,271.5,266.21,271.5z"/>
	<path class="st3" d="M149.15,105.76H61.29c-1.66,0-3-1.34-3-3v-0.88c0-1.66,1.34-3,3-3h87.85c1.66,0,3,1.34,3,3v0.88
		C152.15,104.41,150.8,105.76,149.15,105.76z"/>
	<path class="st0" d="M141.99,127.76h-80.7c-1.66,0-3-1.34-3-3v-0.88c0-1.66,1.34-3,3-3h80.7c1.66,0,3,1.34,3,3v0.88
		C144.99,126.41,143.65,127.76,141.99,127.76z"/>
	<path class="st0" d="M124.78,148.76H61.29c-1.66,0-3-1.34-3-3v-0.88c0-1.66,1.34-3,3-3h63.49c1.66,0,3,1.34,3,3v0.88
		C127.78,147.41,126.44,148.76,124.78,148.76z"/>
	<path class="st0" d="M137.52,169.76H61.29c-1.66,0-3-1.34-3-3v-0.88c0-1.66,1.34-3,3-3h76.22c1.66,0,3,1.34,3,3v0.88
		C140.52,168.41,139.17,169.76,137.52,169.76z"/>
	<path class="st0" d="M124.78,190.76H61.29c-1.66,0-3-1.34-3-3v-0.88c0-1.66,1.34-3,3-3h63.49c1.66,0,3,1.34,3,3v0.88
		C127.78,189.41,126.44,190.76,124.78,190.76z"/>
	<path class="st0" d="M115.58,211.76H61.29c-1.66,0-3-1.34-3-3v-0.88c0-1.66,1.34-3,3-3h54.28c1.66,0,3,1.34,3,3v0.88
		C118.58,210.41,117.23,211.76,115.58,211.76z"/>
	<path class="st0" d="M141.99,232.76h-80.7c-1.66,0-3-1.34-3-3v-0.88c0-1.66,1.34-3,3-3h80.7c1.66,0,3,1.34,3,3v0.88
		C144.99,231.41,143.65,232.76,141.99,232.76z"/>
	<path class="st0" d="M217.43,127.76H162.3c-1.66,0-3-1.34-3-3v-0.88c0-1.66,1.34-3,3-3h55.12c1.66,0,3,1.34,3,3v0.88
		C220.43,126.41,219.08,127.76,217.43,127.76z"/>
	<path class="st0" d="M243,148.76h-80.7c-1.66,0-3-1.34-3-3v-0.88c0-1.66,1.34-3,3-3H243c1.66,0,3,1.34,3,3v0.88
		C246,147.41,244.66,148.76,243,148.76z"/>
	<path class="st0" d="M199.65,169.76H162.3c-1.66,0-3-1.34-3-3v-0.88c0-1.66,1.34-3,3-3h37.35c1.66,0,3,1.34,3,3v0.88
		C202.65,168.41,201.31,169.76,199.65,169.76z"/>
	<path class="st0" d="M243,190.76h-80.7c-1.66,0-3-1.34-3-3v-0.88c0-1.66,1.34-3,3-3H243c1.66,0,3,1.34,3,3v0.88
		C246,189.41,244.66,190.76,243,190.76z"/>
	<path class="st0" d="M232.39,211.76H162.3c-1.66,0-3-1.34-3-3v-0.88c0-1.66,1.34-3,3-3h70.09c1.66,0,3,1.34,3,3v0.88
		C235.39,210.41,234.05,211.76,232.39,211.76z"/>
	<path class="st0" d="M222.47,232.76H162.3c-1.66,0-3-1.34-3-3v-0.88c0-1.66,1.34-3,3-3h60.17c1.66,0,3,1.34,3,3v0.88
		C225.47,231.41,224.13,232.76,222.47,232.76z"/>
</g>
<g id="Layer_2">
</g>
<g id="Layer_3">
</g>
</svg>
