<?xml version="1.0" encoding="utf-8"?>
<!-- Generator: Adobe Illustrator 24.2.0, SVG Export Plug-In . SVG Version: 6.00 Build 0)  -->
<svg version="1.1" id="Layer_1" xmlns="http://www.w3.org/2000/svg" xmlns:xlink="http://www.w3.org/1999/xlink" x="0px" y="0px"
	 viewBox="0 0 300 300" style="enable-background:new 0 0 300 300;" xml:space="preserve">
<style type="text/css">
	.st0{fill:#D6D6D6;}
	.st1{fill:#FFFFFF;}
	.st2{fill:#F6F6F6;}
	.st3{fill:#999999;}
	.st4{fill:#D5D5D5;}
</style>
<g>
	<path class="st0" d="M276.8,289.62H25.95c-7.77,0-14.07-6.3-14.07-14.07V24.7c0-7.77,6.3-14.07,14.07-14.07H276.8
		c7.77,0,14.07,6.3,14.07,14.07v250.86C290.88,283.33,284.58,289.62,276.8,289.62z"/>
	<g>
		<circle class="st1" cx="39.75" cy="36.25" r="8"/>
		<circle class="st1" cx="70.86" cy="36.25" r="8"/>
		<circle class="st1" cx="101.97" cy="36.25" r="8"/>
	</g>
</g>
<path class="st2" d="M261.96,271.5H42.04c-5.34,0-9.67-4.33-9.67-9.67V72.17c0-5.34,4.33-9.67,9.67-9.67h219.92
	c5.34,0,9.67,4.33,9.67,9.67v189.67C271.62,267.17,267.3,271.5,261.96,271.5z"/>
<g>
	<path class="st3" d="M122.95,237H64.54c-0.38,0-0.68-0.31-0.68-0.68v-14.16c0-0.38,0.31-0.68,0.68-0.68h58.41
		c0.38,0,0.68,0.31,0.68,0.68v14.16C123.64,236.69,123.33,237,122.95,237z"/>
	<path class="st3" d="M193.9,237h-58.41c-0.38,0-0.68-0.31-0.68-0.68v-14.16c0-0.38,0.31-0.68,0.68-0.68h58.41
		c0.38,0,0.68,0.31,0.68,0.68v14.16C194.58,236.69,194.28,237,193.9,237z"/>
	<path class="st0" d="M237.46,237h-28.04c-2.03,0-3.68-1.65-3.68-3.68v-8.17c0-2.03,1.65-3.68,3.68-3.68h28.04
		c2.03,0,3.68,1.65,3.68,3.68v8.17C241.14,235.35,239.49,237,237.46,237z"/>
</g>
<g>
	<circle class="st3" cx="152.5" cy="140" r="46"/>
	<g>
		<path class="st4" d="M129.11,162.86c0-13.13,10.65-23.78,23.78-23.78s23.78,10.65,23.78,23.78"/>
		<circle class="st2" cx="152.89" cy="128.48" r="11.09"/>
	</g>
</g>
</svg>
