<?xml version="1.0" encoding="utf-8"?>
<!-- Generator: Adobe Illustrator 24.2.0, SVG Export Plug-In . SVG Version: 6.00 Build 0)  -->
<svg version="1.1" id="Layer_1" xmlns="http://www.w3.org/2000/svg" xmlns:xlink="http://www.w3.org/1999/xlink" x="0px" y="0px"
	 viewBox="0 0 300 300" style="enable-background:new 0 0 300 300;" xml:space="preserve">
<style type="text/css">
	.st0{fill:#D6D6D6;}
	.st1{fill:#FFFFFF;}
	.st2{fill:#F6F6F6;}
	.st3{fill:#999999;}
	.st4{fill:#D5D5D5;}
</style>
<g>
	<path class="st0" d="M276.8,289.62H25.95c-7.77,0-14.07-6.3-14.07-14.07V24.7c0-7.77,6.3-14.07,14.07-14.07H276.8
		c7.77,0,14.07,6.3,14.07,14.07v250.86C290.88,283.33,284.58,289.62,276.8,289.62z"/>
	<g>
		<circle class="st1" cx="39.75" cy="36.25" r="8"/>
		<circle class="st1" cx="70.86" cy="36.25" r="8"/>
		<circle class="st1" cx="101.97" cy="36.25" r="8"/>
	</g>
</g>
<path class="st2" d="M261.96,271.5H42.04c-5.34,0-9.67-4.33-9.67-9.67V72.17c0-5.34,4.33-9.67,9.67-9.67h219.92
	c5.34,0,9.67,4.33,9.67,9.67v189.67C271.62,267.17,267.3,271.5,261.96,271.5z"/>
<g>
	<path class="st0" d="M198.5,91h-55.04c-3.04,0-5.5-2.46-5.5-5.5v0c0-3.04,2.46-5.5,5.5-5.5h55.04c3.04,0,5.5,2.46,5.5,5.5v0
		C204,88.54,201.54,91,198.5,91z"/>
	<path class="st3" d="M245.32,133H138.68c-0.38,0-0.68-0.31-0.68-0.68V98.68c0-0.38,0.31-0.68,0.68-0.68h106.64
		c0.38,0,0.68,0.31,0.68,0.68v33.64C246,132.69,245.69,133,245.32,133z"/>
	<path class="st3" d="M245.32,181H138.68c-0.38,0-0.68-0.31-0.68-0.68v-33.64c0-0.38,0.31-0.68,0.68-0.68h106.64
		c0.38,0,0.68,0.31,0.68,0.68v33.64C246,180.69,245.69,181,245.32,181z"/>
	<path class="st3" d="M245.32,229H138.68c-0.38,0-0.68-0.31-0.68-0.68v-33.64c0-0.38,0.31-0.68,0.68-0.68h106.64
		c0.38,0,0.68,0.31,0.68,0.68v33.64C246,228.69,245.69,229,245.32,229z"/>
	<path class="st0" d="M242.32,254h-76.65c-2.03,0-3.68-1.65-3.68-3.68v-8.65c0-2.03,1.65-3.68,3.68-3.68h76.65
		c2.03,0,3.68,1.65,3.68,3.68v8.65C246,252.35,244.35,254,242.32,254z"/>
</g>
<g>
	<circle class="st3" cx="87.5" cy="109.5" r="29.5"/>
	<g>
		<path class="st4" d="M72.5,124.16c0-8.42,6.83-15.25,15.25-15.25S103,115.73,103,124.16"/>
		<circle class="st2" cx="87.75" cy="102.11" r="7.11"/>
	</g>
</g>
</svg>
