<?xml version="1.0" encoding="utf-8"?>
<!-- Generator: Adobe Illustrator 24.2.0, SVG Export Plug-In . SVG Version: 6.00 Build 0)  -->
<svg version="1.1" id="Layer_1" xmlns="http://www.w3.org/2000/svg" xmlns:xlink="http://www.w3.org/1999/xlink" x="0px" y="0px"
	 viewBox="0 0 300 300" style="enable-background:new 0 0 300 300;" xml:space="preserve">
<style type="text/css">
	.st0{fill:#D6D6D6;}
	.st1{fill:#FFFFFF;}
	.st2{fill:#F6F6F6;}
	.st3{fill:#999999;}
</style>
<g>
	<path class="st0" d="M276.8,289.62H25.95c-7.77,0-14.07-6.3-14.07-14.07V24.7c0-7.77,6.3-14.07,14.07-14.07H276.8
		c7.77,0,14.07,6.3,14.07,14.07v250.86C290.88,283.33,284.58,289.62,276.8,289.62z"/>
	<g>
		<circle class="st1" cx="39.75" cy="36.25" r="8"/>
		<circle class="st1" cx="70.86" cy="36.25" r="8"/>
		<circle class="st1" cx="101.97" cy="36.25" r="8"/>
	</g>
</g>
<path class="st2" d="M261.96,271.5H42.04c-5.34,0-9.67-4.33-9.67-9.67V72.17c0-5.34,4.33-9.67,9.67-9.67h219.92
	c5.34,0,9.67,4.33,9.67,9.67v189.67C271.62,267.17,267.3,271.5,261.96,271.5z"/>
<g>
	<path class="st3" d="M184.71,120H57.68c-0.38,0-0.68-0.31-0.68-0.68V87.68c0-0.38,0.31-0.68,0.68-0.68h127.03
		c0.38,0,0.68,0.31,0.68,0.68v31.64C185.4,119.69,185.09,120,184.71,120z"/>
	<path class="st3" d="M184.71,164H57.68c-0.38,0-0.68-0.31-0.68-0.68v-31.64c0-0.38,0.31-0.68,0.68-0.68h127.03
		c0.38,0,0.68,0.31,0.68,0.68v31.64C185.4,163.69,185.09,164,184.71,164z"/>
	<path class="st3" d="M245.32,221H57.68c-0.38,0-0.68-0.31-0.68-0.68v-44.64c0-0.38,0.31-0.68,0.68-0.68h187.64
		c0.38,0,0.68,0.31,0.68,0.68v44.64C246,220.69,245.69,221,245.32,221z"/>
	<path class="st0" d="M241.84,247h-66.66c-2.3,0-4.16-1.86-4.16-4.16v-5.68c0-2.3,1.86-4.16,4.16-4.16h66.66
		c2.3,0,4.16,1.86,4.16,4.16v5.68C246,245.14,244.14,247,241.84,247z"/>
</g>
</svg>
