<?xml version="1.0" encoding="utf-8"?>
<!-- Generator: Adobe Illustrator 24.2.0, SVG Export Plug-In . SVG Version: 6.00 Build 0)  -->
<svg version="1.1" id="Layer_1" xmlns="http://www.w3.org/2000/svg" xmlns:xlink="http://www.w3.org/1999/xlink" x="0px" y="0px"
	 viewBox="0 0 300 300" style="enable-background:new 0 0 300 300;" xml:space="preserve">
<style type="text/css">
	.st0{fill:#D6D6D6;}
	.st1{fill:#FFFFFF;}
	.st2{fill:#F6F6F6;}
	.st3{fill:#999999;}
</style>
<g>
	<path class="st0" d="M276.8,289.62H25.95c-7.77,0-14.07-6.3-14.07-14.07V24.7c0-7.77,6.3-14.07,14.07-14.07H276.8
		c7.77,0,14.07,6.3,14.07,14.07v250.86C290.88,283.33,284.58,289.62,276.8,289.62z"/>
	<g>
		<circle class="st1" cx="39.75" cy="36.25" r="8"/>
		<circle class="st1" cx="70.86" cy="36.25" r="8"/>
		<circle class="st1" cx="101.97" cy="36.25" r="8"/>
	</g>
</g>
<path class="st2" d="M261.96,271.5H42.04c-5.34,0-9.67-4.33-9.67-9.67V72.17c0-5.34,4.33-9.67,9.67-9.67h219.92
	c5.34,0,9.67,4.33,9.67,9.67v189.67C271.62,267.17,267.3,271.5,261.96,271.5z"/>
<g>
	<path class="st3" d="M143.32,126H57.68c-0.38,0-0.68-0.31-0.68-0.68v-17.64c0-0.38,0.31-0.68,0.68-0.68h85.64
		c0.38,0,0.68,0.31,0.68,0.68v17.64C144,125.69,143.69,126,143.32,126z"/>
	<path class="st0" d="M125.14,99H62.5c-3.04,0-5.5-2.46-5.5-5.5v0c0-3.04,2.46-5.5,5.5-5.5h62.64c3.04,0,5.5,2.46,5.5,5.5v0
		C130.64,96.54,128.17,99,125.14,99z"/>
</g>
<g>
	<path class="st3" d="M245.32,218H57.68c-0.38,0-0.68-0.31-0.68-0.68v-53.64c0-0.38,0.31-0.68,0.68-0.68h187.64
		c0.38,0,0.68,0.31,0.68,0.68v53.64C246,217.69,245.69,218,245.32,218z"/>
	<path class="st0" d="M125.14,155H62.5c-3.04,0-5.5-2.46-5.5-5.5v0c0-3.04,2.46-5.5,5.5-5.5h62.64c3.04,0,5.5,2.46,5.5,5.5v0
		C130.64,152.54,128.17,155,125.14,155z"/>
</g>
<g>
	<path class="st3" d="M245.32,126h-85.64c-0.38,0-0.68-0.31-0.68-0.68v-17.64c0-0.38,0.31-0.68,0.68-0.68h85.64
		c0.38,0,0.68,0.31,0.68,0.68v17.64C246,125.69,245.69,126,245.32,126z"/>
	<path class="st0" d="M242.32,247h-79.65c-2.03,0-3.68-1.65-3.68-3.68v-11.65c0-2.03,1.65-3.68,3.68-3.68h79.65
		c2.03,0,3.68,1.65,3.68,3.68v11.65C246,245.35,244.35,247,242.32,247z"/>
	<path class="st0" d="M227.14,99H164.5c-3.04,0-5.5-2.46-5.5-5.5v0c0-3.04,2.46-5.5,5.5-5.5h62.64c3.04,0,5.5,2.46,5.5,5.5v0
		C232.64,96.54,230.17,99,227.14,99z"/>
</g>
</svg>
