<?xml version="1.0" encoding="utf-8"?>
<!-- Generator: Adobe Illustrator 24.2.0, SVG Export Plug-In . SVG Version: 6.00 Build 0)  -->
<svg version="1.1" xmlns="http://www.w3.org/2000/svg" xmlns:xlink="http://www.w3.org/1999/xlink" x="0px" y="0px"
	 viewBox="0 0 300 300" style="enable-background:new 0 0 300 300;" xml:space="preserve">
<style type="text/css">
	.st0{fill:#D6D6D6;}
	.st1{fill:#FFFFFF;}
	.st2{fill:#F6F6F6;}
	.st3{fill:#999999;}
	.st4{fill:#D5D5D5;}
</style>
<g id="Layer_1">
	<g>
		<path class="st0" d="M276.8,289.62H25.95c-7.77,0-14.07-6.3-14.07-14.07V24.7c0-7.77,6.3-14.07,14.07-14.07H276.8
			c7.77,0,14.07,6.3,14.07,14.07v250.86C290.88,283.33,284.58,289.62,276.8,289.62z"/>
		<g>
			<circle class="st1" cx="39.75" cy="36.25" r="8"/>
			<circle class="st1" cx="70.86" cy="36.25" r="8"/>
			<circle class="st1" cx="101.97" cy="36.25" r="8"/>
		</g>
	</g>
	<path class="st2" d="M266.21,271.5H37.79c-2.99,0-5.41-2.42-5.41-5.41V67.91c0-2.99,2.42-5.41,5.41-5.41h228.42
		c2.99,0,5.41,2.42,5.41,5.41v198.17C271.62,269.08,269.2,271.5,266.21,271.5z"/>
	<g>
		<path class="st3" d="M100.44,177H70.12c-3.04,0-5.5-2.46-5.5-5.5v0c0-3.04,2.46-5.5,5.5-5.5h30.32c3.04,0,5.5,2.46,5.5,5.5v0
			C105.94,174.54,103.48,177,100.44,177z"/>
		<g>
			<g>
				<rect x="64.62" y="126.17" class="st0" width="9.39" height="25.49"/>
			</g>
			<g>
				<rect x="78.03" y="114.99" class="st0" width="9.39" height="36.66"/>
			</g>
			<g>
				<rect x="91.45" y="103.37" class="st0" width="9.39" height="48.29"/>
			</g>
			<g>
				<rect x="104.86" y="98" class="st3" width="9.39" height="53.66"/>
			</g>
			<g>
				<rect x="118.28" y="109.18" class="st0" width="9.39" height="42.48"/>
			</g>
		</g>
		<path class="st0" d="M118.99,207H70.12c-3.04,0-5.5-2.46-5.5-5.5v0c0-3.04,2.46-5.5,5.5-5.5h48.86c3.04,0,5.5,2.46,5.5,5.5v0
			C124.49,204.54,122.02,207,118.99,207z"/>
		<path class="st0" d="M118.99,237H70.12c-3.04,0-5.5-2.46-5.5-5.5v0c0-3.04,2.46-5.5,5.5-5.5h48.86c3.04,0,5.5,2.46,5.5,5.5v0
			C124.49,234.54,122.02,237,118.99,237z"/>
	</g>
	<g>
		<g>
			<path class="st0" d="M208.34,100.15c-15.3,0.14-27.66,12.59-27.66,27.92c0,15.42,12.5,27.93,27.93,27.93
				c15.33,0,27.77-12.36,27.92-27.66h-28.19V100.15z"/>
			<path class="st3" d="M231.35,105.02c-5.04-4.96-11.96-8.02-19.59-8.02c-0.09,0-0.18,0.01-0.27,0.01v28.19h28.19
				c0-0.09,0.01-0.18,0.01-0.27C239.68,117.14,236.49,110.09,231.35,105.02z"/>
		</g>
		<path class="st3" d="M216.5,177h-30.32c-3.04,0-5.5-2.46-5.5-5.5v0c0-3.04,2.46-5.5,5.5-5.5h30.32c3.04,0,5.5,2.46,5.5,5.5v0
			C222,174.54,219.54,177,216.5,177z"/>
		<path class="st0" d="M235.05,207h-48.87c-3.04,0-5.5-2.46-5.5-5.5v0c0-3.04,2.46-5.5,5.5-5.5h48.87c3.04,0,5.5,2.46,5.5,5.5v0
			C240.55,204.54,238.08,207,235.05,207z"/>
		<path class="st0" d="M235.05,237h-48.87c-3.04,0-5.5-2.46-5.5-5.5v0c0-3.04,2.46-5.5,5.5-5.5h48.87c3.04,0,5.5,2.46,5.5,5.5v0
			C240.55,234.54,238.08,237,235.05,237z"/>
	</g>
</g>
<g id="Layer_2">
</g>
<g id="Layer_3">
</g>
</svg>
