<?xml version="1.0" encoding="utf-8"?>
<!-- Generator: Adobe Illustrator 24.2.0, SVG Export Plug-In . SVG Version: 6.00 Build 0)  -->
<svg version="1.1" xmlns="http://www.w3.org/2000/svg" xmlns:xlink="http://www.w3.org/1999/xlink" x="0px" y="0px"
	 viewBox="0 0 300 300" style="enable-background:new 0 0 300 300;" xml:space="preserve">
<style type="text/css">
	.st0{fill:#D6D6D6;}
	.st1{fill:#FFFFFF;}
	.st2{fill:#F6F6F6;}
	.st3{fill:#999999;}
	.st4{fill:#D5D5D5;}
	.st5{fill:none;stroke:#D6D6D6;stroke-width:4;stroke-linecap:round;stroke-miterlimit:10;}
</style>
<g id="Layer_1">
	<g>
		<path class="st0" d="M276.8,289.62H25.95c-7.77,0-14.07-6.3-14.07-14.07V24.7c0-7.77,6.3-14.07,14.07-14.07H276.8
			c7.77,0,14.07,6.3,14.07,14.07v250.86C290.88,283.33,284.58,289.62,276.8,289.62z"/>
		<g>
			<circle class="st1" cx="39.75" cy="36.25" r="8"/>
			<circle class="st1" cx="70.86" cy="36.25" r="8"/>
			<circle class="st1" cx="101.97" cy="36.25" r="8"/>
		</g>
	</g>
	<path class="st2" d="M266.21,271.5H37.79c-2.99,0-5.41-2.42-5.41-5.41V67.91c0-2.99,2.42-5.41,5.41-5.41h228.42
		c2.99,0,5.41,2.42,5.41,5.41v198.17C271.62,269.08,269.2,271.5,266.21,271.5z"/>
	<g>
		<path class="st0" d="M92.16,189.15c-15.3,0.14-27.66,12.59-27.66,27.92C64.5,232.5,77,245,92.43,245
			c15.33,0,27.77-12.36,27.92-27.66H92.16V189.15z"/>
		<path class="st3" d="M115.16,194.02c-5.04-4.96-11.96-8.02-19.59-8.02c-0.09,0-0.18,0.01-0.27,0.01v28.19h28.19
			c0-0.09,0.01-0.18,0.01-0.27C123.5,206.14,120.31,199.09,115.16,194.02z"/>
	</g>
	<rect x="150" y="75" class="st0" width="6" height="182"/>
	<rect x="150" y="62" transform="matrix(6.365234e-07 1 -1 6.365234e-07 318.9999 12.9999)" class="st0" width="6" height="208"/>
	<g>
		<g>
			<rect x="66.62" y="118.17" class="st0" width="9.39" height="25.49"/>
		</g>
		<g>
			<rect x="80.03" y="106.99" class="st0" width="9.39" height="36.66"/>
		</g>
		<g>
			<rect x="93.45" y="95.37" class="st0" width="9.39" height="48.29"/>
		</g>
		<g>
			<rect x="106.86" y="90" class="st3" width="9.39" height="53.66"/>
		</g>
		<g>
			<rect x="120.28" y="101.18" class="st0" width="9.39" height="42.48"/>
		</g>
	</g>
	<g>
		<g>
			<rect x="181.32" y="182.31" class="st0" width="25.49" height="9.39"/>
		</g>
		<g>
			<rect x="181.32" y="195.72" class="st0" width="36.66" height="9.39"/>
		</g>
		<g>
			<rect x="181.32" y="209.13" class="st0" width="48.29" height="9.39"/>
		</g>
		<g>
			<rect x="181.32" y="222.55" class="st3" width="53.66" height="9.39"/>
		</g>
		<g>
			<rect x="181.32" y="235.96" class="st0" width="42.48" height="9.39"/>
		</g>
	</g>
	<polyline class="st5" points="176,141 217,100 232,115 	"/>
	<circle class="st3" cx="216" cy="102" r="8"/>
</g>
<g id="Layer_2">
</g>
<g id="Layer_3">
</g>
</svg>
