<?xml version="1.0" encoding="utf-8"?>
<!-- Generator: Adobe Illustrator 24.2.0, SVG Export Plug-In . SVG Version: 6.00 Build 0)  -->
<svg version="1.1" xmlns="http://www.w3.org/2000/svg" xmlns:xlink="http://www.w3.org/1999/xlink" x="0px" y="0px"
	 viewBox="0 0 300 300" style="enable-background:new 0 0 300 300;" xml:space="preserve">
<style type="text/css">
	.st0{fill:#D6D6D6;}
	.st1{fill:#FFFFFF;}
	.st2{fill:#F6F6F6;}
	.st3{fill:#999999;}
	.st4{fill:#D5D5D5;}
</style>
<g id="Layer_1">
	<g>
		<path class="st0" d="M276.8,289.62H25.95c-7.77,0-14.07-6.3-14.07-14.07V24.7c0-7.77,6.3-14.07,14.07-14.07H276.8
			c7.77,0,14.07,6.3,14.07,14.07v250.86C290.88,283.33,284.58,289.62,276.8,289.62z"/>
		<g>
			<circle class="st1" cx="39.75" cy="36.25" r="8"/>
			<circle class="st1" cx="70.86" cy="36.25" r="8"/>
			<circle class="st1" cx="101.97" cy="36.25" r="8"/>
		</g>
	</g>
	<path class="st2" d="M266.21,271.5H37.79c-2.99,0-5.41-2.42-5.41-5.41V67.91c0-2.99,2.42-5.41,5.41-5.41h228.42
		c2.99,0,5.41,2.42,5.41,5.41v198.17C271.62,269.08,269.2,271.5,266.21,271.5z"/>
	<g>
		<path class="st0" d="M249,112c0,0.55-0.45,1-1,1H59c-0.55,0-1-0.45-1-1v-5c0-0.55,0.45-1,1-1h189c0.55,0,1,0.45,1,1V112z"/>
	</g>
	<g>
		<path class="st3" d="M93.5,90.02c0,0.55-0.45,1-1,1H59c-0.55,0-1-0.45-1-1v-5c0-0.55,0.45-1,1-1h33.5c0.55,0,1,0.45,1,1V90.02z"/>
	</g>
	<g>
		<path class="st3" d="M248.5,90.02c0,0.55-0.45,1-1,1h-23.84c-0.55,0-1-0.45-1-1v-5c0-0.55,0.45-1,1-1h23.84c0.55,0,1,0.45,1,1
			V90.02z"/>
	</g>
	<g>
		<path class="st3" d="M190.69,90.02c0,0.55-0.45,1-1,1H110c-0.55,0-1-0.45-1-1v-5c0-0.55,0.45-1,1-1h79.69c0.55,0,1,0.45,1,1V90.02
			z"/>
	</g>
	<g>
		<path class="st0" d="M249,149.02c0,0.55-0.45,1-1,1H59c-0.55,0-1-0.45-1-1v-5c0-0.55,0.45-1,1-1h189c0.55,0,1,0.45,1,1V149.02z"/>
	</g>
	<g>
		<path class="st0" d="M91,247c-0.55,0-1-0.45-1-1l0-136c0-0.55,0.45-1,1-1l5,0c0.55,0,1,0.45,1,1l0,136c0,0.55-0.45,1-1,1L91,247z"
			/>
	</g>
	<g>
		<path class="st0" d="M249,186.04c0,0.55-0.45,1-1,1H59c-0.55,0-1-0.45-1-1v-5c0-0.55,0.45-1,1-1h189c0.55,0,1,0.45,1,1V186.04z"/>
	</g>
	<g>
		<path class="st0" d="M249,223.05c0,0.55-0.45,1-1,1H59c-0.55,0-1-0.45-1-1v-5c0-0.55,0.45-1,1-1h189c0.55,0,1,0.45,1,1V223.05z"/>
	</g>
	<g>
		<path class="st0" d="M131,247c-0.55,0-1-0.45-1-1l0-136c0-0.55,0.45-1,1-1l5,0c0.55,0,1,0.45,1,1l0,136c0,0.55-0.45,1-1,1L131,247
			z"/>
	</g>
	<g>
		<path class="st0" d="M171,247c-0.55,0-1-0.45-1-1l0-136c0-0.55,0.45-1,1-1l5,0c0.55,0,1,0.45,1,1l0,136c0,0.55-0.45,1-1,1L171,247
			z"/>
	</g>
	<g>
		<path class="st0" d="M211,247c-0.55,0-1-0.45-1-1l0-136c0-0.55,0.45-1,1-1l5,0c0.55,0,1,0.45,1,1l0,136c0,0.55-0.45,1-1,1L211,247
			z"/>
	</g>
</g>
<g id="Layer_2">
</g>
<g id="Layer_3">
</g>
</svg>
