<?xml version="1.0" encoding="utf-8"?>
<!-- Generator: Adobe Illustrator 24.2.0, SVG Export Plug-In . SVG Version: 6.00 Build 0)  -->
<svg version="1.1" xmlns="http://www.w3.org/2000/svg" xmlns:xlink="http://www.w3.org/1999/xlink" x="0px" y="0px"
	 viewBox="0 0 300 300" style="enable-background:new 0 0 300 300;" xml:space="preserve">
<style type="text/css">
	.st0{fill:#D6D6D6;}
	.st1{fill:#FFFFFF;}
	.st2{fill:#F6F6F6;}
	.st3{fill:#999999;}
	.st4{fill:#D5D5D5;}
	.st5{fill:none;stroke:#F7F7F7;stroke-width:9;stroke-linecap:round;stroke-miterlimit:10;}
</style>
<g id="Layer_1">
	<g>
		<path class="st0" d="M276.8,289.62H25.95c-7.77,0-14.07-6.3-14.07-14.07V24.7c0-7.77,6.3-14.07,14.07-14.07H276.8
			c7.77,0,14.07,6.3,14.07,14.07v250.86C290.88,283.33,284.58,289.62,276.8,289.62z"/>
		<g>
			<circle class="st1" cx="39.75" cy="36.25" r="8"/>
			<circle class="st1" cx="70.86" cy="36.25" r="8"/>
			<circle class="st1" cx="101.97" cy="36.25" r="8"/>
		</g>
	</g>
	<path class="st2" d="M266.21,271.5H37.79c-2.99,0-5.41-2.42-5.41-5.41V67.91c0-2.99,2.42-5.41,5.41-5.41h228.42
		c2.99,0,5.41,2.42,5.41,5.41v198.17C271.62,269.08,269.2,271.5,266.21,271.5z"/>
	<path class="st0" d="M221.68,215.54H81.51c-2.37,0-4.3-1.92-4.3-4.3v-0.21c0-2.37,1.92-4.3,4.3-4.3h140.17c2.37,0,4.3,1.92,4.3,4.3
		v0.21C225.98,213.62,224.06,215.54,221.68,215.54z"/>
	<path class="st0" d="M206.33,234.54H96.86c-2.37,0-4.3-1.92-4.3-4.3v-0.21c0-2.37,1.92-4.3,4.3-4.3h109.47c2.37,0,4.3,1.92,4.3,4.3
		v0.21C210.63,232.62,208.71,234.54,206.33,234.54z"/>
	<g>
		<circle class="st3" cx="152.5" cy="141.75" r="48.5"/>
		<polyline class="st5" points="129.52,143.05 143.98,157.5 175.48,126 		"/>
	</g>
</g>
<g id="Layer_2">
</g>
<g id="Layer_3">
</g>
</svg>
