<?xml version="1.0" encoding="utf-8"?>
<!-- Generator: Adobe Illustrator 24.2.0, SVG Export Plug-In . SVG Version: 6.00 Build 0)  -->
<svg version="1.1" xmlns="http://www.w3.org/2000/svg" xmlns:xlink="http://www.w3.org/1999/xlink" x="0px" y="0px"
	 viewBox="0 0 300 300" style="enable-background:new 0 0 300 300;" xml:space="preserve">
<style type="text/css">
	.st0{fill:#D6D6D6;}
	.st1{fill:#FFFFFF;}
	.st2{fill:#F6F6F6;}
	.st3{fill:#999999;}
	.st4{fill:#D5D5D5;}
</style>
<g id="Layer_1">
	<g>
		<path class="st0" d="M276.8,289.62H25.95c-7.77,0-14.07-6.3-14.07-14.07V24.7c0-7.77,6.3-14.07,14.07-14.07H276.8
			c7.77,0,14.07,6.3,14.07,14.07v250.86C290.88,283.33,284.58,289.62,276.8,289.62z"/>
		<g>
			<circle class="st1" cx="39.75" cy="36.25" r="8"/>
			<circle class="st1" cx="70.86" cy="36.25" r="8"/>
			<circle class="st1" cx="101.97" cy="36.25" r="8"/>
		</g>
	</g>
	<path class="st2" d="M266.21,271.5H37.79c-2.99,0-5.41-2.42-5.41-5.41V67.91c0-2.99,2.42-5.41,5.41-5.41h228.42
		c2.99,0,5.41,2.42,5.41,5.41v198.17C271.62,269.08,269.2,271.5,266.21,271.5z"/>
	<g>
		<path class="st0" d="M183.95,115H58.62c-0.38,0-0.68-0.31-0.68-0.68V96.68c0-0.38,0.31-0.68,0.68-0.68h125.33
			c0.38,0,0.68,0.31,0.68,0.68v17.64C184.63,114.69,184.33,115,183.95,115z"/>
		<path class="st0" d="M244.32,115h-49.69c-0.38,0-0.68-0.31-0.68-0.68V96.68c0-0.38,0.31-0.68,0.68-0.68h49.69
			c0.38,0,0.68,0.31,0.68,0.68v17.64C245,114.69,244.69,115,244.32,115z"/>
		<path class="st0" d="M183.95,173h-82.27c-0.38,0-0.68-0.31-0.68-0.68v-46.64c0-0.38,0.31-0.68,0.68-0.68h82.27
			c0.38,0,0.68,0.31,0.68,0.68v46.64C184.63,172.69,184.33,173,183.95,173z"/>
		<path class="st0" d="M90.32,173H59.68c-0.38,0-0.68-0.31-0.68-0.68v-46.64c0-0.38,0.31-0.68,0.68-0.68h30.64
			c0.38,0,0.68,0.31,0.68,0.68v46.64C91,172.69,90.69,173,90.32,173z"/>
		<path class="st0" d="M244.32,173h-49.69c-0.38,0-0.68-0.31-0.68-0.68v-46.64c0-0.38,0.31-0.68,0.68-0.68h49.69
			c0.38,0,0.68,0.31,0.68,0.68v46.64C245,172.69,244.69,173,244.32,173z"/>
		<path class="st0" d="M183.95,214h-82.27c-0.38,0-0.68-0.31-0.68-0.68v-28.64c0-0.38,0.31-0.68,0.68-0.68h82.27
			c0.38,0,0.68,0.31,0.68,0.68v28.64C184.63,213.69,184.33,214,183.95,214z"/>
		<path class="st0" d="M90.32,214H59.68c-0.38,0-0.68-0.31-0.68-0.68v-28.64c0-0.38,0.31-0.68,0.68-0.68h30.64
			c0.38,0,0.68,0.31,0.68,0.68v28.64C91,213.69,90.69,214,90.32,214z"/>
		<path class="st0" d="M244.32,214h-49.69c-0.38,0-0.68-0.31-0.68-0.68v-28.64c0-0.38,0.31-0.68,0.68-0.68h49.69
			c0.38,0,0.68,0.31,0.68,0.68v28.64C245,213.69,244.69,214,244.32,214z"/>
		<path class="st0" d="M244.32,236H118.3c-0.38,0-0.68-0.31-0.68-0.68v-9.64c0-0.38,0.31-0.68,0.68-0.68h126.02
			c0.38,0,0.68,0.31,0.68,0.68v9.64C245,235.69,244.69,236,244.32,236z"/>
		<path class="st0" d="M105.69,236H59.68c-0.38,0-0.68-0.31-0.68-0.68v-9.64c0-0.38,0.31-0.68,0.68-0.68h46.01
			c0.38,0,0.68,0.31,0.68,0.68v9.64C106.38,235.69,106.07,236,105.69,236z"/>
	</g>
	<g>
		<path class="st3" d="M180.64,107.18c0,16.67-30.18,52.82-30.18,52.82s-30.18-36.15-30.18-52.82S133.79,77,150.45,77
			S180.64,90.51,180.64,107.18z"/>
		<circle class="st2" cx="150.45" cy="107.18" r="12.83"/>
	</g>
</g>
<g id="Layer_2">
</g>
<g id="Layer_3">
</g>
</svg>
