<?xml version="1.0" encoding="utf-8"?>
<!-- Generator: Adobe Illustrator 24.2.0, SVG Export Plug-In . SVG Version: 6.00 Build 0)  -->
<svg version="1.1" xmlns="http://www.w3.org/2000/svg" xmlns:xlink="http://www.w3.org/1999/xlink" x="0px" y="0px"
	 viewBox="0 0 300 300" style="enable-background:new 0 0 300 300;" xml:space="preserve">
<style type="text/css">
	.st0{fill:#D6D6D6;}
	.st1{fill:#FFFFFF;}
	.st2{fill:#F6F6F6;}
	.st3{fill:#999999;}
	.st4{fill:#D5D5D5;}
</style>
<g id="Layer_1">
	<g>
		<path class="st0" d="M276.8,289.62H25.95c-7.77,0-14.07-6.3-14.07-14.07V24.7c0-7.77,6.3-14.07,14.07-14.07H276.8
			c7.77,0,14.07,6.3,14.07,14.07v250.86C290.88,283.33,284.58,289.62,276.8,289.62z"/>
		<g>
			<circle class="st1" cx="39.75" cy="36.25" r="8"/>
			<circle class="st1" cx="70.86" cy="36.25" r="8"/>
			<circle class="st1" cx="101.97" cy="36.25" r="8"/>
		</g>
	</g>
	<path class="st2" d="M266.21,271.5H37.79c-2.99,0-5.41-2.42-5.41-5.41V67.91c0-2.99,2.42-5.41,5.41-5.41h228.42
		c2.99,0,5.41,2.42,5.41,5.41v198.17C271.62,269.08,269.2,271.5,266.21,271.5z"/>
	<g>
		<g>
			<path class="st0" d="M184.95,126.4H59.62c-0.38,0-0.68-0.31-0.68-0.68V89.68c0-0.38,0.31-0.68,0.68-0.68h125.33
				c0.38,0,0.68,0.31,0.68,0.68v36.04C185.63,126.1,185.33,126.4,184.95,126.4z"/>
			<path class="st3" d="M245.23,126.4h-49.72c-0.38,0-0.68-0.31-0.68-0.68V89.68c0-0.38,0.31-0.68,0.68-0.68h49.72
				c0.38,0,0.68,0.31,0.68,0.68v36.04C245.91,126.1,245.61,126.4,245.23,126.4z"/>
		</g>
		<path class="st3" d="M156.67,151.62h-94.3c-2.65,0-4.8-2.15-4.8-4.8v-0.1c0-2.65,2.15-4.8,4.8-4.8h94.3c2.65,0,4.8,2.15,4.8,4.8
			v0.1C161.47,149.47,159.32,151.62,156.67,151.62z"/>
		<path class="st0" d="M241.2,181.95H62.36c-2.65,0-4.8-2.15-4.8-4.8v-0.1c0-2.65,2.15-4.8,4.8-4.8H241.2c2.65,0,4.8,2.15,4.8,4.8
			v0.1C246,179.8,243.85,181.95,241.2,181.95z"/>
		<path class="st3" d="M156.67,212.28h-94.3c-2.65,0-4.8-2.15-4.8-4.8v-0.1c0-2.65,2.15-4.8,4.8-4.8h94.3c2.65,0,4.8,2.15,4.8,4.8
			v0.1C161.47,210.12,159.32,212.28,156.67,212.28z"/>
		<path class="st0" d="M241.2,242.6H62.36c-2.65,0-4.8-2.15-4.8-4.8v-0.1c0-2.65,2.15-4.8,4.8-4.8H241.2c2.65,0,4.8,2.15,4.8,4.8
			v0.1C246,240.45,243.85,242.6,241.2,242.6z"/>
	</g>
</g>
<g id="Layer_2">
</g>
<g id="Layer_3">
</g>
</svg>
