<?xml version="1.0" encoding="utf-8"?>
<!-- Generator: Adobe Illustrator 24.2.0, SVG Export Plug-In . SVG Version: 6.00 Build 0)  -->
<svg version="1.1" id="Layer_1" xmlns="http://www.w3.org/2000/svg" xmlns:xlink="http://www.w3.org/1999/xlink" x="0px" y="0px"
	 viewBox="0 0 300 300" style="enable-background:new 0 0 300 300;" xml:space="preserve">
<style type="text/css">
	.st0{fill:#D6D6D6;}
	.st1{fill:#FFFFFF;}
	.st2{fill:#F6F6F6;}
	.st3{fill:#999999;}
	.st4{fill:#D5D5D5;}
	.st5{fill:none;stroke:#D6D6D6;stroke-width:5;stroke-miterlimit:10;}
</style>
<g>
	<path class="st0" d="M276.8,289.62H25.95c-7.77,0-14.07-6.3-14.07-14.07V24.7c0-7.77,6.3-14.07,14.07-14.07H276.8
		c7.77,0,14.07,6.3,14.07,14.07v250.86C290.88,283.33,284.58,289.62,276.8,289.62z"/>
	<g>
		<circle class="st1" cx="39.75" cy="36.25" r="8"/>
		<circle class="st1" cx="70.86" cy="36.25" r="8"/>
		<circle class="st1" cx="101.97" cy="36.25" r="8"/>
	</g>
</g>
<path class="st2" d="M261.96,271.5H42.04c-5.34,0-9.67-4.33-9.67-9.67V72.17c0-5.34,4.33-9.67,9.67-9.67h219.92
	c5.34,0,9.67,4.33,9.67,9.67v189.67C271.62,267.17,267.3,271.5,261.96,271.5z"/>
<path class="st0" d="M112.2,200H67.53c-3.04,0-5.5-2.46-5.5-5.5v0c0-3.04,2.46-5.5,5.5-5.5h44.66c3.04,0,5.5,2.46,5.5,5.5v0
	C117.7,197.54,115.23,200,112.2,200z"/>
<path class="st3" d="M238.87,174H65.13c-1.73,0-3.13-1.4-3.13-3.13v-65.74c0-1.73,1.4-3.13,3.13-3.13h173.74
	c1.73,0,3.13,1.4,3.13,3.13v65.74C242,172.6,240.6,174,238.87,174z"/>
<polyline class="st5" points="87.27,127 75.76,138.51 87.74,150.5 "/>
<polyline class="st5" points="217.23,150.5 228.74,138.99 216.76,127 "/>
<path class="st0" d="M112.2,230H67.53c-3.04,0-5.5-2.46-5.5-5.5v0c0-3.04,2.46-5.5,5.5-5.5h44.66c3.04,0,5.5,2.46,5.5,5.5v0
	C117.7,227.54,115.23,230,112.2,230z"/>
<path class="st0" d="M174.39,200h-44.66c-3.04,0-5.5-2.46-5.5-5.5v0c0-3.04,2.46-5.5,5.5-5.5h44.66c3.04,0,5.5,2.46,5.5,5.5v0
	C179.89,197.54,177.43,200,174.39,200z"/>
<path class="st0" d="M174.39,230h-44.66c-3.04,0-5.5-2.46-5.5-5.5v0c0-3.04,2.46-5.5,5.5-5.5h44.66c3.04,0,5.5,2.46,5.5,5.5v0
	C179.89,227.54,177.43,230,174.39,230z"/>
<path class="st0" d="M236.5,200h-44.66c-3.04,0-5.5-2.46-5.5-5.5v0c0-3.04,2.46-5.5,5.5-5.5h44.66c3.04,0,5.5,2.46,5.5,5.5v0
	C242,197.54,239.54,200,236.5,200z"/>
<path class="st0" d="M236.5,230h-44.66c-3.04,0-5.5-2.46-5.5-5.5v0c0-3.04,2.46-5.5,5.5-5.5h44.66c3.04,0,5.5,2.46,5.5,5.5v0
	C242,227.54,239.54,230,236.5,230z"/>
</svg>
