<?xml version="1.0" encoding="utf-8"?>
<!-- Generator: Adobe Illustrator 24.2.0, SVG Export Plug-In . SVG Version: 6.00 Build 0)  -->
<svg version="1.1" id="Layer_1" xmlns="http://www.w3.org/2000/svg" xmlns:xlink="http://www.w3.org/1999/xlink" x="0px" y="0px"
	 viewBox="0 0 300 300" style="enable-background:new 0 0 300 300;" xml:space="preserve">
<style type="text/css">
	.st0{fill:#D6D6D6;}
	.st1{fill:#FFFFFF;}
	.st2{fill:#F6F6F6;}
	.st3{fill:#999999;}
	.st4{fill:#D5D5D5;}
</style>
<g>
	<path class="st0" d="M276.8,289.62H25.95c-7.77,0-14.07-6.3-14.07-14.07V24.7c0-7.77,6.3-14.07,14.07-14.07H276.8
		c7.77,0,14.07,6.3,14.07,14.07v250.86C290.88,283.33,284.58,289.62,276.8,289.62z"/>
	<g>
		<circle class="st1" cx="39.75" cy="36.25" r="8"/>
		<circle class="st1" cx="70.86" cy="36.25" r="8"/>
		<circle class="st1" cx="101.97" cy="36.25" r="8"/>
	</g>
</g>
<path class="st2" d="M261.96,271.5H42.04c-5.34,0-9.67-4.33-9.67-9.67V72.17c0-5.34,4.33-9.67,9.67-9.67h219.92
	c5.34,0,9.67,4.33,9.67,9.67v189.67C271.62,267.17,267.3,271.5,261.96,271.5z"/>
<path class="st3" d="M238.87,168H65.13c-1.73,0-3.13-1.4-3.13-3.13V99.13C62,97.4,63.4,96,65.13,96h173.74
	c1.73,0,3.13,1.4,3.13,3.13v65.74C242,166.6,240.6,168,238.87,168z"/>
<path class="st0" d="M143.87,237H65.13c-1.73,0-3.13-1.4-3.13-3.13v-30.74c0-1.73,1.4-3.13,3.13-3.13h78.74
	c1.73,0,3.13,1.4,3.13,3.13v30.74C147,235.6,145.6,237,143.87,237z"/>
<path class="st0" d="M238.87,237h-78.74c-1.73,0-3.13-1.4-3.13-3.13v-30.74c0-1.73,1.4-3.13,3.13-3.13h78.74
	c1.73,0,3.13,1.4,3.13,3.13v30.74C242,235.6,240.6,237,238.87,237z"/>
<g>
	<circle class="st0" cx="132" cy="181" r="5"/>
	<circle class="st0" cx="152" cy="181" r="5"/>
	<circle class="st0" cx="172" cy="181" r="5"/>
</g>
</svg>
