<?xml version="1.0" encoding="utf-8"?>
<!-- Generator: Adobe Illustrator 24.2.0, SVG Export Plug-In . SVG Version: 6.00 Build 0)  -->
<svg version="1.1" id="Layer_1" xmlns="http://www.w3.org/2000/svg" xmlns:xlink="http://www.w3.org/1999/xlink" x="0px" y="0px"
	 viewBox="0 0 300 300" style="enable-background:new 0 0 300 300;" xml:space="preserve">
<style type="text/css">
	.st0{fill:#D6D6D6;}
	.st1{fill:#FFFFFF;}
	.st2{fill:#F6F6F6;}
	.st3{fill:#999999;}
	.st4{fill:#D5D5D5;}
	.st5{fill:#F7F7F7;}
</style>
<g>
	<path class="st0" d="M276.8,289.62H25.95c-7.77,0-14.07-6.3-14.07-14.07V24.7c0-7.77,6.3-14.07,14.07-14.07H276.8
		c7.77,0,14.07,6.3,14.07,14.07v250.86C290.88,283.33,284.58,289.62,276.8,289.62z"/>
	<g>
		<circle class="st1" cx="39.75" cy="36.25" r="8"/>
		<circle class="st1" cx="70.86" cy="36.25" r="8"/>
		<circle class="st1" cx="101.97" cy="36.25" r="8"/>
	</g>
</g>
<path class="st2" d="M261.96,271.5H42.04c-5.34,0-9.67-4.33-9.67-9.67V72.17c0-5.34,4.33-9.67,9.67-9.67h219.92
	c5.34,0,9.67,4.33,9.67,9.67v189.67C271.62,267.17,267.3,271.5,261.96,271.5z"/>
<g>
	<path class="st0" d="M236.5,238h-169c-3.04,0-5.5-2.46-5.5-5.5v0c0-3.04,2.46-5.5,5.5-5.5h169c3.04,0,5.5,2.46,5.5,5.5v0
		C242,235.54,239.54,238,236.5,238z"/>
	<g>
		<path class="st3" d="M238.87,187H65.13c-1.73,0-3.13-1.4-3.13-3.13V98.13C62,96.4,63.4,95,65.13,95h173.74
			c1.73,0,3.13,1.4,3.13,3.13v85.74C242,185.6,240.6,187,238.87,187z"/>
	</g>
	<g>
		<path class="st0" d="M191.75,126h-79.8c-3.04,0-5.5-2.46-5.5-5.5v0c0-3.04,2.46-5.5,5.5-5.5h79.8c3.04,0,5.5,2.46,5.5,5.5v0
			C197.25,123.54,194.79,126,191.75,126z"/>
		<path class="st0" d="M208.27,146H95.44c-3.04,0-5.5-2.46-5.5-5.5v0c0-3.04,2.46-5.5,5.5-5.5h112.83c3.04,0,5.5,2.46,5.5,5.5v0
			C213.77,143.54,211.3,146,208.27,146z"/>
		<path class="st5" d="M169.05,167h-34.4c-3.04,0-5.5-2.46-5.5-5.5l0,0c0-3.04,2.46-5.5,5.5-5.5h34.4c3.04,0,5.5,2.46,5.5,5.5l0,0
			C174.55,164.54,172.09,167,169.05,167z"/>
	</g>
	<g>
		<circle class="st0" cx="132" cy="203" r="5"/>
		<circle class="st0" cx="152" cy="203" r="5"/>
		<circle class="st0" cx="172" cy="203" r="5"/>
	</g>
</g>
</svg>
