<?xml version="1.0" encoding="utf-8"?>
<!-- Generator: Adobe Illustrator 24.2.0, SVG Export Plug-In . SVG Version: 6.00 Build 0)  -->
<svg version="1.1" xmlns="http://www.w3.org/2000/svg" xmlns:xlink="http://www.w3.org/1999/xlink" x="0px" y="0px"
	 viewBox="0 0 300 300" style="enable-background:new 0 0 300 300;" xml:space="preserve">
<style type="text/css">
	.st0{fill:#D6D6D6;}
	.st1{fill:#FFFFFF;}
	.st2{fill:#F6F6F6;}
	.st3{fill:#999999;}
	.st4{fill:#D5D5D5;}
</style>
<g id="Layer_1">
	<g>
		<path class="st0" d="M276.8,289.62H25.95c-7.77,0-14.07-6.3-14.07-14.07V24.7c0-7.77,6.3-14.07,14.07-14.07H276.8
			c7.77,0,14.07,6.3,14.07,14.07v250.86C290.88,283.33,284.58,289.62,276.8,289.62z"/>
		<g>
			<circle class="st1" cx="39.75" cy="36.25" r="8"/>
			<circle class="st1" cx="70.86" cy="36.25" r="8"/>
			<circle class="st1" cx="101.97" cy="36.25" r="8"/>
		</g>
	</g>
	<path class="st2" d="M266.21,271.5H37.79c-2.99,0-5.41-2.42-5.41-5.41V67.91c0-2.99,2.42-5.41,5.41-5.41h228.42
		c2.99,0,5.41,2.42,5.41,5.41v198.17C271.62,269.08,269.2,271.5,266.21,271.5z"/>
	<g>
		<circle class="st3" cx="80.24" cy="105.96" r="21.76"/>
		<g>
			<path class="st0" d="M191.85,96.25H121.5c-3.04,0-5.5-2.46-5.5-5.5V90.5c0-3.04,2.46-5.5,5.5-5.5h70.35c3.04,0,5.5,2.46,5.5,5.5
				v0.25C197.35,93.79,194.89,96.25,191.85,96.25z"/>
			<path class="st0" d="M240.5,126.93h-119c-3.04,0-5.5-2.46-5.5-5.5v-0.25c0-3.04,2.46-5.5,5.5-5.5h119c3.04,0,5.5,2.46,5.5,5.5
				v0.25C246,124.46,243.54,126.93,240.5,126.93z"/>
		</g>
		<circle class="st3" cx="80.24" cy="165.96" r="21.76"/>
		<g>
			<path class="st0" d="M191.85,156.25H121.5c-3.04,0-5.5-2.46-5.5-5.5v-0.25c0-3.04,2.46-5.5,5.5-5.5h70.35
				c3.04,0,5.5,2.46,5.5,5.5v0.25C197.35,153.79,194.89,156.25,191.85,156.25z"/>
			<path class="st0" d="M240.5,186.93h-119c-3.04,0-5.5-2.46-5.5-5.5v-0.25c0-3.04,2.46-5.5,5.5-5.5h119c3.04,0,5.5,2.46,5.5,5.5
				v0.25C246,184.46,243.54,186.93,240.5,186.93z"/>
		</g>
		<circle class="st3" cx="80.24" cy="225.96" r="21.76"/>
		<g>
			<path class="st0" d="M191.85,216.25H121.5c-3.04,0-5.5-2.46-5.5-5.5v-0.25c0-3.04,2.46-5.5,5.5-5.5h70.35
				c3.04,0,5.5,2.46,5.5,5.5v0.25C197.35,213.79,194.89,216.25,191.85,216.25z"/>
			<path class="st0" d="M240.5,246.93h-119c-3.04,0-5.5-2.46-5.5-5.5v-0.25c0-3.04,2.46-5.5,5.5-5.5h119c3.04,0,5.5,2.46,5.5,5.5
				v0.25C246,244.46,243.54,246.93,240.5,246.93z"/>
		</g>
	</g>
</g>
<g id="Layer_2">
</g>
</svg>
