<?xml version="1.0" encoding="utf-8"?>
<!-- Generator: Adobe Illustrator 24.2.0, SVG Export Plug-In . SVG Version: 6.00 Build 0)  -->
<svg version="1.1" xmlns="http://www.w3.org/2000/svg" xmlns:xlink="http://www.w3.org/1999/xlink" x="0px" y="0px"
	 viewBox="0 0 300 300" style="enable-background:new 0 0 300 300;" xml:space="preserve">
<style type="text/css">
	.st0{fill:#D6D6D6;}
	.st1{fill:#FFFFFF;}
	.st2{fill:#F6F6F6;}
	.st3{fill:#999999;}
	.st4{fill:#D5D5D5;}
</style>
<g id="Layer_1">
	<g>
		<path class="st0" d="M276.8,289.62H25.95c-7.77,0-14.07-6.3-14.07-14.07V24.7c0-7.77,6.3-14.07,14.07-14.07H276.8
			c7.77,0,14.07,6.3,14.07,14.07v250.86C290.88,283.33,284.58,289.62,276.8,289.62z"/>
		<g>
			<circle class="st1" cx="39.75" cy="36.25" r="8"/>
			<circle class="st1" cx="70.86" cy="36.25" r="8"/>
			<circle class="st1" cx="101.97" cy="36.25" r="8"/>
		</g>
	</g>
	<path class="st2" d="M266.21,271.5H37.79c-2.99,0-5.41-2.42-5.41-5.41V67.91c0-2.99,2.42-5.41,5.41-5.41h228.42
		c2.99,0,5.41,2.42,5.41,5.41v198.17C271.62,269.08,269.2,271.5,266.21,271.5z"/>
	<g>
		<g>
			<path class="st0" d="M213.25,107h-64.74c-3.04,0-5.5-2.46-5.5-5.5v0c0-3.04,2.46-5.5,5.5-5.5h64.74c3.04,0,5.5,2.46,5.5,5.5v0
				C218.75,104.54,216.28,107,213.25,107z"/>
			<path class="st0" d="M213.25,158h-64.74c-3.04,0-5.5-2.46-5.5-5.5v0c0-3.04,2.46-5.5,5.5-5.5h64.74c3.04,0,5.5,2.46,5.5,5.5v0
				C218.75,155.54,216.28,158,213.25,158z"/>
			<path class="st3" d="M129.68,158H59.27c-0.7,0-1.27-0.57-1.27-1.27V97.27c0-0.7,0.57-1.27,1.27-1.27h70.41
				c0.7,0,1.27,0.57,1.27,1.27v59.46C130.95,157.43,130.38,158,129.68,158z"/>
			<path class="st0" d="M240.5,132h-91.99c-3.04,0-5.5-2.46-5.5-5.5v0c0-3.04,2.46-5.5,5.5-5.5h91.99c3.04,0,5.5,2.46,5.5,5.5v0
				C246,129.54,243.54,132,240.5,132z"/>
		</g>
		<g>
			<path class="st0" d="M213.25,187h-64.74c-3.04,0-5.5-2.46-5.5-5.5v0c0-3.04,2.46-5.5,5.5-5.5h64.74c3.04,0,5.5,2.46,5.5,5.5v0
				C218.75,184.54,216.28,187,213.25,187z"/>
			<path class="st0" d="M213.25,238h-64.74c-3.04,0-5.5-2.46-5.5-5.5v0c0-3.04,2.46-5.5,5.5-5.5h64.74c3.04,0,5.5,2.46,5.5,5.5v0
				C218.75,235.54,216.28,238,213.25,238z"/>
			<path class="st3" d="M129.68,238H59.27c-0.7,0-1.27-0.57-1.27-1.27v-59.46c0-0.7,0.57-1.27,1.27-1.27h70.41
				c0.7,0,1.27,0.57,1.27,1.27v59.46C130.95,237.43,130.38,238,129.68,238z"/>
			<path class="st0" d="M240.5,212h-91.99c-3.04,0-5.5-2.46-5.5-5.5v0c0-3.04,2.46-5.5,5.5-5.5h91.99c3.04,0,5.5,2.46,5.5,5.5v0
				C246,209.54,243.54,212,240.5,212z"/>
		</g>
	</g>
</g>
<g id="Layer_2">
</g>
</svg>
