<?xml version="1.0" encoding="utf-8"?>
<!-- Generator: Adobe Illustrator 24.2.0, SVG Export Plug-In . SVG Version: 6.00 Build 0)  -->
<svg version="1.1" xmlns="http://www.w3.org/2000/svg" xmlns:xlink="http://www.w3.org/1999/xlink" x="0px" y="0px"
	 viewBox="0 0 300 300" style="enable-background:new 0 0 300 300;" xml:space="preserve">
<style type="text/css">
	.st0{fill:#D6D6D6;}
	.st1{fill:#FFFFFF;}
	.st2{fill:#F6F6F6;}
	.st3{fill:#999999;}
	.st4{fill:#D5D5D5;}
</style>
<g id="Layer_1">
	<g>
		<path class="st0" d="M276.8,289.62H25.95c-7.77,0-14.07-6.3-14.07-14.07V24.7c0-7.77,6.3-14.07,14.07-14.07H276.8
			c7.77,0,14.07,6.3,14.07,14.07v250.86C290.88,283.33,284.58,289.62,276.8,289.62z"/>
		<g>
			<circle class="st1" cx="39.75" cy="36.25" r="8"/>
			<circle class="st1" cx="70.86" cy="36.25" r="8"/>
			<circle class="st1" cx="101.97" cy="36.25" r="8"/>
		</g>
	</g>
	<path class="st2" d="M266.21,271.5H37.79c-2.99,0-5.41-2.42-5.41-5.41V67.91c0-2.99,2.42-5.41,5.41-5.41h228.42
		c2.99,0,5.41,2.42,5.41,5.41v198.17C271.62,269.08,269.2,271.5,266.21,271.5z"/>
	<g>
		<g>
			<path class="st3" d="M93.82,125H59.27c-0.7,0-1.27-0.57-1.27-1.27V88.27c0-0.7,0.57-1.27,1.27-1.27h34.55
				c0.7,0,1.27,0.57,1.27,1.27v35.46C95.09,124.43,94.52,125,93.82,125z"/>
			<path class="st0" d="M125.76,98h-16.74c-3.04,0-5.5-2.46-5.5-5.5v0c0-3.04,2.46-5.5,5.5-5.5h16.74c3.04,0,5.5,2.46,5.5,5.5v0
				C131.26,95.54,128.79,98,125.76,98z"/>
			<path class="st0" d="M139.33,125h-30.32c-3.04,0-5.5-2.46-5.5-5.5v0c0-3.04,2.46-5.5,5.5-5.5h30.32c3.04,0,5.5,2.46,5.5,5.5v0
				C144.83,122.54,142.37,125,139.33,125z"/>
		</g>
		<g>
			<path class="st3" d="M93.82,185H59.27c-0.7,0-1.27-0.57-1.27-1.27v-35.46c0-0.7,0.57-1.27,1.27-1.27h34.55
				c0.7,0,1.27,0.57,1.27,1.27v35.46C95.09,184.43,94.52,185,93.82,185z"/>
			<path class="st0" d="M125.76,158h-16.74c-3.04,0-5.5-2.46-5.5-5.5v0c0-3.04,2.46-5.5,5.5-5.5h16.74c3.04,0,5.5,2.46,5.5,5.5v0
				C131.26,155.54,128.79,158,125.76,158z"/>
			<path class="st0" d="M139.33,185h-30.32c-3.04,0-5.5-2.46-5.5-5.5v0c0-3.04,2.46-5.5,5.5-5.5h30.32c3.04,0,5.5,2.46,5.5,5.5v0
				C144.83,182.54,142.37,185,139.33,185z"/>
		</g>
		<g>
			<path class="st3" d="M93.82,245H59.27c-0.7,0-1.27-0.57-1.27-1.27v-35.46c0-0.7,0.57-1.27,1.27-1.27h34.55
				c0.7,0,1.27,0.57,1.27,1.27v35.46C95.09,244.43,94.52,245,93.82,245z"/>
			<path class="st0" d="M125.76,218h-16.74c-3.04,0-5.5-2.46-5.5-5.5v0c0-3.04,2.46-5.5,5.5-5.5h16.74c3.04,0,5.5,2.46,5.5,5.5v0
				C131.26,215.54,128.79,218,125.76,218z"/>
			<path class="st0" d="M139.33,245h-30.32c-3.04,0-5.5-2.46-5.5-5.5v0c0-3.04,2.46-5.5,5.5-5.5h30.32c3.04,0,5.5,2.46,5.5,5.5v0
				C144.83,242.54,142.37,245,139.33,245z"/>
		</g>
		<g>
			<path class="st3" d="M194.99,125h-34.55c-0.7,0-1.27-0.57-1.27-1.27V88.27c0-0.7,0.57-1.27,1.27-1.27h34.55
				c0.7,0,1.27,0.57,1.27,1.27v35.46C196.26,124.43,195.69,125,194.99,125z"/>
			<path class="st0" d="M226.92,98h-16.74c-3.04,0-5.5-2.46-5.5-5.5v0c0-3.04,2.46-5.5,5.5-5.5h16.74c3.04,0,5.5,2.46,5.5,5.5v0
				C232.42,95.54,229.96,98,226.92,98z"/>
			<path class="st0" d="M240.5,125h-30.32c-3.04,0-5.5-2.46-5.5-5.5v0c0-3.04,2.46-5.5,5.5-5.5h30.32c3.04,0,5.5,2.46,5.5,5.5v0
				C246,122.54,243.54,125,240.5,125z"/>
		</g>
		<g>
			<path class="st3" d="M194.99,185h-34.55c-0.7,0-1.27-0.57-1.27-1.27v-35.46c0-0.7,0.57-1.27,1.27-1.27h34.55
				c0.7,0,1.27,0.57,1.27,1.27v35.46C196.26,184.43,195.69,185,194.99,185z"/>
			<path class="st0" d="M226.92,158h-16.74c-3.04,0-5.5-2.46-5.5-5.5v0c0-3.04,2.46-5.5,5.5-5.5h16.74c3.04,0,5.5,2.46,5.5,5.5v0
				C232.42,155.54,229.96,158,226.92,158z"/>
			<path class="st0" d="M240.5,185h-30.32c-3.04,0-5.5-2.46-5.5-5.5v0c0-3.04,2.46-5.5,5.5-5.5h30.32c3.04,0,5.5,2.46,5.5,5.5v0
				C246,182.54,243.54,185,240.5,185z"/>
		</g>
		<g>
			<path class="st3" d="M194.99,245h-34.55c-0.7,0-1.27-0.57-1.27-1.27v-35.46c0-0.7,0.57-1.27,1.27-1.27h34.55
				c0.7,0,1.27,0.57,1.27,1.27v35.46C196.26,244.43,195.69,245,194.99,245z"/>
			<path class="st0" d="M226.92,218h-16.74c-3.04,0-5.5-2.46-5.5-5.5v0c0-3.04,2.46-5.5,5.5-5.5h16.74c3.04,0,5.5,2.46,5.5,5.5v0
				C232.42,215.54,229.96,218,226.92,218z"/>
			<path class="st0" d="M240.5,245h-30.32c-3.04,0-5.5-2.46-5.5-5.5v0c0-3.04,2.46-5.5,5.5-5.5h30.32c3.04,0,5.5,2.46,5.5,5.5v0
				C246,242.54,243.54,245,240.5,245z"/>
		</g>
	</g>
</g>
<g id="Layer_2">
</g>
</svg>
