<?xml version="1.0" encoding="utf-8"?>
<!-- Generator: Adobe Illustrator 24.2.0, SVG Export Plug-In . SVG Version: 6.00 Build 0)  -->
<svg version="1.1" xmlns="http://www.w3.org/2000/svg" xmlns:xlink="http://www.w3.org/1999/xlink" x="0px" y="0px"
	 viewBox="0 0 300 300" style="enable-background:new 0 0 300 300;" xml:space="preserve">
<style type="text/css">
	.st0{fill:#D6D6D6;}
	.st1{fill:#FFFFFF;}
	.st2{fill:#F6F6F6;}
	.st3{fill:#999999;}
	.st4{fill:#D5D5D5;}
</style>
<g id="Layer_1">
	<g>
		<path class="st0" d="M276.8,289.62H25.95c-7.77,0-14.07-6.3-14.07-14.07V24.7c0-7.77,6.3-14.07,14.07-14.07H276.8
			c7.77,0,14.07,6.3,14.07,14.07v250.86C290.88,283.33,284.58,289.62,276.8,289.62z"/>
		<g>
			<circle class="st1" cx="39.75" cy="36.25" r="8"/>
			<circle class="st1" cx="70.86" cy="36.25" r="8"/>
			<circle class="st1" cx="101.97" cy="36.25" r="8"/>
		</g>
	</g>
	<path class="st2" d="M266.21,271.5H37.79c-2.99,0-5.41-2.42-5.41-5.41V67.91c0-2.99,2.42-5.41,5.41-5.41h228.42
		c2.99,0,5.41,2.42,5.41,5.41v198.17C271.62,269.08,269.2,271.5,266.21,271.5z"/>
	<g>
		<g>
			<path class="st3" d="M107.32,128H59.27c-0.7,0-1.27-0.57-1.27-1.27V86.27c0-0.7,0.57-1.27,1.27-1.27h48.05
				c0.7,0,1.27,0.57,1.27,1.27v40.46C108.59,127.43,108.03,128,107.32,128z"/>
			<path class="st0" d="M198.76,96h-74.27c-3.04,0-5.5-2.46-5.5-5.5v0c0-3.04,2.46-5.5,5.5-5.5h74.27c3.04,0,5.5,2.46,5.5,5.5v0
				C204.26,93.54,201.8,96,198.76,96z"/>
			<path class="st0" d="M240.5,123H124.49c-3.04,0-5.5-2.46-5.5-5.5v0c0-3.04,2.46-5.5,5.5-5.5H240.5c3.04,0,5.5,2.46,5.5,5.5v0
				C246,120.54,243.54,123,240.5,123z"/>
		</g>
		<g>
			<path class="st3" d="M107.32,188H59.27c-0.7,0-1.27-0.57-1.27-1.27v-40.46c0-0.7,0.57-1.27,1.27-1.27h48.05
				c0.7,0,1.27,0.57,1.27,1.27v40.46C108.59,187.43,108.03,188,107.32,188z"/>
			<path class="st0" d="M198.76,156h-74.27c-3.04,0-5.5-2.46-5.5-5.5v0c0-3.04,2.46-5.5,5.5-5.5h74.27c3.04,0,5.5,2.46,5.5,5.5v0
				C204.26,153.54,201.8,156,198.76,156z"/>
			<path class="st0" d="M240.5,183H124.49c-3.04,0-5.5-2.46-5.5-5.5v0c0-3.04,2.46-5.5,5.5-5.5H240.5c3.04,0,5.5,2.46,5.5,5.5v0
				C246,180.54,243.54,183,240.5,183z"/>
		</g>
		<g>
			<path class="st3" d="M107.32,248H59.27c-0.7,0-1.27-0.57-1.27-1.27v-40.46c0-0.7,0.57-1.27,1.27-1.27h48.05
				c0.7,0,1.27,0.57,1.27,1.27v40.46C108.59,247.43,108.03,248,107.32,248z"/>
			<path class="st0" d="M198.76,216h-74.27c-3.04,0-5.5-2.46-5.5-5.5v0c0-3.04,2.46-5.5,5.5-5.5h74.27c3.04,0,5.5,2.46,5.5,5.5v0
				C204.26,213.54,201.8,216,198.76,216z"/>
			<path class="st0" d="M240.5,243H124.49c-3.04,0-5.5-2.46-5.5-5.5v0c0-3.04,2.46-5.5,5.5-5.5H240.5c3.04,0,5.5,2.46,5.5,5.5v0
				C246,240.54,243.54,243,240.5,243z"/>
		</g>
	</g>
</g>
<g id="Layer_2">
</g>
</svg>
