<?xml version="1.0" encoding="utf-8"?>
<!-- Generator: Adobe Illustrator 24.2.0, SVG Export Plug-In . SVG Version: 6.00 Build 0)  -->
<svg version="1.1" xmlns="http://www.w3.org/2000/svg" xmlns:xlink="http://www.w3.org/1999/xlink" x="0px" y="0px"
	 viewBox="0 0 300 300" style="enable-background:new 0 0 300 300;" xml:space="preserve">
<style type="text/css">
	.st0{fill:#D6D6D6;}
	.st1{fill:#FFFFFF;}
	.st2{fill:#F6F6F6;}
	.st3{fill:#999999;}
	.st4{fill:#D5D5D5;}
</style>
<g id="Layer_1">
	<g>
		<path class="st0" d="M276.8,289.62H25.95c-7.77,0-14.07-6.3-14.07-14.07V24.7c0-7.77,6.3-14.07,14.07-14.07H276.8
			c7.77,0,14.07,6.3,14.07,14.07v250.86C290.88,283.33,284.58,289.62,276.8,289.62z"/>
		<g>
			<circle class="st1" cx="39.75" cy="36.25" r="8"/>
			<circle class="st1" cx="70.86" cy="36.25" r="8"/>
			<circle class="st1" cx="101.97" cy="36.25" r="8"/>
		</g>
	</g>
	<path class="st2" d="M266.21,271.5H37.79c-2.99,0-5.41-2.42-5.41-5.41V67.91c0-2.99,2.42-5.41,5.41-5.41h228.42
		c2.99,0,5.41,2.42,5.41,5.41v198.17C271.62,269.08,269.2,271.5,266.21,271.5z"/>
	<g>
		<g>
			<path class="st3" d="M73.19,97H62.57c-3.04,0-5.5-2.46-5.5-5.5v0c0-3.04,2.46-5.5,5.5-5.5h10.62c3.04,0,5.5,2.46,5.5,5.5v0
				C78.69,94.54,76.23,97,73.19,97z"/>
			<path class="st0" d="M140.48,97H93.36c-3.04,0-5.5-2.46-5.5-5.5v0c0-3.04,2.46-5.5,5.5-5.5h47.11c3.04,0,5.5,2.46,5.5,5.5v0
				C145.98,94.54,143.52,97,140.48,97z"/>
			<path class="st3" d="M73.19,127H62.57c-3.04,0-5.5-2.46-5.5-5.5v0c0-3.04,2.46-5.5,5.5-5.5h10.62c3.04,0,5.5,2.46,5.5,5.5v0
				C78.69,124.54,76.23,127,73.19,127z"/>
			<path class="st0" d="M140.48,127H93.36c-3.04,0-5.5-2.46-5.5-5.5v0c0-3.04,2.46-5.5,5.5-5.5h47.11c3.04,0,5.5,2.46,5.5,5.5v0
				C145.98,124.54,143.52,127,140.48,127z"/>
			<path class="st3" d="M73.19,157H62.57c-3.04,0-5.5-2.46-5.5-5.5l0,0c0-3.04,2.46-5.5,5.5-5.5h10.62c3.04,0,5.5,2.46,5.5,5.5l0,0
				C78.69,154.54,76.23,157,73.19,157z"/>
			<path class="st0" d="M140.48,157H93.36c-3.04,0-5.5-2.46-5.5-5.5v0c0-3.04,2.46-5.5,5.5-5.5h47.11c3.04,0,5.5,2.46,5.5,5.5v0
				C145.98,154.54,143.52,157,140.48,157z"/>
			<path class="st3" d="M73.19,187H62.57c-3.04,0-5.5-2.46-5.5-5.5l0,0c0-3.04,2.46-5.5,5.5-5.5h10.62c3.04,0,5.5,2.46,5.5,5.5l0,0
				C78.69,184.54,76.23,187,73.19,187z"/>
			<path class="st0" d="M140.48,187H93.36c-3.04,0-5.5-2.46-5.5-5.5v0c0-3.04,2.46-5.5,5.5-5.5h47.11c3.04,0,5.5,2.46,5.5,5.5v0
				C145.98,184.54,143.52,187,140.48,187z"/>
			<path class="st3" d="M73.19,217H62.57c-3.04,0-5.5-2.46-5.5-5.5l0,0c0-3.04,2.46-5.5,5.5-5.5h10.62c3.04,0,5.5,2.46,5.5,5.5l0,0
				C78.69,214.54,76.23,217,73.19,217z"/>
			<path class="st0" d="M140.48,217H93.36c-3.04,0-5.5-2.46-5.5-5.5v0c0-3.04,2.46-5.5,5.5-5.5h47.11c3.04,0,5.5,2.46,5.5,5.5v0
				C145.98,214.54,143.52,217,140.48,217z"/>
			<path class="st3" d="M73.19,247H62.57c-3.04,0-5.5-2.46-5.5-5.5l0,0c0-3.04,2.46-5.5,5.5-5.5h10.62c3.04,0,5.5,2.46,5.5,5.5l0,0
				C78.69,244.54,76.23,247,73.19,247z"/>
			<path class="st0" d="M140.48,247H93.36c-3.04,0-5.5-2.46-5.5-5.5v0c0-3.04,2.46-5.5,5.5-5.5h47.11c3.04,0,5.5,2.46,5.5,5.5v0
				C145.98,244.54,143.52,247,140.48,247z"/>
		</g>
		<g>
			<path class="st3" d="M176.21,97H165.6c-3.04,0-5.5-2.46-5.5-5.5v0c0-3.04,2.46-5.5,5.5-5.5h10.62c3.04,0,5.5,2.46,5.5,5.5v0
				C181.71,94.54,179.25,97,176.21,97z"/>
			<path class="st0" d="M243.5,97h-47.11c-3.04,0-5.5-2.46-5.5-5.5v0c0-3.04,2.46-5.5,5.5-5.5h47.11c3.04,0,5.5,2.46,5.5,5.5v0
				C249,94.54,246.54,97,243.5,97z"/>
			<path class="st3" d="M176.21,127H165.6c-3.04,0-5.5-2.46-5.5-5.5v0c0-3.04,2.46-5.5,5.5-5.5h10.62c3.04,0,5.5,2.46,5.5,5.5v0
				C181.71,124.54,179.25,127,176.21,127z"/>
			<path class="st0" d="M243.5,127h-47.11c-3.04,0-5.5-2.46-5.5-5.5v0c0-3.04,2.46-5.5,5.5-5.5h47.11c3.04,0,5.5,2.46,5.5,5.5v0
				C249,124.54,246.54,127,243.5,127z"/>
			<path class="st3" d="M176.21,157H165.6c-3.04,0-5.5-2.46-5.5-5.5l0,0c0-3.04,2.46-5.5,5.5-5.5h10.62c3.04,0,5.5,2.46,5.5,5.5l0,0
				C181.71,154.54,179.25,157,176.21,157z"/>
			<path class="st0" d="M243.5,157h-47.11c-3.04,0-5.5-2.46-5.5-5.5v0c0-3.04,2.46-5.5,5.5-5.5h47.11c3.04,0,5.5,2.46,5.5,5.5v0
				C249,154.54,246.54,157,243.5,157z"/>
			<path class="st3" d="M176.21,187H165.6c-3.04,0-5.5-2.46-5.5-5.5l0,0c0-3.04,2.46-5.5,5.5-5.5h10.62c3.04,0,5.5,2.46,5.5,5.5l0,0
				C181.71,184.54,179.25,187,176.21,187z"/>
			<path class="st0" d="M243.5,187h-47.11c-3.04,0-5.5-2.46-5.5-5.5v0c0-3.04,2.46-5.5,5.5-5.5h47.11c3.04,0,5.5,2.46,5.5,5.5v0
				C249,184.54,246.54,187,243.5,187z"/>
			<path class="st3" d="M176.21,217H165.6c-3.04,0-5.5-2.46-5.5-5.5l0,0c0-3.04,2.46-5.5,5.5-5.5h10.62c3.04,0,5.5,2.46,5.5,5.5l0,0
				C181.71,214.54,179.25,217,176.21,217z"/>
			<path class="st0" d="M243.5,217h-47.11c-3.04,0-5.5-2.46-5.5-5.5v0c0-3.04,2.46-5.5,5.5-5.5h47.11c3.04,0,5.5,2.46,5.5,5.5v0
				C249,214.54,246.54,217,243.5,217z"/>
			<path class="st3" d="M176.21,247H165.6c-3.04,0-5.5-2.46-5.5-5.5l0,0c0-3.04,2.46-5.5,5.5-5.5h10.62c3.04,0,5.5,2.46,5.5,5.5l0,0
				C181.71,244.54,179.25,247,176.21,247z"/>
			<path class="st0" d="M243.5,247h-47.11c-3.04,0-5.5-2.46-5.5-5.5v0c0-3.04,2.46-5.5,5.5-5.5h47.11c3.04,0,5.5,2.46,5.5,5.5v0
				C249,244.54,246.54,247,243.5,247z"/>
		</g>
	</g>
</g>
<g id="Layer_2">
</g>
</svg>
