<?xml version="1.0" encoding="utf-8"?>
<!-- Generator: Adobe Illustrator 24.2.0, SVG Export Plug-In . SVG Version: 6.00 Build 0)  -->
<svg version="1.1" xmlns="http://www.w3.org/2000/svg" xmlns:xlink="http://www.w3.org/1999/xlink" x="0px" y="0px"
	 viewBox="0 0 300 300" style="enable-background:new 0 0 300 300;" xml:space="preserve">
<style type="text/css">
	.st0{fill:#D6D6D6;}
	.st1{fill:#FFFFFF;}
	.st2{fill:#F6F6F6;}
	.st3{fill:#999999;}
	.st4{fill:#D5D5D5;}
</style>
<g id="Layer_1">
	<g>
		<path class="st0" d="M276.8,289.62H25.95c-7.77,0-14.07-6.3-14.07-14.07V24.7c0-7.77,6.3-14.07,14.07-14.07H276.8
			c7.77,0,14.07,6.3,14.07,14.07v250.86C290.88,283.33,284.58,289.62,276.8,289.62z"/>
		<g>
			<circle class="st1" cx="39.75" cy="36.25" r="8"/>
			<circle class="st1" cx="70.86" cy="36.25" r="8"/>
			<circle class="st1" cx="101.97" cy="36.25" r="8"/>
		</g>
	</g>
	<path class="st2" d="M266.21,271.5H37.79c-2.99,0-5.41-2.42-5.41-5.41V67.91c0-2.99,2.42-5.41,5.41-5.41h228.42
		c2.99,0,5.41,2.42,5.41,5.41v198.17C271.62,269.08,269.2,271.5,266.21,271.5z"/>
	<g>
		<g>
			<circle class="st3" cx="91.72" cy="120.3" r="33.23"/>
			<g>
				<path class="st0" d="M200.19,95.25h-56.41c-3.04,0-5.5-2.46-5.5-5.5V89.5c0-3.04,2.46-5.5,5.5-5.5h56.41
					c3.04,0,5.5,2.46,5.5,5.5v0.25C205.69,92.79,203.23,95.25,200.19,95.25z"/>
				<path class="st0" d="M240.5,125.93h-96.72c-3.04,0-5.5-2.46-5.5-5.5v-0.25c0-3.04,2.46-5.5,5.5-5.5h96.72
					c3.04,0,5.5,2.46,5.5,5.5v0.25C246,123.46,243.54,125.93,240.5,125.93z"/>
				<path class="st0" d="M221.91,156.61h-78.13c-3.04,0-5.5-2.46-5.5-5.5v-0.25c0-3.04,2.46-5.5,5.5-5.5h78.13
					c3.04,0,5.5,2.46,5.5,5.5v0.25C227.41,154.14,224.95,156.61,221.91,156.61z"/>
			</g>
		</g>
		<g>
			<circle class="st3" cx="91.72" cy="212.34" r="33.23"/>
			<g>
				<path class="st0" d="M200.19,187.28h-56.41c-3.04,0-5.5-2.46-5.5-5.5v-0.25c0-3.04,2.46-5.5,5.5-5.5h56.41
					c3.04,0,5.5,2.46,5.5,5.5v0.25C205.69,184.82,203.23,187.28,200.19,187.28z"/>
				<path class="st0" d="M240.5,217.96h-96.72c-3.04,0-5.5-2.46-5.5-5.5v-0.25c0-3.04,2.46-5.5,5.5-5.5h96.72
					c3.04,0,5.5,2.46,5.5,5.5v0.25C246,215.5,243.54,217.96,240.5,217.96z"/>
				<path class="st0" d="M221.91,248.64h-78.13c-3.04,0-5.5-2.46-5.5-5.5v-0.25c0-3.04,2.46-5.5,5.5-5.5h78.13
					c3.04,0,5.5,2.46,5.5,5.5v0.25C227.41,246.18,224.95,248.64,221.91,248.64z"/>
			</g>
		</g>
	</g>
</g>
<g id="Layer_2">
</g>
</svg>
