<?xml version="1.0" encoding="utf-8"?>
<!-- Generator: Adobe Illustrator 24.2.0, SVG Export Plug-In . SVG Version: 6.00 Build 0)  -->
<svg version="1.1" xmlns="http://www.w3.org/2000/svg" xmlns:xlink="http://www.w3.org/1999/xlink" x="0px" y="0px"
	 viewBox="0 0 300 300" style="enable-background:new 0 0 300 300;" xml:space="preserve">
<style type="text/css">
	.st0{fill:#D6D6D6;}
	.st1{fill:#FFFFFF;}
	.st2{fill:#F6F6F6;}
	.st3{fill:#999999;}
	.st4{fill:#D5D5D5;}
</style>
<g id="Layer_1">
	<g>
		<path class="st0" d="M276.8,289.62H25.95c-7.77,0-14.07-6.3-14.07-14.07V24.7c0-7.77,6.3-14.07,14.07-14.07H276.8
			c7.77,0,14.07,6.3,14.07,14.07v250.86C290.88,283.33,284.58,289.62,276.8,289.62z"/>
		<g>
			<circle class="st1" cx="39.75" cy="36.25" r="8"/>
			<circle class="st1" cx="70.86" cy="36.25" r="8"/>
			<circle class="st1" cx="101.97" cy="36.25" r="8"/>
		</g>
	</g>
	<path class="st2" d="M266.21,271.5H37.79c-2.99,0-5.41-2.42-5.41-5.41V67.91c0-2.99,2.42-5.41,5.41-5.41h228.42
		c2.99,0,5.41,2.42,5.41,5.41v198.17C271.62,269.08,269.2,271.5,266.21,271.5z"/>
	<g>
		<path class="st3" d="M80.5,97H62.57c-3.04,0-5.5-2.46-5.5-5.5v0c0-3.04,2.46-5.5,5.5-5.5H80.5c3.04,0,5.5,2.46,5.5,5.5v0
			C86,94.54,83.54,97,80.5,97z"/>
		<path class="st0" d="M220.91,97H103.5c-3.04,0-5.5-2.46-5.5-5.5v0c0-3.04,2.46-5.5,5.5-5.5h117.41c3.04,0,5.5,2.46,5.5,5.5v0
			C226.41,94.54,223.94,97,220.91,97z"/>
		<path class="st3" d="M80.5,127H62.57c-3.04,0-5.5-2.46-5.5-5.5v0c0-3.04,2.46-5.5,5.5-5.5H80.5c3.04,0,5.5,2.46,5.5,5.5v0
			C86,124.54,83.54,127,80.5,127z"/>
		<path class="st0" d="M243.5,127h-140c-3.04,0-5.5-2.46-5.5-5.5v0c0-3.04,2.46-5.5,5.5-5.5h140c3.04,0,5.5,2.46,5.5,5.5v0
			C249,124.54,246.54,127,243.5,127z"/>
		<path class="st3" d="M80.5,157H62.57c-3.04,0-5.5-2.46-5.5-5.5l0,0c0-3.04,2.46-5.5,5.5-5.5H80.5c3.04,0,5.5,2.46,5.5,5.5l0,0
			C86,154.54,83.54,157,80.5,157z"/>
		<path class="st0" d="M233.88,157H103.5c-3.04,0-5.5-2.46-5.5-5.5v0c0-3.04,2.46-5.5,5.5-5.5h130.38c3.04,0,5.5,2.46,5.5,5.5v0
			C239.38,154.54,236.92,157,233.88,157z"/>
		<path class="st3" d="M80.5,187H62.57c-3.04,0-5.5-2.46-5.5-5.5l0,0c0-3.04,2.46-5.5,5.5-5.5H80.5c3.04,0,5.5,2.46,5.5,5.5l0,0
			C86,184.54,83.54,187,80.5,187z"/>
		<path class="st0" d="M240.3,187H103.5c-3.04,0-5.5-2.46-5.5-5.5v0c0-3.04,2.46-5.5,5.5-5.5h136.8c3.04,0,5.5,2.46,5.5,5.5v0
			C245.8,184.54,243.34,187,240.3,187z"/>
		<path class="st3" d="M80.5,217H62.57c-3.04,0-5.5-2.46-5.5-5.5l0,0c0-3.04,2.46-5.5,5.5-5.5H80.5c3.04,0,5.5,2.46,5.5,5.5l0,0
			C86,214.54,83.54,217,80.5,217z"/>
		<path class="st0" d="M243.5,217h-140c-3.04,0-5.5-2.46-5.5-5.5v0c0-3.04,2.46-5.5,5.5-5.5h140c3.04,0,5.5,2.46,5.5,5.5v0
			C249,214.54,246.54,217,243.5,217z"/>
		<path class="st3" d="M80.5,247H62.57c-3.04,0-5.5-2.46-5.5-5.5l0,0c0-3.04,2.46-5.5,5.5-5.5H80.5c3.04,0,5.5,2.46,5.5,5.5l0,0
			C86,244.54,83.54,247,80.5,247z"/>
		<path class="st0" d="M205.61,247H103.5c-3.04,0-5.5-2.46-5.5-5.5v0c0-3.04,2.46-5.5,5.5-5.5h102.11c3.04,0,5.5,2.46,5.5,5.5v0
			C211.11,244.54,208.64,247,205.61,247z"/>
	</g>
</g>
<g id="Layer_2">
</g>
</svg>
