<?xml version="1.0" encoding="utf-8"?>
<!-- Generator: Adobe Illustrator 24.2.0, SVG Export Plug-In . SVG Version: 6.00 Build 0)  -->
<svg version="1.1" id="Layer_1" xmlns="http://www.w3.org/2000/svg" xmlns:xlink="http://www.w3.org/1999/xlink" x="0px" y="0px"
	 viewBox="0 0 300 300" style="enable-background:new 0 0 300 300;" xml:space="preserve">
<style type="text/css">
	.st0{fill:#E5E5E5;}
	.st1{fill:#D0D2D3;}
	.st2{fill:#FFFFFF;}
	.st3{fill:#EDEDED;}
	.st4{fill:#D0D2D3;stroke:#EFEFEF;stroke-width:2;stroke-miterlimit:10;}
	.st5{fill:#EFEFEF;}
	.st6{fill:#BDBDBD;}
	.st7{fill:#DEDFE3;}
	.st8{fill:#565656;}
	.st9{fill:none;stroke:#565656;stroke-width:1.5;stroke-miterlimit:10;}
	.st10{fill:#FFFFFF;stroke:#565656;stroke-width:1.5;stroke-miterlimit:10;}
</style>
<path class="st0" d="M88.5,98.1L88.5,98.1c-1.4,0-2.5-1.1-2.5-2.5V80.5c0-1.4,1.1-2.5,2.5-2.5l0,0c1.4,0,2.5,1.1,2.5,2.5v15.1
	C91,96.9,89.9,98.1,88.5,98.1z"/>
<path class="st0" d="M211.5,98.1L211.5,98.1c-1.4,0-2.5-1.1-2.5-2.5V80.5c0-1.4,1.1-2.5,2.5-2.5l0,0c1.4,0,2.5,1.1,2.5,2.5v15.1
	C214,96.9,212.9,98.1,211.5,98.1z"/>
<path class="st0" d="M88.5,66.1L88.5,66.1c-1.4,0-2.5-1.1-2.5-2.5V58c0-1.4,1.1-2.5,2.5-2.5l0,0c1.4,0,2.5,1.1,2.5,2.5v5.6
	C91,65,89.9,66.1,88.5,66.1z"/>
<path class="st0" d="M88.5,122L88.5,122c-1.4,0-2.5-1.1-2.5-2.5v-15.1c0-1.4,1.1-2.5,2.5-2.5l0,0c1.4,0,2.5,1.1,2.5,2.5v15.1
	C91,120.9,89.9,122,88.5,122z"/>
<path class="st1" d="M198,272.1h-96c-7.8,0-14.1-6.3-14.1-14.1V42c0-7.8,6.3-14.1,14.1-14.1h96c7.8,0,14.1,6.3,14.1,14.1v216.1
	C212.1,265.8,205.8,272.1,198,272.1z"/>
<rect x="94.1" y="49" class="st2" width="111.8" height="195"/>
<path class="st3" d="M166.6,40h-23c-1.1,0-2-0.9-2-2l0,0c0-1.1,0.9-2,2-2h23c1.1,0,2,0.9,2,2l0,0C168.6,39.1,167.6,40,166.6,40z"/>
<path class="st3" d="M135.6,40h-2.1c-1.1,0-2-0.9-2-2l0,0c0-1.1,0.9-2,2-2h2.1c1.1,0,2,0.9,2,2l0,0C137.6,39.1,136.6,40,135.6,40z"
	/>
<circle class="st4" cx="150" cy="258" r="8"/>
<rect x="94.1" y="49" class="st5" width="111.8" height="14"/>
<path class="st6" d="M198.8,57.5h-24.1c-1.1,0-2-0.9-2-2v0c0-1.1,0.9-2,2-2h24.1c1.1,0,2,0.9,2,2v0
	C200.8,56.6,199.9,57.5,198.8,57.5z"/>
<path class="st8" d="M174.7,221.5h-48.2c-1.1,0-2-0.9-2-2l0,0c0-1.1,0.9-2,2-2h48.2c1.1,0,2,0.9,2,2l0,0
	C176.7,220.6,175.8,221.5,174.7,221.5z"/>
<path class="st6" d="M108.1,57.5h-6.6c-1.1,0-2-0.9-2-2v0c0-1.1,0.9-2,2-2h6.6c1.1,0,2,0.9,2,2v0C110.1,56.6,109.2,57.5,108.1,57.5z
	"/>
<g>
	<circle class="st9" cx="150" cy="137.1" r="41.1"/>
	<g>
		<polyline class="st9" points="150,105.3 150,139.1 136.5,152.6 		"/>
		<circle class="st10" cx="150" cy="139" r="2.2"/>
	</g>
</g>
</svg>
