<?xml version="1.0" encoding="utf-8"?>
<!-- Generator: Adobe Illustrator 24.2.0, SVG Export Plug-In . SVG Version: 6.00 Build 0)  -->
<svg version="1.1" id="Layer_1" xmlns="http://www.w3.org/2000/svg" xmlns:xlink="http://www.w3.org/1999/xlink" x="0px" y="0px"
	 viewBox="0 0 300 300" style="enable-background:new 0 0 300 300;" xml:space="preserve">
<style type="text/css">
	.st0{fill:#E5E5E5;}
	.st1{fill:#D0D2D3;}
	.st2{fill:#FFFFFF;}
	.st3{fill:#EDEDED;}
	.st4{fill:#D0D2D3;stroke:#EFEFEF;stroke-width:2;stroke-miterlimit:10;}
	.st5{fill:#EFEFEF;}
	.st6{fill:#BDBDBD;}
	.st7{fill:none;stroke:#565656;stroke-width:1.5;stroke-miterlimit:10;}
	.st8{fill:#565656;}
	.st9{fill:#C6C6C6;}
	.st10{fill:#E7E7E7;}
</style>
<path class="st0" d="M88.5,98.1L88.5,98.1c-1.4,0-2.5-1.1-2.5-2.5V80.5c0-1.4,1.1-2.5,2.5-2.5l0,0c1.4,0,2.5,1.1,2.5,2.5v15.1
	C91,96.9,89.9,98.1,88.5,98.1z"/>
<path class="st0" d="M211.5,98.1L211.5,98.1c-1.4,0-2.5-1.1-2.5-2.5V80.5c0-1.4,1.1-2.5,2.5-2.5l0,0c1.4,0,2.5,1.1,2.5,2.5v15.1
	C214,96.9,212.9,98.1,211.5,98.1z"/>
<path class="st0" d="M88.5,66.1L88.5,66.1c-1.4,0-2.5-1.1-2.5-2.5V58c0-1.4,1.1-2.5,2.5-2.5l0,0c1.4,0,2.5,1.1,2.5,2.5v5.6
	C91,65,89.9,66.1,88.5,66.1z"/>
<path class="st0" d="M88.5,122L88.5,122c-1.4,0-2.5-1.1-2.5-2.5v-15.1c0-1.4,1.1-2.5,2.5-2.5l0,0c1.4,0,2.5,1.1,2.5,2.5v15.1
	C91,120.9,89.9,122,88.5,122z"/>
<path class="st1" d="M198,272.1h-96c-7.8,0-14.1-6.3-14.1-14.1V42c0-7.8,6.3-14.1,14.1-14.1h96c7.8,0,14.1,6.3,14.1,14.1v216.1
	C212.1,265.8,205.8,272.1,198,272.1z"/>
<rect x="94.1" y="49" class="st2" width="111.8" height="195"/>
<path class="st3" d="M166.6,40h-23c-1.1,0-2-0.9-2-2l0,0c0-1.1,0.9-2,2-2h23c1.1,0,2,0.9,2,2l0,0C168.6,39.1,167.6,40,166.6,40z"/>
<path class="st3" d="M135.6,40h-2.1c-1.1,0-2-0.9-2-2l0,0c0-1.1,0.9-2,2-2h2.1c1.1,0,2,0.9,2,2l0,0C137.6,39.1,136.6,40,135.6,40z"
	/>
<circle class="st4" cx="150" cy="258" r="8"/>
<rect x="94.1" y="49" class="st5" width="111.8" height="14"/>
<rect x="94.1" y="76" class="st5" width="111.8" height="14"/>
<rect x="94.1" y="126.6" class="st5" width="111.8" height="14"/>
<rect x="94.1" y="231.1" class="st5" width="111.8" height="13.2"/>
<path class="st6" d="M129.6,57.5h-28c-1.1,0-2-0.9-2-2v0c0-1.1,0.9-2,2-2h28c1.1,0,2,0.9,2,2v0C131.6,56.6,130.7,57.5,129.6,57.5z"
	/>
<path class="st6" d="M199.3,57.5h-5.9c-1.1,0-2-0.9-2-2v0c0-1.1,0.9-2,2-2h5.9c1.1,0,2,0.9,2,2v0C201.3,56.6,200.4,57.5,199.3,57.5z
	"/>
<path class="st6" d="M199.3,239.7h-13.3c-1.1,0-2-0.9-2-2v0c0-1.1,0.9-2,2-2h13.3c1.1,0,2,0.9,2,2v0
	C201.3,238.8,200.4,239.7,199.3,239.7z"/>
<path class="st6" d="M157.4,239.7h-13.3c-1.1,0-2-0.9-2-2v0c0-1.1,0.9-2,2-2h13.3c1.1,0,2,0.9,2,2v0
	C159.4,238.8,158.5,239.7,157.4,239.7z"/>
<path class="st6" d="M115.5,239.7h-13.3c-1.1,0-2-0.9-2-2v0c0-1.1,0.9-2,2-2h13.3c1.1,0,2,0.9,2,2v0
	C117.5,238.8,116.6,239.7,115.5,239.7z"/>
<path class="st6" d="M184.4,57.5h-5.9c-1.1,0-2-0.9-2-2v0c0-1.1,0.9-2,2-2h5.9c1.1,0,2,0.9,2,2v0C186.4,56.6,185.5,57.5,184.4,57.5z
	"/>
<path class="st6" d="M189.3,110.6h-57.9c-1.1,0-2-0.9-2-2l0,0c0-1.1,0.9-2,2-2h57.9c1.1,0,2,0.9,2,2l0,0
	C191.3,109.7,190.4,110.6,189.3,110.6z"/>
<g>
	<path class="st6" d="M121.7,117.6c0,0.6-0.5,1-1,1h-20.1c-0.6,0-1-0.4-1-1v-18c0-0.6,0.4-1,1-1h20.1c0.5,0,1,0.4,1,1V117.6z"/>
</g>
<path class="st6" d="M189.3,162h-57.9c-1.1,0-2-0.9-2-2l0,0c0-1.1,0.9-2,2-2h57.9c1.1,0,2,0.9,2,2l0,0
	C191.3,161.1,190.4,162,189.3,162z"/>
<path class="st6" d="M189.3,187.8h-57.9c-1.1,0-2-0.9-2-2l0,0c0-1.1,0.9-2,2-2h57.9c1.1,0,2,0.9,2,2l0,0
	C191.3,186.9,190.4,187.8,189.3,187.8z"/>
<g>
	<path class="st6" d="M121.7,169c0,0.6-0.5,1-1,1h-20.1c-0.6,0-1-0.4-1-1v-18c0-0.6,0.4-1,1-1h20.1c0.5,0,1,0.4,1,1V169z"/>
</g>
<g>
	<path class="st6" d="M121.7,194.9c0,0.6-0.5,1-1,1h-20.1c-0.6,0-1-0.4-1-1v-18c0-0.6,0.4-1,1-1h20.1c0.5,0,1,0.4,1,1V194.9z"/>
</g>
<path class="st6" d="M189.3,213.5h-57.9c-1.1,0-2-0.9-2-2l0,0c0-1.1,0.9-2,2-2h57.9c1.1,0,2,0.9,2,2l0,0
	C191.3,212.6,190.4,213.5,189.3,213.5z"/>
<g>
	<path class="st6" d="M121.7,220.5c0,0.6-0.5,1-1,1h-20.1c-0.6,0-1-0.4-1-1v-18c0-0.6,0.4-1,1-1h20.1c0.5,0,1,0.4,1,1V220.5z"/>
</g>
</svg>
