<?xml version="1.0" encoding="utf-8"?>
<!-- Generator: Adobe Illustrator 24.2.0, SVG Export Plug-In . SVG Version: 6.00 Build 0)  -->
<svg version="1.1" id="Layer_1" xmlns="http://www.w3.org/2000/svg" xmlns:xlink="http://www.w3.org/1999/xlink" x="0px" y="0px"
	 viewBox="0 0 300 300" style="enable-background:new 0 0 300 300;" xml:space="preserve">
<style type="text/css">
	.st0{fill:#E5E5E5;}
	.st1{fill:#D0D2D3;}
	.st2{fill:#FFFFFF;}
	.st3{fill:#EDEDED;}
	.st4{fill:#D0D2D3;stroke:#EFEFEF;stroke-width:2;stroke-miterlimit:10;}
	.st5{fill:#EFEFEF;}
	.st6{fill:#BDBDBD;}
	.st7{fill:none;stroke:#DEDFE3;stroke-width:2;stroke-miterlimit:10;}
	.st8{fill:none;stroke:#565656;stroke-width:1.5;stroke-miterlimit:10;}
	.st9{fill:#565656;}
	.st10{fill:#C6C6C6;}
	.st11{fill:#E7E7E7;}
	.st12{fill:none;stroke:#BDBDBD;stroke-miterlimit:10;}
</style>
<path class="st0" d="M88.5,98.1L88.5,98.1c-1.4,0-2.5-1.1-2.5-2.5V80.5c0-1.4,1.1-2.5,2.5-2.5l0,0c1.4,0,2.5,1.1,2.5,2.5v15.1
	C91,96.9,89.9,98.1,88.5,98.1z"/>
<path class="st0" d="M211.5,98.1L211.5,98.1c-1.4,0-2.5-1.1-2.5-2.5V80.5c0-1.4,1.1-2.5,2.5-2.5l0,0c1.4,0,2.5,1.1,2.5,2.5v15.1
	C214,96.9,212.9,98.1,211.5,98.1z"/>
<path class="st0" d="M88.5,66.1L88.5,66.1c-1.4,0-2.5-1.1-2.5-2.5V58c0-1.4,1.1-2.5,2.5-2.5l0,0c1.4,0,2.5,1.1,2.5,2.5v5.6
	C91,65,89.9,66.1,88.5,66.1z"/>
<path class="st0" d="M88.5,122L88.5,122c-1.4,0-2.5-1.1-2.5-2.5v-15.1c0-1.4,1.1-2.5,2.5-2.5l0,0c1.4,0,2.5,1.1,2.5,2.5v15.1
	C91,120.9,89.9,122,88.5,122z"/>
<path class="st1" d="M198,272.1h-96c-7.8,0-14.1-6.3-14.1-14.1V42c0-7.8,6.3-14.1,14.1-14.1h96c7.8,0,14.1,6.3,14.1,14.1v216.1
	C212.1,265.8,205.8,272.1,198,272.1z"/>
<rect x="94.1" y="49" class="st2" width="111.8" height="195"/>
<path class="st3" d="M166.6,40h-23c-1.1,0-2-0.9-2-2l0,0c0-1.1,0.9-2,2-2h23c1.1,0,2,0.9,2,2l0,0C168.6,39.1,167.6,40,166.6,40z"/>
<path class="st3" d="M135.6,40h-2.1c-1.1,0-2-0.9-2-2l0,0c0-1.1,0.9-2,2-2h2.1c1.1,0,2,0.9,2,2l0,0C137.6,39.1,136.6,40,135.6,40z"
	/>
<circle class="st4" cx="150" cy="258" r="8"/>
<rect x="94.1" y="49" class="st5" width="111.8" height="14"/>
<rect x="94.1" y="121.9" class="st5" width="111.8" height="18.8"/>
<rect x="94.1" y="231.1" class="st5" width="111.8" height="13.2"/>
<circle class="st7" cx="120.1" cy="92" r="18.5"/>
<path class="st6" d="M108.1,57.5h-6.6c-1.1,0-2-0.9-2-2v0c0-1.1,0.9-2,2-2h6.6c1.1,0,2,0.9,2,2v0C110.1,56.6,109.2,57.5,108.1,57.5z
	"/>
<path class="st6" d="M158.4,133.3h-56.9c-1.1,0-2-0.9-2-2l0,0c0-1.1,0.9-2,2-2h56.9c1.1,0,2,0.9,2,2l0,0
	C160.4,132.4,159.5,133.3,158.4,133.3z"/>
<path class="st6" d="M184.2,88h-37c-1.1,0-2-0.9-2-2l0,0c0-1.1,0.9-2,2-2h37c1.1,0,2,0.9,2,2l0,0C186.2,87.1,185.3,88,184.2,88z"/>
<path class="st5" d="M197.7,100h-50.5c-1.1,0-2-0.9-2-2v0c0-1.1,0.9-2,2-2h50.5c1.1,0,2,0.9,2,2v0C199.7,99.1,198.8,100,197.7,100z"
	/>
<g>
	<path class="st6" d="M180.4,155.7h-56.9c-1.1,0-2-0.9-2-2l0,0c0-1.1,0.9-2,2-2h56.9c1.1,0,2,0.9,2,2l0,0
		C182.4,154.8,181.5,155.7,180.4,155.7z"/>
	<g>
		<path class="st5" d="M116.4,160.4c0,0.6-0.5,1-1,1h-14.9c-0.6,0-1-0.4-1-1v-13.3c0-0.6,0.4-1,1-1h14.9c0.5,0,1,0.4,1,1V160.4z"/>
	</g>
	<polyline class="st12" points="196.4,150.4 199.8,153.8 196.5,157 	"/>
</g>
<g>
	<path class="st6" d="M180.4,179.7h-56.9c-1.1,0-2-0.9-2-2l0,0c0-1.1,0.9-2,2-2h56.9c1.1,0,2,0.9,2,2l0,0
		C182.4,178.8,181.5,179.7,180.4,179.7z"/>
	<g>
		<path class="st5" d="M116.4,184.3c0,0.6-0.5,1-1,1h-14.9c-0.6,0-1-0.4-1-1V171c0-0.6,0.4-1,1-1h14.9c0.5,0,1,0.4,1,1V184.3z"/>
	</g>
	<polyline class="st12" points="196.4,174.4 199.8,177.7 196.5,181 	"/>
</g>
<g>
	<path class="st6" d="M180.4,203.6h-56.9c-1.1,0-2-0.9-2-2l0,0c0-1.1,0.9-2,2-2h56.9c1.1,0,2,0.9,2,2l0,0
		C182.4,202.7,181.5,203.6,180.4,203.6z"/>
	<g>
		<path class="st5" d="M116.4,208.3c0,0.6-0.5,1-1,1h-14.9c-0.6,0-1-0.4-1-1V195c0-0.5,0.4-1,1-1h14.9c0.5,0,1,0.5,1,1V208.3z"/>
	</g>
	<polyline class="st12" points="196.4,198.3 199.8,201.7 196.5,204.9 	"/>
</g>
</svg>
