<?xml version="1.0" encoding="utf-8"?>
<!-- Generator: Adobe Illustrator 24.2.0, SVG Export Plug-In . SVG Version: 6.00 Build 0)  -->
<svg version="1.1" xmlns="http://www.w3.org/2000/svg" xmlns:xlink="http://www.w3.org/1999/xlink" x="0px" y="0px"
	 viewBox="0 0 300 300" style="enable-background:new 0 0 300 300;" xml:space="preserve">
<style type="text/css">
	.st0{fill:#E5E5E5;}
	.st1{fill:#D0D2D3;}
	.st2{fill:#FFFFFF;}
	.st3{fill:#EDEDED;}
	.st4{fill:#D0D2D3;stroke:#EFEFEF;stroke-width:2;stroke-miterlimit:10;}
	.st5{fill:#EFEFEF;}
	.st6{fill:#BDBDBD;}
	.st7{fill:none;stroke:#565656;stroke-width:1.5;stroke-miterlimit:10;}
	.st8{fill:#565656;}
	.st9{fill:#C6C6C6;}
	.st10{fill:#E7E7E7;}
	.st11{fill:#E0E0E0;}
	.st12{fill:none;stroke:#D1D1D1;stroke-width:0.3;stroke-miterlimit:10;}
	.st13{fill:#CCCCCC;}
	.st14{fill:#919191;}
</style>
<g id="Layer_1">
	<path class="st0" d="M88.5,98.1L88.5,98.1c-1.4,0-2.5-1.1-2.5-2.5V80.5c0-1.4,1.1-2.5,2.5-2.5l0,0c1.4,0,2.5,1.1,2.5,2.5v15.1
		C91,96.9,89.9,98.1,88.5,98.1z"/>
	<path class="st0" d="M211.5,98.1L211.5,98.1c-1.4,0-2.5-1.1-2.5-2.5V80.5c0-1.4,1.1-2.5,2.5-2.5l0,0c1.4,0,2.5,1.1,2.5,2.5v15.1
		C214,96.9,212.9,98.1,211.5,98.1z"/>
	<path class="st0" d="M88.5,66.1L88.5,66.1c-1.4,0-2.5-1.1-2.5-2.5V58c0-1.4,1.1-2.5,2.5-2.5l0,0c1.4,0,2.5,1.1,2.5,2.5v5.6
		C91,65,89.9,66.1,88.5,66.1z"/>
	<path class="st0" d="M88.5,122L88.5,122c-1.4,0-2.5-1.1-2.5-2.5v-15.1c0-1.4,1.1-2.5,2.5-2.5l0,0c1.4,0,2.5,1.1,2.5,2.5v15.1
		C91,120.9,89.9,122,88.5,122z"/>
	<path class="st1" d="M198,272.1h-96c-7.8,0-14.1-6.3-14.1-14.1V42c0-7.8,6.3-14.1,14.1-14.1h96c7.8,0,14.1,6.3,14.1,14.1v216.1
		C212.1,265.8,205.8,272.1,198,272.1z"/>
	<rect x="94.1" y="49" class="st2" width="111.8" height="195"/>
	<path class="st3" d="M166.6,40h-23c-1.1,0-2-0.9-2-2l0,0c0-1.1,0.9-2,2-2h23c1.1,0,2,0.9,2,2l0,0C168.6,39.1,167.6,40,166.6,40z"/>
	<path class="st3" d="M135.6,40h-2.1c-1.1,0-2-0.9-2-2l0,0c0-1.1,0.9-2,2-2h2.1c1.1,0,2,0.9,2,2l0,0C137.6,39.1,136.6,40,135.6,40z"
		/>
	<circle class="st4" cx="150" cy="258" r="8"/>
	<rect x="94.1" y="49" class="st11" width="111.8" height="8"/>
	<g>
		<g>
			<g>
				<path class="st0" d="M125.3,86.1c0,0.6-0.4,1-1,1h-23.6c-0.6,0-1-0.4-1-1V65.1c0-0.5,0.4-1,1-1h23.6c0.6,0,1,0.5,1,1V86.1z"/>
			</g>
			<path class="st13" d="M117.2,93.7h-9.4c-0.9,0-1.7-0.8-1.7-1.7v-0.2c0-0.9,0.8-1.7,1.7-1.7h9.4c0.9,0,1.7,0.8,1.7,1.7V92
				C118.9,93,118.1,93.7,117.2,93.7z"/>
			<circle class="st14" cx="124.4" cy="65.4" r="2.9"/>
		</g>
		<g>
			<g>
				<path class="st0" d="M162,86.1c0,0.6-0.4,1-1,1h-23.6c-0.5,0-1-0.4-1-1V65.1c0-0.5,0.5-1,1-1H161c0.6,0,1,0.5,1,1V86.1z"/>
			</g>
			<path class="st13" d="M153.9,93.7h-9.4c-0.9,0-1.7-0.8-1.7-1.7v-0.2c0-0.9,0.8-1.7,1.7-1.7h9.4c0.9,0,1.7,0.8,1.7,1.7V92
				C155.6,93,154.8,93.7,153.9,93.7z"/>
			<circle class="st14" cx="161.1" cy="65.4" r="2.9"/>
		</g>
		<g>
			<g>
				<path class="st0" d="M198.7,86.1c0,0.6-0.4,1-1,1h-23.6c-0.6,0-1-0.4-1-1V65.1c0-0.5,0.4-1,1-1h23.6c0.6,0,1,0.5,1,1V86.1z"/>
			</g>
			<path class="st13" d="M190.6,93.7h-9.4c-0.9,0-1.7-0.8-1.7-1.7v-0.2c0-0.9,0.8-1.7,1.7-1.7h9.4c0.9,0,1.7,0.8,1.7,1.7V92
				C192.3,93,191.5,93.7,190.6,93.7z"/>
		</g>
	</g>
	<g>
		<g>
			<g>
				<path class="st0" d="M125.3,125.6c0,0.5-0.4,1-1,1h-23.6c-0.6,0-1-0.5-1-1v-21.1c0-0.6,0.4-1,1-1h23.6c0.6,0,1,0.4,1,1V125.6z"
					/>
			</g>
			<path class="st13" d="M117.2,133.2h-9.4c-0.9,0-1.7-0.8-1.7-1.7v-0.2c0-0.9,0.8-1.7,1.7-1.7h9.4c0.9,0,1.7,0.8,1.7,1.7v0.2
				C118.9,132.5,118.1,133.2,117.2,133.2z"/>
			<circle class="st14" cx="124.4" cy="104.9" r="2.9"/>
		</g>
		<g>
			<g>
				<path class="st0" d="M162,125.6c0,0.5-0.4,1-1,1h-23.6c-0.5,0-1-0.5-1-1v-21.1c0-0.6,0.5-1,1-1H161c0.6,0,1,0.4,1,1V125.6z"/>
			</g>
			<path class="st13" d="M153.9,133.2h-9.4c-0.9,0-1.7-0.8-1.7-1.7v-0.2c0-0.9,0.8-1.7,1.7-1.7h9.4c0.9,0,1.7,0.8,1.7,1.7v0.2
				C155.6,132.5,154.8,133.2,153.9,133.2z"/>
		</g>
		<g>
			<g>
				<path class="st0" d="M198.7,125.6c0,0.5-0.4,1-1,1h-23.6c-0.6,0-1-0.5-1-1v-21.1c0-0.6,0.4-1,1-1h23.6c0.6,0,1,0.4,1,1V125.6z"
					/>
			</g>
			<path class="st13" d="M190.6,133.2h-9.4c-0.9,0-1.7-0.8-1.7-1.7v-0.2c0-0.9,0.8-1.7,1.7-1.7h9.4c0.9,0,1.7,0.8,1.7,1.7v0.2
				C192.3,132.5,191.5,133.2,190.6,133.2z"/>
			<circle class="st14" cx="197.8" cy="104.9" r="2.9"/>
		</g>
	</g>
	<g>
		<g>
			<path class="st0" d="M125.3,165.1c0,0.6-0.4,1-1,1h-23.6c-0.6,0-1-0.4-1-1V144c0-0.6,0.4-1,1-1h23.6c0.6,0,1,0.4,1,1V165.1z"/>
		</g>
		<path class="st13" d="M117.2,172.7h-9.4c-0.9,0-1.7-0.8-1.7-1.7v-0.2c0-0.9,0.8-1.7,1.7-1.7h9.4c0.9,0,1.7,0.8,1.7,1.7v0.2
			C118.9,171.9,118.1,172.7,117.2,172.7z"/>
		<circle class="st14" cx="124.4" cy="144.4" r="2.9"/>
	</g>
	<g>
		<path class="st0" d="M125.3,205c0,0.6-0.4,1-1,1h-23.6c-0.6,0-1-0.4-1-1v-21.1c0-0.6,0.4-1,1-1h23.6c0.6,0,1,0.4,1,1V205z"/>
	</g>
	<path class="st13" d="M117.2,212.6h-9.4c-0.9,0-1.7-0.8-1.7-1.7v-0.2c0-0.9,0.8-1.7,1.7-1.7h9.4c0.9,0,1.7,0.8,1.7,1.7v0.2
		C118.9,211.9,118.1,212.6,117.2,212.6z"/>
	<g>
		<path class="st0" d="M162,165.1c0,0.6-0.4,1-1,1h-23.6c-0.5,0-1-0.4-1-1V144c0-0.6,0.5-1,1-1H161c0.6,0,1,0.4,1,1V165.1z"/>
	</g>
	<path class="st13" d="M153.9,172.7h-9.4c-0.9,0-1.7-0.8-1.7-1.7v-0.2c0-0.9,0.8-1.7,1.7-1.7h9.4c0.9,0,1.7,0.8,1.7,1.7v0.2
		C155.6,171.9,154.8,172.7,153.9,172.7z"/>
	<path class="st13" d="M173.3,235.7h-45.2c-0.9,0-1.7-0.8-1.7-1.7v-0.2c0-0.9,0.8-1.7,1.7-1.7h45.2c0.9,0,1.7,0.8,1.7,1.7v0.2
		C175,234.9,174.3,235.7,173.3,235.7z"/>
	<circle class="st14" cx="161.1" cy="144.4" r="2.9"/>
	<g>
		<g>
			<path class="st0" d="M198.7,165.1c0,0.6-0.4,1-1,1h-23.6c-0.6,0-1-0.4-1-1V144c0-0.6,0.4-1,1-1h23.6c0.6,0,1,0.4,1,1V165.1z"/>
		</g>
		<path class="st13" d="M190.6,172.7h-9.4c-0.9,0-1.7-0.8-1.7-1.7v-0.2c0-0.9,0.8-1.7,1.7-1.7h9.4c0.9,0,1.7,0.8,1.7,1.7v0.2
			C192.3,171.9,191.5,172.7,190.6,172.7z"/>
		<circle class="st14" cx="197.8" cy="144.4" r="2.9"/>
	</g>
	<g>
		<path class="st14" d="M111.1,192.8c0,0.6-0.5,1-1,1h-5.7c-0.5,0-1-0.4-1-1v-5c0-0.5,0.5-1,1-1h5.7c0.5,0,1,0.5,1,1V192.8z"/>
	</g>
	<g>
		<path class="st14" d="M111.1,202c0,0.6-0.5,1-1,1h-5.7c-0.5,0-1-0.4-1-1v-5c0-0.5,0.5-1,1-1h5.7c0.5,0,1,0.5,1,1V202z"/>
	</g>
	<g>
		<path class="st14" d="M121.3,192.8c0,0.6-0.4,1-1,1h-5.7c-0.6,0-1-0.4-1-1v-5c0-0.5,0.4-1,1-1h5.7c0.6,0,1,0.5,1,1V192.8z"/>
	</g>
</g>
<g id="Layer_2">
</g>
</svg>
