<?xml version="1.0" encoding="utf-8"?>
<!-- Generator: Adobe Illustrator 24.2.0, SVG Export Plug-In . SVG Version: 6.00 Build 0)  -->
<svg version="1.1" xmlns="http://www.w3.org/2000/svg" xmlns:xlink="http://www.w3.org/1999/xlink" x="0px" y="0px"
	 viewBox="0 0 300 300" style="enable-background:new 0 0 300 300;" xml:space="preserve">
<style type="text/css">
	.st0{fill:#E5E5E5;}
	.st1{fill:#D0D2D3;}
	.st2{fill:#A3A3A3;}
	.st3{fill:#EDEDED;}
	.st4{fill:#D0D2D3;stroke:#EFEFEF;stroke-width:2;stroke-miterlimit:10;}
	.st5{fill:#EFEFEF;}
	.st6{fill:#BDBDBD;}
	.st7{fill:none;stroke:#565656;stroke-width:1.5;stroke-miterlimit:10;}
	.st8{fill:#565656;}
	.st9{fill:#C6C6C6;}
	.st10{fill:#E7E7E7;}
	.st11{fill:#E0E0E0;}
	.st12{fill:none;stroke:#D1D1D1;stroke-width:0.3;stroke-miterlimit:10;}
	.st13{fill:#F0F0F0;}
	.st14{fill:#CCCCCC;}
	.st15{fill:#F2F2F2;}
	.st16{fill:#919191;}
	.st17{fill:#AFAFAF;}
	.st18{fill:#FFFFFF;}
	.st19{fill-rule:evenodd;clip-rule:evenodd;fill:#FDFDFE;}
	.st20{fill-rule:evenodd;clip-rule:evenodd;fill:#FEFFFF;}
</style>
<g id="Layer_1">
	<path class="st0" d="M88.5,98.1L88.5,98.1c-1.4,0-2.5-1.1-2.5-2.5V80.5c0-1.4,1.1-2.5,2.5-2.5l0,0c1.4,0,2.5,1.1,2.5,2.5v15.1
		C91,96.9,89.9,98.1,88.5,98.1z"/>
	<path class="st0" d="M211.5,98.1L211.5,98.1c-1.4,0-2.5-1.1-2.5-2.5V80.5c0-1.4,1.1-2.5,2.5-2.5l0,0c1.4,0,2.5,1.1,2.5,2.5v15.1
		C214,96.9,212.9,98.1,211.5,98.1z"/>
	<path class="st0" d="M88.5,66.1L88.5,66.1c-1.4,0-2.5-1.1-2.5-2.5V58c0-1.4,1.1-2.5,2.5-2.5l0,0c1.4,0,2.5,1.1,2.5,2.5v5.6
		C91,65,89.9,66.1,88.5,66.1z"/>
	<path class="st0" d="M88.5,122L88.5,122c-1.4,0-2.5-1.1-2.5-2.5v-15.1c0-1.4,1.1-2.5,2.5-2.5l0,0c1.4,0,2.5,1.1,2.5,2.5v15.1
		C91,120.9,89.9,122,88.5,122z"/>
	<path class="st1" d="M198,272.1h-96c-7.8,0-14.1-6.3-14.1-14.1V42c0-7.8,6.3-14.1,14.1-14.1h96c7.8,0,14.1,6.3,14.1,14.1v216.1
		C212.1,265.8,205.8,272.1,198,272.1z"/>
	<rect x="94.1" y="49" class="st2" width="111.8" height="195"/>
	<path class="st3" d="M166.6,40h-23c-1.1,0-2-0.9-2-2l0,0c0-1.1,0.9-2,2-2h23c1.1,0,2,0.9,2,2l0,0C168.6,39.1,167.6,40,166.6,40z"/>
	<path class="st3" d="M135.6,40h-2.1c-1.1,0-2-0.9-2-2l0,0c0-1.1,0.9-2,2-2h2.1c1.1,0,2,0.9,2,2l0,0C137.6,39.1,136.6,40,135.6,40z"
		/>
	<circle class="st4" cx="150" cy="258" r="8"/>
	<path class="st15" d="M191.6,132.2h-48.4c-1.1,0-2-0.9-2-2l0,0c0-1.1,0.9-2,2-2h48.4c1.1,0,2,0.9,2,2l0,0
		C193.6,131.3,192.7,132.2,191.6,132.2z"/>
	<g>
		<path class="st15" d="M133.3,140.8c0,0.5-0.4,1-1,1h-23.6c-0.5,0-1-0.5-1-1v-21.1c0-0.5,0.5-1,1-1h23.6c0.6,0,1,0.5,1,1V140.8z"/>
	</g>
	<path class="st15" d="M191.6,166.2h-48.4c-1.1,0-2-0.9-2-2l0,0c0-1.1,0.9-2,2-2h48.4c1.1,0,2,0.9,2,2l0,0
		C193.6,165.3,192.7,166.2,191.6,166.2z"/>
	<g>
		<path class="st15" d="M133.3,174.8c0,0.5-0.4,1-1,1h-23.6c-0.5,0-1-0.5-1-1v-21.1c0-0.6,0.5-1,1-1h23.6c0.6,0,1,0.4,1,1V174.8z"/>
	</g>
	<g>
		<g>
			<path class="st18" d="M124.2,94.9h4.1V80.6h-3.1v-0.8c1.4-0.2,2.5-0.6,3.3-1.1h1v16.2h3.8v1.1h-9V94.9z"/>
			<path class="st18" d="M137.1,94.9h4.1V80.6h-3.1v-0.8c1.4-0.2,2.5-0.6,3.3-1.1h1v16.2h3.8v1.1h-9V94.9z"/>
			<path class="st18" d="M149.6,84.7c0-0.8,0.6-1.3,1.1-1.3s1.1,0.5,1.1,1.3c0,0.7-0.5,1.2-1.1,1.2S149.6,85.5,149.6,84.7z
				 M149.6,95c0-0.8,0.6-1.3,1.1-1.3s1.1,0.5,1.1,1.3c0,0.7-0.5,1.2-1.1,1.2S149.6,95.8,149.6,95z"/>
			<path class="st18" d="M162,83.4c0-0.8,0.1-2.2,0.1-3h-0.1c-0.4,0.7-0.9,1.4-1.4,2.2l-5.1,7.1h10.2v1h-11.6v-0.7l8-11.4h1.1v17.3
				H162V83.4z"/>
			<path class="st18" d="M167.3,93.9l0.7-0.8c1,1.1,2.4,2.1,4.7,2.1c2.3,0,4.3-1.9,4.3-4.6c0-2.8-1.7-4.4-4.2-4.4
				c-1.3,0-2.2,0.5-3.2,1.1l-0.8-0.5l0.6-8.1h8v1.1h-6.9l-0.6,6.2c0.9-0.5,1.8-0.9,3.1-0.9c2.9,0,5.3,1.7,5.3,5.4
				c0,3.7-2.7,5.8-5.5,5.8C170,96.2,168.4,95,167.3,93.9z"/>
		</g>
	</g>
</g>
<g id="Layer_2">
</g>
</svg>
