<?xml version="1.0" encoding="utf-8"?>
<!-- Generator: Adobe Illustrator 24.2.0, SVG Export Plug-In . SVG Version: 6.00 Build 0)  -->
<svg version="1.1" xmlns="http://www.w3.org/2000/svg" xmlns:xlink="http://www.w3.org/1999/xlink" x="0px" y="0px"
	 viewBox="0 0 300 300" style="enable-background:new 0 0 300 300;" xml:space="preserve">
<style type="text/css">
	.st0{fill:#E5E5E5;}
	.st1{fill:#D0D2D3;}
	.st2{fill:#FFFFFF;}
	.st3{fill:#EDEDED;}
	.st4{fill:#D0D2D3;stroke:#EFEFEF;stroke-width:2;stroke-miterlimit:10;}
	.st5{fill:#EFEFEF;}
	.st6{fill:#BDBDBD;}
	.st7{fill:none;stroke:#565656;stroke-width:1.5;stroke-miterlimit:10;}
	.st8{fill:#565656;}
	.st9{fill:#C6C6C6;}
	.st10{fill:#E7E7E7;}
	.st11{fill:#E0E0E0;}
	.st12{fill:none;stroke:#D1D1D1;stroke-width:0.3;stroke-miterlimit:10;}
	.st13{fill:#F0F0F0;}
	.st14{fill:#CCCCCC;}
	.st15{fill:#919191;}
	.st16{fill:#AFAFAF;}
</style>
<g id="Layer_1">
	<path class="st0" d="M88.5,98.1L88.5,98.1c-1.4,0-2.5-1.1-2.5-2.5V80.5c0-1.4,1.1-2.5,2.5-2.5l0,0c1.4,0,2.5,1.1,2.5,2.5v15.1
		C91,96.9,89.9,98.1,88.5,98.1z"/>
	<path class="st0" d="M211.5,98.1L211.5,98.1c-1.4,0-2.5-1.1-2.5-2.5V80.5c0-1.4,1.1-2.5,2.5-2.5l0,0c1.4,0,2.5,1.1,2.5,2.5v15.1
		C214,96.9,212.9,98.1,211.5,98.1z"/>
	<path class="st0" d="M88.5,66.1L88.5,66.1c-1.4,0-2.5-1.1-2.5-2.5V58c0-1.4,1.1-2.5,2.5-2.5l0,0c1.4,0,2.5,1.1,2.5,2.5v5.6
		C91,65,89.9,66.1,88.5,66.1z"/>
	<path class="st0" d="M88.5,122L88.5,122c-1.4,0-2.5-1.1-2.5-2.5v-15.1c0-1.4,1.1-2.5,2.5-2.5l0,0c1.4,0,2.5,1.1,2.5,2.5v15.1
		C91,120.9,89.9,122,88.5,122z"/>
	<path class="st1" d="M198,272.1h-96c-7.8,0-14.1-6.3-14.1-14.1V42c0-7.8,6.3-14.1,14.1-14.1h96c7.8,0,14.1,6.3,14.1,14.1v216.1
		C212.1,265.8,205.8,272.1,198,272.1z"/>
	<rect x="94.1" y="49" class="st2" width="111.8" height="195"/>
	<path class="st3" d="M166.6,40h-23c-1.1,0-2-0.9-2-2l0,0c0-1.1,0.9-2,2-2h23c1.1,0,2,0.9,2,2l0,0C168.6,39.1,167.6,40,166.6,40z"/>
	<path class="st3" d="M135.6,40h-2.1c-1.1,0-2-0.9-2-2l0,0c0-1.1,0.9-2,2-2h2.1c1.1,0,2,0.9,2,2l0,0C137.6,39.1,136.6,40,135.6,40z"
		/>
	<circle class="st4" cx="150" cy="258" r="8"/>
	<rect x="94.1" y="49" class="st11" width="111.8" height="14.1"/>
	<circle class="st13" cx="118.5" cy="130.6" r="11"/>
	<circle class="st13" cx="150.8" cy="130.6" r="11"/>
	<circle class="st13" cx="183.1" cy="130.6" r="11"/>
	<path class="st15" d="M111.7,57.2h-9.8c-0.9,0-1.7-0.8-1.7-1.7v-0.2c0-0.9,0.8-1.7,1.7-1.7h9.8c0.9,0,1.7,0.8,1.7,1.7v0.2
		C113.4,56.5,112.7,57.2,111.7,57.2z"/>
	<g>
		<g>
			<path class="st16" d="M134.8,90c0-7.3,2.4-11.3,6.5-11.3s6.5,4,6.5,11.3c0,7.3-2.4,11.4-6.5,11.4S134.8,97.2,134.8,90z M146.3,90
				c0-6.7-2-10-5-10s-5,3.3-5,10c0,6.7,2,10.1,5,10.1S146.3,96.6,146.3,90z"/>
			<path class="st16" d="M152.4,99.6h5.2V81.5h-3.9v-1c1.8-0.3,3.2-0.8,4.2-1.4h1.2v20.6h4.8v1.3h-11.4V99.6z"/>
			<path class="st16" d="M167.3,100c7.2-7.3,10.8-11.4,10.8-15.2c0-2.7-1.5-4.8-4.8-4.8c-2,0-3.8,1.2-5.1,2.9l-1-0.9
				c1.6-1.8,3.6-3.2,6.2-3.2c3.9,0,6.2,2.4,6.2,6.1c0,4.4-4,8.5-10.1,15c1.2-0.1,2.5-0.2,3.7-0.2h7.5v1.4h-13.4V100z"/>
			<path class="st16" d="M183.3,98.3l0.9-1c1.3,1.4,3.1,2.8,6.1,2.8c3,0,5.1-1.9,5.1-4.8c0-3-2.2-5.1-7.6-5.1v-1.3
				c5,0,6.8-2.1,6.8-4.7c0-2.5-1.7-4.1-4.4-4.1c-2,0-3.8,1-5,2.4l-0.9-1c1.5-1.5,3.4-2.7,5.9-2.7c3.4,0,6,1.9,6,5.3
				c0,2.9-1.8,4.6-4.2,5.4v0.1c2.7,0.6,5,2.6,5,5.7c0,3.8-2.9,6.2-6.7,6.2C186.7,101.4,184.7,99.8,183.3,98.3z"/>
		</g>
	</g>
	<circle class="st13" cx="118.5" cy="160.6" r="11"/>
	<circle class="st13" cx="150.8" cy="160.6" r="11"/>
	<circle class="st13" cx="183.1" cy="160.6" r="11"/>
	<circle class="st13" cx="118.5" cy="190.6" r="11"/>
	<circle class="st13" cx="150.8" cy="190.6" r="11"/>
	<circle class="st14" cx="150.8" cy="220.6" r="11"/>
	<circle class="st13" cx="183.1" cy="190.6" r="11"/>
</g>
<g id="Layer_2">
</g>
</svg>
