<?xml version="1.0" encoding="utf-8"?>
<!-- Generator: Adobe Illustrator 24.2.0, SVG Export Plug-In . SVG Version: 6.00 Build 0)  -->
<svg version="1.1" id="Layer_1" xmlns="http://www.w3.org/2000/svg" xmlns:xlink="http://www.w3.org/1999/xlink" x="0px" y="0px"
	 viewBox="0 0 300 300" style="enable-background:new 0 0 300 300;" xml:space="preserve">
<style type="text/css">
	.st0{fill:#E5E5E5;}
	.st1{fill:#D0D2D3;}
	.st2{fill:#FFFFFF;}
	.st3{fill:#EDEDED;}
	.st4{fill:#D0D2D3;stroke:#EFEFEF;stroke-width:2;stroke-miterlimit:10;}
	.st5{fill:#CCCCCC;}
	.st6{fill:none;stroke:#D1D1D1;stroke-width:0.3;stroke-miterlimit:10;}
	.st7{fill:#E0E0E0;}
	.st8{fill:#919191;}
</style>
<path class="st0" d="M88.5,98.1L88.5,98.1c-1.4,0-2.5-1.1-2.5-2.5V80.5c0-1.4,1.1-2.5,2.5-2.5l0,0c1.4,0,2.5,1.1,2.5,2.5v15.1
	C91,96.9,89.9,98.1,88.5,98.1z"/>
<path class="st0" d="M211.5,98.1L211.5,98.1c-1.4,0-2.5-1.1-2.5-2.5V80.5c0-1.4,1.1-2.5,2.5-2.5l0,0c1.4,0,2.5,1.1,2.5,2.5v15.1
	C214,96.9,212.9,98.1,211.5,98.1z"/>
<path class="st0" d="M88.5,66.1L88.5,66.1c-1.4,0-2.5-1.1-2.5-2.5V58c0-1.4,1.1-2.5,2.5-2.5l0,0c1.4,0,2.5,1.1,2.5,2.5v5.6
	C91,65,89.9,66.1,88.5,66.1z"/>
<path class="st0" d="M88.5,122L88.5,122c-1.4,0-2.5-1.1-2.5-2.5v-15.1c0-1.4,1.1-2.5,2.5-2.5l0,0c1.4,0,2.5,1.1,2.5,2.5v15.1
	C91,120.9,89.9,122,88.5,122z"/>
<path class="st1" d="M198,272.1h-96c-7.8,0-14.1-6.3-14.1-14.1V42c0-7.8,6.3-14.1,14.1-14.1h96c7.8,0,14.1,6.3,14.1,14.1v216.1
	C212.1,265.8,205.8,272.1,198,272.1z"/>
<rect x="94.1" y="49" class="st2" width="111.8" height="195"/>
<path class="st3" d="M166.6,40h-23c-1.1,0-2-0.9-2-2l0,0c0-1.1,0.9-2,2-2h23c1.1,0,2,0.9,2,2l0,0C168.6,39.1,167.6,40,166.6,40z"/>
<path class="st3" d="M135.6,40h-2.1c-1.1,0-2-0.9-2-2l0,0c0-1.1,0.9-2,2-2h2.1c1.1,0,2,0.9,2,2l0,0C137.6,39.1,136.6,40,135.6,40z"
	/>
<circle class="st4" cx="150" cy="258" r="8"/>
<g>
	<path class="st5" d="M118.4,87.8c0,0.5-0.5,1-1,1h-16.8c-0.5,0-1-0.5-1-1V74.4c0-0.5,0.5-1,1-1h16.8c0.5,0,1,0.5,1,1
		C118.4,74.4,118.4,87.8,118.4,87.8z"/>
</g>
<line class="st6" x1="123.1" y1="64.4" x2="123.1" y2="98"/>
<rect x="94.1" y="49" class="st7" width="111.8" height="16.1"/>
<rect x="94.1" y="224.9" class="st7" width="111.8" height="19.1"/>
<path class="st5" d="M109.9,59h-8.3c-1.1,0-2-0.9-2-2l0,0c0-1.1,0.9-2,2-2h8.3c1.1,0,2,0.9,2,2l0,0C111.9,58.1,111,59,109.9,59z"/>
<path class="st5" d="M199,83.1h-69.2c-1.1,0-2-0.9-2-2l0,0c0-1.1,0.9-2,2-2H199c1.1,0,2,0.9,2,2l0,0C201,82.2,200.1,83.1,199,83.1z"
	/>
<path class="st8" d="M198.7,236.3h-17.3c-1.1,0-2-0.9-2-2l0,0c0-1.1,0.9-2,2-2h17.3c1.1,0,2,0.9,2,2l0,0
	C200.7,235.4,199.8,236.3,198.7,236.3z"/>
<path class="st8" d="M159.4,236.3h-17.3c-1.1,0-2-0.9-2-2l0,0c0-1.1,0.9-2,2-2h17.3c1.1,0,2,0.9,2,2l0,0
	C161.4,235.4,160.5,236.3,159.4,236.3z"/>
<path class="st8" d="M120,236.3h-17.3c-1.1,0-2-0.9-2-2l0,0c0-1.1,0.9-2,2-2H120c1.1,0,2,0.9,2,2l0,0
	C122,235.4,121.1,236.3,120,236.3z"/>
<rect x="94.1" y="97" class="st7" width="111.8" height="8"/>
<g>
	<path class="st5" d="M118.4,127.8c0,0.6-0.5,1-1,1h-16.8c-0.5,0-1-0.4-1-1v-13.4c0-0.5,0.5-1,1-1h16.8c0.5,0,1,0.5,1,1
		C118.4,114.4,118.4,127.8,118.4,127.8z"/>
</g>
<line class="st6" x1="123.1" y1="104.4" x2="123.1" y2="138"/>
<path class="st5" d="M199,123.1h-69.2c-1.1,0-2-0.9-2-2l0,0c0-1.1,0.9-2,2-2H199c1.1,0,2,0.9,2,2l0,0
	C201,122.2,200.1,123.1,199,123.1z"/>
<rect x="94.1" y="137" class="st7" width="111.8" height="8"/>
<g>
	<path class="st5" d="M118.4,167.8c0,0.6-0.5,1-1,1h-16.8c-0.5,0-1-0.4-1-1v-13.4c0-0.6,0.5-1,1-1h16.8c0.5,0,1,0.4,1,1
		C118.4,154.4,118.4,167.8,118.4,167.8z"/>
</g>
<line class="st6" x1="123.1" y1="144.4" x2="123.1" y2="224.9"/>
<path class="st5" d="M199,163.1h-69.2c-1.1,0-2-0.9-2-2l0,0c0-1.1,0.9-2,2-2H199c1.1,0,2,0.9,2,2l0,0
	C201,162.2,200.1,163.1,199,163.1z"/>
<g>
	<path class="st5" d="M118.4,192.8c0,0.6-0.5,1-1,1h-16.8c-0.5,0-1-0.4-1-1v-13.4c0-0.6,0.5-1,1-1h16.8c0.5,0,1,0.4,1,1
		C118.4,179.4,118.4,192.8,118.4,192.8z"/>
</g>
<path class="st5" d="M199,188.1h-69.2c-1.1,0-2-0.9-2-2l0,0c0-1.1,0.9-2,2-2H199c1.1,0,2,0.9,2,2l0,0
	C201,187.2,200.1,188.1,199,188.1z"/>
<g>
	<path class="st5" d="M118.4,217.8c0,0.6-0.5,1-1,1h-16.8c-0.5,0-1-0.4-1-1v-13.4c0-0.6,0.5-1,1-1h16.8c0.5,0,1,0.4,1,1
		C118.4,204.4,118.4,217.8,118.4,217.8z"/>
</g>
<path class="st5" d="M199,213.1h-69.2c-1.1,0-2-0.9-2-2l0,0c0-1.1,0.9-2,2-2H199c1.1,0,2,0.9,2,2l0,0
	C201,212.2,200.1,213.1,199,213.1z"/>
</svg>
