<?xml version="1.0" encoding="utf-8"?>
<!-- Generator: Adobe Illustrator 24.2.0, SVG Export Plug-In . SVG Version: 6.00 Build 0)  -->
<svg version="1.1" xmlns="http://www.w3.org/2000/svg" xmlns:xlink="http://www.w3.org/1999/xlink" x="0px" y="0px"
	 viewBox="0 0 300 300" style="enable-background:new 0 0 300 300;" xml:space="preserve">
<style type="text/css">
	.st0{fill:#E5E5E5;}
	.st1{fill:#D0D2D3;}
	.st2{fill:#FFFFFF;}
	.st3{fill:#EDEDED;}
	.st4{fill:#D0D2D3;stroke:#EFEFEF;stroke-width:2;stroke-miterlimit:10;}
	.st5{fill:#EFEFEF;}
	.st6{fill:#BDBDBD;}
	.st7{fill:none;stroke:#565656;stroke-width:1.5;stroke-miterlimit:10;}
	.st8{fill:#565656;}
	.st9{fill:#C6C6C6;}
	.st10{fill:#E7E7E7;}
	.st11{fill:#E0E0E0;}
	.st12{fill:none;stroke:#D1D1D1;stroke-width:0.3;stroke-miterlimit:10;}
	.st13{fill:#F0F0F0;}
	.st14{fill:#CCCCCC;}
	.st15{fill:#919191;}
	.st16{fill:#AFAFAF;}
	.st17{fill-rule:evenodd;clip-rule:evenodd;fill:#919191;}
</style>
<g id="Layer_1">
	<path class="st0" d="M88.5,98.1L88.5,98.1c-1.4,0-2.5-1.1-2.5-2.5V80.5c0-1.4,1.1-2.5,2.5-2.5l0,0c1.4,0,2.5,1.1,2.5,2.5v15.1
		C91,96.9,89.9,98.1,88.5,98.1z"/>
	<path class="st0" d="M211.5,98.1L211.5,98.1c-1.4,0-2.5-1.1-2.5-2.5V80.5c0-1.4,1.1-2.5,2.5-2.5l0,0c1.4,0,2.5,1.1,2.5,2.5v15.1
		C214,96.9,212.9,98.1,211.5,98.1z"/>
	<path class="st0" d="M88.5,66.1L88.5,66.1c-1.4,0-2.5-1.1-2.5-2.5V58c0-1.4,1.1-2.5,2.5-2.5l0,0c1.4,0,2.5,1.1,2.5,2.5v5.6
		C91,65,89.9,66.1,88.5,66.1z"/>
	<path class="st0" d="M88.5,122L88.5,122c-1.4,0-2.5-1.1-2.5-2.5v-15.1c0-1.4,1.1-2.5,2.5-2.5l0,0c1.4,0,2.5,1.1,2.5,2.5v15.1
		C91,120.9,89.9,122,88.5,122z"/>
	<path class="st1" d="M198,272.1h-96c-7.8,0-14.1-6.3-14.1-14.1V42c0-7.8,6.3-14.1,14.1-14.1h96c7.8,0,14.1,6.3,14.1,14.1v216.1
		C212.1,265.8,205.8,272.1,198,272.1z"/>
	<rect x="94.1" y="49" class="st2" width="111.8" height="195"/>
	<path class="st3" d="M166.6,40h-23c-1.1,0-2-0.9-2-2l0,0c0-1.1,0.9-2,2-2h23c1.1,0,2,0.9,2,2l0,0C168.6,39.1,167.6,40,166.6,40z"/>
	<path class="st3" d="M135.6,40h-2.1c-1.1,0-2-0.9-2-2l0,0c0-1.1,0.9-2,2-2h2.1c1.1,0,2,0.9,2,2l0,0C137.6,39.1,136.6,40,135.6,40z"
		/>
	<circle class="st4" cx="150" cy="258" r="8"/>
	<rect x="94.1" y="49" class="st11" width="111.8" height="14.1"/>
	<circle class="st14" cx="129.8" cy="213.2" r="11"/>
	<circle class="st13" cx="172.2" cy="213.2" r="11"/>
	<path class="st14" d="M170.1,81.8h-60.2c-0.9,0-1.7-0.8-1.7-1.7v-0.2c0-0.9,0.8-1.7,1.7-1.7h60.2c0.9,0,1.7,0.8,1.7,1.7v0.2
		C171.8,81,171,81.8,170.1,81.8z"/>
	<path class="st13" d="M156.3,90.6h-46.4c-0.9,0-1.7-0.8-1.7-1.7v-0.2c0-0.9,0.8-1.7,1.7-1.7h46.4c0.9,0,1.7,0.8,1.7,1.7V89
		C158,89.9,157.2,90.6,156.3,90.6z"/>
	<path class="st17" d="M165.4,169.6c-2,0.1-3.9-0.4-5.8-0.8c-12.9-3.8-22.6-11.8-30.4-22.4c-2.9-4-5.6-8.1-6.5-13.1
		c-1.1-5.9,0.7-11,5-15c1.5-1.4,5.8-1.9,7.5-1.1c0.6,0.3,1,0.9,1.2,1.4c1.6,3.9,3.3,7.7,4.9,11.5c0.3,0.8,0.2,1.5-0.2,2.3
		c-0.9,1.8-2.1,3.1-3.5,4.6c-1,1-1,2-0.3,3.1c4.5,7.7,10.8,13.1,19.1,16.5c1.2,0.4,2.1,0.3,2.9-0.6c1.4-1.8,2.9-3.5,4.2-5.2
		c0.9-1.2,1.9-1.4,3.2-0.8c2.7,1.2,5.4,2.5,8.1,3.8c0.7,0.3,1.2,0.6,1.9,0.9c2.7,1.4,2.7,1.4,2.5,4.4c-0.5,5.9-4.9,8.9-10.1,10.3
		C167.8,169.7,166.6,169.7,165.4,169.6z"/>
</g>
<g id="Layer_2">
</g>
</svg>
