<?xml version="1.0" encoding="utf-8"?>
<!-- Generator: Adobe Illustrator 24.2.0, SVG Export Plug-In . SVG Version: 6.00 Build 0)  -->
<svg version="1.1" xmlns="http://www.w3.org/2000/svg" xmlns:xlink="http://www.w3.org/1999/xlink" x="0px" y="0px"
	 viewBox="0 0 300 300" style="enable-background:new 0 0 300 300;" xml:space="preserve">
<style type="text/css">
	.st0{fill:#E5E5E5;}
	.st1{fill:#D0D2D3;}
	.st2{fill:#A3A3A3;}
	.st3{fill:#EDEDED;}
	.st4{fill:#D0D2D3;stroke:#EFEFEF;stroke-width:2;stroke-miterlimit:10;}
	.st5{fill:#EFEFEF;}
	.st6{fill:#BDBDBD;}
	.st7{fill:none;stroke:#565656;stroke-width:1.5;stroke-miterlimit:10;}
	.st8{fill:#565656;}
	.st9{fill:#C6C6C6;}
	.st10{fill:#E7E7E7;}
	.st11{fill:#E0E0E0;}
	.st12{fill:none;stroke:#D1D1D1;stroke-width:0.3;stroke-miterlimit:10;}
	.st13{fill:#F0F0F0;}
	.st14{fill:#CCCCCC;}
	.st15{fill:#F2F2F2;}
	.st16{fill:#919191;}
	.st17{fill:#AFAFAF;}
	.st18{fill:#FFFFFF;}
	.st19{fill-rule:evenodd;clip-rule:evenodd;fill:#FDFDFE;}
	.st20{fill-rule:evenodd;clip-rule:evenodd;fill:#FEFFFF;}
</style>
<g id="Layer_1">
	<path class="st0" d="M88.5,98.1L88.5,98.1c-1.4,0-2.5-1.1-2.5-2.5V80.5c0-1.4,1.1-2.5,2.5-2.5l0,0c1.4,0,2.5,1.1,2.5,2.5v15.1
		C91,96.9,89.9,98.1,88.5,98.1z"/>
	<path class="st0" d="M211.5,98.1L211.5,98.1c-1.4,0-2.5-1.1-2.5-2.5V80.5c0-1.4,1.1-2.5,2.5-2.5l0,0c1.4,0,2.5,1.1,2.5,2.5v15.1
		C214,96.9,212.9,98.1,211.5,98.1z"/>
	<path class="st0" d="M88.5,66.1L88.5,66.1c-1.4,0-2.5-1.1-2.5-2.5V58c0-1.4,1.1-2.5,2.5-2.5l0,0c1.4,0,2.5,1.1,2.5,2.5v5.6
		C91,65,89.9,66.1,88.5,66.1z"/>
	<path class="st0" d="M88.5,122L88.5,122c-1.4,0-2.5-1.1-2.5-2.5v-15.1c0-1.4,1.1-2.5,2.5-2.5l0,0c1.4,0,2.5,1.1,2.5,2.5v15.1
		C91,120.9,89.9,122,88.5,122z"/>
	<path class="st1" d="M198,272.1h-96c-7.8,0-14.1-6.3-14.1-14.1V42c0-7.8,6.3-14.1,14.1-14.1h96c7.8,0,14.1,6.3,14.1,14.1v216.1
		C212.1,265.8,205.8,272.1,198,272.1z"/>
	<rect x="94.1" y="49" class="st2" width="111.8" height="195"/>
	<path class="st3" d="M166.6,40h-23c-1.1,0-2-0.9-2-2l0,0c0-1.1,0.9-2,2-2h23c1.1,0,2,0.9,2,2l0,0C168.6,39.1,167.6,40,166.6,40z"/>
	<path class="st3" d="M135.6,40h-2.1c-1.1,0-2-0.9-2-2l0,0c0-1.1,0.9-2,2-2h2.1c1.1,0,2,0.9,2,2l0,0C137.6,39.1,136.6,40,135.6,40z"
		/>
	<circle class="st4" cx="150" cy="258" r="8"/>
	<path class="st15" d="M198.7,100.2h-63.5c-1.1,0-2-0.9-2-2v0c0-1.1,0.9-2,2-2h63.5c1.1,0,2,0.9,2,2v0
		C200.7,99.3,199.8,100.2,198.7,100.2z"/>
	<g>
		<path class="st15" d="M125.3,108.8c0,0.6-0.4,1-1,1h-23.6c-0.5,0-1-0.4-1-1V87.7c0-0.5,0.5-1,1-1h23.6c0.6,0,1,0.5,1,1V108.8z"/>
	</g>
	<path class="st15" d="M198.7,134.2h-63.5c-1.1,0-2-0.9-2-2l0,0c0-1.1,0.9-2,2-2h63.5c1.1,0,2,0.9,2,2l0,0
		C200.7,133.3,199.8,134.2,198.7,134.2z"/>
	<g>
		<path class="st15" d="M125.3,142.8c0,0.5-0.4,1-1,1h-23.6c-0.5,0-1-0.5-1-1v-21.1c0-0.5,0.5-1,1-1h23.6c0.6,0,1,0.5,1,1V142.8z"/>
	</g>
	<path class="st15" d="M198.7,168.5h-63.5c-1.1,0-2-0.9-2-2l0,0c0-1.1,0.9-2,2-2h63.5c1.1,0,2,0.9,2,2l0,0
		C200.7,167.6,199.8,168.5,198.7,168.5z"/>
	<g>
		<path class="st15" d="M125.3,177c0,0.6-0.4,1-1,1h-23.6c-0.5,0-1-0.4-1-1V156c0-0.5,0.5-1,1-1h23.6c0.6,0,1,0.5,1,1V177z"/>
	</g>
	<g>
		<g>
			<path class="st18" d="M99.6,73.6h3.4v-12h-2.6v-0.7c1.2-0.2,2.1-0.5,2.8-0.9h0.8v13.7h3.2v0.9h-7.6V73.6z"/>
			<path class="st18" d="M110.5,73.6h3.4v-12h-2.6v-0.7c1.2-0.2,2.1-0.5,2.8-0.9h0.8v13.7h3.2v0.9h-7.6V73.6z"/>
			<path class="st18" d="M121,65c0-0.7,0.5-1.1,1-1.1s1,0.4,1,1.1c0,0.6-0.5,1-1,1S121,65.7,121,65z M121,73.7c0-0.7,0.5-1.1,1-1.1
				s1,0.4,1,1.1c0,0.6-0.5,1-1,1S121,74.3,121,73.7z"/>
			<path class="st18" d="M131.5,63.9c0-0.7,0.1-1.8,0.1-2.5h-0.1c-0.4,0.6-0.8,1.2-1.2,1.8l-4.3,6h8.6v0.9h-9.8v-0.6l6.8-9.6h0.9
				v14.5h-1V63.9z"/>
			<path class="st18" d="M135.9,72.8l0.6-0.7c0.9,0.9,2,1.8,4,1.8c1.9,0,3.6-1.6,3.6-3.9c0-2.3-1.4-3.7-3.6-3.7
				c-1.1,0-1.8,0.4-2.7,1l-0.7-0.4l0.5-6.8h6.7v0.9h-5.8l-0.5,5.2c0.7-0.4,1.5-0.8,2.6-0.8c2.5,0,4.4,1.4,4.4,4.6
				c0,3.1-2.3,4.8-4.6,4.8C138.1,74.7,136.8,73.7,135.9,72.8z"/>
		</g>
	</g>
	<rect x="94.1" y="191.2" class="st18" width="111.8" height="52.8"/>
	<g>
		<path class="st0" d="M125.6,231.7c0,0.6-0.4,1-1,1h-23.9c-0.5,0-1-0.4-1-1v-21.4c0-0.6,0.5-1,1-1h23.9c0.6,0,1,0.4,1,1V231.7z"/>
	</g>
	<path class="st14" d="M117.4,239.4h-9.6c-0.9,0-1.7-0.8-1.7-1.7v-0.2c0-0.9,0.8-1.7,1.7-1.7h9.6c0.9,0,1.7,0.8,1.7,1.7v0.2
		C119.1,238.6,118.4,239.4,117.4,239.4z"/>
	<path class="st14" d="M149,202.1h-47.2c-0.9,0-1.7-0.8-1.7-1.7v-0.2c0-0.9,0.8-1.7,1.7-1.7H149c0.9,0,1.7,0.8,1.7,1.7v0.2
		C150.7,201.4,149.9,202.1,149,202.1z"/>
	<g>
		<g>
			<path class="st0" d="M163.1,231.7c0,0.6-0.4,1-1,1h-23.9c-0.5,0-1-0.4-1-1v-21.4c0-0.6,0.5-1,1-1h23.9c0.6,0,1,0.4,1,1V231.7z"/>
		</g>
		<path class="st14" d="M154.9,239.4h-9.6c-0.9,0-1.7-0.8-1.7-1.7v-0.2c0-0.9,0.8-1.7,1.7-1.7h9.6c0.9,0,1.7,0.8,1.7,1.7v0.2
			C156.6,238.6,155.8,239.4,154.9,239.4z"/>
	</g>
	<g>
		<g>
			<path class="st0" d="M200.5,231.7c0,0.6-0.4,1-1,1h-23.9c-0.6,0-1-0.4-1-1v-21.4c0-0.6,0.4-1,1-1h23.9c0.6,0,1,0.4,1,1V231.7z"/>
		</g>
		<path class="st14" d="M192.4,239.4h-9.6c-0.9,0-1.7-0.8-1.7-1.7v-0.2c0-0.9,0.8-1.7,1.7-1.7h9.6c0.9,0,1.7,0.8,1.7,1.7v0.2
			C194.1,238.6,193.3,239.4,192.4,239.4z"/>
	</g>
</g>
<g id="Layer_2">
</g>
</svg>
