<?xml version="1.0" encoding="utf-8"?>
<!-- Generator: Adobe Illustrator 24.2.0, SVG Export Plug-In . SVG Version: 6.00 Build 0)  -->
<svg version="1.1" id="Layer_1" xmlns="http://www.w3.org/2000/svg" xmlns:xlink="http://www.w3.org/1999/xlink" x="0px" y="0px"
	 viewBox="0 0 300 300" style="enable-background:new 0 0 300 300;" xml:space="preserve">
<style type="text/css">
	.st0{fill:#E5E5E5;}
	.st1{fill:#D0D2D3;}
	.st2{fill:#E0E0E0;}
	.st3{fill:#EDEDED;}
	.st4{fill:#D0D2D3;stroke:#EFEFEF;stroke-width:2;stroke-miterlimit:10;}
	.st5{fill:#C6C6C6;}
	.st6{fill:#FFFFFF;}
	.st7{fill:#F0F0F0;}
	.st8{fill:#E7E7E7;}
	.st9{fill:#8E8E8E;}
</style>
<path class="st0" d="M88.5,98.1L88.5,98.1c-1.4,0-2.5-1.1-2.5-2.5V80.5c0-1.4,1.1-2.5,2.5-2.5l0,0c1.4,0,2.5,1.1,2.5,2.5v15.1
	C91,96.9,89.9,98.1,88.5,98.1z"/>
<path class="st0" d="M211.5,98.1L211.5,98.1c-1.4,0-2.5-1.1-2.5-2.5V80.5c0-1.4,1.1-2.5,2.5-2.5l0,0c1.4,0,2.5,1.1,2.5,2.5v15.1
	C214,96.9,212.9,98.1,211.5,98.1z"/>
<path class="st0" d="M88.5,66.1L88.5,66.1c-1.4,0-2.5-1.1-2.5-2.5V58c0-1.4,1.1-2.5,2.5-2.5l0,0c1.4,0,2.5,1.1,2.5,2.5v5.6
	C91,65,89.9,66.1,88.5,66.1z"/>
<path class="st0" d="M88.5,122L88.5,122c-1.4,0-2.5-1.1-2.5-2.5v-15.1c0-1.4,1.1-2.5,2.5-2.5l0,0c1.4,0,2.5,1.1,2.5,2.5v15.1
	C91,120.9,89.9,122,88.5,122z"/>
<path class="st1" d="M198,272.1h-96c-7.8,0-14.1-6.3-14.1-14.1V42c0-7.8,6.3-14.1,14.1-14.1h96c7.8,0,14.1,6.3,14.1,14.1v216.1
	C212.1,265.8,205.8,272.1,198,272.1z"/>
<rect x="94.1" y="49" class="st2" width="111.8" height="195"/>
<path class="st3" d="M166.6,40h-23c-1.1,0-2-0.9-2-2l0,0c0-1.1,0.9-2,2-2h23c1.1,0,2,0.9,2,2l0,0C168.6,39.1,167.6,40,166.6,40z"/>
<path class="st3" d="M135.6,40h-2.1c-1.1,0-2-0.9-2-2l0,0c0-1.1,0.9-2,2-2h2.1c1.1,0,2,0.9,2,2l0,0C137.6,39.1,136.6,40,135.6,40z"
	/>
<circle class="st4" cx="150" cy="258" r="8"/>
<g>
	<g>
		<path class="st6" d="M198,162c0,0.6-0.4,1-1,1h-94c-0.6,0-1-0.4-1-1v-49c0-0.6,0.4-1,1-1h94c0.6,0,1,0.4,1,1V162z"/>
	</g>
	<g>
		<path class="st7" d="M130,138.5c0-0.5,0.4-1,1-1h38c0.6,0,1,0.5,1,1V153c0,0.6-0.4,1-1,1h-38c-0.6,0-1-0.4-1-1V138.5z"/>
	</g>
	<g>
		<path class="st8" d="M184.3,127.2l-67.8,0c-1.1,0-2-0.9-2-2v0c0-1.1,0.9-2,2-2l67.8,0c1.1,0,2,0.9,2,2l0,0
			C186.3,126.3,185.4,127.2,184.3,127.2z"/>
		<path class="st9" d="M169,127.2l-52.5,0c-1.1,0-2-0.9-2-2v0c0-1.1,0.9-2,2-2l52.5,0c1.1,0,2,0.9,2,2v0
			C171,126.3,170.1,127.2,169,127.2z"/>
	</g>
</g>
</svg>
