<?xml version="1.0" encoding="utf-8"?>
<!-- Generator: Adobe Illustrator 24.2.0, SVG Export Plug-In . SVG Version: 6.00 Build 0)  -->
<svg version="1.1" id="Layer_1" xmlns="http://www.w3.org/2000/svg" xmlns:xlink="http://www.w3.org/1999/xlink" x="0px" y="0px"
	 viewBox="0 0 300 300" style="enable-background:new 0 0 300 300;" xml:space="preserve">
<style type="text/css">
	.st0{fill:#E5E5E5;}
	.st1{fill:#D0D2D3;}
	.st2{fill:#E0E0E0;}
	.st3{fill:#EDEDED;}
	.st4{fill:#D0D2D3;stroke:#EFEFEF;stroke-width:2;stroke-miterlimit:10;}
	.st5{fill:#8E8E8E;}
	.st6{fill:#C6C6C6;}
	.st7{fill:#FFFFFF;}
	.st8{fill:#E7E7E7;}
</style>
<path class="st0" d="M88.5,98.1L88.5,98.1c-1.4,0-2.5-1.1-2.5-2.5V80.5c0-1.4,1.1-2.5,2.5-2.5l0,0c1.4,0,2.5,1.1,2.5,2.5v15.1
	C91,96.9,89.9,98.1,88.5,98.1z"/>
<path class="st0" d="M211.5,98.1L211.5,98.1c-1.4,0-2.5-1.1-2.5-2.5V80.5c0-1.4,1.1-2.5,2.5-2.5l0,0c1.4,0,2.5,1.1,2.5,2.5v15.1
	C214,96.9,212.9,98.1,211.5,98.1z"/>
<path class="st0" d="M88.5,66.1L88.5,66.1c-1.4,0-2.5-1.1-2.5-2.5V58c0-1.4,1.1-2.5,2.5-2.5l0,0c1.4,0,2.5,1.1,2.5,2.5v5.6
	C91,65,89.9,66.1,88.5,66.1z"/>
<path class="st0" d="M88.5,122L88.5,122c-1.4,0-2.5-1.1-2.5-2.5v-15.1c0-1.4,1.1-2.5,2.5-2.5l0,0c1.4,0,2.5,1.1,2.5,2.5v15.1
	C91,120.9,89.9,122,88.5,122z"/>
<path class="st1" d="M198,272.1h-96c-7.8,0-14.1-6.3-14.1-14.1V42c0-7.8,6.3-14.1,14.1-14.1h96c7.8,0,14.1,6.3,14.1,14.1v216.1
	C212.1,265.8,205.8,272.1,198,272.1z"/>
<rect x="94.1" y="49" class="st2" width="111.8" height="195"/>
<path class="st3" d="M166.6,40h-23c-1.1,0-2-0.9-2-2l0,0c0-1.1,0.9-2,2-2h23c1.1,0,2,0.9,2,2l0,0C168.6,39.1,167.6,40,166.6,40z"/>
<path class="st3" d="M135.6,40h-2.1c-1.1,0-2-0.9-2-2l0,0c0-1.1,0.9-2,2-2h2.1c1.1,0,2,0.9,2,2l0,0C137.6,39.1,136.6,40,135.6,40z"
	/>
<circle class="st4" cx="150" cy="258" r="8"/>
<g>
	<path class="st7" d="M198,162c0,0.6-0.4,1-1,1h-94c-0.6,0-1-0.4-1-1v-49c0-0.6,0.4-1,1-1h94c0.6,0,1,0.4,1,1V162z"/>
</g>
<g>
	<path class="st8" d="M184.3,127.2l-67.8,0c-1.1,0-2-0.9-2-2v0c0-1.1,0.9-2,2-2l67.8,0c1.1,0,2,0.9,2,2l0,0
		C186.3,126.3,185.4,127.2,184.3,127.2z"/>
	<path class="st5" d="M169,127.2l-52.5,0c-1.1,0-2-0.9-2-2v0c0-1.1,0.9-2,2-2l52.5,0c1.1,0,2,0.9,2,2v0
		C171,126.3,170.1,127.2,169,127.2z"/>
</g>
<g>
	<path class="st5" d="M149.2,141.4l0-4.6c0-0.5,0.4-0.9,0.9-0.9l0,0c0.5,0,0.9,0.4,0.9,0.9l0,4.6c0,0.5-0.4,0.9-0.9,0.9l0,0
		C149.6,142.3,149.2,141.9,149.2,141.4z"/>
	<path class="st6" d="M151.9,141.7l3-3.5c0.3-0.4,0.9-0.4,1.2-0.1l0,0c0.4,0.3,0.4,0.9,0.1,1.2l-3,3.5c-0.3,0.4-0.9,0.4-1.2,0.1l0,0
		C151.6,142.7,151.6,142.1,151.9,141.7z"/>
	<path class="st6" d="M153.7,143.7l4.6-0.7c0.5-0.1,0.9,0.2,1,0.7l0,0c0.1,0.5-0.2,0.9-0.7,1l-4.6,0.7c-0.5,0.1-0.9-0.2-1-0.7l0,0
		C152.9,144.3,153.2,143.8,153.7,143.7z"/>
	<path class="st6" d="M153.8,146.4l3.9,2.4c0.4,0.3,0.5,0.8,0.3,1.2l0,0c-0.3,0.4-0.8,0.5-1.2,0.3l-3.9-2.4
		c-0.4-0.3-0.5-0.8-0.3-1.2l0,0C152.8,146.3,153.4,146.1,153.8,146.4z"/>
	<path class="st6" d="M152.1,148.5l1.5,4.4c0.2,0.5-0.1,1-0.6,1.1v0c-0.5,0.2-1-0.1-1.1-0.6l-1.5-4.4c-0.2-0.5,0.1-1,0.6-1.1l0,0
		C151.5,147.8,152,148,152.1,148.5z"/>
	<path class="st6" d="M149.5,149l-1.7,4.3c-0.2,0.4-0.7,0.7-1.1,0.5l0,0c-0.4-0.2-0.7-0.7-0.5-1.1l1.7-4.3c0.2-0.4,0.7-0.7,1.1-0.5
		l0,0C149.4,148.1,149.7,148.6,149.5,149z"/>
	<path class="st6" d="M147.1,147.7l-4.1,2.1c-0.4,0.2-1,0.1-1.2-0.4l0,0c-0.2-0.4-0.1-1,0.4-1.2l4.1-2.1c0.4-0.2,1-0.1,1.2,0.4l0,0
		C147.7,146.9,147.6,147.5,147.1,147.7z"/>
	<path class="st5" d="M146.2,145.2l-4.5-1c-0.5-0.1-0.8-0.6-0.7-1l0,0c0.1-0.5,0.6-0.8,1-0.7l4.5,1c0.5,0.1,0.8,0.6,0.7,1l0,0
		C147.2,145,146.7,145.3,146.2,145.2z"/>
	<path class="st5" d="M147.1,142.7l-2.8-3.7c-0.3-0.4-0.2-0.9,0.2-1.2l0,0c0.4-0.3,0.9-0.2,1.2,0.2l2.8,3.7c0.3,0.4,0.2,0.9-0.2,1.2
		l0,0C148,143.1,147.4,143.1,147.1,142.7z"/>
</g>
</svg>
