<?xml version="1.0" encoding="utf-8"?>
<!-- Generator: Adobe Illustrator 24.2.0, SVG Export Plug-In . SVG Version: 6.00 Build 0)  -->
<svg version="1.1" id="Layer_1" xmlns="http://www.w3.org/2000/svg" xmlns:xlink="http://www.w3.org/1999/xlink" x="0px" y="0px"
	 viewBox="0 0 300 300" style="enable-background:new 0 0 300 300;" xml:space="preserve">
<style type="text/css">
	.st0{fill:#E5E5E5;}
	.st1{fill:#D0D2D3;}
	.st2{fill:#FFFFFF;}
	.st3{fill:#EDEDED;}
	.st4{fill:#D0D2D3;stroke:#EFEFEF;stroke-width:2;stroke-miterlimit:10;}
	.st5{fill:#8E8E8E;}
	.st6{fill:#C6C6C6;}
	.st7{fill:#E7E7E7;}
	.st8{fill:none;stroke:#C1C1C1;stroke-width:2;stroke-miterlimit:10;}
	.st9{fill:#C1C1C1;}
	.st10{fill:none;stroke:#FFFFFF;stroke-width:2;stroke-linecap:round;stroke-miterlimit:10;}
	.st11{fill:none;stroke:#C1C1C1;stroke-width:2;stroke-linecap:round;stroke-miterlimit:10;}
	.st12{fill:#E0E0E0;}
	.st13{fill:#919191;}
</style>
<path class="st0" d="M88.5,98.1L88.5,98.1c-1.4,0-2.5-1.1-2.5-2.5V80.5c0-1.4,1.1-2.5,2.5-2.5l0,0c1.4,0,2.5,1.1,2.5,2.5v15.1
	C91,96.9,89.9,98.1,88.5,98.1z"/>
<path class="st0" d="M211.5,98.1L211.5,98.1c-1.4,0-2.5-1.1-2.5-2.5V80.5c0-1.4,1.1-2.5,2.5-2.5l0,0c1.4,0,2.5,1.1,2.5,2.5v15.1
	C214,96.9,212.9,98.1,211.5,98.1z"/>
<path class="st0" d="M88.5,66.1L88.5,66.1c-1.4,0-2.5-1.1-2.5-2.5V58c0-1.4,1.1-2.5,2.5-2.5l0,0c1.4,0,2.5,1.1,2.5,2.5v5.6
	C91,65,89.9,66.1,88.5,66.1z"/>
<path class="st0" d="M88.5,122L88.5,122c-1.4,0-2.5-1.1-2.5-2.5v-15.1c0-1.4,1.1-2.5,2.5-2.5l0,0c1.4,0,2.5,1.1,2.5,2.5v15.1
	C91,120.9,89.9,122,88.5,122z"/>
<path class="st1" d="M198,272.1h-96c-7.8,0-14.1-6.3-14.1-14.1V42c0-7.8,6.3-14.1,14.1-14.1h96c7.8,0,14.1,6.3,14.1,14.1v216.1
	C212.1,265.8,205.8,272.1,198,272.1z"/>
<rect x="94.1" y="49" class="st2" width="111.8" height="195"/>
<path class="st3" d="M166.6,40h-23c-1.1,0-2-0.9-2-2l0,0c0-1.1,0.9-2,2-2h23c1.1,0,2,0.9,2,2l0,0C168.6,39.1,167.6,40,166.6,40z"/>
<path class="st3" d="M135.6,40h-2.1c-1.1,0-2-0.9-2-2l0,0c0-1.1,0.9-2,2-2h2.1c1.1,0,2,0.9,2,2l0,0C137.6,39.1,136.6,40,135.6,40z"
	/>
<circle class="st4" cx="150" cy="258" r="8"/>
<rect x="94.1" y="49" class="st12" width="111.8" height="16"/>
<g>
	<path class="st6" d="M104,79c0-0.5,0.4-1,1-1H146c0.6,0,1,0.5,1,1v4c0,0.6-0.4,1-1,1H105c-0.6,0-1-0.4-1-1V79z"/>
</g>
<g>
	<path class="st12" d="M104,89c0-0.6,0.4-1,1-1h90c0.6,0,1,0.4,1,1v12c0,0.5-0.4,1-1,1h-90c-0.6,0-1-0.5-1-1V89z"/>
</g>
<g>
	<path class="st6" d="M104,117c0-0.5,0.4-1,1-1H146c0.6,0,1,0.5,1,1v4c0,0.6-0.4,1-1,1H105c-0.6,0-1-0.4-1-1V117z"/>
</g>
<g>
	<path class="st12" d="M104,127c0-0.6,0.4-1,1-1h90c0.6,0,1,0.4,1,1v12c0,0.6-0.4,1-1,1h-90c-0.6,0-1-0.4-1-1V127z"/>
</g>
<g>
	<path class="st6" d="M104,155c0-0.6,0.4-1,1-1H146c0.6,0,1,0.4,1,1v4c0,0.6-0.4,1-1,1H105c-0.6,0-1-0.4-1-1V155z"/>
</g>
<g>
	<path class="st12" d="M104,165c0-0.6,0.4-1,1-1h90c0.6,0,1,0.4,1,1v12c0,0.6-0.4,1-1,1h-90c-0.6,0-1-0.4-1-1V165z"/>
</g>
<g>
	<path class="st6" d="M150,197c0-0.6,0.4-1,1-1h44c0.6,0,1,0.4,1,1v17c0,0.6-0.4,1-1,1h-44c-0.6,0-1-0.4-1-1V197z"/>
</g>
<path class="st6" d="M110,59h-8c-1.1,0-2-0.9-2-2v0c0-1.1,0.9-2,2-2h8c1.1,0,2,0.9,2,2v0C112,58.1,111.1,59,110,59z"/>
<path class="st13" d="M164.5,59h-29c-1.1,0-2-0.9-2-2v0c0-1.1,0.9-2,2-2h29c1.1,0,2,0.9,2,2v0C166.5,58.1,165.6,59,164.5,59z"/>
</svg>
