<?xml version="1.0" encoding="utf-8"?>
<!-- Generator: Adobe Illustrator 24.2.0, SVG Export Plug-In . SVG Version: 6.00 Build 0)  -->
<svg version="1.1" id="Layer_1" xmlns="http://www.w3.org/2000/svg" xmlns:xlink="http://www.w3.org/1999/xlink" x="0px" y="0px"
	 viewBox="0 0 300 300" style="enable-background:new 0 0 300 300;" xml:space="preserve">
<style type="text/css">
	.st0{fill:#E5E5E5;}
	.st1{fill:#D0D2D3;}
	.st2{fill:#FFFFFF;}
	.st3{fill:#EDEDED;}
	.st4{fill:#D0D2D3;stroke:#EFEFEF;stroke-width:2;stroke-miterlimit:10;}
	.st5{fill:#8E8E8E;}
	.st6{fill:#C6C6C6;}
	.st7{fill:none;stroke:#C1C1C1;stroke-width:2;stroke-miterlimit:10;}
	.st8{fill:#C1C1C1;}
	.st9{fill:none;stroke:#FFFFFF;stroke-width:2;stroke-linecap:round;stroke-miterlimit:10;}
	.st10{fill:none;stroke:#C1C1C1;stroke-width:2;stroke-linecap:round;stroke-miterlimit:10;}
	.st11{fill:#E0E0E0;}
	.st12{fill:#F0F0F0;}
	.st13{fill:#CBCBCB;}
	.st14{fill:#666666;}
	.st15{fill:#919191;}
	.st16{fill:#CCCCCC;}
	.st17{fill:#979797;}
	.st18{fill:#C9C9C9;}
</style>
<path class="st0" d="M88.5,98.1L88.5,98.1c-1.4,0-2.5-1.1-2.5-2.5V80.5c0-1.4,1.1-2.5,2.5-2.5l0,0c1.4,0,2.5,1.1,2.5,2.5v15.1
	C91,96.9,89.9,98.1,88.5,98.1z"/>
<path class="st0" d="M211.5,98.1L211.5,98.1c-1.4,0-2.5-1.1-2.5-2.5V80.5c0-1.4,1.1-2.5,2.5-2.5l0,0c1.4,0,2.5,1.1,2.5,2.5v15.1
	C214,96.9,212.9,98.1,211.5,98.1z"/>
<path class="st0" d="M88.5,66.1L88.5,66.1c-1.4,0-2.5-1.1-2.5-2.5V58c0-1.4,1.1-2.5,2.5-2.5l0,0c1.4,0,2.5,1.1,2.5,2.5v5.6
	C91,65,89.9,66.1,88.5,66.1z"/>
<path class="st0" d="M88.5,122L88.5,122c-1.4,0-2.5-1.1-2.5-2.5v-15.1c0-1.4,1.1-2.5,2.5-2.5l0,0c1.4,0,2.5,1.1,2.5,2.5v15.1
	C91,120.9,89.9,122,88.5,122z"/>
<path class="st1" d="M198,272.1h-96c-7.8,0-14.1-6.3-14.1-14.1V42c0-7.8,6.3-14.1,14.1-14.1h96c7.8,0,14.1,6.3,14.1,14.1v216.1
	C212.1,265.8,205.8,272.1,198,272.1z"/>
<rect x="94.1" y="49" class="st2" width="111.8" height="195"/>
<path class="st3" d="M166.6,40h-23c-1.1,0-2-0.9-2-2l0,0c0-1.1,0.9-2,2-2h23c1.1,0,2,0.9,2,2l0,0C168.6,39.1,167.6,40,166.6,40z"/>
<path class="st3" d="M135.6,40h-2.1c-1.1,0-2-0.9-2-2l0,0c0-1.1,0.9-2,2-2h2.1c1.1,0,2,0.9,2,2l0,0C137.6,39.1,136.6,40,135.6,40z"
	/>
<circle class="st4" cx="150" cy="258" r="8"/>
<rect x="94.1" y="49" class="st11" width="111.8" height="16"/>
<rect x="94.1" y="161" class="st12" width="111.8" height="83"/>
<g>
	<path class="st13" d="M108,217c0-0.6,0.4-1,1-1h37c0.6,0,1,0.4,1,1v16c0,0.6-0.4,1-1,1h-37c-0.6,0-1-0.4-1-1V217z"/>
</g>
<g>
	<path class="st14" d="M154,217c0-0.6,0.4-1,1-1h37c0.6,0,1,0.4,1,1v16c0,0.6-0.4,1-1,1h-37c-0.6,0-1-0.4-1-1V217z"/>
</g>
<path class="st15" d="M113.8,59h-8.7c-1.1,0-2-0.9-2-2v0c0-1.1,0.9-2,2-2h8.7c1.1,0,2,0.9,2,2v0C115.8,58.1,114.9,59,113.8,59z"/>
<g>
	<g>
		<path class="st15" d="M149.7,121.7L149.7,121.7c-6.1,0-11-4.9-11-11V97.8c0-6.1,4.9-11,11-11h0c6.1,0,11,4.9,11,11v12.9
			C160.7,116.8,155.8,121.7,149.7,121.7z"/>
	</g>
	<g>
		<path class="st15" d="M149.7,128.4c-8.9,0-16.2-7.3-16.2-16.2c0-0.4,0.3-0.8,0.8-0.8c0.4,0,0.8,0.3,0.8,0.8
			c0,8.1,6.6,14.7,14.7,14.7c8.6,0,14.7-6,14.7-14.7c0-0.4,0.3-0.8,0.8-0.8c0.4,0,0.8,0.3,0.8,0.8
			C165.9,121.7,159.3,128.4,149.7,128.4z"/>
	</g>
	<g>
		<rect x="149" y="127.6" class="st15" width="1.5" height="7.9"/>
	</g>
	<g>
		<path class="st15" d="M159.3,136h-19.2c-0.4,0-0.8-0.3-0.8-0.8c0-0.4,0.3-0.8,0.8-0.8h19.2c0.4,0,0.8,0.3,0.8,0.8
			C160.1,135.7,159.7,136,159.3,136z"/>
	</g>
</g>
<g>
	<g>
		<g>
			<path class="st15" d="M125,173.7c0,0.6,0,1.5,0,2v2.1c0,0.5-0.4,0.8-0.9,0.5l-1.8-1c-0.5-0.3-1.3-0.7-1.7-1l-1.8-1
				c-0.5-0.3-0.5-0.7,0-1l1.8-1c0.5-0.3,1.3-0.7,1.7-1l1.8-1c0.5-0.3,0.9-0.1,0.9,0.5V173.7z"/>
		</g>
		<g>
			<path class="st15" d="M129.8,173.7c0,0.6,0,1.5,0,2v2.1c0,0.5-0.4,0.8-0.9,0.5l-1.8-1c-0.5-0.3-1.3-0.7-1.7-1l-1.8-1
				c-0.5-0.3-0.5-0.7,0-1l1.8-1c0.5-0.3,1.3-0.7,1.7-1l1.8-1c0.5-0.3,0.9-0.1,0.9,0.5V173.7z"/>
		</g>
	</g>
	<g>
		<g>
			<path class="st15" d="M176.8,175.7c0-0.5,0-1.4,0-2v-2.1c0-0.6,0.4-0.8,0.9-0.5l1.8,1c0.5,0.3,1.3,0.7,1.7,1l1.8,1
				c0.5,0.3,0.5,0.7,0,1l-1.8,1c-0.5,0.3-1.3,0.7-1.7,1l-1.8,1c-0.5,0.3-0.9,0.1-0.9-0.5V175.7z"/>
		</g>
		<g>
			<path class="st15" d="M172,175.7c0-0.5,0-1.4,0-2v-2.1c0-0.6,0.4-0.8,0.9-0.5l1.8,1c0.5,0.3,1.3,0.7,1.7,1l1.8,1
				c0.5,0.3,0.5,0.7,0,1l-1.8,1c-0.5,0.3-1.3,0.7-1.7,1l-1.8,1c-0.5,0.3-0.9,0.1-0.9-0.5V175.7z"/>
		</g>
	</g>
	<g>
		<path class="st15" d="M147.6,175.7c0-0.5,0-1.4,0-2v-2.1c0-0.6,0.4-0.8,0.9-0.5l1.8,1c0.5,0.3,1.3,0.7,1.7,1l1.8,1
			c0.5,0.3,0.5,0.7,0,1l-1.8,1c-0.5,0.3-1.3,0.7-1.7,1l-1.8,1c-0.5,0.3-0.9,0.1-0.9-0.5V175.7z"/>
	</g>
</g>
<g>
	<path class="st18" d="M193.5,196.9h-85.4c-0.2,0-0.4-0.2-0.4-0.4l0,0c0-0.2,0.2-0.4,0.4-0.4h85.4c0.2,0,0.4,0.2,0.4,0.4l0,0
		C194,196.7,193.8,196.9,193.5,196.9z"/>
	<circle class="st15" cx="116.5" cy="196.4" r="3.8"/>
</g>
</svg>
