<?xml version="1.0" encoding="utf-8"?>
<!-- Generator: Adobe Illustrator 24.2.0, SVG Export Plug-In . SVG Version: 6.00 Build 0)  -->
<svg version="1.1" id="Layer_1" xmlns="http://www.w3.org/2000/svg" xmlns:xlink="http://www.w3.org/1999/xlink" x="0px" y="0px"
	 viewBox="0 0 300 300" style="enable-background:new 0 0 300 300;" xml:space="preserve">
<style type="text/css">
	.st0{fill:#D6D6D6;}
	.st1{fill:#FFFFFF;}
	.st2{fill:#F6F6F6;}
	.st3{fill:#999999;}
	.st4{fill:#D5D5D5;}
</style>
<g>
	<path class="st0" d="M276.8,289.62H25.95c-7.77,0-14.07-6.3-14.07-14.07V24.7c0-7.77,6.3-14.07,14.07-14.07H276.8
		c7.77,0,14.07,6.3,14.07,14.07v250.86C290.88,283.33,284.58,289.62,276.8,289.62z"/>
	<g>
		<circle class="st1" cx="39.75" cy="36.25" r="8"/>
		<circle class="st1" cx="70.86" cy="36.25" r="8"/>
		<circle class="st1" cx="101.97" cy="36.25" r="8"/>
	</g>
</g>
<path class="st2" d="M266.21,271.5H37.79c-2.99,0-5.41-2.42-5.41-5.41V67.91c0-2.99,2.42-5.41,5.41-5.41h228.42
	c2.99,0,5.41,2.42,5.41,5.41v198.17C271.62,269.08,269.2,271.5,266.21,271.5z"/>
<path class="st3" d="M264,71.64v43.72c0,0.91-0.73,1.64-1.64,1.64H41.64c-0.91,0-1.64-0.73-1.64-1.64V71.64
	c0-0.91,0.73-1.64,1.64-1.64h220.72C263.27,70,264,70.73,264,71.64z"/>
<path class="st0" d="M200,124.64v137.72c0,0.91-0.73,1.64-1.64,1.64H41.64c-0.91,0-1.64-0.73-1.64-1.64V124.64
	c0-0.91,0.73-1.64,1.64-1.64h156.72C199.27,123,200,123.73,200,124.64z"/>
<path class="st3" d="M264,124.64v137.72c0,0.91-0.73,1.64-1.64,1.64h-53.72c-0.91,0-1.64-0.73-1.64-1.64V124.64
	c0-0.91,0.73-1.64,1.64-1.64h53.72C263.27,123,264,123.73,264,124.64z"/>
</svg>
