<?xml version="1.0" encoding="utf-8"?>
<!-- Generator: Adobe Illustrator 24.2.0, SVG Export Plug-In . SVG Version: 6.00 Build 0)  -->
<svg version="1.1" xmlns="http://www.w3.org/2000/svg" xmlns:xlink="http://www.w3.org/1999/xlink" x="0px" y="0px"
	 viewBox="0 0 300 300" style="enable-background:new 0 0 300 300;" xml:space="preserve">
<style type="text/css">
	.st0{fill:#D6D6D6;}
	.st1{fill:#FFFFFF;}
	.st2{fill:#F6F6F6;}
	.st3{fill:#999999;}
	.st4{fill:#D5D5D5;}
</style>
<g id="Layer_1">
	<g>
		<path class="st0" d="M276.8,289.62H25.95c-7.77,0-14.07-6.3-14.07-14.07V24.7c0-7.77,6.3-14.07,14.07-14.07H276.8
			c7.77,0,14.07,6.3,14.07,14.07v250.86C290.88,283.33,284.58,289.62,276.8,289.62z"/>
		<g>
			<circle class="st1" cx="39.75" cy="36.25" r="8"/>
			<circle class="st1" cx="70.86" cy="36.25" r="8"/>
			<circle class="st1" cx="101.97" cy="36.25" r="8"/>
		</g>
	</g>
	<path class="st2" d="M266.21,271.5H37.79c-2.99,0-5.41-2.42-5.41-5.41V67.91c0-2.99,2.42-5.41,5.41-5.41h228.42
		c2.99,0,5.41,2.42,5.41,5.41v198.17C271.62,269.08,269.2,271.5,266.21,271.5z"/>
	<path class="st3" d="M92.75,125.36l0-54.72c0-0.91-0.73-1.64-1.64-1.64l-49.47,0C40.73,69,40,69.73,40,70.64l0,54.72
		c0,0.91,0.73,1.64,1.64,1.64l49.47,0C92.01,127,92.75,126.27,92.75,125.36z"/>
	<path class="st3" d="M149.71,96.36V70.64c0-0.91-0.73-1.64-1.64-1.64l-49.47,0c-0.91,0-1.64,0.73-1.64,1.64l0,25.72
		c0,0.91,0.73,1.64,1.64,1.64l49.47,0C148.98,98,149.71,97.27,149.71,96.36z"/>
	<path class="st3" d="M206.68,162.36l0-91.72c0-0.91-0.73-1.64-1.64-1.64l-49.47,0c-0.91,0-1.64,0.73-1.64,1.64v91.72
		c0,0.91,0.73,1.64,1.64,1.64l49.47,0C205.94,164,206.68,163.27,206.68,162.36z"/>
	<path class="st3" d="M92.75,220.36l0-86.84c0-0.91-0.73-1.64-1.64-1.64l-49.47,0c-0.91,0-1.64,0.73-1.64,1.64l0,86.84
		c0,0.91,0.73,1.64,1.64,1.64l49.47,0C92.01,222,92.75,221.27,92.75,220.36z"/>
	<path class="st3" d="M149.71,151.36v-46.72c0-0.91-0.73-1.64-1.64-1.64l-49.47,0c-0.91,0-1.64,0.73-1.64,1.64l0,46.72
		c0,0.91,0.73,1.64,1.64,1.64l49.47,0C148.98,153,149.71,152.27,149.71,151.36z"/>
	<path class="st3" d="M149.71,218.36l0-58.72c0-0.91-0.73-1.64-1.64-1.64l-49.47,0c-0.91,0-1.64,0.73-1.64,1.64l0,58.72
		c0,0.91,0.73,1.64,1.64,1.64l49.47,0C148.98,220,149.71,219.27,149.71,218.36z"/>
	<path class="st3" d="M206.68,234.36v-63.95c0-0.91-0.73-1.64-1.64-1.64l-49.47,0c-0.91,0-1.64,0.73-1.64,1.64v63.95
		c0,0.91,0.73,1.64,1.64,1.64l49.47,0C205.94,236,206.68,235.27,206.68,234.36z"/>
	<path class="st3" d="M92.75,262.36l0-32.72c0-0.91-0.73-1.64-1.64-1.64H41.64c-0.91,0-1.64,0.73-1.64,1.64l0,32.72
		c0,0.91,0.73,1.64,1.64,1.64l49.47,0C92.01,264,92.75,263.27,92.75,262.36z"/>
	<path class="st3" d="M149.71,262.36l0-35.72c0-0.91-0.73-1.64-1.64-1.64l-49.47,0c-0.91,0-1.64,0.73-1.64,1.64l0,35.72
		c0,0.91,0.73,1.64,1.64,1.64l49.47,0C148.98,264,149.71,263.27,149.71,262.36z"/>
	<path class="st3" d="M206.68,262.36l0-19.72c0-0.91-0.73-1.64-1.64-1.64l-49.47,0c-0.91,0-1.64,0.73-1.64,1.64v19.72
		c0,0.91,0.73,1.64,1.64,1.64h49.47C205.94,264,206.68,263.27,206.68,262.36z"/>
	<path class="st3" d="M263.68,132.36V70.64c0-0.91-0.73-1.64-1.64-1.64l-49.47,0c-0.91,0-1.64,0.73-1.64,1.64v61.72
		c0,0.91,0.73,1.64,1.64,1.64l49.47,0C262.94,134,263.68,133.27,263.68,132.36z"/>
	<path class="st3" d="M263.68,162.59v-22.95c0-0.91-0.73-1.64-1.64-1.64h-49.47c-0.91,0-1.64,0.73-1.64,1.64v22.95
		c0,0.91,0.73,1.64,1.64,1.64l49.47,0C262.94,164.23,263.68,163.5,263.68,162.59z"/>
	<path class="st3" d="M263.68,226.36v-55.95c0-0.91-0.73-1.64-1.64-1.64l-49.47,0c-0.91,0-1.64,0.73-1.64,1.64l0,55.95
		c0,0.91,0.73,1.64,1.64,1.64l49.47,0C262.94,228,263.68,227.27,263.68,226.36z"/>
	<path class="st3" d="M263.68,262.36v-27.72c0-0.91-0.73-1.64-1.64-1.64l-49.47,0c-0.91,0-1.64,0.73-1.64,1.64l0,27.72
		c0,0.91,0.73,1.64,1.64,1.64h49.47C262.94,264,263.68,263.27,263.68,262.36z"/>
</g>
<g id="Layer_2">
</g>
</svg>
