<?xml version="1.0" encoding="utf-8"?>
<!-- Generator: Adobe Illustrator 24.2.0, SVG Export Plug-In . SVG Version: 6.00 Build 0)  -->
<svg version="1.1" id="Layer_1" xmlns="http://www.w3.org/2000/svg" xmlns:xlink="http://www.w3.org/1999/xlink" x="0px" y="0px"
	 viewBox="0 0 300 300" style="enable-background:new 0 0 300 300;" xml:space="preserve">
<style type="text/css">
	.st0{fill:#D6D6D6;}
	.st1{fill:#FFFFFF;}
	.st2{fill:#F6F6F6;}
	.st3{fill:#999999;}
	.st4{fill:#D5D5D5;}
</style>
<g>
	<path class="st0" d="M276.8,289.62H25.95c-7.77,0-14.07-6.3-14.07-14.07V24.7c0-7.77,6.3-14.07,14.07-14.07H276.8
		c7.77,0,14.07,6.3,14.07,14.07v250.86C290.88,283.33,284.58,289.62,276.8,289.62z"/>
	<g>
		<circle class="st1" cx="39.75" cy="36.25" r="8"/>
		<circle class="st1" cx="70.86" cy="36.25" r="8"/>
		<circle class="st1" cx="101.97" cy="36.25" r="8"/>
	</g>
</g>
<path class="st2" d="M266.21,271.5H37.79c-2.99,0-5.41-2.42-5.41-5.41V67.91c0-2.99,2.42-5.41,5.41-5.41h228.42
	c2.99,0,5.41,2.42,5.41,5.41v198.17C271.62,269.08,269.2,271.5,266.21,271.5z"/>
<g>
	<path class="st3" d="M83.68,265.07l-40.56,0.07c-1.72,0-3.12-1.4-3.12-3.13V121.99c0-1.73,1.4-3.13,3.12-3.14l40.56-0.07
		c1.72,0,3.12,1.4,3.12,3.13v140.02C86.8,263.66,85.41,265.07,83.68,265.07z"/>
	<path class="st3" d="M260.93,113.65l-217.81,0.35c-1.72,0-3.12-1.4-3.12-3.13V72.13c0-1.73,1.4-3.13,3.12-3.14l217.81-0.35
		c1.72,0,3.12,1.4,3.12,3.13v38.74C264.05,112.24,262.66,113.64,260.93,113.65z"/>
	<path class="st3" d="M260.93,264.79l-40.56,0.07c-1.72,0-3.12-1.4-3.12-3.13V121.71c0-1.73,1.4-3.13,3.12-3.14l40.56-0.07
		c1.72,0,3.12,1.4,3.12,3.13v140.02C264.05,263.38,262.66,264.78,260.93,264.79z"/>
	<path class="st0" d="M208.13,265.3l-112.21-0.23c-1.74,0-3.15-1.06-3.15-2.36V121.11c0-1.3,1.41-2.35,3.15-2.34L208.13,119
		c1.74,0,3.15,1.06,3.15,2.36v141.59C211.28,264.25,209.87,265.3,208.13,265.3z"/>
</g>
</svg>
