<?xml version="1.0" encoding="utf-8"?>
<!-- Generator: Adobe Illustrator 24.2.0, SVG Export Plug-In . SVG Version: 6.00 Build 0)  -->
<svg version="1.1" xmlns="http://www.w3.org/2000/svg" xmlns:xlink="http://www.w3.org/1999/xlink" x="0px" y="0px"
	 viewBox="0 0 300 300" style="enable-background:new 0 0 300 300;" xml:space="preserve">
<style type="text/css">
	.st0{fill:#D6D6D6;}
	.st1{fill:#FFFFFF;}
	.st2{fill:#F6F6F6;}
	.st3{fill:#999999;}
	.st4{fill:#D5D5D5;}
</style>
<g id="Layer_1">
	<g>
		<path class="st0" d="M276.8,289.62H25.95c-7.77,0-14.07-6.3-14.07-14.07V24.7c0-7.77,6.3-14.07,14.07-14.07H276.8
			c7.77,0,14.07,6.3,14.07,14.07v250.86C290.88,283.33,284.58,289.62,276.8,289.62z"/>
		<g>
			<circle class="st1" cx="39.75" cy="36.25" r="8"/>
			<circle class="st1" cx="70.86" cy="36.25" r="8"/>
			<circle class="st1" cx="101.97" cy="36.25" r="8"/>
		</g>
	</g>
	<path class="st2" d="M266.21,271.5H37.79c-2.99,0-5.41-2.42-5.41-5.41V67.91c0-2.99,2.42-5.41,5.41-5.41h228.42
		c2.99,0,5.41,2.42,5.41,5.41v198.17C271.62,269.08,269.2,271.5,266.21,271.5z"/>
	<path class="st3" d="M110.89,128.62l0-57.98c0-0.91-0.73-1.64-1.64-1.64l-67.61,0C40.73,69,40,69.73,40,70.64l0,57.98
		c0,0.91,0.73,1.64,1.64,1.64l67.61,0C110.15,130.26,110.89,129.52,110.89,128.62z"/>
	<path class="st3" d="M187.44,128.62V70.64c0-0.91-0.73-1.64-1.64-1.64l-67.61,0c-0.91,0-1.64,0.73-1.64,1.64l0,57.98
		c0,0.91,0.73,1.64,1.64,1.64l67.61,0C186.71,130.26,187.44,129.52,187.44,128.62z"/>
	<path class="st3" d="M264,128.62l0-57.98c0-0.91-0.73-1.64-1.64-1.64l-67.61,0c-0.91,0-1.64,0.73-1.64,1.64l0,57.98
		c0,0.91,0.73,1.64,1.64,1.64l67.61,0C263.27,130.26,264,129.52,264,128.62z"/>
	<path class="st3" d="M110.89,194.98l0-57.98c0-0.91-0.73-1.64-1.64-1.64l-67.61,0c-0.91,0-1.64,0.73-1.64,1.64l0,57.98
		c0,0.91,0.73,1.64,1.64,1.64l67.61,0C110.15,196.62,110.89,195.88,110.89,194.98z"/>
	<path class="st3" d="M187.44,194.98l0-57.98c0-0.91-0.73-1.64-1.64-1.64l-67.61,0c-0.91,0-1.64,0.73-1.64,1.64l0,57.98
		c0,0.91,0.73,1.64,1.64,1.64l67.61,0C186.71,196.62,187.44,195.88,187.44,194.98z"/>
	<path class="st3" d="M264,194.98l0-57.98c0-0.91-0.73-1.64-1.64-1.64l-67.61,0c-0.91,0-1.64,0.73-1.64,1.64l0,57.98
		c0,0.91,0.73,1.64,1.64,1.64l67.61,0C263.27,196.62,264,195.88,264,194.98z"/>
	<path class="st3" d="M110.89,262.36l0-57.98c0-0.91-0.73-1.64-1.64-1.64l-67.61,0c-0.91,0-1.64,0.73-1.64,1.64l0,57.98
		c0,0.91,0.73,1.64,1.64,1.64l67.61,0C110.15,264,110.89,263.27,110.89,262.36z"/>
	<path class="st3" d="M187.44,262.36l0-57.98c0-0.91-0.73-1.64-1.64-1.64l-67.61,0c-0.91,0-1.64,0.73-1.64,1.64l0,57.98
		c0,0.91,0.73,1.64,1.64,1.64l67.61,0C186.71,264,187.44,263.27,187.44,262.36z"/>
	<path class="st3" d="M264,262.36l0-57.98c0-0.91-0.73-1.64-1.64-1.64l-67.61,0c-0.91,0-1.64,0.73-1.64,1.64v57.98
		c0,0.91,0.73,1.64,1.64,1.64h67.61C263.27,264,264,263.27,264,262.36z"/>
</g>
<g id="Layer_2">
</g>
</svg>
