<?xml version="1.0" encoding="utf-8"?>
<!-- Generator: Adobe Illustrator 24.2.0, SVG Export Plug-In . SVG Version: 6.00 Build 0)  -->
<svg version="1.1" xmlns="http://www.w3.org/2000/svg" xmlns:xlink="http://www.w3.org/1999/xlink" x="0px" y="0px"
	 viewBox="0 0 300 300" style="enable-background:new 0 0 300 300;" xml:space="preserve">
<style type="text/css">
	.st0{fill:#D6D6D6;}
	.st1{fill:#FFFFFF;}
	.st2{fill:#F6F6F6;}
	.st3{fill:#999999;}
	.st4{fill:#D5D5D5;}
</style>
<g id="Layer_1">
	<g>
		<path class="st0" d="M276.8,289.62H25.95c-7.77,0-14.07-6.3-14.07-14.07V24.7c0-7.77,6.3-14.07,14.07-14.07H276.8
			c7.77,0,14.07,6.3,14.07,14.07v250.86C290.88,283.33,284.58,289.62,276.8,289.62z"/>
		<g>
			<circle class="st1" cx="39.75" cy="36.25" r="8"/>
			<circle class="st1" cx="70.86" cy="36.25" r="8"/>
			<circle class="st1" cx="101.97" cy="36.25" r="8"/>
		</g>
	</g>
	<path class="st2" d="M266.21,271.5H37.79c-2.99,0-5.41-2.42-5.41-5.41V67.91c0-2.99,2.42-5.41,5.41-5.41h228.42
		c2.99,0,5.41,2.42,5.41,5.41v198.17C271.62,269.08,269.2,271.5,266.21,271.5z"/>
	<path class="st3" d="M92.75,112.71l0-42.07c0-0.91-0.73-1.64-1.64-1.64l-49.47,0C40.73,69,40,69.73,40,70.64l0,42.07
		c0,0.91,0.73,1.64,1.64,1.64l49.47,0C92.01,114.35,92.75,113.61,92.75,112.71z"/>
	<path class="st3" d="M149.71,112.71l0-42.07c0-0.91-0.73-1.64-1.64-1.64l-49.47,0c-0.91,0-1.64,0.73-1.64,1.64l0,42.07
		c0,0.91,0.73,1.64,1.64,1.64l49.47,0C148.98,114.35,149.71,113.61,149.71,112.71z"/>
	<path class="st3" d="M206.68,112.71l0-42.07c0-0.91-0.73-1.64-1.64-1.64l-49.47,0c-0.91,0-1.64,0.73-1.64,1.64l0,42.07
		c0,0.91,0.73,1.64,1.64,1.64l49.47,0C205.94,114.35,206.68,113.61,206.68,112.71z"/>
	<path class="st3" d="M264,112.71V70.64c0-0.91-0.73-1.64-1.64-1.64l-49.47,0c-0.91,0-1.64,0.73-1.64,1.64v42.07
		c0,0.91,0.73,1.64,1.64,1.64l49.47,0C263.27,114.35,264,113.61,264,112.71z"/>
	<path class="st3" d="M92.75,162.59l0-42.07c0-0.91-0.73-1.64-1.64-1.64l-49.47,0c-0.91,0-1.64,0.73-1.64,1.64l0,42.07
		c0,0.91,0.73,1.64,1.64,1.64l49.47,0C92.01,164.23,92.75,163.5,92.75,162.59z"/>
	<path class="st3" d="M149.71,162.59l0-42.07c0-0.91-0.73-1.64-1.64-1.64l-49.47,0c-0.91,0-1.64,0.73-1.64,1.64l0,42.07
		c0,0.91,0.73,1.64,1.64,1.64l49.47,0C148.98,164.23,149.71,163.5,149.71,162.59z"/>
	<path class="st3" d="M206.68,162.59l0-42.07c0-0.91-0.73-1.64-1.64-1.64l-49.47,0c-0.91,0-1.64,0.73-1.64,1.64l0,42.07
		c0,0.91,0.73,1.64,1.64,1.64l49.47,0C205.94,164.23,206.68,163.5,206.68,162.59z"/>
	<path class="st3" d="M264,162.59v-42.07c0-0.91-0.73-1.64-1.64-1.64l-49.47,0c-0.91,0-1.64,0.73-1.64,1.64v42.07
		c0,0.91,0.73,1.64,1.64,1.64l49.47,0C263.27,164.23,264,163.5,264,162.59z"/>
	<path class="st3" d="M92.75,212.48l0-42.07c0-0.91-0.73-1.64-1.64-1.64l-49.47,0c-0.91,0-1.64,0.73-1.64,1.64l0,42.07
		c0,0.91,0.73,1.64,1.64,1.64l49.47,0C92.01,214.12,92.75,213.38,92.75,212.48z"/>
	<path class="st3" d="M149.71,212.48l0-42.07c0-0.91-0.73-1.64-1.64-1.64l-49.47,0c-0.91,0-1.64,0.73-1.64,1.64l0,42.07
		c0,0.91,0.73,1.64,1.64,1.64l49.47,0C148.98,214.12,149.71,213.38,149.71,212.48z"/>
	<path class="st3" d="M206.68,212.48l0-42.07c0-0.91-0.73-1.64-1.64-1.64l-49.47,0c-0.91,0-1.64,0.73-1.64,1.64l0,42.07
		c0,0.91,0.73,1.64,1.64,1.64l49.47,0C205.94,214.12,206.68,213.38,206.68,212.48z"/>
	<path class="st3" d="M264,212.48v-42.07c0-0.91-0.73-1.64-1.64-1.64l-49.47,0c-0.91,0-1.64,0.73-1.64,1.64v42.07
		c0,0.91,0.73,1.64,1.64,1.64l49.47,0C263.27,214.12,264,213.38,264,212.48z"/>
	<path class="st3" d="M92.75,262.36l0-42.07c0-0.91-0.73-1.64-1.64-1.64l-49.47,0c-0.91,0-1.64,0.73-1.64,1.64l0,42.07
		c0,0.91,0.73,1.64,1.64,1.64l49.47,0C92.01,264,92.75,263.27,92.75,262.36z"/>
	<path class="st3" d="M149.71,262.36l0-42.07c0-0.91-0.73-1.64-1.64-1.64l-49.47,0c-0.91,0-1.64,0.73-1.64,1.64l0,42.07
		c0,0.91,0.73,1.64,1.64,1.64l49.47,0C148.98,264,149.71,263.27,149.71,262.36z"/>
	<path class="st3" d="M206.68,262.36l0-42.07c0-0.91-0.73-1.64-1.64-1.64l-49.47,0c-0.91,0-1.64,0.73-1.64,1.64l0,42.07
		c0,0.91,0.73,1.64,1.64,1.64l49.47,0C205.94,264,206.68,263.27,206.68,262.36z"/>
	<path class="st3" d="M264,262.36v-42.07c0-0.91-0.73-1.64-1.64-1.64l-49.47,0c-0.91,0-1.64,0.73-1.64,1.64v42.07
		c0,0.91,0.73,1.64,1.64,1.64l49.47,0C263.27,264,264,263.27,264,262.36z"/>
</g>
<g id="Layer_2">
</g>
</svg>
