<?xml version="1.0" encoding="utf-8"?>
<!-- Generator: Adobe Illustrator 24.2.0, SVG Export Plug-In . SVG Version: 6.00 Build 0)  -->
<svg version="1.1" xmlns="http://www.w3.org/2000/svg" xmlns:xlink="http://www.w3.org/1999/xlink" x="0px" y="0px"
	 viewBox="0 0 300 300" style="enable-background:new 0 0 300 300;" xml:space="preserve">
<style type="text/css">
	.st0{fill:#D6D6D6;}
	.st1{fill:#FFFFFF;}
	.st2{fill:#F6F6F6;}
	.st3{fill:#999999;}
	.st4{fill:#D5D5D5;}
</style>
<g id="Layer_1">
	<g>
		<path class="st0" d="M276.8,289.62H25.95c-7.77,0-14.07-6.3-14.07-14.07V24.7c0-7.77,6.3-14.07,14.07-14.07H276.8
			c7.77,0,14.07,6.3,14.07,14.07v250.86C290.88,283.33,284.58,289.62,276.8,289.62z"/>
		<g>
			<circle class="st1" cx="39.75" cy="36.25" r="8"/>
			<circle class="st1" cx="70.86" cy="36.25" r="8"/>
			<circle class="st1" cx="101.97" cy="36.25" r="8"/>
		</g>
	</g>
	<path class="st2" d="M266.21,271.5H37.79c-2.99,0-5.41-2.42-5.41-5.41V67.91c0-2.99,2.42-5.41,5.41-5.41h228.42
		c2.99,0,5.41,2.42,5.41,5.41v198.17C271.62,269.08,269.2,271.5,266.21,271.5z"/>
	<path class="st3" d="M91.81,262.36l0-191.72c0-0.91-0.73-1.64-1.64-1.64l-48.53,0C40.73,69,40,69.73,40,70.64l0,191.72
		c0,0.91,0.73,1.64,1.64,1.64l48.53,0C91.07,264,91.81,263.27,91.81,262.36z"/>
	<path class="st3" d="M149.46,262.36l0-191.72c0-0.91-0.73-1.64-1.64-1.64l-48.53,0c-0.91,0-1.64,0.73-1.64,1.64l0,191.72
		c0,0.91,0.73,1.64,1.64,1.64l48.53,0C148.72,264,149.46,263.27,149.46,262.36z"/>
	<path class="st3" d="M206.54,262.36V70.64c0-0.91-0.73-1.64-1.64-1.64l-48.53,0c-0.91,0-1.64,0.73-1.64,1.64l0,191.72
		c0,0.91,0.73,1.64,1.64,1.64l48.53,0C205.81,264,206.54,263.27,206.54,262.36z"/>
	<path class="st3" d="M264,262.36V70.64c0-0.91-0.73-1.64-1.64-1.64l-48.53,0c-0.91,0-1.64,0.73-1.64,1.64v191.72
		c0,0.91,0.73,1.64,1.64,1.64l48.53,0C263.27,264,264,263.27,264,262.36z"/>
</g>
<g id="Layer_2">
</g>
</svg>
