<?xml version="1.0" encoding="utf-8"?>
<!-- Generator: Adobe Illustrator 24.2.0, SVG Export Plug-In . SVG Version: 6.00 Build 0)  -->
<svg version="1.1" id="Layer_1" xmlns="http://www.w3.org/2000/svg" xmlns:xlink="http://www.w3.org/1999/xlink" x="0px" y="0px"
	 viewBox="0 0 300 300" style="enable-background:new 0 0 300 300;" xml:space="preserve">
<style type="text/css">
	.st0{fill:#D6D6D6;}
	.st1{fill:#FFFFFF;}
	.st2{fill:#F6F6F6;}
	.st3{fill:#999999;}
	.st4{fill:#D5D5D5;}
</style>
<g>
	<path class="st0" d="M276.8,289.62H25.95c-7.77,0-14.07-6.3-14.07-14.07V24.7c0-7.77,6.3-14.07,14.07-14.07H276.8
		c7.77,0,14.07,6.3,14.07,14.07v250.86C290.88,283.33,284.58,289.62,276.8,289.62z"/>
	<g>
		<circle class="st1" cx="39.75" cy="36.25" r="8"/>
		<circle class="st1" cx="70.86" cy="36.25" r="8"/>
		<circle class="st1" cx="101.97" cy="36.25" r="8"/>
	</g>
</g>
<path class="st2" d="M266.21,271.5H37.79c-2.99,0-5.41-2.42-5.41-5.41V67.91c0-2.99,2.42-5.41,5.41-5.41h228.42
	c2.99,0,5.41,2.42,5.41,5.41v198.17C271.62,269.08,269.2,271.5,266.21,271.5z"/>
<path class="st3" d="M41,115.36V71.64c0-0.91,0.73-1.64,1.64-1.64h219.72c0.91,0,1.64,0.73,1.64,1.64v43.72
	c0,0.91-0.73,1.64-1.64,1.64H42.64C41.73,117,41,116.27,41,115.36z"/>
<path class="st0" d="M148.53,262.36V125.64c0-0.91-0.73-1.64-1.64-1.64l-104.25,0c-0.91,0-1.64,0.73-1.64,1.64l0,136.72
	c0,0.91,0.73,1.64,1.64,1.64l104.25,0C147.8,264,148.53,263.27,148.53,262.36z"/>
<path class="st0" d="M264,262.36V125.64c0-0.91-0.73-1.64-1.64-1.64l-104.72,0c-0.91,0-1.64,0.73-1.64,1.64v136.72
	c0,0.91,0.73,1.64,1.64,1.64l104.72,0C263.27,264,264,263.27,264,262.36z"/>
</svg>
