<?xml version="1.0" encoding="utf-8"?>
<!-- Generator: Adobe Illustrator 24.2.0, SVG Export Plug-In . SVG Version: 6.00 Build 0)  -->
<svg version="1.1" id="Layer_1" xmlns="http://www.w3.org/2000/svg" xmlns:xlink="http://www.w3.org/1999/xlink" x="0px" y="0px"
	 viewBox="0 0 300 300" style="enable-background:new 0 0 300 300;" xml:space="preserve">
<style type="text/css">
	.st0{fill:#D6D6D6;}
	.st1{fill:#FFFFFF;}
	.st2{fill:#F6F6F6;}
	.st3{fill:#999999;}
</style>
<path class="st0" d="M275.43,289.5H24.57c-7.77,0-14.07-6.3-14.07-14.07V24.57c0-7.77,6.3-14.07,14.07-14.07h250.86
	c7.77,0,14.07,6.3,14.07,14.07v250.86C289.5,283.2,283.2,289.5,275.43,289.5z"/>
<circle class="st1" cx="37.3" cy="36.25" r="8"/>
<circle class="st1" cx="68.41" cy="36.25" r="8"/>
<circle class="st1" cx="99.52" cy="36.25" r="8"/>
<path class="st2" d="M261.01,271.92H39.34c-5.34,0-9.67-4.33-9.67-9.67V72.59c0-5.34,4.33-9.67,9.67-9.67h221.67
	c5.34,0,9.67,4.33,9.67,9.67v189.67C270.67,267.6,266.34,271.92,261.01,271.92z"/>
<g>
	<path class="st0" d="M238.1,101.83h-73.85c-2.37,0-4.29-1.92-4.29-4.29v0c0-2.37,1.92-4.29,4.29-4.29h73.85
		c2.37,0,4.29,1.92,4.29,4.29v0C242.39,99.91,240.47,101.83,238.1,101.83z"/>
	<path class="st0" d="M238.1,129.71h-73.85c-2.37,0-4.29-1.92-4.29-4.29v0c0-2.37,1.92-4.29,4.29-4.29h73.85
		c2.37,0,4.29,1.92,4.29,4.29v0C242.39,127.79,240.47,129.71,238.1,129.71z"/>
	<path class="st0" d="M238.1,157.6h-73.85c-2.37,0-4.29-1.92-4.29-4.29v0c0-2.37,1.92-4.29,4.29-4.29h73.85
		c2.37,0,4.29,1.92,4.29,4.29v0C242.39,155.68,240.47,157.6,238.1,157.6z"/>
	<path class="st0" d="M238.1,185.6h-73.85c-2.37,0-4.29-1.92-4.29-4.29v0c0-2.37,1.92-4.29,4.29-4.29h73.85
		c2.37,0,4.29,1.92,4.29,4.29v0C242.39,183.68,240.47,185.6,238.1,185.6z"/>
	<path class="st0" d="M238.1,213.6h-73.85c-2.37,0-4.29-1.92-4.29-4.29v0c0-2.37,1.92-4.29,4.29-4.29h73.85
		c2.37,0,4.29,1.92,4.29,4.29v0C242.39,211.68,240.47,213.6,238.1,213.6z"/>
	<path class="st0" d="M238.1,241.6h-73.85c-2.37,0-4.29-1.92-4.29-4.29v0c0-2.37,1.92-4.29,4.29-4.29h73.85
		c2.37,0,4.29,1.92,4.29,4.29v0C242.39,239.68,240.47,241.6,238.1,241.6z"/>
	<path class="st0" d="M136.1,185.6H62.25c-2.37,0-4.29-1.92-4.29-4.29v0c0-2.37,1.92-4.29,4.29-4.29h73.85
		c2.37,0,4.29,1.92,4.29,4.29v0C140.39,183.68,138.47,185.6,136.1,185.6z"/>
	<path class="st0" d="M136.1,213.6H62.25c-2.37,0-4.29-1.92-4.29-4.29v0c0-2.37,1.92-4.29,4.29-4.29h73.85
		c2.37,0,4.29,1.92,4.29,4.29v0C140.39,211.68,138.47,213.6,136.1,213.6z"/>
	<path class="st0" d="M136.1,241.6H62.25c-2.37,0-4.29-1.92-4.29-4.29v0c0-2.37,1.92-4.29,4.29-4.29h73.85
		c2.37,0,4.29,1.92,4.29,4.29v0C140.39,239.68,138.47,241.6,136.1,241.6z"/>
	<path class="st3" d="M137.54,157.6H62.46c-2.45,0-4.44-1.99-4.44-4.44V97.69c0-2.45,1.99-4.44,4.44-4.44h75.08
		c2.45,0,4.44,1.99,4.44,4.44v55.46C141.98,155.61,139.99,157.6,137.54,157.6z"/>
	<circle class="st2" cx="74.69" cy="109.87" r="8.04"/>
	<path class="st0" d="M80.98,150h53.19c0.45,0,0.82-0.37,0.82-0.82v-18.84c0-0.22-0.09-0.43-0.24-0.58l-16.49-16.49
		c-0.7-0.7-1.84-0.7-2.55,0L80.4,148.6C79.89,149.11,80.25,150,80.98,150z"/>
</g>
</svg>
