<?xml version="1.0" encoding="utf-8"?>
<!-- Generator: Adobe Illustrator 24.2.0, SVG Export Plug-In . SVG Version: 6.00 Build 0)  -->
<svg version="1.1" id="Layer_1" xmlns="http://www.w3.org/2000/svg" xmlns:xlink="http://www.w3.org/1999/xlink" x="0px" y="0px"
	 viewBox="0 0 300 300" style="enable-background:new 0 0 300 300;" xml:space="preserve">
<style type="text/css">
	.st0{fill:#D6D6D6;}
	.st1{fill:#FFFFFF;}
	.st2{fill:#F6F6F6;}
	.st3{fill:#999999;}
</style>
<path class="st0" d="M275.43,289.5H24.57c-7.77,0-14.07-6.3-14.07-14.07V24.57c0-7.77,6.3-14.07,14.07-14.07h250.86
	c7.77,0,14.07,6.3,14.07,14.07v250.86C289.5,283.2,283.2,289.5,275.43,289.5z"/>
<circle class="st1" cx="37.3" cy="36.25" r="8"/>
<circle class="st1" cx="68.41" cy="36.25" r="8"/>
<circle class="st1" cx="99.52" cy="36.25" r="8"/>
<path class="st2" d="M261.04,271.75H39.37c-5.34,0-9.67-4.33-9.67-9.67V72.42c0-5.34,4.33-9.67,9.67-9.67h221.67
	c5.34,0,9.67,4.33,9.67,9.67v189.67C270.7,267.42,266.38,271.75,261.04,271.75z"/>
<path class="st0" d="M221.09,101.83h-56.84c-2.37,0-4.29-1.92-4.29-4.29l0,0c0-2.37,1.92-4.29,4.29-4.29h56.84
	c2.37,0,4.29,1.92,4.29,4.29l0,0C225.38,99.91,223.46,101.83,221.09,101.83z"/>
<path class="st0" d="M238.1,129.71h-73.85c-2.37,0-4.29-1.92-4.29-4.29l0,0c0-2.37,1.92-4.29,4.29-4.29h73.85
	c2.37,0,4.29,1.92,4.29,4.29l0,0C242.39,127.79,240.47,129.71,238.1,129.71z"/>
<path class="st0" d="M228.83,157.6h-64.59c-2.37,0-4.29-1.92-4.29-4.29l0,0c0-2.37,1.92-4.29,4.29-4.29h64.59
	c2.37,0,4.29,1.92,4.29,4.29l0,0C233.12,155.68,231.2,157.6,228.83,157.6z"/>
<path class="st0" d="M238.1,186.55H62.36c-2.37,0-4.29-1.92-4.29-4.29l0,0c0-2.37,1.92-4.29,4.29-4.29H238.1
	c2.37,0,4.29,1.92,4.29,4.29l0,0C242.39,184.63,240.47,186.55,238.1,186.55z"/>
<path class="st0" d="M228.83,241.25H62.31c-2.37,0-4.29-1.92-4.29-4.29l0,0c0-2.37,1.92-4.29,4.29-4.29h166.53
	c2.37,0,4.29,1.92,4.29,4.29l0,0C233.12,239.33,231.2,241.25,228.83,241.25z"/>
<path class="st0" d="M217.36,213.37H62.31c-2.37,0-4.29-1.92-4.29-4.29l0,0c0-2.37,1.92-4.29,4.29-4.29h155.05
	c2.37,0,4.29,1.92,4.29,4.29l0,0C221.65,211.45,219.73,213.37,217.36,213.37z"/>
<g>
	<path class="st3" d="M138.06,157.59H62.98c-2.45,0-4.44-1.99-4.44-4.44V97.69c0-2.45,1.99-4.44,4.44-4.44h75.08
		c2.45,0,4.44,1.99,4.44,4.44v55.46C142.5,155.61,140.51,157.59,138.06,157.59z"/>
	<circle class="st2" cx="75.21" cy="109.87" r="8.04"/>
	<path class="st0" d="M81.5,150h53.19c0.45,0,0.82-0.37,0.82-0.82v-18.84c0-0.22-0.09-0.43-0.24-0.58l-16.49-16.49
		c-0.7-0.7-1.84-0.7-2.55,0l-35.32,35.32C80.41,149.11,80.77,150,81.5,150z"/>
</g>
</svg>
