<?xml version="1.0" encoding="utf-8"?>
<!-- Generator: Adobe Illustrator 24.2.0, SVG Export Plug-In . SVG Version: 6.00 Build 0)  -->
<svg version="1.1" id="Layer_1" xmlns="http://www.w3.org/2000/svg" xmlns:xlink="http://www.w3.org/1999/xlink" x="0px" y="0px"
	 viewBox="0 0 300 300" style="enable-background:new 0 0 300 300;" xml:space="preserve">
<style type="text/css">
	.st0{fill:#D6D6D6;}
	.st1{fill:#FFFFFF;}
	.st2{fill:#F6F6F6;}
	.st3{fill:#999999;}
</style>
<path class="st0" d="M275.43,289.5H24.57c-7.77,0-14.07-6.3-14.07-14.07V24.57c0-7.77,6.3-14.07,14.07-14.07h250.86
	c7.77,0,14.07,6.3,14.07,14.07v250.86C289.5,283.2,283.2,289.5,275.43,289.5z"/>
<circle class="st1" cx="37.3" cy="36.25" r="8"/>
<circle class="st1" cx="68.41" cy="36.25" r="8"/>
<circle class="st1" cx="99.52" cy="36.25" r="8"/>
<path class="st2" d="M261.33,272.12H39.67c-5.34,0-9.67-4.33-9.67-9.67V72.79c0-5.34,4.33-9.67,9.67-9.67h221.67
	c5.34,0,9.67,4.33,9.67,9.67v189.67C271,267.8,266.67,272.12,261.33,272.12z"/>
<g>
	<path class="st0" d="M238.71,185.83h-90.42c-2.37,0-4.29-1.92-4.29-4.29l0,0c0-2.37,1.92-4.29,4.29-4.29h90.42
		c2.37,0,4.29,1.92,4.29,4.29l0,0C243,183.91,241.08,185.83,238.71,185.83z"/>
	<path class="st0" d="M238.71,213.71h-90.42c-2.37,0-4.29-1.92-4.29-4.29v0c0-2.37,1.92-4.29,4.29-4.29h90.42
		c2.37,0,4.29,1.92,4.29,4.29v0C243,211.79,241.08,213.71,238.71,213.71z"/>
	<path class="st0" d="M238.71,241.71h-90.42c-2.37,0-4.29-1.92-4.29-4.29v0c0-2.37,1.92-4.29,4.29-4.29h90.42
		c2.37,0,4.29,1.92,4.29,4.29v0C243,239.79,241.08,241.71,238.71,241.71z"/>
	<path class="st3" d="M238.26,157.6H63.17c-2.45,0-4.44-1.99-4.44-4.44V97.69c0-2.45,1.99-4.44,4.44-4.44h175.1
		c2.45,0,4.44,1.99,4.44,4.44v55.46C242.71,155.61,240.72,157.6,238.26,157.6z"/>
	<circle class="st2" cx="143.61" cy="115.96" r="8.96"/>
	<path class="st0" d="M231.99,149H69.45c-0.9,0-1.35-1.09-0.72-1.73l23.74-23.74c1.12-1.12,2.92-1.12,4.04,0l18.69,18.69
		c1.12,1.12,2.92,1.12,4.04,0l10.76-10.76c1.12-1.12,2.92-1.12,4.04,0l12.88,12.88c1.12,1.12,2.92,1.12,4.04,0l16.58-16.58
		c1.12-1.12,2.92-1.12,4.04,0l9.18,9.18c1.12,1.12,2.92,1.12,4.04,0l21.86-21.86c1.12-1.12,2.92-1.12,4.04,0l22,22
		c0.19,0.19,0.3,0.45,0.3,0.72v10.2C233,148.55,232.55,149,231.99,149z"/>
	<path class="st0" d="M122.7,242H61.3c-1.82,0-3.3-1.48-3.3-3.3V181.3c0-1.82,1.48-3.3,3.3-3.3h61.41c1.82,0,3.3,1.48,3.3,3.3v57.41
		C126,240.52,124.52,242,122.7,242z"/>
</g>
</svg>
