<?xml version="1.0" encoding="utf-8"?>
<!-- Generator: Adobe Illustrator 24.2.0, SVG Export Plug-In . SVG Version: 6.00 Build 0)  -->
<svg version="1.1" id="Layer_1" xmlns="http://www.w3.org/2000/svg" xmlns:xlink="http://www.w3.org/1999/xlink" x="0px" y="0px"
	 viewBox="0 0 300 300" style="enable-background:new 0 0 300 300;" xml:space="preserve">
<style type="text/css">
	.st0{fill:#D6D6D6;}
	.st1{fill:#FFFFFF;}
	.st2{fill:#F6F6F6;}
	.st3{fill:#999999;}
</style>
<path class="st0" d="M275.43,289.5H24.57c-7.77,0-14.07-6.3-14.07-14.07V24.57c0-7.77,6.3-14.07,14.07-14.07h250.86
	c7.77,0,14.07,6.3,14.07,14.07v250.86C289.5,283.2,283.2,289.5,275.43,289.5z"/>
<circle class="st1" cx="37.3" cy="36.25" r="8"/>
<circle class="st1" cx="68.41" cy="36.25" r="8"/>
<circle class="st1" cx="99.52" cy="36.25" r="8"/>
<path class="st2" d="M261.31,271.98H39.64c-5.34,0-9.67-4.33-9.67-9.67V72.65c0-5.34,4.33-9.67,9.67-9.67h221.67
	c5.34,0,9.67,4.33,9.67,9.67v189.67C270.98,267.65,266.65,271.98,261.31,271.98z"/>
<g>
	<path class="st0" d="M238.71,212.83H62.25c-2.37,0-4.29-1.92-4.29-4.29l0,0c0-2.37,1.92-4.29,4.29-4.29h176.46
		c2.37,0,4.29,1.92,4.29,4.29l0,0C243,210.91,241.08,212.83,238.71,212.83z"/>
	<path class="st3" d="M157.48,102.83H62.25c-2.37,0-4.29-1.92-4.29-4.29v0c0-2.37,1.92-4.29,4.29-4.29h95.23
		c2.37,0,4.29,1.92,4.29,4.29v0C161.77,100.91,159.85,102.83,157.48,102.83z"/>
	<path class="st0" d="M238.71,240.71H62.25c-2.37,0-4.29-1.92-4.29-4.29v0c0-2.37,1.92-4.29,4.29-4.29h176.46
		c2.37,0,4.29,1.92,4.29,4.29v0C243,238.79,241.08,240.71,238.71,240.71z"/>
	<path class="st3" d="M238.26,184.6H63.17c-2.45,0-4.44-1.99-4.44-4.44v-55.46c0-2.45,1.99-4.44,4.44-4.44h175.1
		c2.45,0,4.44,1.99,4.44,4.44v55.46C242.71,182.61,240.72,184.6,238.26,184.6z"/>
	<circle class="st2" cx="143.61" cy="142.96" r="8.96"/>
	<path class="st0" d="M231.99,176H69.45c-0.9,0-1.35-1.09-0.72-1.73l23.74-23.74c1.12-1.12,2.92-1.12,4.04,0l18.69,18.69
		c1.12,1.12,2.92,1.12,4.04,0l10.76-10.76c1.12-1.12,2.92-1.12,4.04,0l12.88,12.88c1.12,1.12,2.92,1.12,4.04,0l16.58-16.58
		c1.12-1.12,2.92-1.12,4.04,0l9.18,9.18c1.12,1.12,2.92,1.12,4.04,0l21.86-21.86c1.12-1.12,2.92-1.12,4.04,0l22,22
		c0.19,0.19,0.3,0.45,0.3,0.72v10.2C233,175.55,232.55,176,231.99,176z"/>
</g>
</svg>
