<?xml version="1.0" encoding="utf-8"?>
<!-- Generator: Adobe Illustrator 24.2.0, SVG Export Plug-In . SVG Version: 6.00 Build 0)  -->
<svg version="1.1" id="Layer_1" xmlns="http://www.w3.org/2000/svg" xmlns:xlink="http://www.w3.org/1999/xlink" x="0px" y="0px"
	 viewBox="0 0 300 300" style="enable-background:new 0 0 300 300;" xml:space="preserve">
<style type="text/css">
	.st0{fill:#E5E5E5;}
	.st1{fill:#D0D2D3;}
	.st2{fill:#FFFFFF;}
	.st3{fill:#EDEDED;}
	.st4{fill:#D0D2D3;stroke:#EFEFEF;stroke-width:2;stroke-miterlimit:10;}
	.st5{clip-path:url(#SVGID_2_);}
	.st6{fill:#F7F7F7;}
	.st7{fill:#E0E0E0;}
	.st8{fill:#919191;}
	.st9{fill:#C6C6C6;}
	.st10{fill:none;stroke:#E8E8E8;stroke-width:0.4;stroke-miterlimit:10;}
	.st11{fill:#C1C1C1;}
</style>
<path class="st0" d="M88.5,98.1L88.5,98.1c-1.4,0-2.5-1.1-2.5-2.5V80.5c0-1.4,1.1-2.5,2.5-2.5l0,0c1.4,0,2.5,1.1,2.5,2.5v15.1
	C91,96.9,89.9,98.1,88.5,98.1z"/>
<path class="st0" d="M211.5,98.1L211.5,98.1c-1.4,0-2.5-1.1-2.5-2.5V80.5c0-1.4,1.1-2.5,2.5-2.5l0,0c1.4,0,2.5,1.1,2.5,2.5v15.1
	C214,96.9,212.9,98.1,211.5,98.1z"/>
<path class="st0" d="M88.5,66.1L88.5,66.1c-1.4,0-2.5-1.1-2.5-2.5V58c0-1.4,1.1-2.5,2.5-2.5l0,0c1.4,0,2.5,1.1,2.5,2.5v5.6
	C91,65,89.9,66.1,88.5,66.1z"/>
<path class="st0" d="M88.5,122L88.5,122c-1.4,0-2.5-1.1-2.5-2.5v-15.1c0-1.4,1.1-2.5,2.5-2.5l0,0c1.4,0,2.5,1.1,2.5,2.5v15.1
	C91,120.9,89.9,122,88.5,122z"/>
<path class="st1" d="M198,272.1h-96c-7.8,0-14.1-6.3-14.1-14.1V42c0-7.8,6.3-14.1,14.1-14.1h96c7.8,0,14.1,6.3,14.1,14.1v216.1
	C212.1,265.8,205.8,272.1,198,272.1z"/>
<rect x="94.1" y="49" class="st2" width="111.8" height="195"/>
<path class="st3" d="M166.6,40h-23c-1.1,0-2-0.9-2-2l0,0c0-1.1,0.9-2,2-2h23c1.1,0,2,0.9,2,2l0,0C168.6,39.1,167.6,40,166.6,40z"/>
<path class="st3" d="M135.6,40h-2.1c-1.1,0-2-0.9-2-2l0,0c0-1.1,0.9-2,2-2h2.1c1.1,0,2,0.9,2,2l0,0C137.6,39.1,136.6,40,135.6,40z"
	/>
<circle class="st4" cx="150" cy="258" r="8"/>
<g>
	<defs>
		<rect id="SVGID_1_" x="94" y="114" width="111.9" height="130"/>
	</defs>
	<clipPath id="SVGID_2_">
		<use xlink:href="#SVGID_1_"  style="overflow:visible;"/>
	</clipPath>
	<g class="st5">
		<path class="st6" d="M104.7,131c8-8.3,16.6-16.4,25.4-24.3H86.5v44.5C92.4,144.4,98.4,137.6,104.7,131z"/>
		<path class="st6" d="M99.9,173.6c-4.5,0.7-8.9,1.5-13.4,2.4v65.4c5.7-3.7,11.3-7.4,16.9-11.1c13-8.5,26.3-16.7,40.1-24.6
			C129.2,194.8,114.5,184.3,99.9,173.6z"/>
		<path class="st6" d="M169.8,163.4c-21.4,3.6-43.2,6-64.7,9.3c14.1,10.3,28.2,20.5,42,30.9c3.6-2,7.3-4.1,10.9-6.1
			c18.6-10.1,37.5-20,56.3-29.9v-11C199.4,158.8,184.5,160.9,169.8,163.4z"/>
		<path class="st6" d="M119.3,136.8c-5.8,1.1-11.7,2.2-17.6,3.3c-5.2,5.7-10.3,11.5-15.3,17.4v15.2c15.3-2.9,30.9-5.1,46.5-7.2
			C128.5,155.9,125.1,146.1,119.3,136.8z"/>
		<path class="st6" d="M209,131.7c-3.4-3.1-6.7-6.3-9.9-9.5c-7.7,1.4-15.4,2.7-23.1,4.1c4.7,10.8,7.3,20.8,9.7,31.4
			c9.5-1.5,19-2.8,28.6-4.2v-17.2C212.5,134.8,210.7,133.3,209,131.7z"/>
		<path class="st6" d="M171.4,127.1c-15.9,2.8-31.7,5.8-47.6,8.9c5.8,9.4,9.2,19.2,13.7,28.9c11.1-1.5,22.1-3,33.1-4.8
			c3.5-0.6,7-1.1,10.5-1.7C176.6,145.7,175.9,138.4,171.4,127.1z"/>
		<path class="st6" d="M170.1,124.1c8.7-1.5,17.5-3.1,26.2-4.6c-4.3-4.3-8.6-8.6-13-12.8h-47.5c-8.9,8.1-17.8,16.3-25.9,24.7
			c-1.5,1.6-3,3.2-4.5,4.8C127,132.1,148.5,128,170.1,124.1z"/>
		<path class="st6" d="M124.5,221.2c-6.5,4-12.9,8.1-19.2,12.3c-6.3,4.1-12.5,8.3-18.8,12.3V275H175
			C158,257.1,140.8,239.4,124.5,221.2z"/>
		<path class="st6" d="M157.9,201.9c-0.1-0.1-0.1-0.1-0.2-0.2c-10.2,5.6-20.1,11.4-29.8,17.3c0.2,0.1,0.4,0.2,0.6,0.4
			c16.8,18.8,34.6,37.1,52.1,55.5h33.7v-19.9C196.1,237.1,177.9,219.1,157.9,201.9z"/>
		<path class="st6" d="M214.3,249.6v-78c-17.7,9.3-35.5,18.6-53,28.1C180.1,215.9,197.2,232.7,214.3,249.6z"/>
		<path class="st6" d="M214.2,131.2C214.3,131.3,214.3,131.3,214.2,131.2l0.1-24.6H189C197.4,114.9,205.4,123.3,214.2,131.2z"/>
	</g>
</g>
<rect x="94.1" y="49" class="st7" width="111.8" height="65"/>
<path class="st8" d="M157.6,84H105c-1.1,0-2-0.9-2-2l0,0c0-1.1,0.9-2,2-2h52.6c1.1,0,2,0.9,2,2l0,0C159.6,83.1,158.7,84,157.6,84z"
	/>
<rect x="94.1" y="49" class="st9" width="111.8" height="24"/>
<g>
	<path class="st2" d="M102,55c0-0.5,0.4-1,1-1h95c0.6,0,1,0.5,1,1v12c0,0.5-0.4,1-1,1h-95c-0.6,0-1-0.5-1-1V55z"/>
</g>
<line class="st10" x1="94" y1="92" x2="206" y2="92"/>
<path class="st8" d="M157.6,105H105c-1.1,0-2-0.9-2-2l0,0c0-1.1,0.9-2,2-2h52.6c1.1,0,2,0.9,2,2l0,0
	C159.6,104.1,158.7,105,157.6,105z"/>
<circle class="st11" cx="110" cy="229" r="7"/>
<circle class="st0" cx="192" cy="229" r="7"/>
<g>
	<path class="st11" d="M138.2,154.6c0,3.8-6.9,12.1-6.9,12.1s-6.9-8.2-6.9-12.1c0-3.8,3.1-6.9,6.9-6.9
		C135.1,147.6,138.2,150.7,138.2,154.6z"/>
	<circle class="st2" cx="131.3" cy="154.8" r="3.7"/>
</g>
</svg>
