<?xml version="1.0" encoding="utf-8"?>
<!-- Generator: Adobe Illustrator 24.2.0, SVG Export Plug-In . SVG Version: 6.00 Build 0)  -->
<svg version="1.1" id="Layer_1" xmlns="http://www.w3.org/2000/svg" xmlns:xlink="http://www.w3.org/1999/xlink" x="0px" y="0px"
	 viewBox="0 0 300 300" style="enable-background:new 0 0 300 300;" xml:space="preserve">
<style type="text/css">
	.st0{fill:#FFFFFF;}
	.st1{fill:#E5E5E5;}
	.st2{fill:#D0D2D3;}
	.st3{clip-path:url(#SVGID_2_);}
	.st4{fill:#F7F7F7;}
	.st5{fill:#EDEDED;}
	.st6{fill:#D0D2D3;stroke:#EFEFEF;stroke-width:2;stroke-miterlimit:10;}
	.st7{fill:#8E8E8E;}
	.st8{fill:#C6C6C6;}
	.st9{fill:none;stroke:#C1C1C1;stroke-width:2;stroke-miterlimit:10;}
	.st10{fill:#C1C1C1;}
	.st11{fill:none;stroke:#FFFFFF;stroke-width:2;stroke-linecap:round;stroke-miterlimit:10;}
	.st12{fill:none;stroke:#C1C1C1;stroke-width:2;stroke-linecap:round;stroke-miterlimit:10;}
	.st13{fill:#F0F0F0;}
	.st14{fill:#CBCBCB;}
	.st15{fill:#666666;}
	.st16{fill:#919191;}
	.st17{fill:#CCCCCC;}
	.st18{fill:#979797;}
	.st19{fill:#C9C9C9;}
</style>
<rect x="94.1" y="49" class="st0" width="111.8" height="195"/>
<path class="st1" d="M88.5,98.1L88.5,98.1c-1.4,0-2.5-1.1-2.5-2.5V80.5c0-1.4,1.1-2.5,2.5-2.5l0,0c1.4,0,2.5,1.1,2.5,2.5v15.1
	C91,96.9,89.9,98.1,88.5,98.1z"/>
<path class="st1" d="M211.5,98.1L211.5,98.1c-1.4,0-2.5-1.1-2.5-2.5V80.5c0-1.4,1.1-2.5,2.5-2.5l0,0c1.4,0,2.5,1.1,2.5,2.5v15.1
	C214,96.9,212.9,98.1,211.5,98.1z"/>
<path class="st1" d="M88.5,66.1L88.5,66.1c-1.4,0-2.5-1.1-2.5-2.5V58c0-1.4,1.1-2.5,2.5-2.5l0,0c1.4,0,2.5,1.1,2.5,2.5v5.6
	C91,65,89.9,66.1,88.5,66.1z"/>
<path class="st1" d="M88.5,122L88.5,122c-1.4,0-2.5-1.1-2.5-2.5v-15.1c0-1.4,1.1-2.5,2.5-2.5l0,0c1.4,0,2.5,1.1,2.5,2.5v15.1
	C91,120.9,89.9,122,88.5,122z"/>
<path class="st2" d="M198,272.1h-96c-7.8,0-14.1-6.3-14.1-14.1V42c0-7.8,6.3-14.1,14.1-14.1h96c7.8,0,14.1,6.3,14.1,14.1v216.1
	C212.1,265.8,205.8,272.1,198,272.1z"/>
<rect x="94.1" y="49" class="st0" width="111.8" height="195"/>
<g>
	<defs>
		<rect id="SVGID_1_" x="94.1" y="73" width="111.8" height="171"/>
	</defs>
	<clipPath id="SVGID_2_">
		<use xlink:href="#SVGID_1_"  style="overflow:visible;"/>
	</clipPath>
	<g class="st3">
		<path class="st4" d="M104.8,95.4c8-11,16.6-21.5,25.3-32H86.6v58.6C92.5,113,98.5,104.1,104.8,95.4z"/>
		<path class="st4" d="M100,151.4c-4.5,1-8.9,2-13.4,3.1v86.1c5.7-4.8,11.3-9.7,16.9-14.6c12.9-11.2,26.3-22,40-32.4
			C129.2,179.3,114.5,165.4,100,151.4z"/>
		<path class="st4" d="M169.8,138c-21.4,4.7-43.2,7.9-64.6,12.3c14,13.5,28.2,26.9,41.9,40.6c3.6-2.7,7.2-5.4,10.9-8
			c18.5-13.3,37.4-26.3,56.2-39.3v-14.5C199.4,131.9,184.6,134.8,169.8,138z"/>
		<path class="st4" d="M119.4,103c-5.8,1.5-11.7,2.9-17.5,4.4c-5.2,7.5-10.3,15.1-15.3,22.8v19.9c15.2-3.8,30.8-6.7,46.4-9.5
			C128.6,128.1,125.2,115.2,119.4,103z"/>
		<path class="st4" d="M209,96.3c-3.4-4.1-6.7-8.3-9.9-12.5c-7.7,1.8-15.4,3.6-23.1,5.4c4.7,14.2,7.3,27.4,9.7,41.3
			c9.5-1.9,19-3.7,28.6-5.5v-22.6C212.5,100.4,210.7,98.4,209,96.3z"/>
		<path class="st4" d="M171.5,90.3c-15.9,3.7-31.7,7.7-47.5,11.6c5.8,12.3,9.2,25.3,13.7,38c11.1-2,22.1-4,33-6.3
			c3.5-0.7,7-1.5,10.5-2.2C176.7,114.7,175.9,105.1,171.5,90.3z"/>
		<path class="st4" d="M170.1,86.3c8.7-2,17.4-4.1,26.2-6.1c-4.3-5.6-8.6-11.3-13-16.9h-47.4C127,74,118.1,84.7,110,95.9
			c-1.5,2.1-3,4.2-4.5,6.3C127,96.8,148.5,91.4,170.1,86.3z"/>
		<path class="st4" d="M124.6,214c-6.5,5.3-12.9,10.6-19.2,16.1c-6.2,5.4-12.5,10.9-18.8,16.2v38.5H175
			C158.1,261.3,140.8,237.9,124.6,214z"/>
		<path class="st4" d="M158,188.7c-0.1-0.1-0.1-0.2-0.2-0.3c-10.2,7.4-20.1,15-29.8,22.8c0.2,0.1,0.4,0.3,0.6,0.6
			c16.7,24.7,34.6,48.8,52,73h33.7v-26.1C196.1,235,178,211.2,158,188.7z"/>
		<path class="st4" d="M214.3,251.4V148.8c-17.7,12.3-35.5,24.5-52.9,37C180.1,207,197.2,229.2,214.3,251.4z"/>
		<path class="st4" d="M214.2,95.7C214.2,95.7,214.3,95.7,214.2,95.7l0.1-32.3H189C197.4,74.1,205.4,85.2,214.2,95.7z"/>
	</g>
</g>
<path class="st5" d="M166.6,40h-23c-1.1,0-2-0.9-2-2l0,0c0-1.1,0.9-2,2-2h23c1.1,0,2,0.9,2,2l0,0C168.6,39.1,167.6,40,166.6,40z"/>
<path class="st5" d="M135.6,40h-2.1c-1.1,0-2-0.9-2-2l0,0c0-1.1,0.9-2,2-2h2.1c1.1,0,2,0.9,2,2l0,0C137.6,39.1,136.6,40,135.6,40z"
	/>
<circle class="st6" cx="150" cy="258" r="8"/>
<circle class="st10" cx="110" cy="229" r="7"/>
<circle class="st1" cx="192" cy="229" r="7"/>
<rect x="94.1" y="49" class="st8" width="111.8" height="24"/>
<g>
	<path class="st0" d="M102,55c0-0.5,0.4-1,1-1h95c0.6,0,1,0.5,1,1v12c0,0.5-0.4,1-1,1h-95c-0.6,0-1-0.5-1-1V55z"/>
</g>
<g>
	<path class="st10" d="M177.5,123.8c0,3.8-6.9,12.1-6.9,12.1s-6.9-8.2-6.9-12.1c0-3.8,3.1-6.9,6.9-6.9
		C174.4,116.9,177.5,120,177.5,123.8z"/>
	<circle class="st0" cx="170.5" cy="124" r="3.7"/>
</g>
</svg>
