<?xml version="1.0" encoding="utf-8"?>
<!-- Generator: Adobe Illustrator 24.2.0, SVG Export Plug-In . SVG Version: 6.00 Build 0)  -->
<svg version="1.1" id="Layer_1" xmlns="http://www.w3.org/2000/svg" xmlns:xlink="http://www.w3.org/1999/xlink" x="0px" y="0px"
	 viewBox="0 0 300 300" style="enable-background:new 0 0 300 300;" xml:space="preserve">
<style type="text/css">
	.st0{fill:#E5E5E5;}
	.st1{fill:#D0D2D3;}
	.st2{fill:#FFFFFF;}
	.st3{fill:#EDEDED;}
	.st4{fill:#D0D2D3;stroke:#EFEFEF;stroke-width:2;stroke-miterlimit:10;}
	.st5{fill:#EFEFEF;}
	.st6{fill:#BDBDBD;}
	.st7{fill:#DEDFE3;}
	.st8{fill:none;stroke:#565656;stroke-width:1.5;stroke-miterlimit:10;}
	.st9{fill:#565656;}
	.st10{fill:#E7E7E7;}
	.st11{fill:#C6C6C6;}
	.st12{fill:none;stroke:#E7E7E7;stroke-width:0.3;stroke-miterlimit:10;}
	.st13{fill:#D8D8D8;}
</style>
<path class="st0" d="M88.5,98.1L88.5,98.1c-1.4,0-2.5-1.1-2.5-2.5V80.5c0-1.4,1.1-2.5,2.5-2.5l0,0c1.4,0,2.5,1.1,2.5,2.5v15.1
	C91,96.9,89.9,98.1,88.5,98.1z"/>
<path class="st0" d="M211.5,98.1L211.5,98.1c-1.4,0-2.5-1.1-2.5-2.5V80.5c0-1.4,1.1-2.5,2.5-2.5l0,0c1.4,0,2.5,1.1,2.5,2.5v15.1
	C214,96.9,212.9,98.1,211.5,98.1z"/>
<path class="st0" d="M88.5,66.1L88.5,66.1c-1.4,0-2.5-1.1-2.5-2.5V58c0-1.4,1.1-2.5,2.5-2.5l0,0c1.4,0,2.5,1.1,2.5,2.5v5.6
	C91,65,89.9,66.1,88.5,66.1z"/>
<path class="st0" d="M88.5,122L88.5,122c-1.4,0-2.5-1.1-2.5-2.5v-15.1c0-1.4,1.1-2.5,2.5-2.5l0,0c1.4,0,2.5,1.1,2.5,2.5v15.1
	C91,120.9,89.9,122,88.5,122z"/>
<path class="st1" d="M198,272.1h-96c-7.8,0-14.1-6.3-14.1-14.1V42c0-7.8,6.3-14.1,14.1-14.1h96c7.8,0,14.1,6.3,14.1,14.1v216.1
	C212.1,265.8,205.8,272.1,198,272.1z"/>
<rect x="94.1" y="49" class="st2" width="111.8" height="195"/>
<path class="st3" d="M166.6,40h-23c-1.1,0-2-0.9-2-2l0,0c0-1.1,0.9-2,2-2h23c1.1,0,2,0.9,2,2l0,0C168.6,39.1,167.6,40,166.6,40z"/>
<path class="st3" d="M135.6,40h-2.1c-1.1,0-2-0.9-2-2l0,0c0-1.1,0.9-2,2-2h2.1c1.1,0,2,0.9,2,2l0,0C137.6,39.1,136.6,40,135.6,40z"
	/>
<circle class="st4" cx="150" cy="258" r="8"/>
<rect x="94.1" y="49" class="st5" width="111.8" height="14"/>
<rect x="94.1" y="154.7" class="st5" width="111.8" height="89.3"/>
<path class="st6" d="M108.1,57.5h-6.6c-1.1,0-2-0.9-2-2v0c0-1.1,0.9-2,2-2h6.6c1.1,0,2,0.9,2,2v0C110.1,56.6,109.2,57.5,108.1,57.5z
	"/>
<path class="st6" d="M198.7,57.5h-6.6c-1.1,0-2-0.9-2-2v0c0-1.1,0.9-2,2-2h6.6c1.1,0,2,0.9,2,2v0C200.7,56.6,199.8,57.5,198.7,57.5z
	"/>
<path class="st6" d="M166.6,57.5h-30.3c-1.1,0-2-0.9-2-2v0c0-1.1,0.9-2,2-2h30.3c1.1,0,2,0.9,2,2v0
	C168.6,56.6,167.7,57.5,166.6,57.5z"/>
<g>
	<path class="st10" d="M120.8,85.7c0,0.6-0.4,1-1,1h-19.4c-0.6,0-1-0.4-1-1V69.9c0-0.5,0.4-1,1-1h19.4c0.6,0,1,0.5,1,1V85.7z"/>
</g>
<line class="st12" x1="125.9" y1="86.7" x2="205.9" y2="86.7"/>
<g>
	<rect x="99.4" y="190.8" class="st2" width="7" height="8.5"/>
	<rect x="110.3" y="190.8" class="st2" width="7.2" height="8.8"/>
	<rect x="120.4" y="190.8" class="st2" width="7" height="8.5"/>
	<rect x="130.8" y="190.8" class="st2" width="7" height="8.5"/>
	<rect x="141.3" y="190.8" class="st2" width="7" height="8.5"/>
	<rect x="151.8" y="190.8" class="st2" width="7" height="8.5"/>
	<rect x="162.3" y="190.8" class="st2" width="7" height="8.5"/>
	<rect x="172.7" y="190.8" class="st2" width="7" height="8.5"/>
	<rect x="183.2" y="190.8" class="st2" width="7" height="8.5"/>
	<rect x="193.7" y="190.8" class="st2" width="7" height="8.5"/>
	<rect x="110.3" y="203.8" class="st2" width="7.2" height="8.8"/>
	<rect x="120.4" y="203.8" class="st2" width="7" height="8.5"/>
	<rect x="130.8" y="203.8" class="st2" width="7" height="8.5"/>
	<rect x="141.3" y="203.8" class="st2" width="7" height="8.5"/>
	<rect x="151.8" y="203.8" class="st2" width="7" height="8.5"/>
	<rect x="162.3" y="203.8" class="st2" width="7" height="8.5"/>
	<rect x="172.7" y="203.8" class="st2" width="7" height="8.5"/>
	<rect x="183.2" y="203.8" class="st2" width="7" height="8.5"/>
	<rect x="183.2" y="216.8" class="st13" width="16.9" height="8.5"/>
	<rect x="172.7" y="229.5" class="st11" width="27.3" height="8.5"/>
	<rect x="99.6" y="216.8" class="st11" width="18" height="8.5"/>
	<rect x="99.6" y="229.5" class="st13" width="18" height="8.5"/>
	<rect x="120.4" y="229.5" class="st2" width="7" height="8.5"/>
	<rect x="120.4" y="216.8" class="st2" width="7" height="8.5"/>
	<rect x="130.8" y="216.8" class="st2" width="7" height="8.5"/>
	<rect x="130.8" y="229.5" class="st2" width="7" height="8.5"/>
	<rect x="141.3" y="216.8" class="st2" width="7" height="8.5"/>
	<rect x="141.3" y="229.5" class="st2" width="27.9" height="8.5"/>
	<rect x="151.8" y="216.8" class="st2" width="7" height="8.5"/>
	<rect x="162.3" y="216.8" class="st2" width="7" height="8.5"/>
	<rect x="172.7" y="216.8" class="st2" width="7" height="8.5"/>
</g>
<rect x="99.4" y="162.6" class="st2" width="101.3" height="19.1"/>
</svg>
