<?xml version="1.0" encoding="utf-8"?>
<!-- Generator: Adobe Illustrator 24.2.0, SVG Export Plug-In . SVG Version: 6.00 Build 0)  -->
<svg version="1.1" id="Layer_1" xmlns="http://www.w3.org/2000/svg" xmlns:xlink="http://www.w3.org/1999/xlink" x="0px" y="0px"
	 viewBox="0 0 300 300" style="enable-background:new 0 0 300 300;" xml:space="preserve">
<style type="text/css">
	.st0{fill:#E5E5E5;}
	.st1{fill:#D0D2D3;}
	.st2{fill:#E0E0E0;}
	.st3{fill:#EDEDED;}
	.st4{fill:#D0D2D3;stroke:#EFEFEF;stroke-width:2;stroke-miterlimit:10;}
	.st5{fill:#FFFFFF;}
	.st6{fill:#919191;}
	.st7{fill:none;stroke:#D1D1D1;stroke-width:0.3;stroke-miterlimit:10;}
	.st8{fill:#EFEFEF;}
</style>
<path class="st0" d="M88.5,98.1L88.5,98.1c-1.4,0-2.5-1.1-2.5-2.5V80.5c0-1.4,1.1-2.5,2.5-2.5l0,0c1.4,0,2.5,1.1,2.5,2.5v15.1
	C91,96.9,89.9,98.1,88.5,98.1z"/>
<path class="st0" d="M211.5,98.1L211.5,98.1c-1.4,0-2.5-1.1-2.5-2.5V80.5c0-1.4,1.1-2.5,2.5-2.5l0,0c1.4,0,2.5,1.1,2.5,2.5v15.1
	C214,96.9,212.9,98.1,211.5,98.1z"/>
<path class="st0" d="M88.5,66.1L88.5,66.1c-1.4,0-2.5-1.1-2.5-2.5V58c0-1.4,1.1-2.5,2.5-2.5l0,0c1.4,0,2.5,1.1,2.5,2.5v5.6
	C91,65,89.9,66.1,88.5,66.1z"/>
<path class="st0" d="M88.5,122L88.5,122c-1.4,0-2.5-1.1-2.5-2.5v-15.1c0-1.4,1.1-2.5,2.5-2.5l0,0c1.4,0,2.5,1.1,2.5,2.5v15.1
	C91,120.9,89.9,122,88.5,122z"/>
<path class="st1" d="M198,272.1h-96c-7.8,0-14.1-6.3-14.1-14.1V42c0-7.8,6.3-14.1,14.1-14.1h96c7.8,0,14.1,6.3,14.1,14.1v216.1
	C212.1,265.8,205.8,272.1,198,272.1z"/>
<rect x="94.1" y="49" class="st2" width="111.8" height="195"/>
<path class="st3" d="M166.6,40h-23c-1.1,0-2-0.9-2-2l0,0c0-1.1,0.9-2,2-2h23c1.1,0,2,0.9,2,2l0,0C168.6,39.1,167.6,40,166.6,40z"/>
<path class="st3" d="M135.6,40h-2.1c-1.1,0-2-0.9-2-2l0,0c0-1.1,0.9-2,2-2h2.1c1.1,0,2,0.9,2,2l0,0C137.6,39.1,136.6,40,135.6,40z"
	/>
<circle class="st4" cx="150" cy="258" r="8"/>
<polygon class="st5" points="181.3,192 197,192 189.2,201.4 181.3,210.8 173.5,201.4 165.6,192 "/>
<g>
	<path class="st5" d="M198.7,200.9c0,0.6-0.4,1-1,1H103c-0.6,0-1-0.4-1-1V75.7c0-0.5,0.4-1,1-1h94.7c0.6,0,1,0.5,1,1V200.9z"/>
</g>
<g>
	<path class="st6" d="M171.9,89.9h-42.3c-1.1,0-2-0.9-2-2v0c0-1.1,0.9-2,2-2h42.3c1.1,0,2,0.9,2,2v0C173.9,89.1,173,89.9,171.9,89.9
		z"/>
	<path class="st6" d="M182.5,100H119c-1.1,0-2-0.9-2-2v0c0-1.1,0.9-2,2-2h63.5c1.1,0,2,0.9,2,2v0C184.5,99.1,183.6,100,182.5,100z"
		/>
</g>
<line class="st7" x1="102" y1="112.2" x2="198.7" y2="112.2"/>
<rect x="108" y="118.4" class="st8" width="83.8" height="13.4"/>
<rect x="108" y="139.4" class="st8" width="83.8" height="13.4"/>
<rect x="108" y="160.4" class="st8" width="83.8" height="13.4"/>
<rect x="108" y="181.5" class="st8" width="83.8" height="13.4"/>
<rect x="94" y="223" class="st5" width="112" height="21"/>
<rect x="155" y="227.5" class="st8" width="42.9" height="12.3"/>
</svg>
